<svg width="204" height="204" viewBox="0 0 204 204" fill="none" xmlns="http://www.w3.org/2000/svg">
<circle cx="102" cy="102" r="101.25" stroke="#1C78AB" stroke-width="1.5"/>
<path fill-rule="evenodd" clip-rule="evenodd" d="M87.6361 135.756L69.1348 146.405L87.6361 157.054V135.756Z" fill="#213D7A"/>
<path fill-rule="evenodd" clip-rule="evenodd" d="M87.6361 93.1597L69.1348 103.808L87.6361 114.457V93.1597Z" fill="#6BC2D1"/>
<path fill-rule="evenodd" clip-rule="evenodd" d="M75.4252 56.6485L56.9238 67.2973L75.4252 77.9461V56.6485Z" fill="#0AA1C7"/>
<path fill-rule="evenodd" clip-rule="evenodd" d="M69.1328 103.809L87.6341 114.458L69.1328 125.107V103.809Z" fill="#0AA1C7"/>
<path fill-rule="evenodd" clip-rule="evenodd" d="M69.1328 125.108L87.6341 135.757L69.1328 146.405V125.108Z" fill="#0AA1C7"/>
<path fill-rule="evenodd" clip-rule="evenodd" d="M66.0801 79.4679L84.5814 90.1167L66.0801 100.766V79.4679Z" fill="#213D7A"/>
<path fill-rule="evenodd" clip-rule="evenodd" d="M87.6348 114.458L106.136 125.107L87.6348 135.756V114.458Z" fill="#213D7A"/>
<path fill-rule="evenodd" clip-rule="evenodd" d="M87.6348 135.756L106.136 146.405L87.6348 157.054V135.756Z" fill="#1775AB"/>
<path fill-rule="evenodd" clip-rule="evenodd" d="M87.6348 93.1597L106.136 103.808L87.6348 114.457V93.1597Z" fill="#0AA1C7"/>
<path fill-rule="evenodd" clip-rule="evenodd" d="M87.6348 71.8612L106.136 82.51L87.6348 93.1588V71.8612Z" fill="#1775AB"/>
<path fill-rule="evenodd" clip-rule="evenodd" d="M106.138 125.108L87.6367 135.757L106.138 146.405V125.108Z" fill="#6BC2D1"/>
<path fill-rule="evenodd" clip-rule="evenodd" d="M106.138 103.809L87.6367 114.458L106.138 125.107V103.809Z" fill="#6BC2D1"/>
<path fill-rule="evenodd" clip-rule="evenodd" d="M100.035 46L81.5332 56.6488L100.035 67.2976V46Z" fill="#6BC2D1"/>
<path fill-rule="evenodd" clip-rule="evenodd" d="M50.627 114.458L69.1283 125.107L50.627 135.756V114.458Z" fill="#213D7A"/>
<path fill-rule="evenodd" clip-rule="evenodd" d="M69.1322 125.108L50.6309 135.757L69.1322 146.405V125.108Z" fill="#6BC2D1"/>
<path fill-rule="evenodd" clip-rule="evenodd" d="M124.643 135.756L143.144 146.405L124.643 157.054V135.756Z" fill="#213D7A"/>
<path fill-rule="evenodd" clip-rule="evenodd" d="M124.643 93.1597L143.144 103.808L124.643 114.457V93.1597Z" fill="#0AA1C7"/>
<path fill-rule="evenodd" clip-rule="evenodd" d="M124.643 71.8612L143.144 82.51L124.643 93.1588V71.8612Z" fill="#213D7A"/>
<path fill-rule="evenodd" clip-rule="evenodd" d="M143.148 103.809L124.646 114.458L143.148 125.107V103.809Z" fill="#6BC2D1"/>
<path fill-rule="evenodd" clip-rule="evenodd" d="M143.148 82.5112L124.646 93.16L143.148 103.809V82.5112Z" fill="#1775AB"/>
<path fill-rule="evenodd" clip-rule="evenodd" d="M143.148 125.108L124.646 135.757L143.148 146.405V125.108Z" fill="#6BC2D1"/>
<path fill-rule="evenodd" clip-rule="evenodd" d="M124.644 114.458L106.143 125.107L124.644 135.756V114.458Z" fill="#213D7A"/>
<path fill-rule="evenodd" clip-rule="evenodd" d="M124.644 135.756L106.143 146.405L124.644 157.054V135.756Z" fill="#1775AB"/>
<path fill-rule="evenodd" clip-rule="evenodd" d="M124.644 93.1597L106.143 103.808L124.644 114.457V93.1597Z" fill="#6BC2D1"/>
<path fill-rule="evenodd" clip-rule="evenodd" d="M124.644 71.8612L106.143 82.51L124.644 93.1588V71.8612Z" fill="#6BC2D1"/>
<path fill-rule="evenodd" clip-rule="evenodd" d="M106.141 125.108L124.642 135.757L106.141 146.405V125.108Z" fill="#0AA1C7"/>
<path fill-rule="evenodd" clip-rule="evenodd" d="M106.141 103.809L124.642 114.458L106.141 125.107V103.809Z" fill="#0AA1C7"/>
<path fill-rule="evenodd" clip-rule="evenodd" d="M106.141 56.6485L124.642 67.2973L106.141 77.9461V56.6485Z" fill="#0AA1C7"/>
<path fill-rule="evenodd" clip-rule="evenodd" d="M161.652 114.458L143.15 125.107L161.652 135.756V114.458Z" fill="#1775AB"/>
<path fill-rule="evenodd" clip-rule="evenodd" d="M143.146 125.108L161.648 135.757L143.146 146.405V125.108Z" fill="#0AA1C7"/>
<path fill-rule="evenodd" clip-rule="evenodd" d="M143.146 103.809L161.648 114.458L143.146 125.107V103.809Z" fill="#213D7A"/>
<path fill-rule="evenodd" clip-rule="evenodd" d="M61.5013 93.1597L43 103.808L61.5013 114.457V93.1597Z" fill="#1775AB"/>
</svg>
