<svg width="35" height="27" viewBox="0 0 35 27" fill="none" xmlns="http://www.w3.org/2000/svg">
<path d="M3.90312 23.0621C3.0756 23.0621 2.51876 23.6808 2.51876 24.4762C2.51876 25.2717 3.0756 25.8904 3.90312 25.8904C4.73065 25.8904 5.28748 25.2717 5.28748 24.4762C5.27975 23.6808 4.72291 23.0621 3.90312 23.0621ZM3.71751 22.1855C4.38262 22.1855 4.93946 22.5096 5.20241 22.8632V22.2739H6.22328V26.6859H5.43443C5.37295 26.6857 5.31404 26.6624 5.27057 26.621C5.2271 26.5796 5.2026 26.5235 5.20241 26.465V26.0967C4.93946 26.4502 4.39036 26.7743 3.71751 26.7743C2.44916 26.7743 1.48242 25.7431 1.48242 24.4836C1.48242 23.2241 2.44142 22.1855 3.71751 22.1855ZM7.38336 22.2739H8.40423V22.8705C8.68265 22.4286 9.20856 22.1855 9.8118 22.1855C10.8868 22.1855 11.5829 22.9074 11.5829 24.0269V26.6859H10.8017C10.7403 26.6857 10.6813 26.6624 10.6379 26.621C10.5944 26.5796 10.5699 26.5235 10.5697 26.465V24.189C10.5697 23.4893 10.1985 23.0694 9.60298 23.0694C8.93014 23.0694 8.40423 23.5703 8.40423 24.5131V26.6859H7.62311C7.56163 26.6857 7.50273 26.6624 7.45926 26.621C7.41578 26.5796 7.39128 26.5235 7.3911 26.465L7.38336 22.2739ZM14.8001 23.0621C13.9726 23.0621 13.4158 23.6808 13.4158 24.4762C13.4158 25.2717 13.9726 25.8904 14.8001 25.8904C15.6277 25.8904 16.1845 25.2717 16.1845 24.4762C16.1845 23.6808 15.6277 23.0621 14.8001 23.0621ZM14.6145 22.1855C15.2796 22.1855 15.8365 22.5096 16.0994 22.8632V20.0643H17.1203V26.6859H16.3392C16.2777 26.6857 16.2188 26.6624 16.1753 26.621C16.1319 26.5796 16.1073 26.5235 16.1072 26.465V26.0967C15.8442 26.4502 15.2951 26.7743 14.6223 26.7743C13.3539 26.7743 12.3872 25.7431 12.3872 24.4836C12.3872 23.2241 13.3462 22.1855 14.6145 22.1855ZM18.2804 22.2739H19.3013V23.0621C19.3909 22.8208 19.5562 22.6117 19.7747 22.4628C19.9933 22.3139 20.2545 22.2326 20.5232 22.2297C20.6557 22.2274 20.7881 22.2397 20.9176 22.2666V23.2609C20.753 23.2084 20.5808 23.1811 20.4072 23.1799C19.8272 23.1799 19.2935 23.6513 19.2935 24.5278V26.6786H18.5124C18.4509 26.6784 18.392 26.655 18.3485 26.6136C18.3051 26.5722 18.2806 26.5161 18.2804 26.4576V22.2739ZM23.6632 25.8683C24.4752 25.8683 25.0553 25.257 25.0553 24.4762C25.0553 23.6881 24.4829 23.0842 23.6632 23.0842C22.8356 23.0842 22.2633 23.6955 22.2633 24.4762C22.2711 25.2644 22.8356 25.8683 23.6632 25.8683ZM23.6632 26.7743C23.1873 26.7707 22.7233 26.633 22.3296 26.3785C21.9358 26.124 21.6301 25.7642 21.4508 25.3444C21.2715 24.9246 21.2268 24.4637 21.3222 24.0197C21.4176 23.5757 21.649 23.1686 21.9871 22.8497C22.3251 22.5308 22.7548 22.3144 23.2219 22.2278C23.6889 22.1412 24.1725 22.1882 24.6115 22.363C25.0505 22.5377 25.4254 22.8324 25.6888 23.2098C25.9522 23.5872 26.0924 24.0304 26.0916 24.4836C26.0932 24.7867 26.0313 25.0871 25.9095 25.3672C25.7878 25.6472 25.6086 25.9013 25.3824 26.1146C25.1563 26.3279 24.8878 26.4961 24.5926 26.6094C24.2974 26.7227 23.9814 26.7787 23.6632 26.7743ZM26.9191 22.2739H27.94V26.6859H27.1589C27.0974 26.6857 27.0385 26.6624 26.995 26.621C26.9515 26.5796 26.927 26.5235 26.9268 26.465L26.9191 22.2739ZM27.4295 21.309C27.2475 21.3074 27.0734 21.2378 26.9447 21.1152C26.816 20.9927 26.7429 20.8269 26.7412 20.6535C26.7449 20.4821 26.8191 20.3189 26.9478 20.199C27.0765 20.0792 27.2495 20.0123 27.4295 20.0127C27.61 20.0127 27.7832 20.081 27.9108 20.2025C28.0384 20.3241 28.1101 20.489 28.1101 20.6609C28.1101 20.8328 28.0384 20.9976 27.9108 21.1192C27.7832 21.2408 27.61 21.309 27.4295 21.309ZM31.1959 23.0621C30.3684 23.0621 29.8116 23.6808 29.8116 24.4762C29.8116 25.2717 30.3684 25.8904 31.1959 25.8904C32.0235 25.8904 32.5803 25.2717 32.5803 24.4762C32.5648 23.6808 32.0235 23.0621 31.1959 23.0621ZM31.0103 22.1855C31.6754 22.1855 32.2323 22.5096 32.4952 22.8632V20.0643H33.5161V26.6859H32.735C32.6735 26.6857 32.6146 26.6624 32.5711 26.621C32.5277 26.5796 32.5031 26.5235 32.503 26.465V26.0967C32.24 26.4502 31.6909 26.7743 31.0181 26.7743C29.7497 26.7743 28.783 25.7431 28.783 24.4836C28.783 23.2241 29.742 22.1855 31.0103 22.1855Z" fill="black"/>
<path d="M25.3491 5.25948L28.0173 0.862218C28.0889 0.741225 28.1075 0.598264 28.0692 0.464283C28.0309 0.330303 27.9387 0.216086 27.8126 0.146359C27.6865 0.0766324 27.5367 0.057007 27.3955 0.0917319C27.2543 0.126457 27.1332 0.212738 27.0583 0.331895L24.3592 4.78071C22.2047 3.85822 19.8693 3.38125 17.507 3.38125C15.1447 3.38125 12.8093 3.85822 10.6548 4.78071L7.95567 0.331895C7.88081 0.212738 7.75968 0.126457 7.6185 0.0917319C7.47733 0.057007 7.32748 0.0766324 7.20139 0.146359C7.0753 0.216086 6.98312 0.330303 6.94481 0.464283C6.90649 0.598264 6.92512 0.741225 6.99667 0.862218L9.66486 5.25948C5.0632 7.6312 1.93872 12.0432 1.48242 17.2507H33.5006C33.0443 12.0432 29.9121 7.6312 25.3491 5.25948ZM10.1289 12.905C9.8658 12.905 9.60861 12.8307 9.38986 12.6915C9.1711 12.5522 9.0006 12.3544 8.89992 12.1229C8.79924 11.8914 8.7729 11.6367 8.82422 11.3909C8.87555 11.1452 9.00224 10.9194 9.18828 10.7423C9.37431 10.5651 9.61134 10.4444 9.86938 10.3955C10.1274 10.3467 10.3949 10.3717 10.6379 10.4676C10.881 10.5635 11.0888 10.7259 11.2349 10.9342C11.3811 11.1426 11.4591 11.3875 11.4591 11.6381C11.4591 11.9741 11.319 12.2963 11.0695 12.5339C10.82 12.7715 10.4817 12.905 10.1289 12.905ZM24.8696 12.905C24.6066 12.905 24.3494 12.8307 24.1306 12.6915C23.9119 12.5522 23.7414 12.3544 23.6407 12.1229C23.54 11.8914 23.5137 11.6367 23.565 11.3909C23.6163 11.1452 23.743 10.9194 23.929 10.7423C24.1151 10.5651 24.3521 10.4444 24.6101 10.3955C24.8682 10.3467 25.1356 10.3717 25.3787 10.4676C25.6218 10.5635 25.8295 10.7259 25.9757 10.9342C26.1219 11.1426 26.1999 11.3875 26.1999 11.6381C26.1999 11.9741 26.0597 12.2963 25.8103 12.5339C25.5608 12.7715 25.2224 12.905 24.8696 12.905Z" fill="#3DDC84"/>
</svg>
