<svg width="117" height="30" viewBox="0 0 117 30" fill="none" xmlns="http://www.w3.org/2000/svg">
<path fill-rule="evenodd" clip-rule="evenodd" d="M39.0625 22.187V8.58984H40.7869L48.9832 19.5323V8.58984H50.6225V22.187H48.898L40.7018 11.1366V22.187H39.0625Z" fill="#B52E31"/>
<path fill-rule="evenodd" clip-rule="evenodd" d="M63.9695 21.6474C62.8838 22.0575 61.7129 22.2733 60.4781 22.2733C55.6242 22.2733 53.1973 19.9208 53.1973 15.1942C53.1973 10.7265 55.5391 8.48193 60.2227 8.48193C61.5639 8.48193 62.8199 8.67618 63.9695 9.04308V10.5539C62.8199 10.1006 61.6277 9.88481 60.4143 9.88481C56.7525 9.88481 54.9217 11.6546 54.9217 15.151C54.9217 18.928 56.7312 20.8057 60.3291 20.8057C60.9039 20.8057 61.5426 20.7193 62.2451 20.5683V16.0143H63.9695V21.6474Z" fill="#B52E31"/>
<path fill-rule="evenodd" clip-rule="evenodd" d="M66.7383 16.9424V8.58984H68.4627V16.9424C68.4627 19.5539 69.74 20.8704 72.316 20.8704C74.8707 20.8704 76.1693 19.5539 76.1693 16.9424V8.58984H77.8937V16.9424C77.8937 20.5035 76.0416 22.2949 72.316 22.2949C68.5904 22.2949 66.7383 20.5035 66.7383 16.9424Z" fill="#B52E31"/>
<path fill-rule="evenodd" clip-rule="evenodd" d="M82.7049 8.58984V20.7625H89.7303V22.187H80.9805V8.58984H82.7049Z" fill="#B52E31"/>
<path fill-rule="evenodd" clip-rule="evenodd" d="M92.2217 22.1871H90.4121L97.0756 6.79858L103.739 22.1871H101.823L100.099 17.9137H95.6705L96.1389 16.4892H99.5238L97.0117 10.3382L92.2217 22.1871Z" fill="#B52E31"/>
<path fill-rule="evenodd" clip-rule="evenodd" d="M105.59 22.187V8.58984H111.317C113.871 8.58984 115.149 9.66898 115.149 11.8488C115.149 13.6186 113.893 14.9352 111.402 15.7769L116 22.187H113.722L109.464 16.0791V14.9352C112.019 14.5251 113.318 13.5323 113.318 11.9352C113.318 10.6834 112.615 10.0575 111.189 10.0575H107.357V22.187H105.59Z" fill="#B52E31"/>
<path fill-rule="evenodd" clip-rule="evenodd" d="M0 4.96403L13.7314 0L27.8248 4.8777L25.5469 23.2878L13.7314 29.9137L2.10762 23.3741L0 4.96403Z" fill="#E23237"/>
<path fill-rule="evenodd" clip-rule="evenodd" d="M27.8238 4.8777L13.7305 0V29.9137L25.5459 23.2878L27.8238 4.8777Z" fill="#B52E31"/>
<path fill-rule="evenodd" clip-rule="evenodd" d="M13.7516 3.49634L5.19336 22.7913L8.38672 22.7266L10.1111 18.3668H13.7516H17.7539L19.6273 22.7697L22.6717 22.8345L13.7516 3.49634ZM13.7729 9.69058L16.6682 15.8201H13.9006H13.7516H11.2395L13.7729 9.69058Z" fill="white"/>
</svg>
