<svg width="60" height="60" viewBox="0 0 60 60" fill="none" xmlns="http://www.w3.org/2000/svg">
<rect width="60" height="60" fill="#239EBE"/>
<mask id="path-2-inside-1" fill="white">
<path d="M43.1336 26.119C43.2829 25.5849 43.3584 25.0335 43.3584 24.4734C43.3584 21.1093 40.6211 18.3724 37.2564 18.3724C37.0144 18.3724 36.7746 18.3863 36.5387 18.4138C36.056 17.2128 35.257 16.1759 34.2053 15.3924C32.9824 14.4815 31.5279 14 29.9991 14C28.4703 14 27.0159 14.4815 25.7929 15.3924C24.7413 16.1759 23.9423 17.2127 23.4595 18.4136C23.2242 18.3862 22.9843 18.3724 22.7418 18.3724C19.3782 18.3724 16.6416 21.1093 16.6416 24.4734C16.6416 25.0335 16.7171 25.5849 16.8664 26.119C15.394 27.0384 14.5 28.634 14.5 30.4013C14.5 33.1881 16.7669 35.4553 19.5534 35.4553H20.5103V37.4877C20.5103 38.2173 21.1037 38.8108 21.8331 38.8108H22.0801C22.248 39.3906 22.4796 39.9492 22.7721 40.4799L22.5989 40.6532C22.3486 40.9019 22.2104 41.2339 22.2098 41.588C22.2092 41.9429 22.3469 42.2764 22.5971 42.5267L23.9823 43.9139C24.4994 44.4277 25.3387 44.4269 25.8525 43.9131L26.0291 43.7372C26.5593 44.0293 27.1173 44.2604 27.6966 44.4282V44.6752C27.6966 45.4057 28.2909 46 29.0212 46H30.9786C31.7091 46 32.3032 45.4057 32.3032 44.6752V44.428C32.8814 44.2603 33.4391 44.0292 33.9698 43.7373L34.1449 43.9125C34.6611 44.4288 35.501 44.4287 36.0173 43.9124L37.4039 42.5256C37.9176 42.0085 37.9169 41.1693 37.4025 40.6547L37.2273 40.4794C37.5191 39.9487 37.7506 39.3903 37.9191 38.8108H38.1651C38.8955 38.8108 39.4897 38.2173 39.4897 37.4877V35.4553H40.4466C43.233 35.4553 45.4999 33.1881 45.4999 30.4013C45.5 28.634 44.606 27.0384 43.1336 26.119ZM38.2397 37.4877C38.2397 37.5267 38.2048 37.5608 38.1651 37.5608H37.4353C37.1432 37.5608 36.89 37.7631 36.8257 38.0481C36.6497 38.8269 36.3432 39.5664 35.9147 40.2458C35.7589 40.4928 35.7949 40.8147 36.0014 41.0211L36.5186 41.5384C36.5459 41.5658 36.5452 41.6164 36.5186 41.6432L35.1334 43.0286C35.1167 43.0453 35.0958 43.0488 35.0812 43.0488C35.0666 43.0488 35.0456 43.0452 35.0289 43.0286L34.5117 42.5113C34.3052 42.3048 33.9832 42.2688 33.7362 42.4246C33.0561 42.8538 32.3177 43.1596 31.5416 43.3337C31.2562 43.3977 31.0534 43.6511 31.0534 43.9436V44.6752C31.0534 44.7144 31.0178 44.75 30.9788 44.75H29.0214C28.9816 44.75 28.9467 44.7151 28.9467 44.6752V43.9436C28.9467 43.6509 28.7438 43.3976 28.4583 43.3336C27.6807 43.1596 26.9426 42.8538 26.2645 42.425C26.0177 42.2689 25.6959 42.3044 25.4892 42.5106L24.9695 43.0286C24.9417 43.0562 24.8921 43.0556 24.8652 43.0289L23.4816 41.6432C23.4637 41.6253 23.4599 41.6044 23.4599 41.59C23.46 41.57 23.4668 41.5531 23.4815 41.5384L23.9987 41.0211C24.2055 40.8144 24.2413 40.4919 24.0849 40.2449C23.6551 39.5662 23.3489 38.8274 23.1748 38.0492C23.1109 37.7638 22.8574 37.5608 22.5648 37.5608H21.8331C21.7936 37.5608 21.7603 37.5274 21.7603 37.4877V35.4553H24.6717C24.6039 35.8001 24.5684 36.1519 24.5684 36.5081C24.5684 39.5029 27.0046 41.9394 29.9991 41.9394C32.9946 41.9394 35.4316 39.5029 35.4316 36.5081C35.4316 36.1528 35.3959 35.8011 35.3274 35.4553H38.2398V37.4877H38.2397ZM40.4466 34.2053H32.8049C32.4598 34.2053 32.1799 34.4852 32.1799 34.8303C32.1799 35.1754 32.4598 35.4553 32.8049 35.4553H34.0458C34.1355 35.7987 34.1816 36.1511 34.1816 36.5081C34.1816 38.8137 32.3053 40.6894 29.9991 40.6894C27.6939 40.6894 25.8184 38.8136 25.8184 36.5081C25.8184 36.1496 25.8641 35.7971 25.9529 35.4553H27.1933C27.5384 35.4553 27.8183 35.1754 27.8183 34.8303C27.8183 34.4852 27.5384 34.2053 27.1933 34.2053H19.5534C17.4562 34.2053 15.75 32.4988 15.75 30.4013C15.75 28.9316 16.5715 27.6196 17.8939 26.9773C18.1847 26.8361 18.3198 26.4964 18.2054 26.194C17.9972 25.6435 17.8916 25.0647 17.8916 24.4735C17.8916 21.7986 20.0674 19.6224 22.7419 19.6224C23.0865 19.6224 23.4226 19.6571 23.7408 19.7254C24.0559 19.7931 24.3709 19.6099 24.468 19.3025C25.2335 16.8786 27.4563 15.25 29.9991 15.25C32.5419 15.25 34.7647 16.8786 35.5302 19.3025C35.6272 19.6096 35.9417 19.7929 36.2568 19.7255C36.5771 19.6571 36.9134 19.6224 37.2563 19.6224C39.9318 19.6224 42.1084 21.7986 42.1084 24.4735C42.1084 25.0647 42.0028 25.6436 41.7946 26.194C41.6802 26.4964 41.8153 26.8361 42.1061 26.9773C43.4285 27.6196 44.25 28.9316 44.25 30.4013C44.25 32.4988 42.5438 34.2053 40.4466 34.2053Z"/>
</mask>
<path d="M43.1336 26.119C43.2829 25.5849 43.3584 25.0335 43.3584 24.4734C43.3584 21.1093 40.6211 18.3724 37.2564 18.3724C37.0144 18.3724 36.7746 18.3863 36.5387 18.4138C36.056 17.2128 35.257 16.1759 34.2053 15.3924C32.9824 14.4815 31.5279 14 29.9991 14C28.4703 14 27.0159 14.4815 25.7929 15.3924C24.7413 16.1759 23.9423 17.2127 23.4595 18.4136C23.2242 18.3862 22.9843 18.3724 22.7418 18.3724C19.3782 18.3724 16.6416 21.1093 16.6416 24.4734C16.6416 25.0335 16.7171 25.5849 16.8664 26.119C15.394 27.0384 14.5 28.634 14.5 30.4013C14.5 33.1881 16.7669 35.4553 19.5534 35.4553H20.5103V37.4877C20.5103 38.2173 21.1037 38.8108 21.8331 38.8108H22.0801C22.248 39.3906 22.4796 39.9492 22.7721 40.4799L22.5989 40.6532C22.3486 40.9019 22.2104 41.2339 22.2098 41.588C22.2092 41.9429 22.3469 42.2764 22.5971 42.5267L23.9823 43.9139C24.4994 44.4277 25.3387 44.4269 25.8525 43.9131L26.0291 43.7372C26.5593 44.0293 27.1173 44.2604 27.6966 44.4282V44.6752C27.6966 45.4057 28.2909 46 29.0212 46H30.9786C31.7091 46 32.3032 45.4057 32.3032 44.6752V44.428C32.8814 44.2603 33.4391 44.0292 33.9698 43.7373L34.1449 43.9125C34.6611 44.4288 35.501 44.4287 36.0173 43.9124L37.4039 42.5256C37.9176 42.0085 37.9169 41.1693 37.4025 40.6547L37.2273 40.4794C37.5191 39.9487 37.7506 39.3903 37.9191 38.8108H38.1651C38.8955 38.8108 39.4897 38.2173 39.4897 37.4877V35.4553H40.4466C43.233 35.4553 45.4999 33.1881 45.4999 30.4013C45.5 28.634 44.606 27.0384 43.1336 26.119ZM38.2397 37.4877C38.2397 37.5267 38.2048 37.5608 38.1651 37.5608H37.4353C37.1432 37.5608 36.89 37.7631 36.8257 38.0481C36.6497 38.8269 36.3432 39.5664 35.9147 40.2458C35.7589 40.4928 35.7949 40.8147 36.0014 41.0211L36.5186 41.5384C36.5459 41.5658 36.5452 41.6164 36.5186 41.6432L35.1334 43.0286C35.1167 43.0453 35.0958 43.0488 35.0812 43.0488C35.0666 43.0488 35.0456 43.0452 35.0289 43.0286L34.5117 42.5113C34.3052 42.3048 33.9832 42.2688 33.7362 42.4246C33.0561 42.8538 32.3177 43.1596 31.5416 43.3337C31.2562 43.3977 31.0534 43.6511 31.0534 43.9436V44.6752C31.0534 44.7144 31.0178 44.75 30.9788 44.75H29.0214C28.9816 44.75 28.9467 44.7151 28.9467 44.6752V43.9436C28.9467 43.6509 28.7438 43.3976 28.4583 43.3336C27.6807 43.1596 26.9426 42.8538 26.2645 42.425C26.0177 42.2689 25.6959 42.3044 25.4892 42.5106L24.9695 43.0286C24.9417 43.0562 24.8921 43.0556 24.8652 43.0289L23.4816 41.6432C23.4637 41.6253 23.4599 41.6044 23.4599 41.59C23.46 41.57 23.4668 41.5531 23.4815 41.5384L23.9987 41.0211C24.2055 40.8144 24.2413 40.4919 24.0849 40.2449C23.6551 39.5662 23.3489 38.8274 23.1748 38.0492C23.1109 37.7638 22.8574 37.5608 22.5648 37.5608H21.8331C21.7936 37.5608 21.7603 37.5274 21.7603 37.4877V35.4553H24.6717C24.6039 35.8001 24.5684 36.1519 24.5684 36.5081C24.5684 39.5029 27.0046 41.9394 29.9991 41.9394C32.9946 41.9394 35.4316 39.5029 35.4316 36.5081C35.4316 36.1528 35.3959 35.8011 35.3274 35.4553H38.2398V37.4877H38.2397ZM40.4466 34.2053H32.8049C32.4598 34.2053 32.1799 34.4852 32.1799 34.8303C32.1799 35.1754 32.4598 35.4553 32.8049 35.4553H34.0458C34.1355 35.7987 34.1816 36.1511 34.1816 36.5081C34.1816 38.8137 32.3053 40.6894 29.9991 40.6894C27.6939 40.6894 25.8184 38.8136 25.8184 36.5081C25.8184 36.1496 25.8641 35.7971 25.9529 35.4553H27.1933C27.5384 35.4553 27.8183 35.1754 27.8183 34.8303C27.8183 34.4852 27.5384 34.2053 27.1933 34.2053H19.5534C17.4562 34.2053 15.75 32.4988 15.75 30.4013C15.75 28.9316 16.5715 27.6196 17.8939 26.9773C18.1847 26.8361 18.3198 26.4964 18.2054 26.194C17.9972 25.6435 17.8916 25.0647 17.8916 24.4735C17.8916 21.7986 20.0674 19.6224 22.7419 19.6224C23.0865 19.6224 23.4226 19.6571 23.7408 19.7254C24.0559 19.7931 24.3709 19.6099 24.468 19.3025C25.2335 16.8786 27.4563 15.25 29.9991 15.25C32.5419 15.25 34.7647 16.8786 35.5302 19.3025C35.6272 19.6096 35.9417 19.7929 36.2568 19.7255C36.5771 19.6571 36.9134 19.6224 37.2563 19.6224C39.9318 19.6224 42.1084 21.7986 42.1084 24.4735C42.1084 25.0647 42.0028 25.6436 41.7946 26.194C41.6802 26.4964 41.8153 26.8361 42.1061 26.9773C43.4285 27.6196 44.25 28.9316 44.25 30.4013C44.25 32.4988 42.5438 34.2053 40.4466 34.2053Z" fill="white" stroke="white" stroke-width="0.6" mask="url(#path-2-inside-1)"/>
<path d="M36.1246 23.4922C36.1246 23.2299 36.3373 23.0172 36.5996 23.0172C36.8619 23.0172 37.0746 23.2299 37.0746 23.4922V29.6574C37.0746 29.9197 36.8619 30.1324 36.5996 30.1324C36.3373 30.1324 36.1246 29.9197 36.1246 29.6574V23.4922Z" fill="white" stroke="white" stroke-width="0.3"/>
<path d="M30.4991 27.5153L30.35 27.5162V27.6653V29.7708C30.35 30.0331 30.1373 30.2458 29.875 30.2458C29.6127 30.2458 29.4 30.0331 29.4 29.7708V23.4922C29.4 23.2346 29.6181 23.0172 29.875 23.0172H31.6234C32.8835 23.0172 33.9051 24.0272 33.9051 25.2638C33.9051 26.5004 32.8835 27.5104 31.6234 27.5104C31.366 27.5104 30.8877 27.5129 30.4991 27.5153ZM30.3593 26.4159L30.36 26.5661L30.5102 26.5652C30.8977 26.5628 31.3682 26.5604 31.6234 26.5604C32.3425 26.5604 32.9552 25.9724 32.9552 25.2638C32.9552 24.5551 32.3425 23.9671 31.6234 23.9671H30.5023H30.3518L30.3523 24.1177C30.3538 24.5338 30.3554 25.0422 30.3554 25.2638C30.3554 25.526 30.3574 26.0165 30.3593 26.4159Z" fill="white" stroke="white" stroke-width="0.3"/>
<path d="M24.8124 23.413L24.8124 23.413L24.809 23.4042L24.8086 23.4032L24.8086 23.4032C24.7138 23.168 24.4898 23.0167 24.237 23.0167C23.9843 23.0167 23.7603 23.1679 23.6655 23.4029C23.6654 23.403 23.6654 23.4031 23.6653 23.4032L23.6627 23.41L23.662 23.4117L23.662 23.4117L21.3043 29.6018L21.3043 29.6018C21.2109 29.8469 21.334 30.1213 21.5791 30.2147L24.8124 23.413ZM24.8124 23.413L27.1488 29.6031C27.1488 29.6031 27.1488 29.6031 27.1488 29.6031C27.2415 29.8486 27.1176 30.1226 26.8722 30.2152L26.8722 30.2152C26.8167 30.2362 26.7601 30.246 26.7046 30.246C26.5124 30.246 26.3318 30.1285 26.2601 29.9385L26.2601 29.9385L25.8309 28.8015L25.7943 28.7045H25.6906H22.766H22.6626M24.8124 23.413L22.6626 28.7045M22.6626 28.7045L22.6258 28.8011M22.6626 28.7045L22.6258 28.8011M22.6258 28.8011L22.192 29.9399M22.6258 28.8011L22.192 29.9399M22.192 29.9399C22.0987 30.1851 21.8243 30.3081 21.5791 30.2147L22.192 29.9399ZM23.1019 27.5511L23.0245 27.7545H23.2421H25.2188H25.4357L25.3591 27.5515L24.3752 24.9449L24.2355 24.5748L24.0947 24.9445L23.1019 27.5511Z" fill="white" stroke="white" stroke-width="0.3"/>
</svg>
