<svg width="124" height="14" viewBox="0 0 124 14" fill="none" xmlns="http://www.w3.org/2000/svg">
<path d="M71.0493 10.2601H66.3161L65.1787 13.7184H62.6514L67.4022 0.228027H69.9644L74.7171 13.7184H72.1868L71.0493 10.2601ZM68.6729 2.56616C68.6729 2.56616 68.3682 3.89693 68.1038 4.65524L66.9076 8.26366H70.4396L69.2418 4.65524C68.9942 3.89357 68.7111 2.56616 68.7111 2.56616H68.6729Z" fill="#FDFDFD"/>
<path d="M78.3438 0.229013H82.6942C84.1566 0.229013 84.8219 0.341783 85.4086 0.611003C86.7594 1.21559 87.6134 2.51087 87.6134 4.29608C87.6134 5.91119 86.7587 7.40953 85.3335 7.98493V8.02315C85.3335 8.02315 85.5229 8.21152 85.7906 8.68864L88.5647 13.7221H85.8299L83.1505 8.6878H80.7924V13.7207H78.3428V0.227539H78.3442V0.229013H78.3438ZM82.997 6.55547C84.3074 6.55547 85.1237 5.77678 85.1237 4.42774C85.1237 3.13646 84.5741 2.33867 82.6549 2.33867H80.792V6.55736L82.997 6.55547Z" fill="#FDFDFD"/>
<path d="M92.7461 0.230469H97.3451C101.506 0.230469 104.221 2.70007 104.221 6.95424C104.221 11.2141 101.506 13.7175 97.3451 13.7175H92.7461V0.230469ZM97.2119 11.6099C99.9482 11.6099 101.693 9.99587 101.693 6.95445C101.693 3.95544 99.9056 2.33887 97.2119 2.33887H95.1966V11.6099H97.2119Z" fill="#FDFDFD"/>
<path d="M108.616 10.2587C108.616 10.2587 110.079 11.684 111.979 11.684C113.004 11.684 113.937 11.1539 113.937 10.0521C113.937 7.63559 107.571 8.05328 107.571 3.91376C107.571 1.66992 109.508 0 112.092 0C114.753 0 116.12 1.44396 116.12 1.44396L115.055 3.44022C115.055 3.44022 113.76 2.26296 112.069 2.26296C110.933 2.26296 110.037 2.92824 110.037 3.87807C110.037 6.27353 116.381 5.68301 116.381 9.99809C116.381 12.1445 114.748 13.9488 111.936 13.9488C108.934 13.9488 107.282 12.1082 107.282 12.1082L108.616 10.2587Z" fill="#FDFDFD"/>
<path d="M43.403 0.230269L41.1793 9.56223C41.0092 10.3214 40.9525 10.9852 40.9525 10.9852H40.9135C40.8935 10.9852 40.8744 10.3394 40.6663 9.56223L38.2727 0.230269H36.1452L33.7141 9.56223C33.5041 10.3376 33.4864 10.9852 33.4669 10.9852H33.4291C33.4291 10.9852 33.3695 10.3203 33.2019 9.56223L31.6097 2.57449L30.4131 7.66825L31.9272 13.7179H34.7582L36.8294 5.73982C37.0573 4.86538 37.1723 3.97309 37.1723 3.97309H37.2083C37.2083 3.97309 37.3221 4.86559 37.5516 5.73982L39.6251 13.7179H42.454L45.9337 0.227539L43.403 0.230269Z" fill="#FDFDFD"/>
<path d="M58.6178 0.229004L56.3933 9.56097C56.2236 10.3201 56.1665 10.9839 56.1665 10.9839H56.1266C56.1094 10.9839 56.0911 10.3382 55.8822 9.56097L53.4863 0.229004H51.3607L48.9289 9.56097C48.7183 10.3363 48.7015 10.9839 48.6819 10.9839H48.6429C48.6429 10.9839 48.586 10.3191 48.4156 9.56097L46.8138 2.54089L45.6172 7.63506L47.143 13.7179H49.9728L52.043 5.73939C52.2706 4.86495 52.3867 3.97288 52.3867 3.97288H52.4245C52.4245 3.97288 52.5386 4.86495 52.7666 5.73939L54.8391 13.7179H57.6691L61.1483 0.229004H58.6178Z" fill="#FDFDFD"/>
<path d="M8.39936 10.2598H3.66764L2.52798 13.7181H0L4.7504 0.230469H7.31639L12.0662 13.7181H9.5384L8.39936 10.2598ZM6.02405 2.56588C6.02405 2.56588 5.71871 3.89664 5.45411 4.65495L4.2569 8.26337H7.79099L6.59189 4.65642C6.34619 3.89559 6.05996 2.56588 6.05996 2.56588H6.02405Z" fill="#FDFDFD"/>
<path d="M25.4415 9.56034C25.65 10.3378 25.6681 10.9841 25.6868 10.9841H25.7252C25.7252 10.9841 25.7836 10.3176 25.9529 9.56034L28.1759 0.227539H30.7035L27.225 13.7179H24.3953L22.3251 5.73877C22.0979 4.86496 21.9813 3.97247 21.9813 3.97247H21.9435C21.9435 3.97247 21.831 4.86496 21.6015 5.73877L19.5298 13.7173H16.6988L13.3174 0.230269H15.8447L17.9735 9.56223C18.1449 10.3214 18.2016 10.9852 18.2016 10.9852H18.2398C18.2601 10.9852 18.2757 10.3394 18.4869 9.56223L20.919 0.230269H23.0435L25.4415 9.56034Z" fill="#FDFDFD"/>
<path d="M121.68 4.61523C122.972 4.61523 123.999 5.65935 123.999 6.97311C123.999 8.29569 122.972 9.33267 121.68 9.33267C120.413 9.33267 119.389 8.2959 119.389 6.97311C119.389 5.66019 120.413 4.61523 121.68 4.61523ZM121.68 9.05736C122.826 9.05736 123.706 8.15247 123.706 6.9748C123.706 5.80237 122.825 4.89202 121.68 4.89202C120.554 4.89202 119.68 5.80489 119.68 6.9748C119.68 8.15394 120.555 9.05736 121.68 9.05736ZM120.927 5.67301H121.791C122.232 5.67301 122.548 5.97415 122.548 6.42985C122.548 6.81373 122.315 7.06026 122.046 7.12641V7.1386C122.046 7.1386 122.069 7.17177 122.132 7.28286L122.647 8.2791H122.327L121.774 7.1913H121.212V8.2791H120.93L120.927 5.67301ZM121.76 6.9414C122.06 6.9414 122.255 6.74862 122.255 6.4288C122.255 6.11632 122.06 5.93089 121.76 5.93089H121.213V6.94098L121.76 6.9414Z" fill="#2E2D2D"/>
</svg>
