<svg width="207" height="30" viewBox="0 0 207 30" fill="none" xmlns="http://www.w3.org/2000/svg">
<path d="M54.4737 2.13477C59.9831 2.13477 62.6344 4.85502 62.6344 9.19366C62.6344 12.4649 61.1538 14.4276 58.1236 15.1851C62.1179 15.8393 64.0807 18.0087 64.0807 21.8308C64.0807 26.135 61.1538 29.0963 55.1279 29.0963H44.0059V2.13477H54.4737ZM47.6903 5.68142V13.7045H53.9572C57.435 13.7045 58.8812 12.1205 58.8812 9.50356C58.8812 6.92104 57.3317 5.647 53.9572 5.647L47.6903 5.68142ZM47.6903 16.9757V25.3775H55.2312C58.7434 25.3775 60.3618 24.1034 60.3618 21.3832C60.3618 18.5252 58.8467 16.9412 55.1623 16.9412L47.6903 16.9757Z" fill="#253858"/>
<path d="M70.0735 0.722812C71.3475 0.619512 72.4494 1.58366 72.5183 2.8577C72.5183 2.961 72.5183 3.0643 72.5183 3.20204C72.5183 4.54495 71.4164 5.64683 70.0735 5.64683C68.7306 5.64683 67.6287 4.54495 67.6287 3.20204C67.5254 1.92799 68.4895 0.826115 69.7636 0.757248C69.8669 0.688381 69.9702 0.688379 70.0735 0.722812ZM68.2829 8.57368H71.7951V29.0617H68.2829V8.57368Z" fill="#253858"/>
<path d="M85.2572 25.6184C86.0148 25.584 86.7379 25.5151 87.461 25.3429V28.7518C86.7034 28.9584 85.877 29.0962 85.0851 29.0618C80.712 29.0618 78.5771 26.4792 78.5771 22.6571V11.845H75.2715V8.57376H78.5771V4.20068H81.986V8.53932H87.4266V11.8105H81.986V22.5882C82.0205 24.4132 83.0879 25.6184 85.2572 25.6184Z" fill="#253858"/>
<path d="M102.028 29.4752C99.0323 29.4752 96.7252 28.1323 95.52 25.4464V29.062H92.0078V0H95.5545V12.2584C96.863 9.53811 99.3422 8.16077 102.476 8.16077C107.916 8.16077 110.671 12.7749 110.671 18.8352C110.636 24.62 107.744 29.4752 102.028 29.4752ZM101.477 11.432C98.3092 11.432 95.52 13.4291 95.52 18.0088V19.6616C95.52 24.2068 98.1026 26.2384 101.098 26.2384C105.093 26.2384 107.124 23.6215 107.124 18.8696C107.09 13.9112 105.127 11.432 101.477 11.432Z" fill="#253858"/>
<path d="M114.32 8.57373H117.832V20.9698C117.832 24.6542 119.312 26.307 122.653 26.307C125.924 26.307 128.196 24.1377 128.196 20.0057V8.60816H131.709V29.0962H128.196V25.7217C126.922 28.0976 124.409 29.5438 121.723 29.5094C117.005 29.5094 114.285 26.2382 114.285 20.6255L114.32 8.57373Z" fill="#253858"/>
<path d="M151.544 28.5453C150.304 29.1995 148.41 29.475 146.551 29.475C139.251 29.475 135.842 25.033 135.842 18.7661C135.842 12.5681 139.251 8.16055 146.551 8.16055C148.238 8.12612 149.925 8.47045 151.44 9.15913V12.4303C149.994 11.7416 148.376 11.4317 146.792 11.4662C141.454 11.4662 139.285 14.8407 139.285 18.8005C139.285 22.7948 141.489 26.1349 146.861 26.1349C148.444 26.1693 150.028 25.9283 151.509 25.4118L151.544 28.5453Z" fill="#253858"/>
<path d="M155.57 29.062V0H159.083V18.181L167.898 8.57398H172.477L162.836 18.6286L172.89 29.062H168.104L159.083 19.455V29.062H155.57Z" fill="#253858"/>
<path d="M184.599 29.475C176.92 29.475 173.58 25.0331 173.58 18.7662C173.58 12.5681 177.023 8.16064 183.256 8.16064C189.557 8.16064 192.105 12.5337 192.105 18.7662V20.3501H177.127C177.609 23.8279 179.881 26.1006 184.702 26.1006C186.837 26.1006 188.937 25.7218 190.935 24.9987V28.2699C189.247 29.1651 186.665 29.475 184.599 29.475ZM177.092 17.3888H188.524C188.318 13.5667 186.596 11.3974 183.084 11.3974C179.331 11.363 177.471 13.7733 177.092 17.3888Z" fill="#253858"/>
<path d="M204.398 25.6184C205.155 25.584 205.879 25.5151 206.602 25.3429V28.7518C205.844 28.9584 205.018 29.0962 204.226 29.0618C199.853 29.0618 197.718 26.4792 197.718 22.6571V11.845H194.412V8.57376H197.718V4.20068H201.161V8.53932H206.602V11.8105H201.161V22.5882C201.161 24.4132 202.194 25.6184 204.398 25.6184Z" fill="#253858"/>
<path d="M0.929707 2.92676C0.413203 2.92676 0 3.33997 0 3.85647C0 3.92534 0 3.95977 0 4.02864L3.95987 28.0289C4.06317 28.6487 4.57967 29.0963 5.19948 29.0963H24.1724C24.62 29.0963 25.0332 28.7864 25.1021 28.3043L29.062 4.02864C29.1308 3.51213 28.7865 3.03006 28.3044 2.96119C28.2356 2.96119 28.2011 2.96119 28.1323 2.96119L0.929707 2.92676ZM17.5956 20.2813H11.5353L9.88245 11.7073H19.0418L17.5956 20.2813Z" fill="#2684FF"/>
<path d="M27.8223 11.7075H19.0762L17.5956 20.2815H11.5352L4.37305 28.7866C4.61408 28.9932 4.88955 29.0965 5.19945 29.0965H24.1724C24.62 29.0965 25.0332 28.7866 25.1021 28.3045L27.8223 11.7075Z" fill="url(#paint0_linear)"/>
<defs>
<linearGradient id="paint0_linear" x1="29.8379" y1="14.1181" x2="15.386" y2="25.3974" gradientUnits="userSpaceOnUse">
<stop offset="0.18" stop-color="#0052CC"/>
<stop offset="1" stop-color="#2684FF"/>
</linearGradient>
</defs>
</svg>
