<svg width="185" height="33" viewBox="0 0 185 33" fill="none" xmlns="http://www.w3.org/2000/svg">
<path d="M20.7937 14.8574C29.4444 7.38125 26.381 3.38919 23.0159 1.48443C21.2283 0.496885 19.2168 -0.0142016 17.1746 0.000300226H6.65873L0 31.2701H11.6984C15.0215 31.3014 18.2586 30.214 20.8889 28.1828C28.9048 21.8336 20.7937 14.8574 20.7937 14.8574ZM11.0397 28.3495H7.03175L9.16667 16.167H13C13.7355 16.1587 14.4647 16.3027 15.1418 16.5899C15.819 16.8771 16.4294 17.3012 16.9348 17.8356C17.4401 18.37 17.8295 19.0032 18.0783 19.6953C18.3272 20.3874 18.4303 21.1236 18.381 21.8574C18.381 22.0003 18.381 22.1432 18.3254 22.294C18.0227 23.9996 17.124 25.5424 15.7896 26.6471C14.4553 27.7518 12.7719 28.3467 11.0397 28.3257V28.3495ZM12.754 13.7781H9.8254L12.3254 2.27014H15.5C16.4559 2.25016 17.3931 2.53681 18.1743 3.08808C18.9556 3.63936 19.5397 4.42629 19.8413 5.33363C20.1939 6.59524 20.1043 7.93953 19.5873 9.14316C19.0481 10.5125 18.1064 11.6863 16.8864 12.5095C15.6665 13.3327 14.2256 13.7667 12.754 13.7543V13.7781Z" fill="white"/>
<path d="M102.04 31.0877C102.381 30.5778 102.862 30.1776 103.425 29.9353C103.989 29.6931 104.61 29.6192 105.215 29.7226C106.405 29.8813 107.615 29.731 108.731 29.2861C111.334 28.2464 111.794 25.5559 109.627 23.8099C108.591 22.987 107.495 22.2415 106.35 21.5797C102.889 19.54 103.286 15.6512 105.508 13.2702C107.357 11.2861 109.794 10.6273 112.389 10.5083C113.729 10.5197 115.068 10.6098 116.397 10.7781C116.977 10.8258 117.508 10.8813 117.262 11.6829C117.088 12.2543 117.016 12.8575 116.111 12.6512C114.811 12.3537 113.471 12.2653 112.143 12.3893C110.556 12.548 109.183 13.0321 108.667 14.6273C108.151 16.2226 109.373 17.167 110.516 18.0004C111.659 18.8337 112.715 19.5162 113.778 20.3258C116.389 22.3099 116.834 24.5877 115.207 27.421C114.253 29.0528 112.72 30.2656 110.913 30.8178C108.04 31.7464 105.183 31.5956 102.04 31.0877Z" fill="white"/>
<path d="M43.5479 31.0877C43.8886 30.5778 44.3698 30.1776 44.9331 29.9353C45.4965 29.6931 46.118 29.6192 46.7225 29.7226C47.928 29.8882 49.156 29.7378 50.2859 29.2861C52.8812 28.2464 53.3494 25.5559 51.1828 23.8099C50.1325 22.9871 49.0237 22.2417 47.8653 21.5797C44.3971 19.54 44.8018 15.6512 47.0161 13.2702C48.8733 11.2861 51.3018 10.6273 53.8971 10.5083C55.2239 10.5207 56.549 10.6108 57.8653 10.7781C58.4447 10.8258 58.9764 10.8813 58.7304 11.6829C58.5558 12.2543 58.4923 12.8575 57.5796 12.6512C56.2792 12.3535 54.9396 12.265 53.6113 12.3893C52.024 12.548 50.659 13.0321 50.1431 14.6273C49.6272 16.2226 50.8415 17.167 51.9844 18.0004C53.1272 18.8337 54.1828 19.5162 55.2463 20.3258C57.8574 22.3099 58.3098 24.5877 56.6748 27.421C55.7228 29.0539 54.1893 30.267 52.3812 30.8178C49.5479 31.7464 46.6986 31.5956 43.5479 31.0877Z" fill="white"/>
<path d="M104.341 10.8814L103.801 13.3496H96.1742C95.746 13.4586 95.3524 13.6746 95.0304 13.9772C94.7083 14.2798 94.4684 14.6591 94.3329 15.0798C94.0234 16.3893 93.4044 19.929 93.4044 19.929H100.793L100.174 22.0083H93.0948L92.0631 27.8258C92.0631 27.8258 91.6742 29.5163 92.5948 29.4131C93.5155 29.3099 100.142 29.4131 100.142 29.4131L99.9123 31.6433H89.0155C89.0155 31.6433 85.9361 32.4369 86.9361 27.175C87.9361 21.9131 90.2456 12.548 90.2456 12.548C90.2456 12.548 89.944 10.8496 93.1742 10.8496" fill="white"/>
<path d="M67.1104 31.151L71.3405 13.1669C71.3405 13.1669 72.8484 8.04787 76.5627 10.2939C77.838 11.1012 78.7922 12.3275 79.2611 13.7622L82.277 22.5637L85.0469 10.3177H87.9278L83.5072 30.1034C83.5072 30.1034 81.8167 34.651 79.4278 29.8018L73.8088 13.8574L70.031 31.151H67.1104Z" fill="white"/>
<path d="M58.7939 30.7542L63.6432 10.4685H68.9606L64.4527 31.2939H58.7939" fill="white"/>
<path d="M29.4522 10.8813H34.611C34.611 10.8813 29.5633 26.8813 33.5395 28.1512C37.5157 29.421 39.3411 24.2306 39.7697 22.5401C40.1983 20.8496 41.603 11.6591 41.603 11.6591H44.603L42.4522 22.7702C42.4522 22.7702 41.1665 31.5004 32.4602 31.5004C32.4602 31.5004 25.476 31.1274 27.0951 24.556L29.4522 10.8813Z" fill="white"/>
<path d="M184.992 11.6829C184.349 12.3416 183.896 13.2702 182.658 12.9765C180.563 12.548 179.761 13.4448 179.388 15.5559C178.595 20.1749 177.373 24.7305 176.293 29.3099C175.904 30.9924 173.015 32.1035 171.674 31.1353C170.88 30.54 171.539 29.8813 171.674 29.294C172.669 24.7014 173.693 20.1115 174.746 15.5242C175.087 14.0083 175.476 12.5797 172.944 12.921C172.325 13.0083 171.158 13.4051 171.214 12.0559C171.269 10.8734 172.285 11.1035 173.031 11.1035C177 11.1035 181.007 11.1035 185 11.1035L184.992 11.6829Z" fill="#EA6E2F"/>
<path d="M112.786 30.7066C114.199 29.0002 115.588 28.4209 117.461 28.6748C119.258 28.9211 121.088 28.694 122.77 28.0161C126.643 26.4685 127.334 22.4606 124.104 19.8574C122.537 18.6325 120.884 17.5212 119.159 16.532C113.992 13.4844 114.588 7.69072 117.897 4.1431C120.659 1.18278 124.246 0.174843 128.159 0.0161133C130.155 0.0356535 132.148 0.173461 134.127 0.428812C134.992 0.492304 135.786 0.571669 135.413 1.77802C135.159 2.62722 135.056 3.51611 133.699 3.21453C131.758 2.77314 129.76 2.64189 127.778 2.82564C125.477 3.0558 123.373 3.77802 122.604 6.16691C121.834 8.5558 123.651 9.94468 125.358 11.1987C127.064 12.4526 128.572 13.4923 130.159 14.651C134.064 17.6272 134.731 21.0002 132.294 25.2383C130.881 27.6762 128.594 29.4862 125.897 30.3018C121.731 31.6907 117.461 31.4685 112.786 30.7066Z" fill="#EA6D2E"/>
<path d="M166.508 11.1828C166.809 11.1549 167.112 11.1549 167.412 11.1828C168.111 11.3098 169.222 10.7383 169.349 11.9129C169.476 13.0875 168.405 12.9367 167.651 12.9447C165.524 12.9447 164.428 14.024 163.92 16.0399C163.365 18.2621 162.809 20.2066 166.381 19.6352C167.039 19.524 167.881 19.532 167.706 20.651C167.611 21.2939 167.365 21.8653 166.595 21.6907C162.206 20.6828 162.159 23.8733 161.603 26.6034C161.357 27.4517 161.172 28.3163 161.047 29.1907C160.881 32.1828 158.579 31.3494 157.079 31.159C154.952 30.8891 156.365 29.2939 156.547 28.405C157.341 24.4367 158.135 20.5161 159.198 16.6272C160.254 12.532 162.166 11.2145 166.508 11.1828Z" fill="#EA6E2F"/>
<path d="M155.555 16.2066C155.241 15.0023 154.624 13.8983 153.762 12.9996C152.901 12.1009 151.825 11.4372 150.635 11.0717C143.69 8.69076 136.452 13.8812 135.484 21.905C134.817 27.4606 138.19 31.2304 143.857 31.2701C151.468 31.3098 157.579 23.4765 155.555 16.2066ZM147.936 27.2781C146.587 28.9844 144.833 30.2622 142.516 29.4447C140.198 28.6273 140.008 26.405 139.889 24.0955C140.222 20.5241 141.103 16.9527 143.785 14.0558C145.063 12.6669 146.635 11.7781 148.547 12.3495C150.46 12.9209 151.143 14.7304 151.222 16.5558C151.494 20.4137 150.323 24.235 147.936 27.2781Z" fill="#EA6E2F"/>
<path d="M31.0873 6.84961H30.3571L31.1508 2.96866H30L30.1349 2.33374H33.2222L33.0873 2.96866H31.9127L31.0873 6.84961Z" fill="white"/>
<path d="M34.9209 6.84932L35.3177 4.76202C35.3486 4.63177 35.3672 4.49892 35.3733 4.3652C35.3733 4.08742 35.2384 3.9525 34.9765 3.9525C34.8461 3.96218 34.7197 4.00153 34.6069 4.06756C34.4941 4.13359 34.3979 4.22454 34.3257 4.33345C34.1037 4.6515 33.9546 5.01464 33.8892 5.39694L33.5876 6.83345H32.8574L33.8733 2.02393H34.6035L34.4289 2.81758C34.3733 3.07948 34.2939 3.38107 34.1987 3.73027L34.1273 3.96837C34.2682 3.77613 34.4463 3.61419 34.6511 3.49218C34.8178 3.39706 35.0067 3.34777 35.1987 3.34932C35.3166 3.34166 35.4347 3.3589 35.5455 3.39992C35.6562 3.44094 35.7571 3.50483 35.8415 3.58742C36.0018 3.77724 36.0815 4.02217 36.0638 4.26996C36.0607 4.45199 36.0367 4.63307 35.9923 4.80964L35.5638 6.82551L34.9209 6.84932Z" fill="white"/>
<path d="M38.0237 6.91312C37.8512 6.92438 37.6783 6.89988 37.5158 6.84115C37.3533 6.78243 37.2046 6.69074 37.0792 6.57185C36.9603 6.44323 36.8687 6.29179 36.81 6.12671C36.7514 5.96164 36.7268 5.78637 36.738 5.61153C36.7349 5.22052 36.8161 4.83343 36.976 4.47661C37.1152 4.15685 37.3405 3.88207 37.6268 3.68296C37.893 3.49325 38.2127 3.39319 38.5395 3.39725C38.822 3.37585 39.1029 3.45452 39.3332 3.61947C39.4245 3.6974 39.4969 3.79503 39.545 3.90501C39.5932 4.01498 39.6157 4.13444 39.611 4.25439C39.612 4.43403 39.5647 4.61064 39.4739 4.76565C39.3831 4.92067 39.2523 5.04838 39.0951 5.13534C38.6437 5.37285 38.136 5.48261 37.6268 5.4528H37.4919V5.63534C37.4817 5.8306 37.5438 6.02278 37.6665 6.17502C37.7351 6.24286 37.8172 6.29556 37.9074 6.32973C37.9976 6.36391 38.094 6.37879 38.1903 6.37344C38.3406 6.37185 38.4901 6.3505 38.6348 6.30994C38.8122 6.25893 38.9848 6.19254 39.1507 6.11153V6.66709C38.9742 6.74683 38.7909 6.81058 38.603 6.85756C38.4129 6.89971 38.2183 6.91836 38.0237 6.91312ZM38.4999 3.96868C38.3926 3.97319 38.2873 3.99943 38.1904 4.04582C38.0936 4.0922 38.0071 4.15775 37.9364 4.23852C37.7523 4.43416 37.6236 4.67519 37.5634 4.93693H37.6506C37.9642 4.94888 38.2763 4.88916 38.5633 4.76233C38.6627 4.72295 38.7474 4.6537 38.8057 4.56413C38.8639 4.47456 38.893 4.36911 38.8887 4.26233C38.8909 4.21694 38.8836 4.1716 38.8672 4.12923C38.8508 4.08685 38.8257 4.04838 38.7935 4.01629C38.7036 3.96836 38.6003 3.95161 38.4999 3.96868Z" fill="white"/>
<path d="M41.627 6.84961L42.5873 2.33374H43.3174L42.3571 6.84961H41.627Z" fill="white"/>
<path d="M45.4603 6.84955L45.9048 4.76224C45.9318 4.62862 45.9503 4.49343 45.9603 4.35748C45.9657 4.3037 45.9587 4.24942 45.94 4.19871C45.9213 4.14801 45.8913 4.10221 45.8524 4.06477C45.8134 4.02733 45.7664 3.99922 45.715 3.98256C45.6636 3.9659 45.6091 3.96113 45.5556 3.96859C45.394 3.97327 45.2393 4.03514 45.1191 4.1432C44.9563 4.28436 44.824 4.45718 44.7302 4.65113C44.6064 4.88827 44.5182 5.14231 44.4683 5.4051L44.1667 6.84955H43.4365L44.1667 3.43685H44.7381L44.6746 4.07177C44.8233 3.85718 45.0153 3.67606 45.2381 3.54002C45.4138 3.42911 45.6177 3.37124 45.8254 3.37336C45.9433 3.36569 46.0614 3.38293 46.1722 3.42395C46.283 3.46497 46.3838 3.52886 46.4683 3.61145C46.5479 3.70214 46.6086 3.80784 46.6467 3.92233C46.6849 4.03682 46.6998 4.15779 46.6905 4.27812C46.6882 4.46498 46.667 4.65112 46.627 4.83367L46.1905 6.84955H45.4603Z" fill="white"/>
<path d="M48.4127 6.34941C48.5706 6.34535 48.7265 6.31309 48.8731 6.25417V6.80973C48.7789 6.85015 48.6804 6.87945 48.5794 6.89703C48.4599 6.92591 48.3372 6.93925 48.2143 6.93671C47.6429 6.93671 47.3651 6.68274 47.3651 6.14306C47.3671 6.00686 47.383 5.87123 47.4127 5.7383L47.8096 3.96846H47.3096L47.3731 3.62719L47.9604 3.37322L48.3651 2.65894H48.8096L48.6508 3.45259H49.5159L49.3969 3.96846H48.5397L48.1588 5.7383C48.1493 5.8333 48.1493 5.92901 48.1588 6.02401C48.1576 6.06196 48.1641 6.09975 48.1777 6.13518C48.1913 6.17061 48.2119 6.20297 48.2381 6.23036C48.2801 6.28981 48.3421 6.33209 48.4127 6.34941Z" fill="white"/>
<path d="M50.9366 6.91307C50.7657 6.92139 50.5948 6.89549 50.434 6.83688C50.2731 6.77828 50.1256 6.68816 50.0001 6.5718C49.8812 6.44318 49.7896 6.29174 49.7309 6.12667C49.6723 5.96159 49.6477 5.78632 49.6589 5.61149C49.6558 5.22047 49.737 4.83338 49.8969 4.47657C50.0361 4.1568 50.2614 3.88202 50.5477 3.68292C50.8154 3.49611 51.1341 3.39634 51.4604 3.3972C51.7429 3.37512 52.0241 3.45385 52.2541 3.61942C52.3454 3.69736 52.4178 3.79499 52.4659 3.90496C52.5141 4.01494 52.5366 4.1344 52.5319 4.25434C52.5329 4.43398 52.4856 4.61059 52.3948 4.76561C52.304 4.92063 52.1732 5.04833 52.016 5.1353C51.5649 5.37357 51.057 5.48338 50.5477 5.45276H50.4128V5.6353C50.4026 5.83056 50.4647 6.02274 50.5874 6.17498C50.6539 6.24345 50.7345 6.29665 50.8235 6.33091C50.9126 6.36517 51.0081 6.37966 51.1033 6.37339C51.2536 6.3718 51.403 6.35046 51.5477 6.3099C51.7251 6.25889 51.8977 6.1925 52.0636 6.11149V6.66704C51.8898 6.74665 51.7092 6.81041 51.5239 6.85752C51.3311 6.89968 51.1339 6.91833 50.9366 6.91307ZM51.4049 3.96863C51.2989 3.9742 51.1952 4.00094 51.0998 4.04729C51.0044 4.09364 50.9192 4.15865 50.8493 4.23847C50.6627 4.43344 50.5313 4.67445 50.4684 4.93688H50.5636C50.8746 4.94903 51.1842 4.88928 51.4684 4.76228C51.5639 4.72669 51.6462 4.66277 51.7044 4.57909C51.7625 4.4954 51.7937 4.39594 51.7938 4.29403C51.796 4.24864 51.7886 4.2033 51.7722 4.16093C51.7558 4.11855 51.7307 4.08008 51.6985 4.048C51.613 3.98782 51.5091 3.95972 51.4049 3.96863Z" fill="white"/>
<path d="M53.5396 6.84956H52.8174L53.8412 2.04004H54.5634L53.5396 6.84956Z" fill="white"/>
<path d="M55.2857 6.84956H54.5635L55.5555 2.04004H56.3492L55.2857 6.84956Z" fill="white"/>
<path d="M57.0319 6.84965H56.3018L57.0319 3.43695H57.7541L57.0319 6.84965ZM57.143 2.59568C57.1372 2.47082 57.1798 2.34853 57.2621 2.25441C57.3068 2.21035 57.3603 2.17625 57.4191 2.15437C57.4779 2.13248 57.5407 2.1233 57.6033 2.12743C57.6997 2.12214 57.795 2.15016 57.8732 2.20679C57.9062 2.23825 57.9319 2.27662 57.9483 2.31915C57.9648 2.36169 57.9717 2.40733 57.9684 2.45282C57.9755 2.58026 57.9328 2.70547 57.8494 2.80203C57.8063 2.84371 57.7553 2.8764 57.6994 2.8982C57.6436 2.92 57.5839 2.93047 57.524 2.92902C57.4281 2.93033 57.334 2.90267 57.2541 2.84965C57.2171 2.81887 57.1878 2.77989 57.1686 2.7358C57.1493 2.69171 57.1405 2.64374 57.143 2.59568Z" fill="white"/>
<path d="M61.4292 3.43677L61.334 3.8574L60.7388 3.96851C60.8018 4.09948 60.8318 4.24391 60.8261 4.38915C60.8348 4.56456 60.8069 4.73987 60.744 4.90387C60.6812 5.06786 60.5848 5.21693 60.461 5.34153C60.1904 5.58078 59.8377 5.70594 59.4769 5.69073C59.3818 5.69997 59.2862 5.69997 59.1911 5.69073C58.961 5.7701 58.8419 5.88121 58.8419 6.00819C58.8405 6.04311 58.8495 6.07766 58.8679 6.10737C58.8863 6.13709 58.9132 6.1606 58.9451 6.17486C59.0351 6.20595 59.1283 6.22723 59.2229 6.23835L59.6197 6.28597C59.9045 6.29867 60.1798 6.39227 60.4134 6.55581C60.494 6.62832 60.5573 6.71804 60.5985 6.81834C60.6397 6.91864 60.6578 7.02693 60.6515 7.13518C60.6593 7.31819 60.6204 7.50018 60.5385 7.66401C60.4566 7.82785 60.3343 7.96814 60.1832 8.07169C59.7866 8.31729 59.3235 8.43375 58.8578 8.40502C58.5171 8.42358 58.1782 8.34368 57.8816 8.17486C57.7741 8.10819 57.686 8.01445 57.6261 7.90302C57.5662 7.79159 57.5366 7.66639 57.5403 7.53994C57.537 7.33396 57.6138 7.13474 57.7546 6.98439C57.9496 6.80036 58.1867 6.66684 58.4451 6.5955C58.3722 6.55832 58.3112 6.5014 58.2691 6.43123C58.2271 6.36107 58.2055 6.28048 58.207 6.19867C58.2047 6.06292 58.2561 5.93174 58.3499 5.83359C58.4846 5.70703 58.6404 5.60496 58.8102 5.532C58.6716 5.4537 58.5583 5.33735 58.4838 5.1967C58.4092 5.05606 58.3765 4.897 58.3896 4.73835C58.374 4.55833 58.3963 4.37704 58.4551 4.20617C58.5139 4.03531 58.6078 3.87865 58.7308 3.74629C58.8625 3.6182 59.0195 3.51889 59.1916 3.45467C59.3638 3.39046 59.5474 3.36274 59.7308 3.37327C59.897 3.37144 60.0626 3.39281 60.2229 3.43677H61.4292ZM58.8975 6.79391C58.7032 6.81763 58.5192 6.89453 58.3657 7.01613C58.3084 7.06679 58.2624 7.12908 58.2309 7.19887C58.1994 7.26866 58.1832 7.34434 58.1832 7.42089C58.1813 7.48368 58.1957 7.54588 58.2249 7.60149C58.2541 7.65711 58.2971 7.70424 58.3499 7.73835C58.5093 7.8279 58.6912 7.86926 58.8737 7.8574C59.1482 7.8715 59.4217 7.81407 59.6673 7.69073C59.7548 7.64612 59.828 7.57782 59.8785 7.49362C59.929 7.40942 59.9548 7.31272 59.953 7.21454C59.9545 7.1643 59.9419 7.11464 59.9167 7.07117C59.8914 7.0277 59.8546 6.99215 59.8102 6.96851C59.6579 6.88953 59.4896 6.84612 59.3181 6.84153L58.8975 6.79391ZM59.7308 3.8574C59.6042 3.8555 59.4807 3.89757 59.3816 3.97645C59.2756 4.06261 59.1936 4.17469 59.1435 4.30185C59.0876 4.44595 59.0606 4.59968 59.0642 4.75423C59.0591 4.81442 59.0663 4.87503 59.0854 4.93234C59.1045 4.98965 59.1351 5.04247 59.1753 5.08756C59.2152 5.12855 59.2636 5.16042 59.317 5.18097C59.3704 5.20152 59.4277 5.21026 59.4848 5.20661C59.6117 5.20987 59.7355 5.16765 59.834 5.08756C59.9371 5.00044 60.0164 4.88844 60.0642 4.76216C60.12 4.61525 60.1469 4.45896 60.1435 4.30185C60.1435 3.96851 60.0086 3.8574 59.7308 3.8574Z" fill="white"/>
<path d="M62.7779 6.91301C62.6044 6.92348 62.4305 6.89864 62.2668 6.83998C62.1031 6.78132 61.953 6.69007 61.8256 6.57174C61.7081 6.4421 61.6175 6.29051 61.5589 6.12569C61.5004 5.96087 61.475 5.78609 61.4843 5.61142C61.4812 5.2204 61.5624 4.83331 61.7224 4.4765C61.864 4.15823 62.0888 3.88405 62.3732 3.68285C62.643 3.49448 62.9647 3.39463 63.2938 3.39713C63.5765 3.37364 63.8581 3.45251 64.0875 3.61935C64.1788 3.69729 64.2512 3.79492 64.2993 3.90489C64.3474 4.01487 64.37 4.13433 64.3652 4.25428C64.3663 4.43391 64.319 4.61052 64.2282 4.76554C64.1374 4.92056 64.0066 5.04826 63.8494 5.13523C63.3983 5.3735 62.8904 5.48331 62.3811 5.45269H62.2541V5.63523C62.2439 5.83049 62.306 6.02267 62.4287 6.17491C62.4967 6.24357 62.5787 6.29682 62.6691 6.33105C62.7595 6.36528 62.8561 6.3797 62.9525 6.37332C63.1002 6.37169 63.247 6.35033 63.3891 6.30983C63.5691 6.25906 63.7444 6.19267 63.9129 6.11142V6.66697C63.7364 6.74671 63.5531 6.81046 63.3652 6.85745C63.1725 6.90024 62.9753 6.91891 62.7779 6.91301ZM63.2462 3.96856C63.1403 3.97413 63.0365 4.00088 62.9411 4.04722C62.8457 4.09357 62.7605 4.15858 62.6906 4.2384C62.5037 4.43192 62.3745 4.67381 62.3176 4.93682H62.4049C62.716 4.94983 63.0258 4.89004 63.3097 4.76221C63.406 4.72696 63.4895 4.66335 63.549 4.57977C63.6085 4.49619 63.6413 4.39654 63.643 4.29396C63.6437 4.24805 63.6349 4.20251 63.6171 4.16017C63.5994 4.11783 63.5731 4.07962 63.5398 4.04793C63.455 3.98646 63.3505 3.95822 63.2462 3.96856Z" fill="white"/>
<path d="M66.667 6.84958L67.1273 4.76228C67.1584 4.62938 67.1769 4.49387 67.1829 4.35752C67.1906 4.30326 67.1857 4.24796 67.1686 4.19589C67.1515 4.14382 67.1227 4.09638 67.0843 4.05725C67.0459 4.01811 66.9991 3.98833 66.9474 3.97022C66.8956 3.9521 66.8404 3.94612 66.786 3.95276C66.6242 3.95602 66.469 4.01808 66.3495 4.12736C66.1839 4.26775 66.0488 4.44063 65.9527 4.6353C65.835 4.87427 65.7496 5.1278 65.6987 5.38926L65.3971 6.84958H64.667L65.3971 3.43688H65.9606L65.8971 4.0718C66.0318 3.85918 66.2104 3.67786 66.421 3.54006C66.6 3.43011 66.8061 3.37238 67.0162 3.37339C67.1328 3.36685 67.2494 3.38464 67.3587 3.42563C67.468 3.46663 67.5676 3.52992 67.6511 3.61149C67.7322 3.70154 67.7943 3.80695 67.8338 3.92147C67.8734 4.03599 67.8895 4.15728 67.8813 4.27815C67.8757 4.46523 67.8518 4.65131 67.8098 4.83371L67.4606 6.84958H66.667Z" fill="white"/>
<path d="M69.659 6.34941C69.8194 6.34544 69.9779 6.3132 70.1272 6.25417V6.80973C70.0326 6.84899 69.9342 6.87825 69.8336 6.89703C69.7114 6.9259 69.5861 6.93923 69.4605 6.93671C68.8971 6.93671 68.6113 6.68274 68.6113 6.14306C68.6123 6.00631 68.631 5.87026 68.6669 5.7383L69.0478 3.96846H68.5479L68.6113 3.62719L69.1986 3.37322L69.5955 2.65894H70.0479L69.8891 3.45259H70.7463L70.6352 3.96846H69.7621L69.3891 5.7383C69.3625 5.83119 69.3491 5.92738 69.3494 6.02401C69.345 6.09954 69.3707 6.17375 69.4209 6.23036C69.4496 6.26626 69.4857 6.2955 69.5268 6.31605C69.5679 6.3366 69.613 6.34799 69.659 6.34941Z" fill="white"/>
<path d="M75.0958 5.55596C75.1039 5.74796 75.0681 5.93928 74.9911 6.11533C74.9141 6.29139 74.7979 6.44753 74.6513 6.57184C74.2967 6.83396 73.8613 6.96318 73.4212 6.93692C73.0477 6.95322 72.6762 6.87401 72.3418 6.70676V5.99247C72.6724 6.18454 73.0468 6.2884 73.4291 6.29406C73.665 6.30454 73.8981 6.24069 74.0958 6.11152C74.1735 6.05419 74.2359 5.97856 74.2774 5.89135C74.319 5.80413 74.3384 5.70802 74.3339 5.61152C74.3369 5.47366 74.2921 5.33901 74.2069 5.23057C74.0551 5.06089 73.8752 4.9186 73.6751 4.80993C73.5027 4.70108 73.343 4.5733 73.1989 4.42898C73.098 4.31984 73.0173 4.19351 72.9608 4.05596C72.9057 3.9144 72.8787 3.76342 72.8815 3.61152C72.8774 3.36286 72.9435 3.11809 73.072 2.90517C73.2026 2.70005 73.3901 2.53736 73.6116 2.43692C73.8598 2.32096 74.1314 2.26392 74.4053 2.27025C74.817 2.26666 75.2232 2.36481 75.5878 2.55596L75.3021 3.17501C75.0197 3.02783 74.7077 2.94643 74.3894 2.93692C74.1942 2.92665 74.002 2.98883 73.8497 3.11152C73.7839 3.17163 73.7321 3.24539 73.6978 3.32765C73.6635 3.40991 73.6477 3.49867 73.6513 3.58771C73.6377 3.67182 73.6377 3.75757 73.6513 3.84168C73.6859 3.91861 73.7344 3.98855 73.7942 4.04803C73.9272 4.15585 74.0678 4.25398 74.2148 4.34168C74.4738 4.48474 74.6986 4.68243 74.8735 4.92104C75.0124 5.10413 75.0901 5.32625 75.0958 5.55596Z" fill="white"/>
<path d="M78.8251 4.71468C78.8213 5.10664 78.7347 5.49337 78.5711 5.8496C78.443 6.16904 78.2253 6.44465 77.9442 6.64325C77.6778 6.82569 77.3622 6.92259 77.0394 6.92102C76.8659 6.92924 76.6926 6.90179 76.5302 6.84036C76.3677 6.77893 76.2196 6.68483 76.095 6.56388C75.9757 6.43513 75.8834 6.28387 75.8235 6.11896C75.7635 5.95405 75.7371 5.77882 75.7458 5.60356C75.7443 5.21431 75.8198 4.8286 75.968 4.46864C76.0994 4.15337 76.3132 3.87925 76.587 3.67499C76.8569 3.48662 77.1786 3.38678 77.5077 3.38928C77.6814 3.3786 77.8554 3.40492 78.0182 3.46648C78.181 3.52805 78.3289 3.62346 78.4521 3.74642C78.5755 3.87495 78.672 4.02677 78.736 4.19302C78.8001 4.35926 78.8304 4.5366 78.8251 4.71468ZM78.095 4.71468C78.1062 4.53041 78.0529 4.34799 77.9442 4.1988C77.8959 4.12753 77.8308 4.06924 77.7547 4.0291C77.6786 3.98896 77.5937 3.96819 77.5077 3.96864C77.3133 3.97268 77.1282 4.05241 76.9918 4.19087C76.8279 4.36041 76.708 4.56749 76.6426 4.79404C76.5556 5.04948 76.5126 5.31786 76.5156 5.58769C76.5024 5.77462 76.5559 5.96017 76.6664 6.1115C76.7236 6.17343 76.7939 6.22191 76.8721 6.25347C76.9503 6.28503 77.0346 6.29888 77.1188 6.29404C77.2123 6.29451 77.305 6.27573 77.391 6.23886C77.4771 6.202 77.5546 6.14784 77.6188 6.07975C77.7768 5.93679 77.8968 5.75679 77.968 5.55594C78.0565 5.27356 78.0994 4.97884 78.095 4.68293V4.71468Z" fill="white"/>
<path d="M78.8802 8.37329C78.7238 8.37735 78.5678 8.35316 78.4199 8.30186V7.71456C78.5354 7.75219 78.6557 7.77356 78.7771 7.77805C79.0548 7.77805 79.2374 7.56376 79.3247 7.14313L79.9914 3.96853H79.4437L79.5072 3.64313L80.1025 3.40503L80.158 3.17488C80.2083 2.85086 80.3549 2.54945 80.5787 2.3098C80.799 2.12254 81.0838 2.02858 81.3723 2.04789C81.5963 2.04644 81.8181 2.09242 82.0231 2.18281L81.8326 2.7225C81.6982 2.6715 81.5558 2.64463 81.412 2.64313C81.3494 2.6395 81.2868 2.64891 81.228 2.67077C81.1693 2.69263 81.1157 2.72646 81.0707 2.77011C80.9678 2.89593 80.8994 3.04637 80.8723 3.20662L80.8168 3.47646H81.531L81.412 4.02408H80.7056L80.0152 7.27805C79.9707 7.59832 79.8295 7.89737 79.6104 8.13519C79.5114 8.22258 79.3955 8.28878 79.2699 8.32973C79.1444 8.37068 79.0118 8.3855 78.8802 8.37329Z" fill="white"/>
<path d="M82.6983 6.34941C82.8562 6.34535 83.0121 6.31309 83.1586 6.25417V6.80973C83.0668 6.84913 82.971 6.87841 82.8729 6.89703C82.7506 6.92549 82.6254 6.93882 82.4999 6.93671C81.9364 6.93671 81.6507 6.68274 81.6507 6.14306C81.6526 6.00686 81.6686 5.87123 81.6983 5.7383L82.0713 3.96846H81.5713L81.6348 3.62719L82.2221 3.37322L82.6268 2.65894H83.0792L82.9126 3.45259H83.7776L83.6586 4.00021H82.8015L82.4205 5.77005C82.411 5.86505 82.411 5.96076 82.4205 6.05576C82.4194 6.0937 82.4258 6.13149 82.4394 6.16692C82.453 6.20235 82.4736 6.23471 82.4999 6.26211C82.5533 6.31418 82.6238 6.34518 82.6983 6.34941Z" fill="white"/>
<path d="M86.2222 6.84947L86.1667 4.91296V4.69867V4.07962C86.1111 4.20661 86.0556 4.33359 86.0079 4.46851L84.9365 6.84947H84.1429L84 3.43677H84.6825V5.42883C84.6825 5.61137 84.6825 5.86534 84.6825 6.22248C84.8175 5.8574 84.9286 5.57962 85.0159 5.38121L85.881 3.46851H86.6746L86.7381 5.33359V6.19074C86.7381 6.08756 86.8333 5.92089 86.9206 5.69867C87.0079 5.47645 87.0635 5.30978 87.1111 5.19074L87.9048 3.43677H88.6984L87.1111 6.84947H86.2222Z" fill="white"/>
<path d="M89.6114 6.91307C89.4801 6.91899 89.3493 6.89407 89.2294 6.84032C89.1095 6.78657 89.0038 6.70548 88.9209 6.60355C88.7401 6.34657 88.6507 6.03639 88.6669 5.7226C88.6659 5.32052 88.7414 4.92192 88.8891 4.54799C89.0115 4.21633 89.2163 3.92132 89.4844 3.69085C89.7021 3.49296 89.9839 3.38024 90.278 3.37339C90.4604 3.36838 90.6401 3.41814 90.7939 3.51625C90.9429 3.61495 91.0589 3.7559 91.1272 3.92101L91.3256 3.43688H91.8812L91.151 6.84958H90.5876L90.651 6.3099C90.534 6.48189 90.3798 6.62538 90.1998 6.72978C90.0199 6.83418 89.8188 6.89682 89.6114 6.91307ZM89.8733 6.32577C90.0645 6.31431 90.2438 6.22893 90.3733 6.08768C90.5491 5.90209 90.6867 5.68363 90.778 5.44482C90.8825 5.16581 90.9336 4.86968 90.9288 4.5718C90.9381 4.41347 90.8871 4.25749 90.786 4.1353C90.7392 4.08051 90.6806 4.03705 90.6146 4.00818C90.5487 3.97932 90.477 3.96579 90.405 3.96863C90.3109 3.97178 90.2185 3.9946 90.1338 4.0356C90.049 4.07661 89.9738 4.1349 89.913 4.20672C89.742 4.39036 89.6145 4.61006 89.5399 4.84958C89.4476 5.12307 89.402 5.41015 89.405 5.69879C89.3934 5.86611 89.4351 6.03282 89.5241 6.17498C89.5638 6.23014 89.6164 6.27484 89.6772 6.30525C89.738 6.33566 89.8053 6.35087 89.8733 6.34958V6.32577Z" fill="white"/>
<path d="M94.5079 3.37325C94.6183 3.35573 94.7308 3.35573 94.8412 3.37325L94.6825 4.04785C94.5794 4.01712 94.4726 4.00109 94.365 4.00023C94.2312 4.00321 94.0997 4.03611 93.9802 4.09654C93.8607 4.15697 93.7563 4.24338 93.6746 4.34944C93.4543 4.61394 93.3066 4.93121 93.246 5.27007L92.9126 6.80976H92.1904L92.9126 3.39706H93.4841L93.4206 4.03198C93.557 3.82118 93.732 3.63807 93.9365 3.4923C94.1121 3.4001 94.31 3.35886 94.5079 3.37325Z" fill="white"/>
<path d="M96.2067 6.91312C96.0331 6.9236 95.8592 6.89875 95.6955 6.84009C95.5318 6.78144 95.3817 6.69018 95.2543 6.57185C95.1368 6.44222 95.0462 6.29062 94.9877 6.1258C94.9291 5.96099 94.9037 5.7862 94.913 5.61153C94.9124 5.21993 94.9964 4.83282 95.159 4.47661C95.2981 4.1591 95.5202 3.88493 95.8019 3.68296C96.0717 3.49459 96.3935 3.39475 96.7225 3.39725C97.005 3.37585 97.2859 3.45452 97.5162 3.61947C97.606 3.69817 97.677 3.79614 97.7237 3.90608C97.7704 4.01601 97.7917 4.13507 97.786 4.25439C97.7887 4.4334 97.7429 4.6098 97.6535 4.7649C97.5641 4.91999 97.4344 5.048 97.2781 5.13534C96.8267 5.37285 96.319 5.48261 95.8098 5.4528H95.6749V5.63534C95.6647 5.8306 95.7268 6.02278 95.8495 6.17502C95.9181 6.24286 96.0002 6.29556 96.0904 6.32973C96.1806 6.36391 96.277 6.37879 96.3733 6.37344C96.5236 6.37123 96.6729 6.34989 96.8178 6.30994C96.9952 6.25893 97.1678 6.19254 97.3336 6.11153V6.66709C97.1572 6.74683 96.9739 6.81058 96.786 6.85756C96.5959 6.89971 96.4013 6.91836 96.2067 6.91312ZM96.6829 3.92899C96.5756 3.93351 96.4703 3.95975 96.3734 4.00613C96.2766 4.05252 96.1901 4.11807 96.1194 4.19883C95.9324 4.39235 95.8032 4.63424 95.7463 4.89725H95.8336C96.1442 4.92173 96.4562 4.87561 96.7463 4.76233C96.8406 4.7249 96.9217 4.66053 96.9796 4.57724C97.0375 4.49396 97.0695 4.39547 97.0717 4.29407C97.074 4.24796 97.0659 4.20194 97.048 4.15937C97.0302 4.1168 97.003 4.07876 96.9686 4.04804C96.8861 3.98778 96.7846 3.95957 96.6829 3.96868V3.92899Z" fill="white"/>
</svg>
