<svg width="145" height="27" viewBox="0 0 145 27" fill="none" xmlns="http://www.w3.org/2000/svg">
<path d="M7 25.5H0L10.5 7L14 12.5L21.5 0.5L28.5 12.5L32.5 6.5L43.5 25.5H36L28.5 13.5L21.5 25.5L14 13.5L7 25.5Z" fill="#E52F32"/>
<path d="M52.1104 10.8135C51.2842 10.8135 50.6396 11.1533 50.1768 11.833C49.7139 12.5068 49.4824 13.4385 49.4824 14.6279C49.4824 17.1006 50.4229 18.3369 52.3037 18.3369C52.8721 18.3369 53.4229 18.2578 53.9561 18.0996C54.4893 17.9414 55.0254 17.751 55.5645 17.5283V20.4639C54.4922 20.9385 53.2793 21.1758 51.9258 21.1758C49.9863 21.1758 48.498 20.6133 47.4609 19.4883C46.4297 18.3633 45.9141 16.7373 45.9141 14.6104C45.9141 13.2803 46.1631 12.1113 46.6611 11.1035C47.165 10.0957 47.8857 9.32227 48.8232 8.7832C49.7666 8.23828 50.874 7.96582 52.1455 7.96582C53.5342 7.96582 54.8613 8.26758 56.127 8.87109L55.0635 11.6045C54.5889 11.3818 54.1143 11.1943 53.6396 11.042C53.165 10.8896 52.6553 10.8135 52.1104 10.8135ZM61.3301 21H57.8936V11.042H61.3301V21ZM57.8057 8.56348C57.8057 8.04785 57.9492 7.66406 58.2363 7.41211C58.5234 7.16016 58.9863 7.03418 59.625 7.03418C60.2637 7.03418 60.7295 7.16309 61.0225 7.4209C61.3154 7.67871 61.4619 8.05957 61.4619 8.56348C61.4619 9.57129 60.8496 10.0752 59.625 10.0752C58.4121 10.0752 57.8057 9.57129 57.8057 8.56348ZM68.6074 18.46C69.0703 18.46 69.624 18.3457 70.2686 18.1172V20.6221C69.8057 20.8213 69.3633 20.9619 68.9414 21.0439C68.5254 21.1318 68.0361 21.1758 67.4736 21.1758C66.3193 21.1758 65.4873 20.8945 64.9775 20.332C64.4678 19.7637 64.2129 18.8936 64.2129 17.7217V13.6172H63.0088V12.2197L64.5381 11.1387L65.4258 9.04688H67.6758V11.042H70.1191V13.6172H67.6758V17.4932C67.6758 18.1377 67.9863 18.46 68.6074 18.46ZM70.8047 11.042H74.4258L76.1133 16.7549C76.1953 17.0537 76.251 17.4141 76.2803 17.8359H76.3506C76.3975 17.4316 76.4678 17.0771 76.5615 16.7725L78.293 11.042H81.7998L77.8623 21.6328C77.3584 22.9805 76.7373 23.9326 75.999 24.4893C75.2666 25.0459 74.3086 25.3242 73.125 25.3242C72.668 25.3242 72.1992 25.2744 71.7188 25.1748V22.4766C72.0293 22.5469 72.3838 22.582 72.7822 22.582C73.0869 22.582 73.3535 22.5234 73.582 22.4062C73.8105 22.2891 74.0098 22.1221 74.1797 21.9053C74.3496 21.6943 74.5312 21.3457 74.7246 20.8594L70.8047 11.042ZM88.7959 21L86.168 11.7451H86.0889C86.2119 13.3213 86.2734 14.5459 86.2734 15.4189V21H83.1973V8.15039H87.8203L90.501 17.2734H90.5713L93.1992 8.15039H97.8311V21H94.6406V15.3662C94.6406 15.0732 94.6436 14.748 94.6494 14.3906C94.6611 14.0332 94.7021 13.1572 94.7725 11.7627H94.6934L92.1006 21H88.7959ZM106.893 21L106.233 19.6816H106.163C105.7 20.2559 105.229 20.6484 104.748 20.8594C104.268 21.0703 103.646 21.1758 102.885 21.1758C101.947 21.1758 101.209 20.8945 100.67 20.332C100.131 19.7695 99.8613 18.9785 99.8613 17.959C99.8613 16.8984 100.23 16.1104 100.969 15.5947C101.707 15.0732 102.776 14.7803 104.177 14.7158L105.838 14.6631V14.5225C105.838 13.7021 105.434 13.292 104.625 13.292C103.898 13.292 102.976 13.5381 101.856 14.0303L100.863 11.7627C102.023 11.165 103.488 10.8662 105.258 10.8662C106.535 10.8662 107.522 11.1826 108.22 11.8154C108.923 12.4482 109.274 13.333 109.274 14.4697V21H106.893ZM104.344 18.75C104.76 18.75 105.114 18.6182 105.407 18.3545C105.706 18.0908 105.855 17.748 105.855 17.3262V16.5527L105.064 16.5879C103.934 16.6289 103.368 17.0449 103.368 17.8359C103.368 18.4453 103.693 18.75 104.344 18.75ZM115.049 21H111.612V7.32422H115.049V21ZM120.867 21H117.431V7.32422H120.867V21ZM122.818 19.541C122.818 19.002 122.977 18.5859 123.293 18.293C123.615 18 124.081 17.8535 124.69 17.8535C125.271 17.8535 125.716 18 126.026 18.293C126.337 18.5859 126.492 19.002 126.492 19.541C126.492 20.0684 126.331 20.4814 126.009 20.7803C125.692 21.0732 125.253 21.2197 124.69 21.2197C124.11 21.2197 123.653 21.0732 123.319 20.7803C122.985 20.4873 122.818 20.0742 122.818 19.541ZM134.947 21L134.288 19.6816H134.218C133.755 20.2559 133.283 20.6484 132.803 20.8594C132.322 21.0703 131.701 21.1758 130.939 21.1758C130.002 21.1758 129.264 20.8945 128.725 20.332C128.186 19.7695 127.916 18.9785 127.916 17.959C127.916 16.8984 128.285 16.1104 129.023 15.5947C129.762 15.0732 130.831 14.7803 132.231 14.7158L133.893 14.6631V14.5225C133.893 13.7021 133.488 13.292 132.68 13.292C131.953 13.292 131.03 13.5381 129.911 14.0303L128.918 11.7627C130.078 11.165 131.543 10.8662 133.312 10.8662C134.59 10.8662 135.577 11.1826 136.274 11.8154C136.978 12.4482 137.329 13.333 137.329 14.4697V21H134.947ZM132.398 18.75C132.814 18.75 133.169 18.6182 133.462 18.3545C133.761 18.0908 133.91 17.748 133.91 17.3262V16.5527L133.119 16.5879C131.988 16.6289 131.423 17.0449 131.423 17.8359C131.423 18.4453 131.748 18.75 132.398 18.75ZM143.104 21H139.667V7.32422H143.104V21Z" fill="white"/>
</svg>
