<svg width="60" height="60" viewBox="0 0 60 60" fill="none" xmlns="http://www.w3.org/2000/svg">
<rect width="60" height="60" fill="#239EBE"/>
<path d="M46.4067 26.5621C46.1826 26.5643 45.9606 26.6051 45.7504 26.6829V26.5621C45.7505 25.2094 45.3299 23.8902 44.5468 22.7873L46.2144 21.1197L45.2865 20.1917L43.6838 21.7943C41.1643 19.4019 37.2125 19.4019 34.693 21.7943L33.0891 20.1917L32.1611 21.1197L33.8287 22.7873C33.0456 23.8902 32.625 25.2094 32.6251 26.5621V26.6829C32.4149 26.6051 32.1929 26.5643 31.9688 26.5621C30.8814 26.5621 30 27.4436 30 28.5309V33.7811C30 34.8684 30.8814 35.7499 31.9688 35.7499C32.1929 35.7477 32.4149 35.7068 32.6251 35.6291V37.0624H34.5939V41H38.5315V37.0624H39.844V41H43.7816V37.0624H45.7504V35.6291C45.9606 35.7068 46.1826 35.7477 46.4067 35.7499C47.4941 35.7499 48.3755 34.8684 48.3755 33.7811V28.5309C48.3755 27.4436 47.4941 26.5621 46.4067 26.5621ZM32.6251 33.7811C32.6251 34.1435 32.3313 34.4373 31.9688 34.4373C31.6063 34.4373 31.3125 34.1435 31.3125 33.7811V28.5309C31.3125 28.1684 31.6063 27.8746 31.9688 27.8746C32.3313 27.8746 32.6251 28.1684 32.6251 28.5309V33.7811ZM37.2189 39.6875H35.9064V37.0624H37.2189V39.6875ZM42.4691 39.6875H41.1566V37.0624H42.4691V39.6875ZM44.4379 35.7499H33.9376V27.8746H44.4379V35.7499ZM33.9376 26.5621C33.9376 23.6625 36.2882 21.312 39.1878 21.312C42.0873 21.312 44.4379 23.6625 44.4379 26.5621H33.9376ZM47.063 33.7811C47.063 34.1435 46.7692 34.4373 46.4067 34.4373C46.0442 34.4373 45.7504 34.1435 45.7504 33.7811V28.5309C45.7504 28.1684 46.0442 27.8746 46.4067 27.8746C46.7692 27.8746 47.063 28.1684 47.063 28.5309V33.7811Z" fill="white"/>
<path d="M37.875 23.937H36.5625V25.2496H37.875V23.937Z" fill="white"/>
<path d="M41.8125 23.937H40.5V25.2496H41.8125V23.937Z" fill="white"/>
<path d="M26.4187 34.4497C25.7706 34.0558 24.4226 33.2354 24.4226 31.1014C24.4226 29.3004 25.6127 28.3915 26.2519 27.9032L26.2653 27.8929C26.5219 27.697 26.5831 27.3321 26.4049 27.0611C24.9768 24.8894 22.5241 24.8267 22.0473 24.8357H22.0444C21.7174 24.8361 21.4053 24.8743 21.1093 24.9345C21.2186 24.846 21.3247 24.7517 21.4267 24.6516C22.4484 23.6505 23.0099 22.1733 22.9666 20.5978C22.9573 20.2653 22.6885 20 22.3598 20C21.2547 20 19.9982 20.6687 19.0805 21.7453C18.1559 22.8301 17.724 24.1297 17.896 25.3105C17.9102 25.4085 17.9474 25.4978 18.0009 25.5745C17.839 25.5196 17.6677 25.4556 17.4985 25.3925C16.8557 25.1526 16.1267 24.8808 15.4442 24.8808C15.4304 24.8808 14.0427 24.8911 12.6571 25.7627C11.4451 26.5257 10 28.1135 10 31.3478C10 33.03 10.6489 35.3849 11.6532 37.3479C12.347 38.7041 13.7869 40.9803 15.636 40.991H15.6559C17.0043 40.991 18.1215 40.1846 18.8813 40.1846C20.1791 40.1846 20.641 41 22.0444 41C23.3026 41 24.5218 40.032 25.6686 38.1236C26.0896 37.4225 26.4171 36.7292 26.6175 36.2709C27 35.3976 27 35.2812 27 35.1959C27 34.8036 26.7045 34.6236 26.4187 34.4497ZM19.9998 22.5488C20.4981 21.9642 21.1259 21.5305 21.7206 21.339C21.6068 22.2938 21.2085 23.1544 20.5823 23.7677C20.1435 24.1978 19.6168 24.4774 19.0821 24.5737C19.1388 23.8981 19.4578 23.1847 19.9998 22.5488ZM24.5724 37.5808C23.7057 38.9927 22.8079 39.7701 22.0444 39.7701C20.994 39.7701 20.503 38.9546 18.8813 38.9546C17.7871 38.9546 16.7432 39.7668 15.6429 39.761C14.7847 39.7561 13.6691 38.6147 12.7316 36.7821C11.8099 34.9811 11.2144 32.848 11.2144 31.3478C11.2144 29.2241 11.9038 27.7043 13.2623 26.8303C14.32 26.1501 15.4021 26.112 15.4478 26.1108C16.3958 26.1132 17.7119 26.9631 18.6708 26.9631C19.5343 26.9631 20.6904 26.0657 22.0489 26.0657H22.0711C22.4007 26.0591 23.9563 26.0964 25.0493 27.2976C24.2769 27.9565 23.2082 29.1413 23.2082 31.1014C23.2082 33.7639 24.8708 34.9327 25.6561 35.4202C25.4605 35.8998 25.0877 36.7415 24.5724 37.5808Z" fill="white"/>
</svg>
