<svg width="132" height="20" viewBox="0 0 132 20" fill="none" xmlns="http://www.w3.org/2000/svg">
<path d="M13.0549 12.8316L6.52747 6.41582L13.0549 0H6.52747L0 6.41582L3.26374 9.65978L6.52747 12.8316L9.79121 16.0035L13.0549 12.8316Z" fill="white"/>
<path d="M17.6975 9.65997L14.4337 6.41601L11.17 3.24414L7.97878 6.41601L14.4337 12.8318L7.90625 19.2477H14.4337L17.6975 16.0758L20.9612 12.8318L17.6975 9.65997Z" fill="white"/>
<path d="M29.0841 6.41615C28.1412 6.41615 27.3434 6.7045 26.7632 7.35329C26.183 8.00208 25.8929 8.86714 25.8929 10.0205C25.8929 11.1739 26.183 12.039 26.6907 12.6878C27.2709 13.3366 27.9962 13.6249 29.0115 13.6249C29.6643 13.6249 30.317 13.4808 31.1148 13.2645V14.2016C30.4621 14.4179 29.7368 14.5621 28.8665 14.5621C27.561 14.5621 26.5456 14.2016 25.8203 13.4087C25.0951 12.6157 24.7324 11.4623 24.7324 10.0205C24.7324 9.0834 24.8775 8.29043 25.2401 7.64164C25.6028 6.99285 26.1104 6.41615 26.6907 6.05571C27.2709 5.69527 28.0687 5.479 29.0115 5.479C29.9544 5.479 30.7522 5.62318 31.4775 5.98362L31.0423 6.84867C30.4621 6.63241 29.8093 6.41615 29.0841 6.41615Z" fill="white"/>
<path d="M38.1503 12.1109C38.1503 12.9039 37.8602 13.4806 37.28 13.9131C36.6998 14.3456 35.9745 14.5619 34.9591 14.5619C33.8712 14.5619 33.0734 14.4177 32.4932 14.1294V13.1201C32.8558 13.2643 33.291 13.4085 33.6536 13.4806C34.0162 13.5527 34.5239 13.6248 34.9591 13.6248C35.6844 13.6248 36.1921 13.4806 36.4822 13.2643C36.8448 12.976 36.9899 12.6155 36.9899 12.183C36.9899 11.8946 36.9173 11.6063 36.7723 11.4621C36.6272 11.2459 36.4097 11.1017 36.1195 10.8854C35.8294 10.7412 35.3943 10.525 34.814 10.3087C34.0162 10.0204 33.3635 9.65992 33.0734 9.2274C32.7107 8.79487 32.5657 8.29025 32.5657 7.64146C32.5657 6.99267 32.8558 6.41597 33.3635 5.98344C33.8712 5.55091 34.5965 5.40674 35.3943 5.40674C36.2646 5.40674 37.0624 5.55091 37.8602 5.91135L37.5701 6.77641C36.8448 6.48806 36.1195 6.34388 35.3943 6.34388C34.814 6.34388 34.4514 6.48806 34.0888 6.70432C33.7987 6.92058 33.6536 7.28102 33.6536 7.71355C33.6536 8.0019 33.7261 8.29025 33.7987 8.43443C33.9437 8.65069 34.0888 8.79487 34.3789 8.93905C34.669 9.08322 35.0316 9.29949 35.6118 9.51575C36.5547 9.87619 37.2075 10.2366 37.5701 10.5971C38.0053 11.0296 38.1503 11.5342 38.1503 12.1109Z" fill="white"/>
<path d="M45.04 12.1109C45.04 12.9039 44.7498 13.4806 44.1696 13.9131C43.5894 14.3456 42.8641 14.5619 41.8487 14.5619C40.7608 14.5619 39.963 14.4177 39.3828 14.1294V13.1201C39.7454 13.2643 40.1806 13.4085 40.5433 13.4806C40.9059 13.5527 41.4136 13.6248 41.8487 13.6248C42.574 13.6248 43.0817 13.4806 43.3718 13.2643C43.7345 12.976 43.8795 12.6155 43.8795 12.183C43.8795 11.8946 43.807 11.6063 43.6619 11.4621C43.5169 11.2459 43.2993 11.1017 43.0092 10.8854C42.7191 10.7412 42.2839 10.525 41.7037 10.3087C40.9059 10.0204 40.2531 9.65992 39.963 9.2274C39.6004 8.79487 39.4553 8.29025 39.4553 7.64146C39.4553 6.99267 39.7455 6.41597 40.2531 5.98344C40.7608 5.55091 41.4861 5.40674 42.2839 5.40674C43.1542 5.40674 43.952 5.55091 44.7498 5.91135L44.4597 6.77641C43.7345 6.48806 43.0092 6.34388 42.2839 6.34388C41.7037 6.34388 41.3411 6.48806 40.9784 6.70432C40.6883 6.92058 40.5433 7.28102 40.5433 7.71355C40.5433 8.0019 40.6158 8.29025 40.6883 8.43443C40.8334 8.65069 40.9784 8.79487 41.2685 8.93905C41.5586 9.08322 41.9213 9.29949 42.5015 9.51575C43.4444 9.87619 44.0971 10.2366 44.4597 10.5971C44.8224 11.0296 45.04 11.5342 45.04 12.1109Z" fill="white"/>
<path d="M54.1066 9.87623C54.1066 11.318 53.6714 12.4714 52.8736 13.2644C52.0758 14.0573 50.9154 14.4899 49.3923 14.4899H46.4912V5.62305H49.5374C50.9879 5.62305 52.0758 5.98349 52.8736 6.70437C53.6714 7.42524 54.1066 8.50656 54.1066 9.87623ZM51.6407 9.94832C51.6407 9.15535 51.4956 8.50656 51.133 8.14612C50.8429 7.78568 50.3352 7.56942 49.6824 7.56942H48.9571V12.5435H49.4648C50.1901 12.5435 50.6978 12.3272 51.0604 11.8947C51.4956 11.4622 51.6407 10.8134 51.6407 9.94832Z" fill="white"/>
<path d="M58.893 14.6343C57.7325 14.6343 56.8622 14.3459 56.2095 13.6971C55.5567 13.1204 55.2666 12.2554 55.2666 11.102C55.2666 9.94855 55.5567 9.08349 56.1369 8.4347C56.7171 7.78591 57.5875 7.49756 58.6754 7.49756C59.6908 7.49756 60.4886 7.78591 61.0688 8.29053C61.649 8.79514 61.9391 9.58811 61.9391 10.5973V11.6787H57.66C57.66 12.0391 57.8051 12.3274 58.0952 12.6158C58.3853 12.8321 58.7479 12.9762 59.1831 12.9762C59.6182 12.9762 59.9809 12.9042 60.3435 12.8321C60.7062 12.76 61.0688 12.6158 61.504 12.3995V14.1296C61.1413 14.3459 60.7787 14.418 60.3435 14.4901C59.9084 14.5622 59.4732 14.6343 58.893 14.6343ZM58.7479 9.15558C58.4578 9.15558 58.2402 9.22767 58.0226 9.44393C57.8051 9.58811 57.7325 9.87646 57.66 10.2369H59.6908C59.6908 9.87646 59.6182 9.6602 59.4007 9.44393C59.3281 9.22767 59.1106 9.15558 58.7479 9.15558Z" fill="white"/>
<path d="M68.6122 12.3994C68.6122 13.1203 68.3946 13.697 67.8869 14.0574C67.3792 14.4179 66.6539 14.6341 65.7111 14.6341C65.2034 14.6341 64.7682 14.6341 64.4056 14.562C64.0429 14.49 63.6078 14.4179 63.2451 14.2737V12.3994C63.6078 12.5436 64.0429 12.6878 64.4781 12.8319C64.9132 12.904 65.2759 12.9761 65.6385 12.9761C66.1462 12.9761 66.4363 12.8319 66.4363 12.6157C66.4363 12.4715 66.3638 12.3994 66.2187 12.3273C66.0737 12.2552 65.6385 12.039 64.9858 11.7506C64.333 11.4623 63.8979 11.1739 63.6803 10.8856C63.4627 10.5251 63.3176 10.1647 63.3176 9.66006C63.3176 9.01127 63.5352 8.50666 64.0429 8.14622C64.5506 7.78578 65.2034 7.6416 66.1462 7.6416C66.5814 7.6416 67.0165 7.71369 67.4517 7.78578C67.8869 7.85787 68.2495 8.00204 68.6847 8.2183L68.0319 9.73215C67.7418 9.58798 67.3792 9.4438 67.0165 9.37171C66.6539 9.29962 66.3638 9.22754 66.1462 9.22754C65.7836 9.22754 65.566 9.29962 65.566 9.51589C65.566 9.66006 65.6385 9.73215 65.7836 9.80424C65.9286 9.87633 66.2913 10.0205 66.944 10.3089C67.4517 10.5251 67.8144 10.6693 68.0319 10.8856C68.2495 11.1018 68.4671 11.3181 68.5396 11.5343C68.5396 11.6785 68.6122 12.039 68.6122 12.3994Z" fill="white"/>
<path d="M69.917 5.9114C69.917 5.55096 69.9895 5.26261 70.2071 5.11843C70.4247 4.97425 70.7148 4.83008 71.15 4.83008C71.5851 4.83008 71.9478 4.90217 72.0928 5.11843C72.3104 5.26261 72.3829 5.55096 72.3829 5.9114C72.3829 6.63228 71.9478 6.92063 71.0774 6.92063C70.2796 6.99272 69.917 6.63228 69.917 5.9114ZM72.3104 14.4899H69.917V7.64151H72.3104V14.4899Z" fill="white"/>
<path d="M80.5054 7.64173V8.79514L79.5625 9.15558C79.7076 9.37184 79.7801 9.6602 79.7801 9.94855C79.7801 10.6694 79.49 11.2461 78.9823 11.6787C78.4746 12.1112 77.6768 12.2554 76.6615 12.2554C76.3713 12.2554 76.2263 12.2554 76.0812 12.1833C76.0087 12.2554 76.0087 12.3995 76.0087 12.4716C76.0087 12.6158 76.0812 12.6879 76.2988 12.76C76.5164 12.8321 76.734 12.8321 77.0241 12.8321H78.1845C79.7076 12.8321 80.5054 13.4809 80.5054 14.7784C80.5054 15.6435 80.1428 16.2923 79.4175 16.7248C78.6922 17.1573 77.6768 17.4457 76.3713 17.4457C75.4285 17.4457 74.6307 17.3015 74.123 16.9411C73.6153 16.6527 73.3252 16.1481 73.3252 15.5714C73.3252 14.7784 73.8329 14.2017 74.8483 13.9855C74.6307 13.9134 74.4856 13.7692 74.2681 13.5529C74.123 13.3367 74.0505 13.1925 74.0505 12.9762C74.0505 12.76 74.123 12.5437 74.1955 12.3995C74.3406 12.2554 74.5582 12.0391 74.9208 11.8228C74.5582 11.6787 74.268 11.3903 74.0505 11.102C73.8329 10.7415 73.7604 10.3811 73.7604 9.87646C73.7604 9.15558 74.0505 8.57888 74.5582 8.14635C75.0659 7.71382 75.7911 7.49756 76.734 7.49756C76.879 7.49756 77.0966 7.49756 77.3867 7.56965C77.6768 7.56965 77.8944 7.64173 78.0395 7.64173H80.5054ZM75.2834 15.3551C75.2834 15.5714 75.356 15.7156 75.5735 15.8598C75.7911 16.0039 76.0812 16.0039 76.4439 16.0039C77.0241 16.0039 77.4593 15.9318 77.8219 15.7877C78.1845 15.6435 78.3296 15.4272 78.3296 15.211C78.3296 14.9947 78.2571 14.9226 78.0395 14.8505C77.8219 14.7784 77.5318 14.7064 77.0966 14.7064H76.1538C75.8637 14.7064 75.7186 14.7784 75.501 14.8505C75.356 14.9947 75.2834 15.1389 75.2834 15.3551ZM76.0087 9.87646C76.0087 10.5973 76.2263 10.9578 76.734 10.9578C76.9516 10.9578 77.1691 10.8857 77.2417 10.6694C77.3867 10.5253 77.4593 10.2369 77.4593 9.87646C77.4593 9.15558 77.2417 8.79514 76.734 8.79514C76.2988 8.79514 76.0087 9.15558 76.0087 9.87646Z" fill="white"/>
<path d="M85.8734 14.49V10.7414C85.8734 10.3089 85.8009 9.94841 85.6558 9.73215C85.5108 9.51589 85.2932 9.37171 85.0031 9.37171C84.5679 9.37171 84.2778 9.51589 84.1327 9.87633C83.9877 10.1647 83.8426 10.7414 83.8426 11.5343V14.562H81.4492V7.71369H83.2624L83.5525 8.57874H83.6976C83.9152 8.29039 84.2053 8.00204 84.5679 7.85787C84.9305 7.71369 85.3657 7.6416 85.8009 7.6416C86.5987 7.6416 87.1789 7.85787 87.6141 8.29039C88.0492 8.72292 88.2668 9.37171 88.2668 10.1647V14.6341H85.8734V14.49Z" fill="white"/>
<path d="M95.8818 14.4899L94.7939 11.6784H91.24L90.1521 14.4899H89.1367L92.6906 5.62305H93.5609L97.0422 14.4899H95.8818ZM94.4312 10.7413L93.4159 8.00195C93.2708 7.64151 93.1257 7.20898 92.9807 6.70437C92.9082 7.06481 92.7631 7.49733 92.618 8.00195L91.6027 10.7413H94.4312Z" fill="white"/>
<path d="M103.498 14.4897L102.265 10.5969C102.192 10.3807 102.047 9.80397 101.83 9.01101H101.757C101.612 9.73189 101.467 10.2365 101.322 10.669L100.089 14.5618H98.9284L97.1152 7.92969H98.2031C98.6383 9.58771 98.9284 10.8853 99.2185 11.7503C99.4361 12.6154 99.5812 13.1921 99.5812 13.4805H99.6537C99.7262 13.2642 99.7987 12.9758 99.8713 12.6154C99.9438 12.255 100.089 11.9666 100.161 11.7503L101.394 7.92969H102.482L103.643 11.7503C103.86 12.4712 104.005 13.0479 104.078 13.4805H104.15C104.15 13.3363 104.223 13.12 104.295 12.8317C104.368 12.5433 104.803 10.8853 105.528 7.92969H106.544L104.731 14.5618H103.498V14.4897Z" fill="white"/>
<path d="M111.838 14.4896L111.62 13.5525H111.548C111.185 13.985 110.895 14.2734 110.533 14.4176C110.17 14.5617 109.807 14.6338 109.3 14.6338C108.647 14.6338 108.139 14.4896 107.777 14.1292C107.414 13.7688 107.196 13.3362 107.196 12.6874C107.196 11.3178 108.284 10.669 110.46 10.5969L111.62 10.5248V10.0923C111.62 9.58767 111.475 9.15514 111.258 8.93887C111.04 8.72261 110.678 8.57843 110.17 8.57843C109.59 8.57843 109.009 8.72261 108.284 9.08305L107.994 8.29008C108.357 8.14591 108.647 8.00173 109.082 7.85756C109.445 7.78547 109.88 7.71338 110.242 7.71338C111.04 7.71338 111.62 7.85755 111.983 8.21799C112.346 8.57843 112.563 9.15514 112.563 9.87602V14.4176H111.838V14.4896ZM109.517 13.7688C110.17 13.7688 110.605 13.6246 110.968 13.2641C111.33 12.9037 111.475 12.4712 111.475 11.8224V11.2457L110.46 11.3178C109.662 11.3178 109.082 11.462 108.719 11.6782C108.357 11.8945 108.212 12.2549 108.212 12.6874C108.212 13.0479 108.357 13.3362 108.574 13.4804C108.864 13.6967 109.155 13.7688 109.517 13.7688Z" fill="white"/>
<path d="M117.713 7.71338C118.003 7.71338 118.293 7.71338 118.511 7.78547L118.366 8.72261C118.076 8.65052 117.858 8.65052 117.641 8.65052C117.133 8.65052 116.625 8.86679 116.263 9.29931C115.9 9.73184 115.682 10.3085 115.682 10.9573V14.4896H114.667V7.85755H115.465L115.61 9.08305H115.682C115.9 8.65052 116.263 8.29008 116.553 8.07382C116.915 7.85755 117.278 7.71338 117.713 7.71338Z" fill="white"/>
<path d="M124.313 13.6248C123.805 14.2736 123.08 14.6341 122.137 14.6341C121.267 14.6341 120.614 14.3457 120.106 13.769C119.598 13.1923 119.381 12.3273 119.381 11.2459C119.381 10.1646 119.598 9.29957 120.106 8.72287C120.614 8.14617 121.267 7.78573 122.137 7.78573C123.007 7.78573 123.733 8.14617 124.24 8.79496H124.313L124.24 8.29034V7.85782V5.04639H125.256V14.4899H124.458L124.313 13.6248ZM122.282 13.769C123.007 13.769 123.442 13.5528 123.805 13.1923C124.095 12.8319 124.24 12.1831 124.24 11.3901V11.1739C124.24 10.2367 124.095 9.58792 123.733 9.1554C123.442 8.72287 122.935 8.57869 122.209 8.57869C121.629 8.57869 121.194 8.79496 120.831 9.29957C120.541 9.7321 120.324 10.3809 120.324 11.2459C120.324 12.111 120.469 12.7598 120.759 13.1923C121.194 13.5528 121.629 13.769 122.282 13.769Z" fill="white"/>
<path d="M131.711 12.6874C131.711 13.3362 131.493 13.7688 130.985 14.1292C130.55 14.4896 129.897 14.6338 129.027 14.6338C128.157 14.6338 127.432 14.4896 126.924 14.2013V13.2641C127.214 13.4083 127.577 13.5525 127.939 13.6246C128.302 13.6967 128.664 13.7688 129.027 13.7688C129.535 13.7688 129.97 13.6967 130.26 13.5525C130.55 13.4083 130.695 13.12 130.695 12.7595C130.695 12.4712 130.55 12.2549 130.333 12.1107C130.115 11.8945 129.68 11.6782 129.027 11.462C128.374 11.2457 127.939 11.0294 127.722 10.8852C127.432 10.7411 127.286 10.5248 127.141 10.3085C126.996 10.0923 126.924 9.80393 126.924 9.51558C126.924 9.01096 127.141 8.57843 127.577 8.21799C128.012 7.85755 128.592 7.71338 129.39 7.71338C130.115 7.71338 130.84 7.85755 131.493 8.14591L131.13 8.93887C130.478 8.65052 129.825 8.50635 129.317 8.50635C128.81 8.50635 128.447 8.57843 128.229 8.72261C128.012 8.86679 127.867 9.08305 127.867 9.3714C127.867 9.51558 127.939 9.73184 128.012 9.80393C128.084 9.9481 128.229 10.0202 128.447 10.1644C128.664 10.3085 129.027 10.4527 129.607 10.669C130.405 10.9573 130.913 11.2457 131.203 11.534C131.566 11.8945 131.711 12.2549 131.711 12.6874Z" fill="white"/>
</svg>
