<svg width="26" height="37" viewBox="0 0 26 37" fill="none" xmlns="http://www.w3.org/2000/svg">
<path d="M26 7.51318L23.6313 34.0483L12.9841 37L2.36616 34.0524L0 7.51318H26Z" fill="#264DE4"/>
<path d="M21.6035 32.3585L23.6277 9.68311H13V34.7438L21.6035 32.3585Z" fill="#2965F1"/>
<path d="M5.42383 19.5261L5.71556 22.781H12.9995V19.5261H5.42383Z" fill="#EBEBEB"/>
<path d="M12.9997 12.938H12.9885H4.83789L5.13378 16.193H12.9997V12.938Z" fill="#EBEBEB"/>
<path d="M12.9998 31.3659V27.9794L12.9855 27.9832L9.3605 27.0044L9.12876 24.4084H7.36728H5.86133L6.31734 29.5192L12.9848 31.3701L12.9998 31.3659Z" fill="#EBEBEB"/>
<path d="M6.11914 0.301025H10.0614V1.94962H7.76773V3.59821H10.0614V5.2468H6.11914V0.301025Z" fill="black"/>
<path d="M10.8496 0.301025H14.7919V1.73458H12.4982V2.02129H14.7919V5.31848H10.8496V3.81324H13.1433V3.52653H10.8496V0.301025Z" fill="black"/>
<path d="M15.5801 0.301025H19.5224V1.73458H17.2287V2.02129H19.5224V5.31848H15.5801V3.81324H17.8738V3.52653H15.5801V0.301025Z" fill="black"/>
<path d="M16.9964 22.7809L16.6185 27.0023L12.9883 27.9822V31.3685L19.6611 29.5192L19.71 28.9692L20.4749 20.4001L20.5543 19.526L21.1419 12.938H12.9883V16.193H17.5748L17.2786 19.526H12.9883V22.7809H16.9964Z" fill="white"/>
</svg>
