<svg width="44" height="62" viewBox="0 0 44 62" fill="none" xmlns="http://www.w3.org/2000/svg">
<path d="M17.3167 0.488041C9.11022 2.20285 2.45612 8.79326 0.705225 17.0508C-0.773208 24.0236 1.04865 31.024 5.70361 36.2571C7.97909 38.8149 9.28399 42.1914 9.28399 45.5301V49.1629C9.28399 51.5799 10.8663 53.6333 13.0492 54.3445C13.767 58.5858 17.4483 61.9987 21.9988 61.9987C26.5482 61.9987 30.2304 58.5869 30.9485 54.3445C33.1314 53.6333 34.7137 51.5799 34.7137 49.1628V45.53C34.7137 42.1847 36.0229 38.8489 38.4 36.1368C41.8795 32.1674 43.7957 27.0742 43.7957 21.7957C43.7957 8.04369 31.2081 -2.41409 17.3167 0.488041ZM21.9988 58.366C19.6639 58.366 17.6167 56.7593 16.8607 54.6H27.1368C26.381 56.7593 24.3338 58.366 21.9988 58.366ZM31.0809 49.1629C31.0809 50.1645 30.266 50.9793 29.2645 50.9793H14.7332C13.7316 50.9793 12.9168 50.1645 12.9168 49.1629V47.3465H31.0809V49.1629ZM35.6681 33.7424C33.1349 36.6326 31.5763 40.1177 31.1808 43.7137H12.8173C12.4223 40.1157 10.8677 36.5964 8.41817 33.8426C4.53857 29.4813 3.0226 23.6355 4.25909 17.8043C5.7024 10.9972 11.2485 5.46742 18.0599 4.0442C29.6878 1.61421 40.1629 10.3465 40.1629 21.7957C40.1629 26.1929 38.5666 30.4356 35.6681 33.7424Z" fill="white"/>
</svg>
