<svg width="67" height="55" viewBox="0 0 67 55" fill="none" xmlns="http://www.w3.org/2000/svg">
<path d="M49.0375 46.3711C48.4427 46.3711 47.8478 46.146 47.3816 45.712C46.417 44.7956 46.3688 43.2683 47.2851 42.3037L61.2559 27.497L47.2851 12.6902C46.3688 11.7256 46.417 10.1983 47.3816 9.28196C48.3462 8.36558 49.8735 8.41381 50.7899 9.37842L66.3361 25.841C67.2203 26.7735 67.2203 28.2204 66.3361 29.1529L50.7899 45.6155C50.3076 46.1139 49.6645 46.3711 49.0375 46.3711Z" fill="white"/>
<path d="M17.9618 46.3711C17.3187 46.3711 16.6756 46.1139 16.2094 45.6155L0.663167 29.1529C-0.221056 28.2204 -0.221056 26.7735 0.663167 25.841L16.2094 9.37842C17.1258 8.41381 18.6531 8.36558 19.6177 9.28196C20.5823 10.1983 20.6305 11.7256 19.7142 12.6902L5.72735 27.497L19.6981 42.3037C20.6145 43.2683 20.5662 44.7956 19.6016 45.712C19.1354 46.146 18.5406 46.3711 17.9618 46.3711Z" fill="white"/>
<path d="M29.7945 54.104C29.6659 54.104 29.5534 54.0879 29.4247 54.0719C28.1064 53.8629 27.2061 52.641 27.3991 51.3227L34.7944 2.94769C35.0034 1.62939 36.2252 0.729092 37.5435 0.922014C38.8618 1.13101 39.7621 2.35285 39.5692 3.67114L32.1739 52.0462C31.997 53.2519 30.9681 54.104 29.7945 54.104Z" fill="white"/>
</svg>
