<svg width="60" height="60" viewBox="0 0 60 60" fill="none" xmlns="http://www.w3.org/2000/svg">
<rect width="60" height="60" fill="#239EBE"/>
<path d="M45.1572 39.5049V18.0005H15V39.505H25.7501L25.2138 42.234H23.8789V44.0011H36.2796V42.234H34.9447L34.4084 39.505H45.1572V39.5049ZM43.3901 19.7675V34.4392H16.767V19.7675H43.3901ZM16.767 36.2062H43.3901V37.7379H16.767V36.2062ZM33.1439 42.234H27.0146L27.5509 39.5049H32.6075L33.1439 42.234Z" fill="#FDFDFD"/>
<path d="M20.6525 29.8286H27.5931L28.6717 24.111H21.3725L20.8852 21.5278H18.3984V23.2949H19.4203L20.6525 29.8286ZM26.5401 25.878L26.1282 28.0616H22.1174L21.7055 25.878H26.5401Z" fill="#FDFDFD"/>
<path d="M25.1309 30.9282H26.8979V32.6954H25.1309V30.9282Z" fill="#FDFDFD"/>
<path d="M21.3457 30.9282H23.1127V32.6954H21.3457V30.9282Z" fill="#FDFDFD"/>
<path d="M32.7305 22.552H41.7435V24.319H32.7305V22.552Z" fill="#FDFDFD"/>
<path d="M32.7305 26.0864H41.7435V27.8534H32.7305V26.0864Z" fill="#FDFDFD"/>
<path d="M32.7305 29.6206H41.7435V31.3876H32.7305V29.6206Z" fill="#FDFDFD"/>
</svg>
