<svg width="142" height="32" viewBox="0 0 142 32" fill="none" xmlns="http://www.w3.org/2000/svg">
<g clip-path="url(#clip0)">
<path d="M38.2708 20.0533C36.8581 20.0533 35.728 19.6266 34.9156 18.8089C34.1033 17.9911 33.7148 16.8177 33.7148 15.36C33.7148 13.8666 34.1033 12.6577 34.845 11.8044C35.5867 10.9511 36.6109 10.5244 37.9177 10.5244C39.1185 10.5244 40.072 10.88 40.7784 11.6266C41.4847 12.3733 41.8379 13.3689 41.8379 14.6844V15.7511H35.728C35.7633 16.64 36.0105 17.3155 36.4343 17.8133C36.8581 18.3111 37.5292 18.5244 38.3415 18.5244C38.8712 18.5244 39.401 18.4889 39.8601 18.3822C40.3193 18.2755 40.8137 18.0978 41.3788 17.8844V19.4844C40.9197 19.6978 40.4252 19.8755 39.9308 19.9822C39.4363 20.0889 38.8712 20.0533 38.2708 20.0533ZM37.8823 12.0177C37.2466 12.0177 36.7522 12.2311 36.399 12.6222C36.0458 13.0133 35.7986 13.5822 35.728 14.3644H39.8954C39.8954 13.6177 39.7189 13.0133 39.3657 12.6222C39.0125 12.2311 38.5181 12.0177 37.8823 12.0177Z" fill="black"/>
<path d="M45.9698 19.9111H44.0273V6.93335H45.9698V19.9111Z" fill="black"/>
<path d="M54.4823 19.911L54.0939 18.631H54.0232C53.5994 19.1999 53.1403 19.591 52.6811 19.7688C52.222 19.9466 51.6569 20.0888 50.9506 20.0888C50.0676 20.0888 49.3613 19.8399 48.8315 19.3421C48.3017 18.8443 48.0898 18.1688 48.0898 17.2799C48.0898 16.3199 48.443 15.6088 49.1494 15.1466C49.8557 14.6843 50.9153 14.3999 52.3633 14.3643L53.9526 14.3288V13.831C53.9526 13.2266 53.8113 12.7999 53.5288 12.5155C53.2462 12.231 52.8224 12.0888 52.2573 12.0888C51.7982 12.0888 51.3391 12.1599 50.9153 12.3021C50.4914 12.4443 50.0676 12.6221 49.6791 12.7999L49.0434 11.4132C49.5379 11.1643 50.0676 10.951 50.668 10.8088C51.2684 10.6666 51.7982 10.5955 52.328 10.5955C53.4935 10.5955 54.3764 10.8443 54.9768 11.3777C55.5772 11.911 55.8597 12.6932 55.8597 13.7955V19.911H54.4823ZM51.5863 18.5599C52.2926 18.5599 52.8577 18.3466 53.2815 17.9555C53.7054 17.5643 53.9173 16.9955 53.9173 16.2843V15.5021L52.7518 15.5377C51.8335 15.5732 51.1625 15.7155 50.7387 15.9999C50.3149 16.2843 50.103 16.711 50.103 17.2799C50.103 17.7066 50.2089 18.0266 50.4561 18.2399C50.7034 18.4532 51.0918 18.5599 51.5863 18.5599Z" fill="black"/>
<path d="M64.7244 17.28C64.7244 18.1689 64.4065 18.88 63.7355 19.3423C63.0644 19.8045 62.1462 20.0534 60.9454 20.0534C59.7092 20.0534 58.7557 19.8756 58.014 19.4845V17.7778C59.0735 18.2756 60.0977 18.5245 61.016 18.5245C62.2168 18.5245 62.8172 18.1689 62.8172 17.4223C62.8172 17.1734 62.7466 16.9956 62.6053 16.8534C62.464 16.7111 62.2521 16.5334 61.9343 16.3556C61.6164 16.1778 61.1926 16 60.6628 15.7867C59.6033 15.36 58.8969 14.9689 58.5084 14.5423C58.12 14.1156 57.9434 13.5823 57.9434 12.9423C57.9434 12.16 58.2612 11.5556 58.8969 11.0934C59.5327 10.6311 60.3803 10.4534 61.4751 10.4534C62.5347 10.4534 63.5589 10.6667 64.5125 11.1289L63.8767 12.5867C62.8878 12.16 62.0755 11.9823 61.3692 11.9823C60.345 11.9823 59.8152 12.2667 59.8152 12.8711C59.8152 13.1556 59.9565 13.4045 60.2037 13.6178C60.4509 13.8311 61.0513 14.08 61.9696 14.4356C62.7112 14.72 63.2763 15.0045 63.6295 15.2534C63.9827 15.5023 64.2299 15.7867 64.4065 16.1067C64.6537 16.4623 64.7244 16.8178 64.7244 17.28Z" fill="black"/>
<path d="M70.2334 18.4889C70.6925 18.4889 71.187 18.4178 71.6461 18.2755V19.7333C71.4342 19.84 71.1517 19.9111 70.7985 19.9822C70.4453 20.0533 70.0921 20.0889 69.7389 20.0889C67.9024 20.0889 66.9842 19.0933 66.9842 17.1733V12.1955H65.748V11.3422L67.0901 10.6311L67.7612 8.67554H68.962V10.7378H71.5755V12.2311H68.962V17.1733C68.962 17.6355 69.0679 17.9911 69.3151 18.2044C69.5624 18.4178 69.8802 18.4889 70.2334 18.4889Z" fill="black"/>
<path d="M73.377 8.24895C73.377 7.89339 73.4829 7.64451 73.6595 7.43117C73.8361 7.21784 74.1186 7.14673 74.4718 7.14673C74.825 7.14673 75.0722 7.2534 75.2841 7.43117C75.496 7.60895 75.5666 7.89339 75.5666 8.24895C75.5666 8.56895 75.4607 8.8534 75.2841 9.03117C75.1075 9.20895 74.825 9.31562 74.4718 9.31562C74.1186 9.31562 73.8361 9.20895 73.6595 9.03117C73.4829 8.8534 73.377 8.56895 73.377 8.24895ZM75.4607 19.9112H73.5182V10.7023H75.4607V19.9112Z" fill="black"/>
<path d="M81.9237 20.0535C80.5463 20.0535 79.4868 19.6623 78.7804 18.8446C78.074 18.0268 77.6855 16.8535 77.6855 15.3246C77.6855 13.7601 78.074 12.5868 78.8157 11.7335C79.5574 10.8801 80.6522 10.489 82.065 10.489C83.0185 10.489 83.9015 10.6668 84.6785 11.0223L84.0781 12.5868C83.2658 12.2668 82.5947 12.089 82.0296 12.089C80.4403 12.089 79.6633 13.1557 79.6633 15.2535C79.6633 16.2846 79.8753 17.0668 80.2638 17.6001C80.6523 18.1335 81.2527 18.3823 81.9943 18.3823C82.8773 18.3823 83.6896 18.169 84.4666 17.7423V19.449C84.1134 19.6623 83.7602 19.8046 83.3364 19.8757C82.9126 19.9468 82.4888 20.0535 81.9237 20.0535Z" fill="black"/>
<path d="M92.7654 17.28C92.7654 18.1689 92.4475 18.88 91.7765 19.3423C91.1054 19.8045 90.1872 20.0534 88.9864 20.0534C87.7503 20.0534 86.7967 19.8756 86.055 19.4845V17.7778C87.1145 18.2756 88.1388 18.5245 89.057 18.5245C90.2578 18.5245 90.8582 18.1689 90.8582 17.4223C90.8582 17.1734 90.7876 16.9956 90.6463 16.8534C90.505 16.7111 90.2931 16.5334 89.9753 16.3556C89.6574 16.1778 89.2336 16 88.7038 15.7867C87.6443 15.36 86.938 14.9689 86.5495 14.5423C86.161 14.1156 85.9844 13.5823 85.9844 12.9423C85.9844 12.16 86.3022 11.5556 86.938 11.0934C87.5737 10.6311 88.4213 10.4534 89.5161 10.4534C90.5757 10.4534 91.5999 10.6667 92.5535 11.1289L91.9178 12.5867C90.9289 12.16 90.1166 11.9823 89.4102 11.9823C88.386 11.9823 87.8562 12.2667 87.8562 12.8711C87.8562 13.1556 87.9975 13.4045 88.2447 13.6178C88.4919 13.8311 89.0923 14.08 90.0106 14.4356C90.7523 14.72 91.3174 15.0045 91.6705 15.2534C92.0237 15.5023 92.2709 15.7867 92.4475 16.1067C92.6947 16.4623 92.7654 16.8178 92.7654 17.28Z" fill="black"/>
<path d="M98.8763 20.0533C97.4636 20.0533 96.3334 19.6266 95.5211 18.8089C94.7088 17.9911 94.3203 16.8177 94.3203 15.36C94.3203 13.8666 94.7088 12.6577 95.4505 11.8044C96.1922 10.9511 97.2164 10.5244 98.5231 10.5244C99.7239 10.5244 100.678 10.88 101.384 11.6266C102.09 12.3733 102.443 13.3689 102.443 14.6844V15.7511H96.3334C96.3687 16.64 96.616 17.3155 97.0398 17.8133C97.4636 18.3111 98.1346 18.5244 98.9469 18.5244C99.4767 18.5244 100.006 18.4889 100.466 18.3822C100.925 18.2755 101.419 18.0978 101.984 17.8844V19.4844C101.525 19.6978 101.031 19.8755 100.536 19.9822C100.042 20.0889 99.512 20.0533 98.8763 20.0533ZM98.5231 12.0177C97.8874 12.0177 97.393 12.2311 97.0398 12.6222C96.6866 13.0133 96.4394 13.5822 96.3687 14.3644H100.536C100.536 13.6177 100.36 13.0133 100.006 12.6222C99.6533 12.2311 99.1235 12.0177 98.5231 12.0177Z" fill="black"/>
<path d="M110.353 19.911L109.965 18.631H109.894C109.471 19.1999 109.011 19.591 108.552 19.7688C108.093 19.9466 107.528 20.0888 106.822 20.0888C105.939 20.0888 105.232 19.8399 104.703 19.3421C104.173 18.8443 103.961 18.1688 103.961 17.2799C103.961 16.3199 104.314 15.6088 105.02 15.1466C105.727 14.6843 106.786 14.3999 108.234 14.3643L109.824 14.3288V13.831C109.824 13.2266 109.682 12.7999 109.4 12.5155C109.117 12.231 108.694 12.0888 108.128 12.0888C107.669 12.0888 107.21 12.1599 106.786 12.3021C106.363 12.4443 105.939 12.6221 105.55 12.7999L104.915 11.4132C105.409 11.1643 105.939 10.951 106.539 10.8088C107.14 10.6666 107.669 10.5955 108.199 10.5955C109.365 10.5955 110.247 10.8443 110.848 11.3777C111.448 11.911 111.731 12.6932 111.731 13.7955V19.911H110.353ZM107.457 18.5599C108.164 18.5599 108.729 18.3466 109.153 17.9555C109.576 17.5643 109.788 16.9955 109.788 16.2843V15.5021L108.623 15.5377C107.705 15.5732 107.034 15.7155 106.61 15.9999C106.186 16.2843 105.974 16.711 105.974 17.2799C105.974 17.7066 106.08 18.0266 106.327 18.2399C106.574 18.4532 106.998 18.5599 107.457 18.5599Z" fill="black"/>
<path d="M119.113 10.5244C119.502 10.5244 119.819 10.56 120.067 10.5955L119.89 12.4089C119.608 12.3377 119.325 12.3022 119.042 12.3022C118.265 12.3022 117.63 12.5511 117.135 13.0844C116.641 13.6177 116.394 14.2577 116.394 15.0755V19.9111H114.451V10.7022H115.97L116.217 12.3377H116.323C116.641 11.8044 117.029 11.3422 117.524 11.0222C118.018 10.7022 118.548 10.5244 119.113 10.5244Z" fill="black"/>
<path d="M125.471 20.0535C124.093 20.0535 123.034 19.6623 122.327 18.8446C121.621 18.0268 121.232 16.8535 121.232 15.3246C121.232 13.7601 121.621 12.5868 122.363 11.7335C123.104 10.8801 124.199 10.489 125.612 10.489C126.565 10.489 127.448 10.6668 128.225 11.0223L127.625 12.5868C126.813 12.2668 126.142 12.089 125.576 12.089C123.987 12.089 123.21 13.1557 123.21 15.2535C123.21 16.2846 123.422 17.0668 123.811 17.6001C124.199 18.1335 124.8 18.3823 125.541 18.3823C126.424 18.3823 127.236 18.169 128.013 17.7423V19.449C127.66 19.6623 127.307 19.8046 126.883 19.8757C126.459 19.9468 126.036 20.0535 125.471 20.0535Z" fill="black"/>
<path d="M138.22 19.9111H136.278V14.2222C136.278 13.5111 136.136 12.9778 135.854 12.6222C135.571 12.2667 135.112 12.0889 134.512 12.0889C133.7 12.0889 133.099 12.3378 132.711 12.8356C132.322 13.3333 132.146 14.1511 132.146 15.2889V19.9111H130.203V6.93335H132.146V10.24C132.146 10.7733 132.11 11.3422 132.04 11.9467H132.181C132.463 11.52 132.817 11.1645 133.276 10.9156C133.735 10.6667 134.3 10.56 134.936 10.56C137.161 10.56 138.256 11.6978 138.256 13.9378V19.9111H138.22Z" fill="black"/>
<path d="M20.0826 11.5557H12.7012C12.7365 11.7334 12.8071 11.9112 12.8424 12.0534C13.0897 12.9068 13.2309 13.7957 13.3016 14.7201C13.3369 15.0757 13.3369 15.4668 13.3369 15.8223C13.3369 16.1779 13.3369 16.569 13.3016 16.9246C13.2309 17.849 13.0897 18.7379 12.8424 19.5912C12.8071 19.769 12.7365 19.9468 12.7012 20.089H20.0826C22.4135 20.089 24.2854 18.169 24.2854 15.8223C24.2854 13.4757 22.4135 11.5557 20.0826 11.5557Z" fill="#00A9E5"/>
<path d="M13.3019 16.9246C13.3373 16.569 13.3373 16.1779 13.3373 15.8223C13.3373 15.4668 13.3373 15.0757 13.3019 14.7201C13.2313 13.7957 13.09 12.9068 12.8428 12.0534C12.8075 11.8757 12.7369 11.6979 12.7015 11.5557H1.29392C0.870108 12.9068 0.658203 14.329 0.658203 15.8223C0.658203 17.3157 0.870108 18.7379 1.29392 20.089H12.7015C12.7369 19.9112 12.8075 19.7334 12.8428 19.5912C13.09 18.7379 13.2313 17.849 13.3019 16.9246Z" fill="#353535"/>
<path d="M21.3548 21.511H12.1722C11.8896 22.151 11.5718 22.7554 11.2186 23.3243C10.6888 24.2132 10.0531 24.9954 9.34676 25.7421C9.09953 25.991 8.85231 26.2043 8.60509 26.4532C8.11064 26.9154 7.54555 27.3065 6.98047 27.6976C9.20549 29.191 11.8896 30.0443 14.7504 30.0443C19.6595 30.0443 23.9683 27.5199 26.5112 23.7154C25.2044 22.3643 23.3679 21.511 21.3548 21.511Z" fill="#00BFB3"/>
<path d="M11.2187 23.3243C11.5719 22.7554 11.8898 22.151 12.1723 21.511H1.82422C2.91907 24.0354 4.72027 26.2043 7.01592 27.6976C7.58101 27.3065 8.11077 26.9154 8.64054 26.4532C8.88776 26.2399 9.13499 25.991 9.38221 25.7421C10.0532 25.031 10.689 24.2132 11.2187 23.3243Z" fill="#019B8F"/>
<path d="M9.34705 5.90233C9.09983 5.65344 8.85261 5.44011 8.60538 5.19122C8.11093 4.729 7.54585 4.33789 6.98077 3.94678C4.72043 5.44011 2.91923 7.609 1.78906 10.1334H12.1372C11.8546 9.49344 11.5368 8.889 11.1836 8.32011C10.6891 7.43122 10.0534 6.61344 9.34705 5.90233Z" fill="#F9B110"/>
<path d="M14.7504 1.59985C11.8896 1.59985 9.20549 2.45319 6.98047 3.94652C7.54555 4.33763 8.07532 4.72874 8.60509 5.19096C8.85231 5.4043 9.09953 5.65319 9.34676 5.90208C10.0531 6.64874 10.6888 7.43097 11.2186 8.31985C11.5718 8.88874 11.8896 9.49319 12.1722 10.1332H21.3548C23.3679 10.1332 25.2044 9.27985 26.5112 7.92874C23.9683 4.1243 19.6595 1.59985 14.7504 1.59985Z" fill="#FED10A"/>
</g>
<defs>
<clipPath id="clip0">
<rect width="142" height="32" fill="white"/>
</clipPath>
</defs>
</svg>
