<svg width="63" height="24" viewBox="0 0 63 24" fill="none" xmlns="http://www.w3.org/2000/svg">
<g clip-path="url(#clip0)">
<path d="M8.78989 21.5045L18.3845 11.7554H11.408L5.30273 17.9598L8.78989 21.5045Z" fill="#39CEFD"/>
<path d="M0.0683594 12.6426L11.4076 1.12329H18.3841L3.5577 16.1873L0.0683594 12.6426Z" fill="#39CEFD"/>
<path d="M11.4072 24.1619H18.3837L12.2784 17.9597L8.78906 21.5044L11.4072 24.1619Z" fill="#03569B"/>
<path d="M12.2784 17.9597L8.78906 21.5044L13.9641 19.6833L12.2784 17.9597Z" fill="url(#paint0_linear)"/>
<path d="M5.30273 17.9584L8.79216 14.4136L12.2818 17.9584L8.79216 21.5033L5.30273 17.9584Z" fill="#16B9FD"/>
<path d="M18.3841 11.7553L12.2789 17.9596L18.3841 24.164H11.4076L5.30019 17.9596L11.4076 11.7553H18.3841ZM11.4076 1.12329L0.0683594 12.6426L3.5577 16.1873L18.3841 1.12329H11.4076Z" fill="url(#paint1_radial)"/>
<path d="M20.5977 7.29932H26.6952V8.51074H21.8352V12.1759H26.2227V13.3725H21.8352V18.0096H20.5977V7.29932ZM28.1706 7.29932H29.4222V18.0102H28.1706V7.29932ZM34.0009 18.2496C33.0979 18.2496 32.4042 17.9803 31.9197 17.4416C31.4517 16.8995 31.2177 16.1466 31.2177 15.1827V10.381H32.4692V14.9885C32.4692 15.7123 32.6312 16.2456 32.9552 16.5885C33.2792 16.9313 33.7161 17.1027 34.2658 17.1027C34.6881 17.1027 35.0631 16.9881 35.3908 16.7587C35.7283 16.5294 35.9833 16.2304 36.1558 15.8616C36.3422 15.4921 36.4354 15.1031 36.4354 14.6947V10.3862H37.6864V18.0147H36.4939V16.9027H36.4348C36.2286 17.2818 35.8997 17.6008 35.4482 17.8599C34.9967 18.1189 34.5156 18.2485 34.0048 18.2485L34.0009 18.2496Z" fill="#808080"/>
<path d="M42.503 18.1302C42.1985 18.1302 41.9139 18.0803 41.6491 17.9805C41.3941 17.8807 41.1781 17.746 41.0011 17.5765C40.8046 17.3872 40.6574 17.1678 40.5596 16.9182C40.4613 16.6691 40.4122 16.3649 40.4122 16.0057V11.5331H39.1016V10.3811H40.4122V8.22681H41.6638V10.3811H43.4896V11.5331H41.6638V15.6919C41.6638 16.111 41.7425 16.4201 41.9 16.6194C42.0864 16.8388 42.3564 16.9485 42.71 16.9485C42.995 16.9485 43.2699 16.8638 43.5346 16.6942V17.936C43.3873 18.0057 43.235 18.0556 43.0779 18.0857C42.9305 18.1161 42.7393 18.1314 42.5041 18.1314L42.503 18.1302Z" fill="#808080"/>
<path d="M47.8116 18.1302C47.5071 18.1302 47.2225 18.0803 46.9577 17.9805C46.7027 17.8807 46.4867 17.746 46.3097 17.5765C46.1132 17.3872 45.966 17.1678 45.8682 16.9182C45.7699 16.6691 45.7208 16.3649 45.7208 16.0057V11.5331H44.4102V10.3811H45.7208V8.22681H46.9723V10.3811H48.7982V11.5331H46.9723V15.6919C46.9723 16.111 47.0511 16.4201 47.2086 16.6194C47.395 16.8388 47.665 16.9485 48.0186 16.9485C48.3036 16.9485 48.5785 16.8638 48.8432 16.6942V17.936C48.6958 18.0057 48.5436 18.0556 48.3865 18.0857C48.2391 18.1161 48.0478 18.1314 47.8127 18.1314L47.8116 18.1302Z" fill="#808080"/>
<path d="M53.3246 18.2495C52.6121 18.2495 51.969 18.075 51.3952 17.7261C50.826 17.3771 50.3794 16.8985 50.0554 16.2901C49.7411 15.6718 49.584 14.9785 49.584 14.2101C49.584 13.4722 49.7312 12.7941 50.0255 12.1758C50.33 11.5575 50.7572 11.0638 51.3069 10.6947C51.8567 10.3251 52.4947 10.1404 53.2211 10.1404C53.9572 10.1404 54.5953 10.3118 55.1353 10.6547C55.6753 10.9838 56.0878 11.4425 56.3728 12.0307C56.6672 12.6192 56.8144 13.2924 56.8144 14.0501C56.8144 14.1998 56.7994 14.3293 56.7694 14.4387H50.835C50.865 15.017 51.0024 15.5057 51.2473 15.905C51.4925 16.3038 51.8019 16.6029 52.1754 16.8021C52.5579 17.0017 52.9554 17.1015 53.3679 17.1015C54.3302 17.1015 55.0714 16.6429 55.5915 15.7255L56.6518 16.249C56.3278 16.8672 55.886 17.356 55.3265 17.7152C54.7768 18.0741 54.1093 18.2535 53.324 18.2535L53.3246 18.2495ZM55.4891 13.3878C55.4696 13.0686 55.3815 12.7495 55.2247 12.4307C55.0672 12.1114 54.8169 11.8421 54.4738 11.6227C54.1363 11.4032 53.7144 11.2935 53.2082 11.2935C52.6194 11.2935 52.1188 11.4878 51.7063 11.8764C51.3039 12.2554 51.0388 12.759 50.9109 13.3872H55.4908L55.4891 13.3878ZM58.2645 10.381H59.457V11.6078H59.516C59.6634 11.1888 59.948 10.8448 60.3699 10.5758C60.7922 10.2966 61.2339 10.157 61.6952 10.157C62.0387 10.157 62.333 10.2069 62.5783 10.3067V11.6827C62.264 11.5227 61.9106 11.4427 61.518 11.4427C61.1542 11.4427 60.8205 11.5474 60.5167 11.757C60.2122 11.9665 59.9685 12.2507 59.7855 12.6095C59.6092 12.9585 59.5211 13.3394 59.5211 13.7524V18.0152H58.2695V10.3867L58.2645 10.381Z" fill="#808080"/>
</g>
<defs>
<linearGradient id="paint0_linear" x1="9.80737" y1="22.1885" x2="12.4471" y2="19.5901" gradientUnits="userSpaceOnUse">
<stop stop-color="#1A237E" stop-opacity="0.4"/>
<stop offset="1" stop-color="#1A237E" stop-opacity="0"/>
</linearGradient>
<radialGradient id="paint1_radial" cx="0" cy="0" r="1" gradientUnits="userSpaceOnUse" gradientTransform="translate(0.582912 2.69368) scale(27.7471 28.1875)">
<stop stop-color="white" stop-opacity="0.1"/>
<stop offset="1" stop-color="white" stop-opacity="0"/>
</radialGradient>
<clipPath id="clip0">
<rect width="63" height="24" fill="white"/>
</clipPath>
</defs>
</svg>
