<svg width="26" height="37" viewBox="0 0 26 37" fill="none" xmlns="http://www.w3.org/2000/svg">
<path d="M2.42188 0H4.07017V1.63396H5.58946V0H7.23775V4.94487H5.58946V3.29658H4.0845V4.94487H2.42188V0ZM9.41636 1.64829H7.96157V0H12.5266V1.64829H11.0647V4.94487H9.41636V1.64829ZM13.2504 0H14.9776L16.0382 1.74146L17.0988 0H18.826V4.94487H17.1777V2.49394L16.0239 4.27122L14.8701 2.49394V4.94487H13.2504V0ZM19.6429 0H21.2912V3.31091H23.6275V4.94487H19.6429" fill="black"/>
<path d="M2.36494 33.7541L0 7.20947H26L23.6351 33.7398L12.9785 36.6924" fill="#E44D26"/>
<path d="M13 34.435V9.38818H23.6279L21.5998 32.0343" fill="#F16529"/>
<path d="M4.83008 12.6345H12.9999V15.8881H8.39899L8.69998 19.2205H12.9999V22.4669H5.71872L4.83008 12.6345ZM5.86205 24.1009H9.12997L9.35929 26.7023L12.9999 27.677V31.0739L6.32071 29.2106" fill="#EBEBEB"/>
<path d="M21.1418 12.6345H12.9863V15.8881H20.8408L21.1418 12.6345ZM20.547 19.2205H12.9863V22.4741H16.9996L16.6197 26.7023L12.9863 27.677V31.0595L19.6512 29.2106" fill="white"/>
</svg>
