<svg width="19" height="18" viewBox="0 0 19 18" fill="none" xmlns="http://www.w3.org/2000/svg">
<g clip-path="url(#clip0)">
<path d="M18.8258 5.29205C18.7836 4.33564 18.6289 3.67812 18.4074 3.10836C18.1788 2.50359 17.8272 1.96213 17.3665 1.51201C16.9164 1.05489 16.3713 0.699691 15.7736 0.474702C15.2005 0.253147 14.5464 0.0984842 13.59 0.0563159C12.6265 0.0105764 12.3206 0 9.87675 0C7.43291 0 7.12702 0.0105764 6.16704 0.0527447C5.21064 0.0949129 4.55311 0.249713 3.9835 0.471131C3.37858 0.699691 2.83713 1.05132 2.38701 1.51201C1.92989 1.96213 1.57483 2.50716 1.3497 3.10493C1.12815 3.67812 0.973484 4.33207 0.931316 5.28848C0.885576 6.25203 0.875 6.55792 0.875 9.00176C0.875 11.4456 0.885576 11.7515 0.927745 12.7115C0.969913 13.6679 1.12471 14.3254 1.34627 14.8952C1.57483 15.4999 1.92989 16.0414 2.38701 16.4915C2.83713 16.9486 3.38215 17.3038 3.97993 17.5288C4.55311 17.7504 5.20706 17.905 6.16361 17.9472C7.12345 17.9895 7.42948 17.9999 9.87331 17.9999C12.3171 17.9999 12.623 17.9895 13.583 17.9472C14.5394 17.905 15.1969 17.7504 15.7666 17.5288C16.9763 17.0611 17.9327 16.1047 18.4004 14.8952C18.6218 14.322 18.7766 13.6679 18.8187 12.7115C18.8609 11.7515 18.8715 11.4456 18.8715 9.00176C18.8715 6.55792 18.8679 6.25203 18.8258 5.29205ZM17.2048 12.6411C17.1661 13.5202 17.0184 13.9949 16.8954 14.3114C16.5929 15.0956 15.9705 15.7179 15.1864 16.0204C14.8699 16.1434 14.3918 16.2911 13.5161 16.3297C12.5667 16.372 12.282 16.3824 9.88032 16.3824C7.47865 16.3824 7.19034 16.372 6.24437 16.3297C5.3653 16.2911 4.8906 16.1434 4.57413 16.0204C4.1839 15.8761 3.8287 15.6476 3.54039 15.3487C3.2415 15.0568 3.01294 14.7052 2.86872 14.315C2.74565 13.9985 2.59799 13.5202 2.55939 12.6447C2.51709 11.6953 2.50665 11.4104 2.50665 9.00876C2.50665 6.60709 2.51709 6.31878 2.55939 5.37295C2.59799 4.49387 2.74565 4.01917 2.86872 3.7027C3.01294 3.31234 3.2415 2.95727 3.54396 2.66883C3.8357 2.36994 4.18733 2.14138 4.5777 1.99729C4.89417 1.87422 5.37244 1.72656 6.24795 1.68783C7.19735 1.64566 7.48222 1.63508 9.88375 1.63508C12.289 1.63508 12.5737 1.64566 13.5197 1.68783C14.3988 1.72656 14.8735 1.87422 15.1899 1.99729C15.5802 2.14138 15.9354 2.36994 16.2237 2.66883C16.5226 2.96071 16.7511 3.31234 16.8954 3.7027C17.0184 4.01917 17.1661 4.49731 17.2048 5.37295C17.247 6.32236 17.2576 6.60709 17.2576 9.00876C17.2576 11.4104 17.247 11.6917 17.2048 12.6411Z" fill="#1B1C1F"/>
<path d="M9.87786 4.3779C7.3251 4.3779 5.25391 6.44895 5.25391 9.00185C5.25391 11.5547 7.3251 13.6258 9.87786 13.6258C12.4308 13.6258 14.5018 11.5547 14.5018 9.00185C14.5018 6.44895 12.4308 4.3779 9.87786 4.3779ZM9.87786 12.0013C8.22176 12.0013 6.87841 10.6581 6.87841 9.00185C6.87841 7.34561 8.22176 6.00241 9.87786 6.00241C11.5341 6.00241 12.8773 7.34561 12.8773 9.00185C12.8773 10.6581 11.5341 12.0013 9.87786 12.0013Z" fill="#1B1C1F"/>
<path d="M15.7626 4.19496C15.7626 4.79109 15.2793 5.27444 14.683 5.27444C14.0869 5.27444 13.6035 4.79109 13.6035 4.19496C13.6035 3.5987 14.0869 3.11548 14.683 3.11548C15.2793 3.11548 15.7626 3.5987 15.7626 4.19496Z" fill="#1B1C1F"/>
</g>
<defs>
<clipPath id="clip0">
<rect width="18" height="18" fill="white" transform="translate(0.84375)"/>
</clipPath>
</defs>
</svg>
