<svg width="34" height="34" viewBox="0 0 34 34" fill="none" xmlns="http://www.w3.org/2000/svg">
<path d="M26.0208 0.17334H7.97995C3.66875 0.17334 0.173828 3.66826 0.173828 7.97946V26.0203C0.173828 30.3315 3.66875 33.8264 7.97995 33.8264H26.0208C30.332 33.8264 33.8269 30.3315 33.8269 26.0203V7.97946C33.8269 3.66826 30.332 0.17334 26.0208 0.17334Z" fill="url(#paint0_linear)" stroke="#D9D9D9"/>
<path fill-rule="evenodd" clip-rule="evenodd" d="M5.70445 23.859H4.91285V13.281H5.70445V23.859ZM5.29738 10.688C4.96356 10.688 4.6875 10.4232 4.6875 10.0894C4.6875 9.7457 4.96215 9.47949 5.29738 9.47949C5.64106 9.47949 5.91431 9.74429 5.91431 10.0894C5.91431 10.4232 5.64106 10.688 5.29738 10.688Z" fill="black"/>
<path fill-rule="evenodd" clip-rule="evenodd" d="M13.392 24.0653C9.5214 24.0653 7.07617 21.2467 7.07617 16.7664C7.07617 12.3084 9.53267 9.47876 13.392 9.47876C17.2514 9.47876 19.7065 12.3086 19.7065 16.7664C19.7065 21.2469 17.2613 24.0653 13.392 24.0653ZM13.392 10.2068C10.0229 10.2068 7.87205 12.7506 7.87205 16.7662C7.87205 20.7848 10.0328 23.3384 13.392 23.3384C16.7611 23.3384 18.912 20.7848 18.912 16.7662C18.912 12.7492 16.7611 10.2068 13.392 10.2068Z" fill="black"/>
<path fill-rule="evenodd" clip-rule="evenodd" d="M25.3436 24.0653C22.4378 24.0653 20.3546 22.4244 20.2363 20.0778H21.0124C21.1307 22.0019 22.9379 23.3484 25.4028 23.3484C27.8084 23.3484 29.4875 21.9821 29.4875 20.1369C29.4875 18.6523 28.486 17.7987 26.1098 17.2001L24.4309 16.7874C21.8096 16.1183 20.6194 15.0577 20.6194 13.2816C20.6194 11.0716 22.6828 9.47998 25.2661 9.47998C27.9367 9.47998 29.9311 11.0519 30.0199 13.1338H29.2438C29.1353 11.4351 27.4761 10.1969 25.2464 10.1969C23.1139 10.1969 21.4151 11.4745 21.4151 13.2618C21.4151 14.6773 22.456 15.4916 24.7336 16.0605L26.3153 16.4634C29.0549 17.1409 30.2831 18.193 30.2831 20.0776C30.2831 22.4241 28.3097 24.0651 25.3434 24.0651L25.3436 24.0653Z" fill="black"/>
<defs>
<linearGradient id="paint0_linear" x1="17.0004" y1="16.9999" x2="17.0004" y2="33.8264" gradientUnits="userSpaceOnUse">
<stop stop-color="white"/>
<stop offset="1" stop-color="#E9E5E5"/>
</linearGradient>
</defs>
</svg>
