<svg width="58" height="28" viewBox="0 0 58 28" fill="none" xmlns="http://www.w3.org/2000/svg">
<path d="M6.42882 20.9768C6.42882 20.9768 5.39196 21.6076 7.15059 21.7883C9.26305 22.0582 10.3956 22.0136 12.7392 21.563C12.7392 21.563 13.37 21.9679 14.2268 22.2847C8.95323 24.538 2.2831 22.1498 6.42941 20.9779L6.42882 20.9768ZM5.75284 18.0475C5.75284 18.0475 4.62618 18.9042 6.38364 19.0843C8.68213 19.3097 10.4912 19.3543 13.5954 18.724C13.5954 18.724 14.0003 19.1747 14.6768 19.4C8.32183 21.293 1.20046 19.5802 5.75284 18.048V18.0475ZM18.1929 23.1855C18.1929 23.1855 18.9593 23.8163 17.3362 24.3121C14.3166 25.2134 4.67137 25.4839 1.96682 24.3121C1.02032 23.9072 2.82354 23.3145 3.40917 23.2306C3.99597 23.0957 4.31049 23.0957 4.31049 23.0957C3.2742 22.3739 -2.58555 24.5832 1.33543 25.2081C12.1073 26.9656 20.9861 24.4418 18.1918 23.1802L18.1929 23.1855ZM6.92408 14.9826C6.92408 14.9826 2.01142 16.1545 5.16604 16.5599C6.51802 16.7401 9.17738 16.6949 11.656 16.5147C13.684 16.3346 15.7125 15.9737 15.7125 15.9737C15.7125 15.9737 14.9908 16.2894 14.4955 16.6045C9.49249 17.9113 -0.107506 17.3263 2.64222 15.9737C4.98589 14.8471 6.92408 14.9762 6.92408 14.9762V14.9826ZM15.7131 19.8953C20.7608 17.2811 18.4171 14.7573 16.7946 15.073C16.3897 15.1634 16.2078 15.2531 16.2078 15.2531C16.2078 15.2531 16.3428 14.9832 16.6585 14.8928C19.8583 13.7662 22.3827 18.2728 15.6216 20.0308C15.6216 20.0308 15.6668 19.9857 15.712 19.8959L15.7131 19.8953ZM7.42051 27.0161C12.288 27.3318 19.7256 26.8359 19.9052 24.5374C19.9052 24.5374 19.5449 25.4388 15.8939 26.1147C11.7476 26.8811 6.60956 26.7907 3.58873 26.2949C3.58873 26.2949 4.21953 26.8359 7.42051 27.0167V27.0161Z" fill="#4E7896"/>
<path d="M12.6489 0.109131C12.6489 0.109131 15.4433 2.94923 9.98957 7.2305C5.61793 10.7008 8.99202 12.6842 9.98957 14.9375C7.42057 12.639 5.57275 10.611 6.83436 8.71744C8.68277 5.92312 13.775 4.57114 12.6483 0.109131H12.6489ZM11.2066 13.0445C12.5134 14.532 10.8457 15.8846 10.8457 15.8846C10.8457 15.8846 14.1811 14.1711 12.6483 12.0528C11.2518 10.0248 10.1697 9.03314 16.0283 5.6526C16.0283 5.6526 6.78859 7.95109 11.206 13.0439L11.2066 13.0445Z" fill="#EC2025"/>
<path d="M40.0879 18.3947V11.5427C40.0879 9.79405 39.1091 8.60637 36.6622 8.60637C35.2638 8.60637 34.0744 8.9561 33.0264 9.37508L33.3761 10.6338C34.1448 10.3539 35.1248 10.0745 36.1728 10.0745C37.5013 10.0745 38.1304 10.6338 38.1304 11.7528V12.6623H37.4368C34.0803 12.6623 32.5429 13.921 32.5429 15.9484C32.5429 17.6266 33.5915 18.6054 35.4792 18.6054C36.668 18.6054 37.577 18.0462 38.4155 17.3467L38.5552 18.3953H40.0926L40.0879 18.3947ZM38.1292 16.1579C37.4309 16.7869 36.661 17.1366 35.9615 17.1366C35.052 17.1366 34.4934 16.5774 34.4934 15.5992C34.4934 14.621 35.0526 13.921 37.2901 13.921H38.1292V16.1584V16.1579ZM46.6589 18.3953H44.2119L41.2762 8.81703H43.374L45.1919 14.6909L45.6114 16.4395C46.521 13.9222 47.2192 11.3356 47.4991 8.81879H49.5964C49.0371 11.9652 48.059 15.3909 46.66 18.3971L46.6589 18.3953ZM57.9852 18.3953V11.5427C57.9852 9.79405 57.0064 8.60637 54.5583 8.60637C53.16 8.60637 51.9717 8.9561 50.9225 9.37508L51.2024 10.6338C52.0415 10.3539 53.0203 10.0745 54.0689 10.0745C55.3974 10.0745 56.0265 10.6338 56.0265 11.7528V12.6623H55.3282C51.9717 12.6623 50.4343 13.921 50.4343 15.9484C50.4343 17.6266 51.4131 18.6054 53.3008 18.6054C54.5595 18.6054 55.4684 18.0462 56.307 17.3467L56.4466 18.3953H57.984H57.9852ZM56.0277 16.1579C55.3294 16.7869 54.5595 17.1366 53.86 17.1366C52.9505 17.1366 52.3919 16.5774 52.3919 15.5992C52.3919 14.621 52.9511 13.921 55.1885 13.921H56.0277V16.1584V16.1579ZM30.3682 20.0031C29.809 20.8423 28.9699 21.4713 27.9213 21.821L27.0117 20.7026C27.7112 20.283 28.4101 19.654 28.69 19.0948C28.9699 18.6054 29.0397 17.9059 29.0397 16.2981V5.39014H31.1375V16.1579C31.1375 18.3255 30.9274 19.164 30.3688 20.0031H30.3682Z" fill="#EC2025"/>
</svg>
