<svg width="168" height="55" viewBox="0 0 168 55" fill="none" xmlns="http://www.w3.org/2000/svg">
<path fill-rule="evenodd" clip-rule="evenodd" d="M37.7794 26.5522C37.7794 36.785 29.8042 45.0913 19.9776 45.0913C10.151 45.0913 2.17578 36.785 2.17578 26.5522C2.17578 16.3195 10.151 8.01312 19.9776 8.01312C29.8042 8.01312 37.7794 16.3195 37.7794 26.5522Z" fill="#D33833"/>
<path d="M2.90934 31.1506C2.90934 31.1506 1.62761 11.8244 19.1242 11.2651L17.9035 9.19371L8.40246 12.4458L5.69659 15.6151L3.31623 20.2343L1.95312 25.62L2.36002 29.2035" fill="#EF3D3A"/>
<path d="M7.79146 13.9166C4.65834 17.1687 2.72558 21.6637 2.72558 26.635C2.72558 31.6064 4.65834 36.1014 7.79146 39.3535C10.9246 42.6056 15.2173 44.6148 19.978 44.6148C24.7388 44.6148 29.0519 42.6056 32.1646 39.3535C35.2978 36.1014 37.2305 31.6064 37.2305 26.635C37.2305 21.6637 35.2978 17.1687 32.1646 13.9166C29.0315 10.6645 24.7388 8.65521 19.978 8.65521C15.2173 8.65521 10.9042 10.6645 7.79146 13.9166ZM6.99801 40.1406C3.68179 36.6813 1.62695 31.8964 1.62695 26.635C1.62695 21.3737 3.68179 16.5887 6.99801 13.1295C10.3142 9.6702 14.9122 7.53665 19.978 7.53665C25.0439 7.53665 29.6419 9.6702 32.9581 13.1295C36.2743 16.5887 38.3291 21.3529 38.3291 26.635C38.3291 31.8964 36.2743 36.6813 32.9581 40.1406C29.6419 43.5998 25.0439 45.7334 19.978 45.7334C14.9122 45.7334 10.3142 43.5791 6.99801 40.1406Z" fill="#231F20"/>
<path fill-rule="evenodd" clip-rule="evenodd" d="M27.4844 26.6557L24.7785 27.07L21.1164 27.4843L18.7157 27.5671L16.4168 27.505L14.6468 26.9457L13.0802 25.2264L11.8595 21.7051L11.595 20.9386L9.96744 20.3794L9.01123 18.7844L8.33984 16.5058L9.09261 14.4966L10.8626 13.8751L12.2868 14.5587L12.9581 16.0708L13.7719 15.9258L14.0364 15.5737L13.7719 13.9787L13.7109 11.9694L14.1178 9.21447L14.0974 7.6402L15.3385 5.63094L17.5154 4.03595L21.3199 2.37883L25.5313 3.00025L29.1934 5.69308L30.882 8.44805L31.9603 10.4573L32.2247 15.4287L31.411 19.7165L29.9258 23.5072L28.5016 25.5164" fill="#F0D6B7"/>
<path fill-rule="evenodd" clip-rule="evenodd" d="M25.166 38.6078L15.4615 39.0221V40.6792L16.2753 46.4791L15.8684 46.9556L9.09356 44.6149L8.62563 43.7863L7.9339 35.9771L6.36735 31.275L6.02148 30.1772L11.4536 26.3865L13.1422 25.7029L14.6274 27.5672L15.9091 28.7479L17.3943 29.2243L18.0657 29.4315L18.8795 33.015L19.4898 33.7814L21.0564 33.2221L19.9781 35.3557L25.8781 38.1935L25.166 38.6078Z" fill="#335061"/>
<path fill-rule="evenodd" clip-rule="evenodd" d="M9.09342 14.5173L10.8634 13.8959L12.2876 14.5794L12.959 16.0916L13.7727 15.9466L13.9762 15.118L13.5693 13.523L13.9762 9.73233L13.6303 7.66093L14.851 6.21094L17.4959 4.07739L16.7431 3.04169L13.02 4.90596L11.4534 6.1488L10.5786 8.07521L9.21549 9.93947L8.80859 12.1559L9.09342 14.5173Z" fill="#6D6B6D"/>
<path fill-rule="evenodd" clip-rule="evenodd" d="M11.881 8.01321C11.881 8.01321 12.8983 5.46537 16.9672 4.22253C21.0362 2.97968 17.1707 3.33182 17.1707 3.33182L12.7558 5.05109L11.0672 6.77036L10.3145 8.1582L11.881 8.01321Z" fill="#DCD9D8"/>
<path fill-rule="evenodd" clip-rule="evenodd" d="M9.84651 14.0201C9.84651 14.0201 8.42237 9.19374 13.8545 8.48947L13.651 7.6609L9.92789 8.55161L8.84961 12.1351L9.11409 14.4758L9.84651 14.0201Z" fill="#DCD9D8"/>
<path fill-rule="evenodd" clip-rule="evenodd" d="M12.0039 20.4414L12.8991 19.5714C12.8991 19.5714 13.306 19.6128 13.367 20.1099C13.428 20.5864 13.6315 24.9363 16.5612 27.2977C16.8256 27.5049 14.3843 26.9456 14.3843 26.9456L12.2074 23.4863" fill="#F7E4CD"/>
<path fill-rule="evenodd" clip-rule="evenodd" d="M24.4938 19.1365C24.4938 19.1365 24.6565 17.0444 25.2059 17.2101C25.7552 17.3758 25.7552 17.9351 25.7552 17.9351C25.7552 17.9351 24.4124 18.805 24.4938 19.1365Z" fill="#F7E4CD"/>
<path d="M30.1306 11.4722C30.1306 11.4722 29.0116 11.7208 28.9099 12.7151C28.8081 13.7093 30.1306 12.9222 30.334 12.8601" fill="#F7E4CD"/>
<path d="M21.911 11.5345C21.911 11.5345 20.4258 11.7417 20.4258 12.7152C20.4258 13.6888 22.1144 13.6059 22.6027 13.1917" fill="#F7E4CD"/>
<path fill-rule="evenodd" clip-rule="evenodd" d="M12.6953 16.0293C12.6953 16.0293 10.1115 14.4343 9.84699 15.9672C9.58251 17.4793 8.97216 18.5979 10.2539 20.1721L9.37906 19.9028L8.56526 17.7693L8.30078 15.6979L9.86734 14.0408L11.6373 14.1858L12.6546 15.0143L12.6953 16.0293Z" fill="#F7E4CD"/>
<path fill-rule="evenodd" clip-rule="evenodd" d="M13.9142 11.6794C13.9142 11.6794 15.0739 5.61022 20.8925 4.42952C25.6939 3.45596 28.2167 4.63666 29.1729 5.73451C29.1729 5.73451 24.9005 0.555988 20.8315 2.15097C16.7625 3.74595 13.7718 6.64593 13.8532 8.51019C13.9549 11.6794 13.9142 11.6794 13.9142 11.6794Z" fill="#F7E4CD"/>
<path fill-rule="evenodd" clip-rule="evenodd" d="M29.6419 6.43874C29.6419 6.43874 27.6685 6.37659 27.6074 8.158C27.6074 8.158 27.6074 8.42729 27.7498 8.71729C27.7498 8.71729 29.3164 6.91516 30.2523 7.88872" fill="#F7E4CD"/>
<path fill-rule="evenodd" clip-rule="evenodd" d="M21.0352 8.90387C21.0352 8.90387 20.6894 6.14889 18.3904 7.74388C16.9052 8.77958 17.0273 10.2296 17.3121 10.4989C17.5766 10.7681 17.5156 11.3274 17.719 10.9546C17.9225 10.5817 17.8614 9.33886 18.5939 8.98672C19.3263 8.63458 20.5673 8.26173 21.0352 8.90387Z" fill="#F7E4CD"/>
<path fill-rule="evenodd" clip-rule="evenodd" d="M14.6477 27.5671L8.27977 30.4671C8.27977 30.4671 10.9246 41.1762 9.5615 44.4905L8.60529 44.1383L8.54425 40.0577L6.77425 32.3313L6.02148 30.1978L12.6743 25.6407L14.6477 27.5671Z" fill="#49728B"/>
<path fill-rule="evenodd" clip-rule="evenodd" d="M15.3197 33.4706L16.2148 34.5891V38.7319H15.1366C15.1366 38.7319 14.9941 35.832 14.9941 35.4798C14.9941 35.1277 15.1366 33.8848 15.1366 33.8848" fill="#49728B"/>
<path fill-rule="evenodd" clip-rule="evenodd" d="M15.3388 39.3741L12.2871 39.5191L13.1619 40.1405L15.3388 40.4927" fill="#49728B"/>
<path fill-rule="evenodd" clip-rule="evenodd" d="M25.7754 38.6699L28.2778 38.6077L28.8882 44.967L26.3044 45.3191L25.7754 38.6699Z" fill="#335061"/>
<path fill-rule="evenodd" clip-rule="evenodd" d="M26.4688 38.6699L30.2732 38.4628C30.2732 38.4628 31.8398 34.465 31.8398 34.2578C31.8398 34.0507 33.2029 28.4579 33.2029 28.4579L30.1512 25.2058L29.5408 24.6465L27.9132 26.3036V32.725L26.4688 38.6699Z" fill="#335061"/>
<path fill-rule="evenodd" clip-rule="evenodd" d="M28.1557 38.1934L25.7754 38.6699L26.1213 40.5963C26.9961 41.0106 28.5016 39.9127 28.5016 39.9127" fill="#49728B"/>
<path fill-rule="evenodd" clip-rule="evenodd" d="M28.2168 26.1172L32.9572 29.7007L33.0996 28.0436L29.4985 24.6672L28.2168 26.1172Z" fill="#49728B"/>
<path fill-rule="evenodd" clip-rule="evenodd" d="M17.6989 52.2791L16.2951 46.4791L15.6034 42.1913L15.4609 39.0221L21.8085 38.6699H25.7555L25.3892 45.9199L25.9996 51.5127L25.9386 52.5484L20.7913 52.9626L17.6989 52.2791Z" fill="white"/>
<path fill-rule="evenodd" clip-rule="evenodd" d="M24.9007 38.6078C24.9007 38.6078 24.5548 45.7955 25.5721 50.8912C25.5721 50.8912 23.5376 52.1962 20.5469 52.5483L26.2434 52.3412L26.9148 51.9269L26.101 40.5963L25.8976 38.1728" fill="#DCD9D8"/>
<path fill-rule="evenodd" clip-rule="evenodd" d="M29.012 44.4077L31.6569 43.6413L36.6821 43.372L37.4348 41.0313L36.0717 36.9506L34.5052 36.7435L32.3486 37.4271L30.2734 38.4628L29.1748 38.2556L28.3203 38.6078" fill="white"/>
<path fill-rule="evenodd" clip-rule="evenodd" d="M28.9707 43.0199C28.9707 43.0199 30.7407 42.1914 31.0052 42.2535L30.2524 38.4628L31.1273 38.1107C31.1273 38.1107 31.7376 41.6942 31.7376 42.1085C31.7376 42.1085 35.5421 42.3157 35.8676 42.3157C35.8676 42.3157 36.6814 40.7207 36.478 39.0635L37.2307 41.28L37.2918 42.5228L36.2135 44.1799L34.9928 44.4492L32.9583 44.3871L32.2869 43.4964L29.9066 43.8485L29.1538 44.1178" fill="#DCD9D8"/>
<path d="M26.3056 38.1313L24.8205 34.2578L23.2539 31.9793C23.2539 31.9793 23.5998 31.0057 24.0677 31.0057C24.5356 31.0057 25.6343 31.0057 25.6343 31.0057L27.1194 31.565L26.977 34.1128L26.3056 38.1313Z" fill="white"/>
<path fill-rule="evenodd" clip-rule="evenodd" d="M26.5895 36.8057C26.5895 36.8057 24.6974 33.0772 24.6974 32.5179C24.6974 32.5179 25.0433 31.6893 25.5112 31.8965C25.9791 32.1036 26.9964 32.6629 26.9964 32.6629V31.3579L24.6974 30.8815L23.1309 31.0886L25.7757 37.4479L26.325 37.51" fill="#DCD9D8"/>
<path d="M18.3097 27.6915L16.438 27.4844L14.668 26.9251V27.5465L15.5225 28.5201L18.2283 29.7629" fill="white"/>
<path fill-rule="evenodd" clip-rule="evenodd" d="M15.2777 27.8985C15.2777 27.8985 17.3732 28.7892 18.0649 28.5821L18.126 29.4106L16.2339 28.9964L15.0742 28.1678L15.2777 27.8985Z" fill="#DCD9D8"/>
<path fill-rule="evenodd" clip-rule="evenodd" d="M29.012 31.2542C27.8524 31.2127 26.8148 31.0884 25.9196 30.8192C25.9806 30.4463 25.8586 30.0734 25.9603 29.7835C26.2044 29.597 26.6317 29.597 27.0182 29.5556C26.6927 29.3899 26.2248 29.3277 25.8382 29.4106C25.8382 29.1413 25.7161 28.9756 25.6348 28.7685C26.2858 28.5406 27.8117 26.9871 28.6662 27.5049C29.0731 27.7535 29.2562 29.1413 29.2765 29.8042C29.3172 30.3842 29.2358 30.9434 29.012 31.2542Z" fill="#D33833"/>
<path d="M29.012 31.2542C27.8524 31.2127 26.8148 31.0884 25.9196 30.8192C25.9806 30.4463 25.8586 30.0734 25.9603 29.7835C26.2044 29.597 26.6317 29.597 27.0182 29.5556C26.6927 29.3899 26.2248 29.3277 25.8382 29.4106C25.8382 29.1413 25.7161 28.9756 25.6348 28.7685C26.2858 28.5406 27.8117 26.9871 28.6662 27.5049C29.0731 27.7535 29.2562 29.1413 29.2765 29.8042C29.3172 30.3842 29.2358 30.9434 29.012 31.2542Z" stroke="#D33833" stroke-width="3.125" stroke-miterlimit="5"/>
<path fill-rule="evenodd" clip-rule="evenodd" d="M23.4976 29.3279C23.4976 29.4108 23.4976 29.5144 23.4772 29.5972C23.111 29.8458 22.5414 29.8251 22.1345 30.0322C22.7245 30.0529 23.1721 30.1979 23.579 30.4051C23.579 30.6329 23.5586 30.8608 23.5586 31.0679C22.9076 31.5236 22.2972 32.2072 21.5241 32.6422C21.1579 32.8493 19.8762 33.3672 19.4897 33.2843C19.2659 33.2222 19.2455 32.9529 19.1641 32.6836C18.981 32.1243 18.5334 31.2336 18.5131 30.3843C18.4724 29.3072 18.3503 27.5258 19.4897 27.7329C20.4052 27.9194 21.4631 28.3336 22.1752 28.7272C22.6024 28.9758 22.8466 29.2865 23.4976 29.3279Z" fill="#D33833"/>
<path d="M23.4976 29.3279C23.4976 29.4108 23.4976 29.5144 23.4772 29.5972C23.111 29.8458 22.5414 29.8251 22.1345 30.0322C22.7245 30.0529 23.1721 30.1979 23.579 30.4051C23.579 30.6329 23.5586 30.8608 23.5586 31.0679C22.9076 31.5236 22.2972 32.2072 21.5241 32.6422C21.1579 32.8493 19.8762 33.3672 19.4897 33.2843C19.2659 33.2222 19.2455 32.9529 19.1641 32.6836C18.981 32.1243 18.5334 31.2336 18.5131 30.3843C18.4724 29.3072 18.3503 27.5258 19.4897 27.7329C20.4052 27.9194 21.4631 28.3336 22.1752 28.7272C22.6024 28.9758 22.8466 29.2865 23.4976 29.3279Z" stroke="#D33833" stroke-width="3.125" stroke-miterlimit="5"/>
<path fill-rule="evenodd" clip-rule="evenodd" d="M24.1694 30.6121C24.0676 30.0321 23.9456 29.8664 24.0066 29.3485C25.5121 28.3128 25.7969 31.1299 24.1694 30.6121Z" fill="#D33833"/>
<path d="M24.1694 30.6121C24.0676 30.0321 23.9456 29.8664 24.0066 29.3485C25.5121 28.3128 25.7969 31.1299 24.1694 30.6121Z" stroke="#D33833" stroke-width="3.125" stroke-miterlimit="5"/>
<path fill-rule="evenodd" clip-rule="evenodd" d="M26.3672 31.0886C26.3672 31.0886 25.8992 30.4051 26.2248 30.1979C26.5503 29.9908 26.8961 30.1979 27.0996 29.8458C27.303 29.4936 27.0996 29.2865 27.1606 28.8722C27.2217 28.4579 27.5675 28.3958 27.9134 28.3129C28.2593 28.2301 29.1951 28.1058 29.3375 28.4579L28.9306 27.2151L28.1168 26.9458L25.533 28.4579L25.3906 29.2244V30.7365" fill="#EF3D3A"/>
<path fill-rule="evenodd" clip-rule="evenodd" d="M19.2457 33.3672C19.1644 32.2901 19.083 31.2129 18.9813 30.1358C18.8388 28.5201 19.3678 28.8101 20.7309 28.8101C20.9344 28.8101 22.0126 29.0587 22.094 29.2244C22.4602 29.9908 21.4837 29.8251 22.5213 30.4051C23.3961 30.9022 24.9627 30.1151 24.5964 29.0172C24.393 28.7687 23.5589 28.9344 23.2537 28.7894C22.7247 28.5201 22.1958 28.2301 21.6668 27.9401C20.9954 27.588 19.4289 27.0701 18.7168 27.5672C16.8857 28.8308 18.8388 31.9793 19.4899 33.2843" fill="#EF3D3A"/>
<path fill-rule="evenodd" clip-rule="evenodd" d="M21.0358 8.90365C19.1844 8.46866 18.2689 9.69079 17.6992 10.9543C17.1906 10.8301 17.394 10.1465 17.5161 9.79436C17.8416 8.86223 19.1844 7.6401 20.2627 7.80581C20.7509 7.86795 21.3816 8.30295 21.0358 8.90365Z" fill="#231F20"/>
<path fill-rule="evenodd" clip-rule="evenodd" d="M30.0486 11.0374C30.069 11.0374 30.1097 11.0374 30.13 11.0374C30.5572 11.9281 30.9031 12.8602 31.4321 13.6267C31.0862 14.4552 28.7669 15.2009 28.7872 13.7095C29.2959 13.4817 30.1503 13.6681 30.5979 13.3781C30.3538 12.6738 29.9876 12.0524 30.0486 11.0374Z" fill="#231F20"/>
<path fill-rule="evenodd" clip-rule="evenodd" d="M21.9728 11.0578C22.3593 11.8035 22.5018 12.57 23.0714 13.1292C23.3156 13.3778 23.8242 13.6885 23.58 14.3928C23.519 14.5585 23.1121 14.9314 22.868 14.9935C21.9931 15.2628 19.9383 15.0557 20.63 13.9371C21.3624 13.9785 22.339 14.4135 22.8883 13.875C22.4611 13.2121 21.7083 11.8657 21.9728 11.0578Z" fill="#231F20"/>
<path fill-rule="evenodd" clip-rule="evenodd" d="M29.7018 18.5772C28.3794 19.4472 26.8942 20.3793 24.7173 20.1722C24.2494 19.7579 24.0663 18.8465 24.5342 18.2458C24.7784 18.6601 24.6156 19.4058 25.2666 19.5301C26.5077 19.7372 27.9318 18.7636 28.827 18.4115C29.3763 17.4587 28.7863 17.1272 28.2777 16.5058C27.2604 15.263 25.8973 13.7094 25.9584 11.8451C26.3653 11.5344 26.406 12.3009 26.467 12.4459C26.996 13.7094 28.3387 15.3251 29.2949 16.4022C29.5391 16.6715 29.9256 16.9201 29.9663 17.1065C30.1087 17.6244 29.6611 18.2458 29.7018 18.5772Z" fill="#231F20"/>
<path fill-rule="evenodd" clip-rule="evenodd" d="M12.2264 17.6659C11.8195 17.4174 11.7178 16.3609 11.2295 16.3402C10.5378 16.2988 10.6598 17.7281 10.6598 18.5566C10.1715 18.1216 10.0902 16.7545 10.4564 16.0502C10.0495 15.8431 9.86637 16.2781 9.64258 16.4231C9.92741 14.2895 12.6943 15.4288 12.2264 17.6659Z" fill="#231F20"/>
<path fill-rule="evenodd" clip-rule="evenodd" d="M30.557 19.468C29.9467 20.6695 29.0719 21.9744 27.2612 22.0159C27.2205 21.6223 27.2001 21.0423 27.2612 20.8145C28.6446 20.6695 29.4991 19.9652 30.557 19.468Z" fill="#231F20"/>
<path fill-rule="evenodd" clip-rule="evenodd" d="M21.8691 20.2343C23.0288 20.8558 25.1447 20.9179 26.7112 20.8765C26.7926 21.2286 26.7926 21.6636 26.7926 22.0779C24.7988 22.1815 22.3981 21.6843 21.8691 20.2343Z" fill="#231F20"/>
<path fill-rule="evenodd" clip-rule="evenodd" d="M21.6466 21.3943C22.4401 23.445 25.1867 23.1964 27.506 23.155C27.4042 23.4243 27.1805 23.735 26.916 23.8386C26.1836 24.1493 24.1287 24.3771 23.0911 23.8178C22.4401 23.4657 22.0128 22.6579 21.667 22.2022C21.5042 21.9743 20.6294 21.3943 21.6466 21.3943Z" fill="#231F20"/>
<path fill-rule="evenodd" clip-rule="evenodd" d="M29.6219 32.6628C28.686 34.2992 27.7908 35.977 26.6719 37.427C27.1398 36.0392 27.3433 33.6985 27.4043 31.9171C28.3809 31.4406 29.215 31.9999 29.6219 32.6628Z" fill="#81B0C4"/>
<path fill-rule="evenodd" clip-rule="evenodd" d="M34.667 38.5249C33.609 38.732 32.8766 39.7677 31.8594 39.7056C32.4087 38.9184 33.3852 38.5663 34.667 38.5249Z" fill="#231F20"/>
<path fill-rule="evenodd" clip-rule="evenodd" d="M35.1149 40.2028C34.2604 40.2856 33.2635 40.4306 32.3887 40.3685C32.7956 39.7264 34.3825 39.9542 35.1149 40.2028Z" fill="#231F20"/>
<path fill-rule="evenodd" clip-rule="evenodd" d="M35.4197 41.6527C34.4635 41.6734 33.2632 41.6527 32.3477 41.5698C32.897 40.9898 34.789 41.342 35.4197 41.6527Z" fill="#231F20"/>
<path fill-rule="evenodd" clip-rule="evenodd" d="M27.8107 45.5886C27.9531 46.8107 28.421 48.0536 28.36 49.4C27.831 49.5864 27.5258 49.7521 26.8138 49.7314C26.7731 48.5921 26.6103 46.8314 26.651 45.7543C26.9969 45.7957 27.5258 45.5265 27.8107 45.5886Z" fill="#DCD9D8"/>
<path fill-rule="evenodd" clip-rule="evenodd" d="M26.2438 27.4844C25.7555 27.7951 25.3486 28.2094 24.8807 28.5408C23.8431 28.5822 23.2938 28.4787 22.541 27.8573C22.5614 27.8158 22.6224 27.8365 22.6224 27.7744C23.7414 28.2715 25.1452 27.5673 26.2438 27.4844Z" fill="#F0D6B7"/>
<path fill-rule="evenodd" clip-rule="evenodd" d="M20.4668 35.107C20.772 33.7813 21.952 33.077 23.0303 32.352C24.1492 33.7813 24.8206 35.6248 25.553 37.4062C23.8034 36.8677 22.013 35.9977 20.4668 35.107Z" fill="#81B0C4"/>
<path fill-rule="evenodd" clip-rule="evenodd" d="M26.6514 45.7748C26.6107 46.8727 26.7531 48.6126 26.8141 49.7519C27.5262 49.7519 27.8314 49.5862 28.3604 49.4205C28.4214 48.0741 27.9331 46.8312 27.811 45.6091C27.5262 45.5262 26.9972 45.7955 26.6514 45.7748ZM15.5634 39.5606C16.0314 43.952 16.7231 47.6598 17.9641 51.554C20.731 52.4033 24.0676 52.4862 26.5293 51.7197C26.0817 49.5241 26.2852 46.8519 26.0207 44.5112C25.8172 42.7506 25.919 40.9691 25.6545 39.1877C22.6638 38.5249 18.4727 39.022 15.5634 39.5606ZM26.3259 39.1877C26.3055 41.0727 26.4072 42.937 26.5497 44.822C27.2617 44.7184 27.75 44.6355 28.401 44.4905C28.1773 42.6677 28.2179 40.617 27.7704 39.022C27.2821 39.022 26.8345 39.022 26.3259 39.1877ZM29.9473 38.877C29.6014 38.7942 29.2148 38.877 28.8893 38.877C29.0317 40.4099 29.4183 42.1084 29.5404 43.7241C30.049 43.7448 30.3135 43.4963 30.7407 43.4134C30.7611 42.0048 30.6186 40.0577 29.9473 38.877ZM35.42 43.9727C36.478 43.7034 37.1494 42.3984 36.8442 41.0313C36.6407 40.1199 36.2949 38.4006 35.9083 37.8206C35.6235 37.3856 34.8707 36.8263 34.2604 37.2199C33.2838 37.862 31.5342 38.0485 30.8221 38.8356C31.1883 40.0577 31.29 41.7356 31.4528 43.2891C32.6938 43.372 34.1993 42.937 35.2166 43.3927C34.5045 43.6205 33.5686 43.6205 32.9583 43.9727C33.4669 44.2213 34.6469 44.1591 35.42 43.9727ZM25.5731 37.4063C24.8203 35.6249 24.149 33.7814 23.0503 32.3521C21.9721 33.0978 20.7717 33.7814 20.4665 35.1071C22.0128 35.9978 23.8031 36.8678 25.5731 37.4063ZM27.4041 31.8964C27.3431 33.6778 27.1397 36.0185 26.6717 37.4063C27.7907 35.9563 28.6859 34.2785 29.6217 32.6421C29.2148 31.9999 28.3807 31.4407 27.4041 31.8964ZM25.329 31.1507C24.9017 31.1092 24.5559 31.6478 24.0065 31.42C23.8845 31.565 23.7624 31.71 23.6403 31.855C24.8407 33.3464 25.4103 35.4385 26.3259 37.1992C26.8345 35.5213 26.7735 33.6778 26.8752 31.855C26.1835 31.8757 25.7969 31.1921 25.329 31.1507ZM23.9862 29.3485C23.9455 29.8664 24.0472 30.0321 24.149 30.6121C25.7969 31.13 25.5121 28.3128 23.9862 29.3485ZM22.1755 28.7478C21.4634 28.3543 20.4055 27.9193 19.49 27.7536C18.3507 27.5257 18.4727 29.3278 18.5134 30.405C18.5541 31.2542 18.9814 32.1449 19.1645 32.7042C19.2458 32.9735 19.2662 33.2428 19.49 33.3049C19.8765 33.3878 21.1583 32.8699 21.5245 32.6628C22.2976 32.2278 22.9079 31.5442 23.559 31.0885C23.559 30.8607 23.5793 30.6328 23.5793 30.4257C23.1928 30.2185 22.7248 30.0735 22.1348 30.0528C22.5214 29.8457 23.1114 29.8457 23.4776 29.6178C23.4776 29.535 23.4776 29.4314 23.4979 29.3485C22.8469 29.2864 22.6028 28.9757 22.1755 28.7478ZM15.4007 27.4843C14.8107 28.085 17.0486 28.9136 17.7607 28.955C17.7607 28.5614 17.9845 28.2093 17.9234 27.94C17.0893 27.795 15.9907 27.8986 15.4007 27.4843ZM22.6434 27.7743C22.6434 27.8364 22.5621 27.8157 22.5621 27.8571C23.3148 28.4578 23.8845 28.5821 24.9017 28.5407C25.3697 28.1886 25.7766 27.795 26.2648 27.4843C25.1459 27.5671 23.7421 28.2714 22.6434 27.7743ZM29.2759 29.825C29.2352 29.1414 29.0724 27.7743 28.6655 27.5257C27.811 27.0079 26.2852 28.5614 25.6341 28.7893C25.6952 28.9964 25.8172 29.1621 25.8376 29.4314C26.2241 29.3278 26.6921 29.4107 27.0176 29.5764C26.631 29.6178 26.2038 29.6178 25.9597 29.8043C25.8579 30.0735 25.98 30.4464 25.919 30.84C26.8345 31.1092 27.8721 31.2335 29.0114 31.275C29.2352 30.9435 29.3166 30.3843 29.2759 29.825ZM14.4241 28.085C14.241 27.9607 13 26.3036 12.8169 26.3657C10.5586 27.2771 8.44271 28.8307 6.57097 30.3221C8.36133 34.2578 9.09374 39.0634 9.21581 43.7034C11.2706 44.677 13.0813 46.1062 15.8889 46.2512C15.5634 43.9313 15.2786 41.8391 15.0955 39.6434C14.3834 39.3327 13.3865 39.6642 12.7355 39.5399C12.7355 38.732 13.7324 39.1877 13.8138 38.6492C13.8748 38.2349 13.2644 38.2142 13.4679 37.572C13.9765 37.7585 14.2613 38.1727 14.7903 38.3385C15.2989 37.2199 14.7903 35.2521 14.8513 34.3199C14.8717 34.1542 14.9327 33.3464 15.3193 33.4914C15.6651 33.6156 15.2989 35.6042 15.3396 36.4949C15.3803 37.3027 15.2379 38.0899 15.5634 38.6077C18.2693 38.2349 21.0159 37.9863 23.9252 37.9035C23.2741 37.6135 22.5214 37.3649 21.6872 36.8678C21.2396 36.5985 19.7952 36.0599 19.6731 35.6249C19.4696 34.9206 20.2224 34.5478 20.3445 33.9471C18.9814 34.7135 18.7169 33.2221 18.3914 32.1657C18.1065 31.2128 17.9234 30.5085 17.8624 29.9493C16.6824 29.39 15.4413 28.81 14.4241 28.085ZM28.0959 26.5729C29.9676 25.6407 30.3135 30.0528 29.5811 31.4614C29.7031 31.8757 30.0897 32.0414 30.2524 32.4349C29.1945 34.3406 28.0348 36.1428 26.9566 38.0277C27.75 37.5306 28.8893 37.9449 29.8252 37.5513C30.1711 37.4063 30.4152 36.6192 30.6797 35.9771C31.3917 34.2164 32.1445 31.9999 32.47 30.3221C32.5514 29.9493 32.7549 29.1 32.7142 28.7686C32.6328 28.1678 31.819 27.7121 31.4121 27.3393C30.6593 26.635 30.1711 26.0343 29.3776 25.3714C29.0521 25.8479 28.3604 26.1793 28.0959 26.5729ZM10.111 9.58733C9.21581 10.5816 9.39892 12.4666 9.52098 13.813C11.1486 12.7773 13.2848 13.8959 13.2644 15.6565C14.0376 15.6358 13.5493 14.683 13.4069 14.0616C12.9593 12.0316 14.18 9.8359 13.4679 7.99234C12.0844 8.0752 10.9451 8.65519 10.111 9.58733ZM16.54 3.76667C14.5055 4.34666 11.9217 5.85879 11.0875 7.70234C11.7386 7.59877 12.1862 7.26735 12.8169 7.22592C13.061 7.2052 13.3662 7.32949 13.651 7.26735C14.2003 7.12235 14.6682 5.87951 15.0751 5.40308C15.482 4.94738 15.9703 4.76094 16.2958 4.32595C16.5196 4.22238 16.8248 4.22238 16.8451 3.89096C16.7434 3.8081 16.6417 3.72524 16.54 3.76667ZM27.099 4.30524C25.0035 3.10382 21.4228 2.1924 19.1848 3.33168C17.3741 4.2431 14.9327 5.77594 14.0986 7.68163C14.8717 9.5459 13.8748 11.2444 13.8138 13.1294C13.7731 14.1237 14.2817 15.0144 14.3224 16.0915C14.0579 16.5473 13.2441 16.5887 12.6744 16.568C12.4913 15.5944 12.1455 14.5173 11.1689 14.4137C9.78547 14.2687 8.76822 15.4287 8.70719 16.6508C8.62581 18.0801 9.78547 20.4622 11.4131 20.2965C12.0438 20.2344 12.2065 19.5922 12.8982 19.5922C13.2644 20.3586 12.3286 20.5865 12.2269 21.1251C12.2065 21.2701 12.3082 21.8086 12.3693 22.0779C12.6744 23.3208 13.3255 24.9365 13.9765 25.8893C14.8107 27.0907 16.4382 27.2771 18.1879 27.4014C18.4931 26.7179 19.6527 26.78 20.4055 26.9457C19.5103 26.5936 18.6762 25.7029 17.9845 24.9365C17.191 24.0457 16.3772 23.0929 16.3365 21.9122C17.842 24.025 19.0831 25.8893 21.8093 26.8214C23.8845 27.5257 26.2852 26.49 27.8721 25.3714C28.5231 24.895 28.93 24.1493 29.3979 23.4658C31.1476 20.8972 31.9614 17.2308 31.7986 13.6887C31.7173 12.218 31.7376 10.768 31.2493 9.77375C30.7407 8.73805 29.0317 7.82663 28.0348 8.75876C27.8517 7.76449 28.869 7.14306 30.049 7.4952C29.1945 6.35593 28.2993 5.00952 27.099 4.30524ZM31.0052 37.3649C32.6531 36.5363 35.7252 35.1278 36.7628 37.3649C37.1494 38.1935 37.5969 39.5813 37.78 40.4513C38.0649 41.6527 37.4749 44.1798 36.2542 44.5941C35.1759 44.9462 33.9349 44.9255 32.6328 44.6562C32.4904 44.532 32.3073 44.3041 32.1852 44.0763C31.2697 44.0348 30.3948 44.1177 29.6624 44.5112C29.7235 45.2155 29.2759 45.3191 28.8283 45.4641C28.5028 46.7691 29.4793 48.4469 29.2352 49.6276C29.0724 50.4769 28.0552 50.6012 27.3024 50.7669C27.2821 51.2433 27.3431 51.6162 27.3838 52.0305C27.221 52.6726 26.4479 53.0454 25.7155 53.1283C23.3148 53.4183 19.6934 53.5426 17.3945 52.714C16.7434 51.119 16.2551 49.1512 15.7058 47.3284C13.4679 47.5769 11.6369 46.3341 9.92788 45.547C9.33788 45.2777 8.52408 45.112 8.30029 44.6355C8.0765 44.1798 8.17822 43.2891 8.11719 42.4398C7.97477 40.2856 7.87305 38.2142 7.30339 36.0185C7.05925 35.0242 6.61166 34.1542 6.30649 33.2014C6.02166 32.3107 5.53339 31.2335 5.41132 30.3428C5.22821 29.0378 6.42856 28.9757 7.20167 28.3957C8.40202 27.5257 9.33788 27.0493 10.6196 26.2414C11.0062 26.0136 12.1455 25.4129 12.2879 25.1436C12.5524 24.605 11.8403 23.8386 11.6572 23.4243C11.352 22.7615 11.2096 22.1815 11.1486 21.5186C10.0703 21.3529 9.23616 20.6901 8.74788 19.9444C7.93408 18.7222 7.36443 16.4644 8.0765 14.7244C8.13753 14.5794 8.40202 14.3308 8.44271 14.1237C8.52408 13.7094 8.30029 13.1709 8.27995 12.7359C8.19857 10.4987 8.64615 8.57234 10.1313 7.88877C10.7417 5.44451 12.8779 4.63667 14.9124 3.43525C15.6651 2.97954 16.4993 2.68954 17.3741 2.37883C20.4665 1.21884 25.2069 1.44669 27.7907 3.41453C28.8893 4.2431 30.6186 6.02451 31.2493 7.30878C32.8973 10.6852 32.7752 16.3401 31.6359 20.4622C31.4731 21.0215 31.2493 21.8293 30.9442 22.4922C30.7204 22.9479 30.049 23.88 30.1304 24.2943C30.2117 24.7086 31.6766 25.8479 31.9817 26.1586C32.5514 26.7179 33.6093 27.4429 33.7111 28.1471C33.8128 28.8928 33.3855 29.9078 33.1821 30.6328C32.4904 33.0149 31.819 35.2313 31.0052 37.3649Z" fill="#231F20"/>
<path fill-rule="evenodd" clip-rule="evenodd" d="M20.0378 20.7521C20.1192 20.6278 20.6278 20.4414 21.2992 20.7935C21.2992 20.7935 20.4854 20.9385 20.5465 22.3057L20.2006 22.2435C20.2209 22.2435 19.8751 21.0007 20.0378 20.7521Z" fill="#F7E4CD"/>
<path fill-rule="evenodd" clip-rule="evenodd" d="M25.9805 32.642C25.9805 32.8492 25.8177 33.0149 25.6143 33.0149C25.4108 33.0149 25.248 32.8492 25.248 32.642C25.248 32.4349 25.4108 32.2692 25.6143 32.2692C25.8177 32.2485 25.9805 32.4349 25.9805 32.642Z" fill="#1D1919"/>
<path fill-rule="evenodd" clip-rule="evenodd" d="M26.3672 34.4028C26.3672 34.6099 26.2044 34.7756 26.001 34.7756C25.7975 34.7756 25.6348 34.6099 25.6348 34.4028C25.6348 34.1956 25.7975 34.0299 26.001 34.0299C26.1841 34.0092 26.3672 34.1956 26.3672 34.4028Z" fill="#1D1919"/>
<path d="M65.4492 18.95C65.0627 18.9915 64.7372 19.0536 64.4727 19.095C64.2082 19.1365 63.903 19.2193 63.5775 19.3022C63.191 19.4058 62.9265 19.5922 62.8247 19.8615C62.723 20.1307 62.662 20.4415 62.662 20.7936V32.1863C62.662 33.2427 62.4585 34.1956 62.0313 35.0656C61.6244 35.9356 61.0547 36.6813 60.3223 37.2613C59.5899 37.8413 58.7761 38.2763 57.8606 38.587C56.9451 38.877 55.9889 39.022 54.9513 39.022C53.1609 39.022 51.7368 38.587 50.6382 37.717C49.5395 36.847 48.9902 35.6456 48.9902 34.1127C48.9902 33.2013 49.2344 32.4556 49.743 31.8756C50.2516 31.2749 50.923 30.9849 51.8182 30.9849C52.6523 30.9849 53.3033 31.2335 53.7916 31.7306C54.2799 32.2278 54.524 32.8285 54.524 33.5742C54.524 34.1956 54.3206 34.7756 53.8933 35.2934C53.4661 35.832 52.9778 36.3084 52.4489 36.7641V36.9713C52.5302 37.1577 52.7133 37.3234 53.0185 37.4684C53.3033 37.6134 53.5882 37.6756 53.8933 37.6756C55.0327 37.6756 55.9482 37.2613 56.5992 36.412C57.2503 35.5834 57.5758 34.3199 57.5758 32.6213V20.9386C57.5758 20.5865 57.5147 20.2965 57.413 20.0686C57.3113 19.8407 57.0468 19.6336 56.6603 19.4472C56.3754 19.3229 56.0296 19.2193 55.6227 19.1365C55.2158 19.0536 54.8699 18.9915 54.6054 18.95V17.8108H65.4492V18.95Z" fill="black"/>
<path d="M82.4175 35.0033C82.092 35.5626 81.6851 36.0805 81.2172 36.5776C80.7493 37.0747 80.1999 37.489 79.6099 37.8412C78.9792 38.214 78.3282 38.4833 77.6772 38.6697C77.0261 38.8561 76.2734 38.9597 75.4189 38.9597C74.0151 38.9597 72.7944 38.7526 71.7568 38.3383C70.7396 37.924 69.8851 37.3854 69.2137 36.7019C68.5423 36.0183 68.054 35.1898 67.7285 34.2576C67.403 33.3255 67.2402 32.3105 67.2402 31.2127C67.2402 30.2184 67.4233 29.2655 67.7692 28.3748C68.1151 27.4841 68.644 26.6556 69.2951 25.9513C69.9461 25.2677 70.7599 24.7084 71.7568 24.2734C72.7537 23.8384 73.8523 23.6313 75.073 23.6313C76.4158 23.6313 77.5144 23.797 78.3689 24.1284C79.2234 24.4599 79.9355 24.9156 80.5051 25.4956C81.0544 26.0548 81.441 26.697 81.6851 27.4634C81.9293 28.2091 82.0513 28.9962 82.0513 29.8248V30.7777H72.3875C72.3875 32.7662 72.774 34.2783 73.5268 35.314C74.2796 36.3497 75.4799 36.8676 77.1075 36.8676C78.0027 36.8676 78.8165 36.619 79.5286 36.1219C80.2406 35.6248 80.851 34.9826 81.3596 34.2162L82.4175 35.0033ZM76.9448 29.4727C76.9448 28.8927 76.9244 28.292 76.8634 27.6913C76.8023 27.0698 76.7006 26.5727 76.5582 26.1998C76.3954 25.7441 76.1716 25.392 75.8868 25.1641C75.602 24.9363 75.2561 24.812 74.8289 24.812C74.0965 24.812 73.5065 25.1849 73.0792 25.9513C72.6316 26.7177 72.4078 27.8984 72.3672 29.5555L76.9448 29.4727Z" fill="black"/>
<path d="M102.66 38.4834H94.0543V37.427C94.2374 37.4063 94.4612 37.3856 94.7053 37.3441C94.9494 37.3027 95.1529 37.2613 95.2953 37.1991C95.4987 37.0956 95.6412 36.9298 95.7225 36.7434C95.8039 36.557 95.8446 36.2463 95.8446 35.832V29.0171C95.8446 28.0228 95.6615 27.2771 95.3156 26.78C94.9494 26.2828 94.4205 26.0342 93.7287 26.0342C93.3422 26.0342 92.9963 26.0964 92.6505 26.2C92.3249 26.3242 91.9994 26.49 91.6739 26.7178C91.3891 26.9042 91.1653 27.1114 91.0025 27.3185C90.8398 27.5257 90.6974 27.7121 90.5753 27.8571V35.6663C90.5753 35.9977 90.616 36.2877 90.7177 36.5156C90.8194 36.7434 90.9618 36.9091 91.1856 37.0334C91.3281 37.1163 91.5315 37.1991 91.7553 37.2613C91.9791 37.3234 92.2029 37.3856 92.4267 37.4063V38.4627H83.7191V37.4063C83.9632 37.3856 84.2074 37.3648 84.4515 37.3234C84.6956 37.282 84.8991 37.2406 85.0822 37.1784C85.3874 37.0748 85.5908 36.9091 85.7129 36.6813C85.8349 36.4534 85.8756 36.1634 85.8756 35.8113V27.3392C85.8756 27.0285 85.7942 26.7385 85.6518 26.4485C85.4891 26.1585 85.306 25.91 85.0415 25.7443C84.8787 25.62 84.6549 25.5371 84.3905 25.4543C84.126 25.3714 83.8411 25.33 83.5156 25.2885V24.2321L90.3312 23.8593L90.5549 24.0871V26.2H90.616C90.8805 25.9514 91.206 25.6614 91.5925 25.33C91.9791 24.9985 92.3249 24.7085 92.6505 24.5014C92.9963 24.2736 93.4643 24.0664 94.0339 23.9007C94.6036 23.735 95.2139 23.6521 95.865 23.6521C97.4112 23.6521 98.5912 24.1078 99.3643 24.9985C100.137 25.8892 100.524 27.0907 100.524 28.5821V35.7077C100.524 36.0599 100.585 36.3498 100.687 36.557C100.788 36.7641 100.992 36.9506 101.277 37.0748C101.419 37.137 101.623 37.2198 101.846 37.282C102.07 37.3441 102.335 37.4063 102.619 37.427V38.4834H102.66Z" fill="black"/>
<path d="M122.354 38.4834H115.62C114.786 36.992 114.033 35.7491 113.342 34.7134C112.65 33.6777 111.999 32.7249 111.388 31.8342L110.554 32.5592V35.7491C110.554 36.1013 110.595 36.3913 110.697 36.5984C110.798 36.8263 110.982 36.992 111.266 37.0956C111.429 37.1784 111.633 37.2406 111.877 37.3027C112.121 37.3648 112.324 37.4063 112.568 37.427V38.4834H103.678V37.427C103.922 37.4063 104.166 37.3856 104.39 37.3441C104.634 37.3027 104.837 37.2613 105.02 37.1991C105.326 37.0956 105.529 36.9298 105.651 36.702C105.753 36.4741 105.814 36.1841 105.814 35.832V19.5922C105.814 19.2815 105.753 18.9293 105.61 18.5979C105.468 18.2458 105.265 17.9972 105 17.8108C104.817 17.6865 104.553 17.6036 104.186 17.5208C103.82 17.4379 103.495 17.3965 103.189 17.3758V16.3193L110.31 15.9465L110.534 16.1743V31.2128C111.246 30.5706 112.039 29.8249 112.914 28.9756C113.789 28.1264 114.501 27.4221 115.03 26.8835C115.335 26.5521 115.518 26.3035 115.559 26.1378C115.6 25.9721 115.6 25.8685 115.6 25.8271C115.6 25.6614 115.457 25.5164 115.152 25.3921C114.847 25.2678 114.399 25.1643 113.789 25.0814V24.0457H121.052V25.0607C120.096 25.33 119.384 25.5785 118.875 25.8271C118.367 26.055 117.838 26.3864 117.248 26.7799C116.861 27.0492 116.475 27.3185 116.108 27.6085C115.742 27.8985 115.315 28.2506 114.847 28.6856C115.783 30.0735 116.637 31.337 117.431 32.5177C118.224 33.6984 119.058 34.9413 119.913 36.2463C120.218 36.702 120.584 37.0127 121.012 37.1577C121.459 37.3234 121.886 37.4063 122.334 37.4477V38.4834H122.354Z" fill="black"/>
<path d="M131.549 38.4834H122.516V37.427C122.76 37.4063 123.004 37.3856 123.248 37.3441C123.492 37.3234 123.696 37.2613 123.859 37.1991C124.164 37.0748 124.388 36.9091 124.51 36.702C124.632 36.4741 124.693 36.2049 124.693 35.832V27.3599C124.693 27.0285 124.611 26.7178 124.469 26.4692C124.306 26.2207 124.123 26.0135 123.899 25.8478C123.736 25.7235 123.472 25.62 123.126 25.5164C122.78 25.4128 122.455 25.3507 122.17 25.3092V24.2528L129.189 23.88L129.413 24.1078V35.6456C129.413 35.977 129.494 36.267 129.636 36.5156C129.779 36.7641 129.982 36.9298 130.247 37.0541C130.43 37.137 130.654 37.2198 130.878 37.282C131.101 37.3441 131.345 37.4063 131.59 37.427V38.4834H131.549ZM129.453 18.6186C129.453 19.3643 129.169 19.9857 128.619 20.5036C128.07 21.0214 127.399 21.2907 126.646 21.2907C125.873 21.2907 125.201 21.0214 124.652 20.5036C124.103 19.9857 123.818 19.3643 123.818 18.6186C123.818 17.8729 124.103 17.2515 124.652 16.7336C125.201 16.2158 125.873 15.9465 126.646 15.9465C127.419 15.9465 128.09 16.2158 128.64 16.7336C129.189 17.2515 129.453 17.8729 129.453 18.6186Z" fill="black"/>
<path d="M151.752 38.4834H143.146V37.427C143.329 37.4063 143.553 37.3856 143.797 37.3441C144.041 37.3027 144.245 37.2613 144.387 37.1991C144.591 37.0956 144.733 36.9298 144.814 36.7434C144.896 36.557 144.936 36.2463 144.936 35.832V29.0171C144.936 28.0228 144.753 27.2771 144.407 26.78C144.041 26.2828 143.512 26.0342 142.821 26.0342C142.434 26.0342 142.088 26.0964 141.742 26.2C141.417 26.3242 141.091 26.49 140.766 26.7178C140.481 26.9042 140.257 27.1114 140.094 27.3185C139.932 27.5257 139.789 27.7121 139.667 27.8571V35.6663C139.667 35.9977 139.708 36.2877 139.81 36.5156C139.911 36.7434 140.054 36.9091 140.277 37.0334C140.42 37.1163 140.623 37.1991 140.847 37.2613C141.071 37.3234 141.295 37.3856 141.518 37.4063V38.4627H132.811V37.4063C133.055 37.3856 133.299 37.3648 133.543 37.3234C133.787 37.282 133.991 37.2406 134.174 37.1784C134.479 37.0748 134.683 36.9091 134.805 36.6813C134.927 36.4534 134.967 36.1634 134.967 35.8113V27.3392C134.967 27.0285 134.886 26.7385 134.744 26.4485C134.581 26.1585 134.398 25.91 134.133 25.7443C133.971 25.62 133.747 25.5371 133.482 25.4543C133.218 25.3714 132.933 25.33 132.607 25.2885V24.2321L139.423 23.8593L139.647 24.0871V26.2H139.708C139.972 25.9514 140.298 25.6614 140.684 25.33C141.071 24.9985 141.417 24.7085 141.742 24.5014C142.088 24.2736 142.556 24.0664 143.126 23.9007C143.695 23.735 144.306 23.6521 144.957 23.6521C146.503 23.6521 147.683 24.1078 148.456 24.9985C149.229 25.8892 149.616 27.0907 149.616 28.5821V35.7077C149.616 36.0599 149.677 36.3498 149.779 36.557C149.88 36.7641 150.084 36.9506 150.369 37.0748C150.511 37.137 150.714 37.2198 150.938 37.282C151.162 37.3441 151.426 37.4063 151.711 37.427V38.4834H151.752Z" fill="black"/>
<path d="M159.707 38.9805C158.791 38.9805 157.876 38.8355 157.001 38.5662C156.126 38.2969 155.434 37.9862 154.946 37.6755L154.519 38.6698H153.4L153.217 33.2427H154.254C154.397 33.6777 154.641 34.1748 154.966 34.7134C155.292 35.2519 155.679 35.7491 156.106 36.1841C156.553 36.6191 157.062 36.9919 157.652 37.2819C158.222 37.5926 158.852 37.7376 159.503 37.7376C160.378 37.7376 161.009 37.5719 161.436 37.2198C161.863 36.8676 162.067 36.3498 162.067 35.6248C162.067 35.2312 161.965 34.9205 161.782 34.6719C161.599 34.4234 161.334 34.1955 160.988 34.0091C160.622 33.8227 160.215 33.657 159.768 33.512C159.32 33.367 158.771 33.2012 158.12 33.0148C157.469 32.8284 156.92 32.6212 156.452 32.4348C155.984 32.2277 155.516 31.917 155.007 31.5027C154.58 31.1298 154.234 30.6741 153.97 30.1356C153.705 29.597 153.583 28.9756 153.583 28.2299C153.583 26.8627 154.153 25.7442 155.272 24.9156C156.391 24.0871 157.876 23.6521 159.707 23.6521C160.582 23.6521 161.375 23.7349 162.107 23.9213C162.84 24.1078 163.45 24.2942 163.938 24.5013L164.244 23.6521H165.322L165.546 28.6234H164.549C164.223 27.6084 163.633 26.7385 162.84 26.0135C162.026 25.2885 161.151 24.9156 160.215 24.9156C159.483 24.9156 158.913 25.0813 158.486 25.3713C158.059 25.682 157.855 26.117 157.855 26.6763C157.855 27.422 158.161 27.9399 158.771 28.2713C159.381 28.6027 160.236 28.9134 161.355 29.2034C163.064 29.6591 164.305 30.2598 165.098 31.0263C165.892 31.7927 166.278 32.787 166.278 33.9677C166.278 35.5626 165.668 36.7848 164.447 37.6755C163.267 38.5455 161.68 38.9805 159.707 38.9805Z" fill="black"/>
</svg>
