<svg width="31" height="32" viewBox="0 0 31 32" fill="none" xmlns="http://www.w3.org/2000/svg">
<path d="M25.8823 0H5C2.23858 0 0 2.23858 0 5V26.7647C0 29.5261 2.23858 31.7647 5.00001 31.7647H25.8824C28.6438 31.7647 30.8824 29.5261 30.8824 26.7647V5C30.8824 2.23858 28.6438 0 25.8823 0Z" fill="#F7DF1E"/>
<path d="M19.8686 25.0217C20.5057 26.0564 21.3346 26.8169 22.8007 26.8169C24.0323 26.8169 24.819 26.2047 24.819 25.3588C24.819 24.3451 24.0107 23.9861 22.6551 23.3964L21.912 23.0793C19.7672 22.1705 18.3423 21.032 18.3423 18.6251C18.3423 16.408 20.0408 14.7202 22.6952 14.7202C24.5851 14.7202 25.9437 15.3744 26.9227 17.0871L24.6081 18.5652C24.0985 17.6564 23.5488 17.2983 22.6952 17.2983C21.8247 17.2983 21.2729 17.8476 21.2729 18.5652C21.2729 19.452 21.8252 19.811 23.1004 20.3603L23.8435 20.6769C26.3689 21.754 27.7948 22.8521 27.7948 25.3208C27.7948 27.9824 25.6926 29.4404 22.8695 29.4404C20.1091 29.4404 18.3257 28.1322 17.4531 26.4174L19.8686 25.0217ZM9.36871 25.2779C9.83564 26.1018 10.2604 26.7984 11.2816 26.7984C12.2581 26.7984 12.8742 26.4184 12.8742 24.9408V14.889H15.8465V24.9808C15.8465 28.0418 14.042 29.435 11.4081 29.435C9.0283 29.435 7.65011 28.2101 6.94922 26.7347L9.36871 25.2779Z" fill="black"/>
</svg>
