<svg width="90" height="59" viewBox="0 0 90 59" fill="none" xmlns="http://www.w3.org/2000/svg">
<path d="M6.65182 0L0 47.1556H7.03452L8.85694 33.8041V33.4435L9.11208 31.8347V34.0538V34.7657L9.78637 47.1556H16.7844L14.8709 29.8837L21.0671 14.8679H14.3789L10.2055 26.3517L10.0233 26.814L9.57679 28.3673L9.82282 26.6753L9.88661 26.2869L13.4768 0H6.65182ZM45.9613 14.7939L36.2752 47.0909H42.9999L44.5307 40.8035H47.3828L46.6903 47.0909H53.3421L55.1645 14.8032L45.9613 14.7939ZM23.1811 14.8679L18.3517 47.1556H24.475L26.7075 32.3617L26.9809 30.2813V31.8994V32.2877L27.646 47.1556H34.3252L39.1819 14.8771H33.4231L31.3364 28.2286L30.9811 30.2813V28.654V28.2656L30.5346 14.8771L23.1811 14.8679ZM67.0467 14.8679H60.0486C58.5178 24.5672 57.7797 30.7529 56.2944 38.908C56.2944 39.1392 56.2033 39.3796 56.1486 39.6847C56.0484 40.3042 56.0211 40.3597 55.9117 41.275C55.7932 42.0098 55.7932 42.7593 55.9117 43.4941C55.983 44.149 56.1945 44.7801 56.5313 45.3434C56.8253 45.8327 57.2162 46.2546 57.6795 46.5824C58.1623 46.9258 58.6898 47.1996 59.2467 47.396C60.1528 47.6693 61.0901 47.8216 62.035 47.8491C63.3241 47.9396 64.619 47.8931 65.8986 47.7104C67.0241 47.5923 68.1084 47.2161 69.0696 46.6101C69.9109 46.093 70.6025 45.3593 71.0742 44.4835C71.4264 43.6818 71.6715 42.836 71.8032 41.9685C72.1586 39.7494 71.8032 41.9685 72.1494 39.7494L76.013 14.9049H69.1151L65.1058 40.3782C65.0861 40.6387 65.0527 40.8979 65.0056 41.1548C64.9843 41.4765 64.9007 41.7907 64.7595 42.0795C64.6769 42.2355 64.5581 42.3688 64.4133 42.4678C64.2519 42.5865 64.0567 42.6482 63.8574 42.6435C63.7387 42.6431 63.6214 42.6173 63.5131 42.568C63.4048 42.5186 63.3079 42.4466 63.2287 42.3568C63.0445 42.1984 62.9298 41.9723 62.9098 41.7281C62.8849 41.5162 62.8849 41.302 62.9098 41.0901L63.0556 40.3504L67.0467 14.8679ZM78.8195 14.8679L72.1677 58.9907H79.2751L83.5578 31.7884H87.476L88.2778 26.4164H84.2229L85.1341 19.9903H89.2984L89.9909 14.8679H78.8195ZM49.9251 18.4924L49.5788 20.9704L49.4786 21.5991L47.9751 35.4037H45.852L49.2326 21.5344L49.3692 20.9334L49.9251 18.4924Z" fill="#2DABE2"/>
</svg>
