<svg width="72" height="38" viewBox="0 0 72 38" fill="none" xmlns="http://www.w3.org/2000/svg">
<path fill-rule="evenodd" clip-rule="evenodd" d="M62.7533 9.38511H72L71.0914 13.4869H67.3368L66.4671 17.359H69.8264L68.9967 21.2313H65.6374L62.0414 38H56.5492L62.7533 9.38511ZM60.7771 9.38511H55.1661L51.7671 24.4472C51.5304 25.4648 51.3326 26.1206 51.1749 26.4159C50.977 26.6786 50.7396 26.8096 50.384 26.8096C50.0684 26.8096 49.8706 26.6786 49.8306 26.4488C49.7913 26.1861 49.8706 25.6281 50.068 24.7093L53.5451 9.38479H47.894L45.167 21.4934C44.6536 23.7905 44.3373 25.3002 44.2584 26.0218C44.2192 26.7441 44.3373 27.4331 44.6937 28.0892C45.0092 28.7459 45.6415 29.2707 46.5502 29.6647C47.4595 30.091 48.5263 30.2882 49.8302 30.2882C51.0155 30.2882 52.0431 30.124 52.9917 29.7631C53.9403 29.4349 54.7304 28.9099 55.4024 28.2531C56.0743 27.597 56.5488 26.9406 56.7855 26.3168C57.0622 25.6939 57.3389 24.6109 57.6941 23.0353L60.7771 9.38511ZM37.818 22.5445C38.0547 20.2144 38.4103 17.3922 38.9244 13.9794C37.4624 17.8843 36.4741 20.7062 35.9604 22.5445H37.818ZM43.5476 9.38511L41.8089 29.8616H36.6323L37.1857 26.1538H35.2099L34.0242 29.8616H28.4132L36.3163 9.38511H43.5476ZM31.851 9.38511H27.1089L25.0538 18.6063L23.9474 9.38511H19.245L14.6214 29.8616H19.3635L21.4578 20.5426L22.2876 29.8616H27.2271L31.851 9.38511ZM16.7162 9.54938L12.053 18.8031L13.1991 29.8616H8.02211L7.07385 22.5445L5.41439 29.8616H0L5.65107 0H11.0647L8.29843 16.3421L11.7366 9.54938H16.7162Z" fill="#00ACEC"/>
</svg>
