<svg width="50" height="18" viewBox="0 0 50 18" fill="none" xmlns="http://www.w3.org/2000/svg">
<g clip-path="url(#clip0)">
<path d="M19.416 4.41382H21.3742V8.53049L24.9873 4.41382H27.3514L23.7265 8.38882L27.5169 13.8097H25.1627L22.4046 9.80132L21.3742 10.9305V13.8097H19.416V4.41382ZM26.4767 10.2638V10.2367C26.4767 8.1659 28.0527 6.48673 30.1804 6.48673C32.2923 6.48673 33.8565 8.1409 33.8565 10.2367V10.2638C33.8565 12.3347 32.2805 14.0138 30.1528 14.0138C28.0409 14.0138 26.4767 12.3597 26.4767 10.2638ZM31.9456 10.2638V10.2367C31.9456 9.19507 31.2206 8.24507 30.1725 8.24507C29.0653 8.24507 28.4034 9.14715 28.4034 10.2097V10.2367C28.4034 11.2784 29.1284 12.2284 30.1765 12.2284C31.2836 12.2284 31.9436 11.3263 31.9436 10.2638H31.9456Z" fill="#000400"/>
<path d="M34.3879 11.7845V8.38869H33.5742V6.63869H34.3879V4.79494H36.3185V6.63869H37.9221V8.38869H36.3185V11.472C36.3185 11.9429 36.5096 12.172 36.941 12.172C37.2743 12.1734 37.6024 12.0853 37.8945 11.9158V13.5574C37.4867 13.8137 37.0179 13.9741 36.3678 13.9741C35.1857 13.9741 34.3839 13.4741 34.3839 11.8074L34.3879 11.7845ZM38.4797 4.00952H40.4103V13.8283H38.4797V4.00952ZM41.1116 4.00952H43.1467V5.82619H41.1136L41.1116 4.00952ZM41.1629 6.61994H43.0935V13.8283H41.1629V6.61994ZM43.8323 6.61994H45.7629V7.64077C46.2082 7.0366 46.7815 6.48452 47.7606 6.48452C49.2243 6.48452 50.0754 7.50535 50.0754 9.1616V13.8283H48.1447V9.80535C48.1447 8.8366 47.7113 8.33869 46.9745 8.33869C46.2377 8.33869 45.7669 8.83869 45.7669 9.80535V13.8262H43.8362L43.8323 6.61994Z" fill="#000400"/>
<path d="M8.33206 0.144791L-0.0800781 9.49271V17.8531L8.3163 8.95729L16.6693 0.140625L8.33206 0.144791Z" fill="url(#paint0_linear)"/>
<path d="M-0.0800781 17.8553L8.3163 8.95947L16.6693 17.8553H-0.0800781Z" fill="url(#paint1_linear)"/>
<path d="M-0.0800781 0.145752H8.33206L-0.0800781 9.49367V0.145752Z" fill="url(#paint2_linear)"/>
</g>
<defs>
<linearGradient id="paint0_linear" x1="-2.89726" y1="16.4281" x2="13.5583" y2="0.867345" gradientUnits="userSpaceOnUse">
<stop offset="0.108" stop-color="#C757BC"/>
<stop offset="0.173" stop-color="#CD5CA9"/>
<stop offset="0.492" stop-color="#E8744F"/>
<stop offset="0.716" stop-color="#F88316"/>
<stop offset="0.823" stop-color="#FF8900"/>
</linearGradient>
<linearGradient id="paint1_linear" x1="101.321" y1="132.416" x2="129.741" y2="78.9054" gradientUnits="userSpaceOnUse">
<stop offset="0.296" stop-color="#00AFFF"/>
<stop offset="0.694" stop-color="#5282FF"/>
<stop offset="1" stop-color="#945DFF"/>
</linearGradient>
<linearGradient id="paint2_linear" x1="27.1668" y1="58" x2="52.3129" y2="35.3712" gradientUnits="userSpaceOnUse">
<stop offset="0.296" stop-color="#00AFFF"/>
<stop offset="0.694" stop-color="#5282FF"/>
<stop offset="1" stop-color="#945DFF"/>
</linearGradient>
<clipPath id="clip0">
<rect width="50" height="18" fill="white"/>
</clipPath>
</defs>
</svg>
