<svg width="49" height="63" viewBox="0 0 49 63" fill="none" xmlns="http://www.w3.org/2000/svg">
<path d="M39.3356 33.8855L39.318 33.9983L39.422 34.0454C40.6409 34.5964 42.9869 35.9698 44.9378 38.964C48.2993 44.1229 48.8769 51.4777 46.6114 60.8526C46.4659 61.4549 46.0333 61.9467 45.4547 62.1679C45.2374 62.2508 45.0099 62.2916 44.7837 62.2916C44.4074 62.2916 44.0342 62.1786 43.7157 61.9592L33.5362 54.9388L33.3812 54.8319L33.3116 55.007C33.0058 55.777 32.8035 56.2574 32.7536 56.3748C32.4586 57.069 31.7771 57.5197 31.0229 57.5197H26.3524H26.2024V57.6697V60.9695C26.2024 62.0081 25.3604 62.8501 24.3218 62.8501C23.2831 62.8501 22.4411 62.0081 22.4411 60.9695V57.6697V57.5197H22.2911H17.6206C16.8664 57.5197 16.1849 57.069 15.8899 56.3748L15.8898 56.3747C15.8442 56.2675 15.6716 55.8581 15.409 55.2008L15.3392 55.0262L15.1845 55.1329L5.28631 61.9592C4.96783 62.1786 4.59476 62.2916 4.21833 62.2916C3.99198 62.2916 3.76473 62.2509 3.54729 62.1679C2.96871 61.9467 2.53593 61.4547 2.39056 60.8526L2.39055 60.8526C0.124841 51.4775 0.702703 44.1226 4.06421 38.9638C5.85239 36.2199 7.97181 34.8373 9.25193 34.201L9.35058 34.152L9.33331 34.0432C8.65042 29.7418 8.416 25.4513 9.06852 21.8026C10.2404 15.2503 13.6658 10.0013 16.8642 6.346C20.062 2.69134 23.0261 0.637708 23.2623 0.476657C23.9013 0.0411145 24.7422 0.0411145 25.3813 0.476657C25.6178 0.638033 28.5817 2.69164 31.7793 6.34611C34.9777 10.0014 38.4032 15.2504 39.5752 21.8028C40.2199 25.4068 39.9992 29.637 39.3356 33.8855ZM24.4163 4.46896L24.3218 4.39212L24.2272 4.46897C22.9081 5.5407 20.6446 7.56013 18.4502 10.3653L18.2606 10.6078H18.5684H30.0751H30.3829L30.1933 10.3653C27.9993 7.56077 25.7361 5.54113 24.4163 4.46896ZM5.4247 57.0376L5.4661 57.2663L5.65746 57.1344L13.8793 51.4641L13.9741 51.3987L13.9354 51.2902C12.735 47.9259 11.2279 43.2396 10.1358 38.2628L10.0878 38.0438L9.9037 38.1718C8.66633 39.0319 6.98695 40.6735 5.89762 43.6429C4.80878 46.611 4.31306 50.8958 5.4247 57.0376ZM29.6536 53.7584H29.7558L29.7932 53.6635C30.7036 51.354 32.674 46.0853 34.1918 40.1326C35.7081 34.1856 36.7788 27.5327 35.8724 22.4648C35.278 19.1404 33.9855 16.173 32.4484 13.629L32.4046 13.5566H32.32H16.3233H16.2387L16.1949 13.629C14.6578 16.173 13.3655 19.1404 12.7709 22.4648C11.8633 27.5385 12.9338 34.1921 14.4502 40.1381C15.9681 46.0896 17.9389 51.3554 18.8495 53.6635L18.8869 53.7584H18.989H22.2911H22.4411V53.6084V37.5158C22.4411 36.4772 23.2831 35.6352 24.3218 35.6352C25.3604 35.6352 26.2024 36.4772 26.2024 37.5158V53.6084V53.7584H26.3524H29.6536ZM43.3447 57.1344L43.5361 57.2663L43.5775 57.0376C44.7385 50.6224 44.146 46.2332 42.9558 43.2544C41.7651 40.2744 39.9807 38.7175 38.7796 37.9602L38.5984 37.8459L38.553 38.0553C37.4789 43.0112 35.9843 47.6958 34.7791 51.0921L34.7406 51.2005L34.8353 51.2658L43.3447 57.1344Z" fill="white" stroke="#2DA1C5" stroke-width="0.3"/>
</svg>
