<svg width="21" height="20" viewBox="0 0 21 20" fill="none" xmlns="http://www.w3.org/2000/svg">
<g clip-path="url(#clip0)">
<path d="M20.8388 20V19.9992H20.8438V12.6642C20.8438 9.07588 20.0713 6.31171 15.8763 6.31171C13.8596 6.31171 12.5063 7.41838 11.9538 8.46755H11.8955V6.64671H7.91797V19.9992H12.0596V13.3875C12.0596 11.6467 12.3896 9.96338 14.5455 9.96338C16.6696 9.96338 16.7013 11.95 16.7013 13.4992V20H20.8388Z" fill="#1B1C1F"/>
<path d="M1.17383 6.64746H5.3205V20H1.17383V6.64746Z" fill="#1B1C1F"/>
<path d="M3.24542 0C1.91958 0 0.84375 1.07583 0.84375 2.40167C0.84375 3.7275 1.91958 4.82583 3.24542 4.82583C4.57125 4.82583 5.64708 3.7275 5.64708 2.40167C5.64625 1.07583 4.57042 0 3.24542 0V0Z" fill="#1B1C1F"/>
</g>
<defs>
<clipPath id="clip0">
<rect width="20" height="20" fill="white" transform="translate(0.84375)"/>
</clipPath>
</defs>
</svg>
