<svg width="315" height="96" viewBox="0 0 315 96" fill="none" xmlns="http://www.w3.org/2000/svg">
<path fill-rule="evenodd" clip-rule="evenodd" d="M17.306 87.5308C17.2259 86.4054 16.6447 86.0524 15.6694 86.0524C14.801 86.0524 14.0928 86.3121 13.9793 87.2444H13.0975C13.3046 85.8327 14.3667 85.2999 15.6827 85.2999C17.2058 85.2999 18.1544 85.9992 18.1344 87.5708V90.8338C18.121 91.3666 18.1678 91.9126 18.2012 92.3788H17.3461L17.3194 91.3666H17.2927L17.2526 91.4665C16.952 92.0392 16.0301 92.5852 15.0949 92.5852C13.819 92.5852 12.7969 91.8061 12.7969 90.4609C12.7969 89.5286 13.3647 88.816 14.1864 88.4764C15.1082 88.0769 16.304 88.2167 17.306 88.1568V87.5308ZM15.2418 91.8327C17.0455 91.8327 17.3862 90.3544 17.306 88.916C16.137 88.9559 13.6853 88.7361 13.6853 90.4609C13.6853 91.3932 14.4068 91.8327 15.2418 91.8327Z" fill="#222228"/>
<path fill-rule="evenodd" clip-rule="evenodd" d="M27.7894 91.3657L27.7627 91.3125C27.2016 92.1316 26.3598 92.5844 25.3979 92.5844C23.3537 92.5844 22.5654 90.6399 22.5654 88.9151C22.5654 87.1304 23.3537 85.2991 25.3979 85.2991C26.3198 85.2991 27.2817 85.7386 27.7627 86.5444L27.7894 86.5177V82.4888H28.6178V90.833C28.6178 91.3657 28.6578 91.9185 28.6846 92.3779H27.8295L27.7894 91.3657ZM25.5382 86.0516C23.9683 86.0516 23.4606 87.5033 23.4606 88.8152C23.4606 90.0938 23.8347 91.8319 25.4112 91.8319C27.2149 91.8319 27.7627 90.3402 27.7627 88.7752C27.7627 87.3834 27.1414 86.0516 25.5382 86.0516Z" fill="#222228"/>
<path fill-rule="evenodd" clip-rule="evenodd" d="M38.1093 85.503L35.818 91.2433L33.4398 85.503H32.5312L35.3503 92.3821H36.2789L39.0245 85.503H38.1093Z" fill="#222228"/>
<path fill-rule="evenodd" clip-rule="evenodd" d="M46.6986 87.5308C46.6185 86.4054 46.0373 86.0524 45.062 86.0524C44.1935 86.0524 43.4854 86.3121 43.3719 87.2444H42.4967C42.6971 85.8327 43.7593 85.2999 45.0753 85.2999C46.5984 85.2999 47.547 85.9992 47.527 87.5708V90.8338C47.5136 91.3666 47.5671 91.9126 47.5938 92.3788H46.7387L46.712 91.3666H46.6853L46.6452 91.4665C46.3446 92.0392 45.4227 92.5852 44.4875 92.5852C43.2115 92.5852 42.1895 91.8061 42.1895 90.4609C42.1895 89.5286 42.7573 88.816 43.579 88.4764C44.5008 88.0769 45.6966 88.2167 46.6986 88.1568V87.5308ZM44.6344 91.8327C46.4381 91.8327 46.7855 90.3544 46.6986 88.916C45.5296 88.9559 43.0846 88.7361 43.0846 90.4609C43.0846 91.3932 43.7994 91.8327 44.6344 91.8327Z" fill="#222228"/>
<path fill-rule="evenodd" clip-rule="evenodd" d="M53.2526 92.3805H52.4242V87.053C52.4242 86.5202 52.3841 85.9675 52.3574 85.5014H53.2125L53.2526 86.5202L53.2793 86.5469C53.7603 85.6945 54.5419 85.3016 55.437 85.3016C57.695 85.3016 57.8687 87.2861 57.8687 88.0785V92.3805H57.047V87.9387C57.047 86.7467 56.3589 86.0541 55.23 86.0541C53.8672 86.0541 53.2526 87.1862 53.2526 88.4248V92.3805Z" fill="#222228"/>
<path fill-rule="evenodd" clip-rule="evenodd" d="M67.1855 87.6116C67.1187 86.5595 66.444 86.0534 65.3017 86.0534C64.0391 86.0534 63.2575 87.3652 63.2575 88.9302C63.2575 90.5018 64.0391 91.8337 65.3017 91.8337C66.3772 91.8337 67.1187 91.1744 67.1855 90.2287H68.0807C67.8602 91.807 66.9517 92.5861 65.3818 92.5861C63.3243 92.5861 62.3623 90.8148 62.3623 88.9368C62.3623 87.0789 63.3911 85.3008 65.4419 85.3008C66.8582 85.3008 68.0139 86.1466 68.0807 87.6116H67.1855Z" fill="#222228"/>
<path fill-rule="evenodd" clip-rule="evenodd" d="M72.942 89.1334C72.9688 90.5984 73.6435 91.8304 75.3336 91.8304C76.3089 91.8304 77.1173 91.1312 77.3243 90.1856H78.1928C77.7652 91.8304 76.7365 92.5829 75.0731 92.5829C73.0088 92.5829 72.0469 90.8182 72.0469 88.9403C72.0469 87.0756 73.0823 85.2976 75.1265 85.2976C77.4379 85.2976 78.2729 86.9824 78.2729 89.1334H72.942ZM77.3845 88.3809C77.2843 87.049 76.5694 86.0501 75.1399 86.0501C73.7971 86.0501 73.0823 87.1755 72.9688 88.3809H77.3845Z" fill="#222228"/>
<path fill-rule="evenodd" clip-rule="evenodd" d="M87.6234 91.3657L87.5967 91.3125C87.0355 92.1316 86.1938 92.5844 85.2319 92.5844C83.181 92.5844 82.3994 90.6399 82.3994 88.9151C82.3994 87.1304 83.181 85.2991 85.2319 85.2991C86.1537 85.2991 87.1157 85.7386 87.5967 86.5444L87.6234 86.5177V82.4888H88.4518V90.833C88.4518 91.3657 88.4919 91.9185 88.5186 92.3779H87.6635L87.6234 91.3657ZM85.3721 86.0516C83.8023 86.0516 83.2946 87.5033 83.2946 88.8152C83.2946 90.0938 83.6687 91.8319 85.2452 91.8319C87.0489 91.8319 87.5967 90.3402 87.5967 88.7752C87.5967 87.3834 86.9754 86.0516 85.3721 86.0516Z" fill="#222228"/>
<path fill-rule="evenodd" clip-rule="evenodd" d="M102.145 85.2983C103.447 85.2983 104.549 85.7512 104.656 87.2029H103.768C103.681 86.3372 102.913 86.0508 102.064 86.0508C101.289 86.0508 100.508 86.3505 100.508 87.163C100.508 88.1752 101.844 88.0753 103.708 88.7346C104.423 88.981 104.877 89.6003 104.877 90.3395C104.877 91.8911 103.434 92.5836 101.978 92.5836C100.782 92.5836 99.4056 92.0243 99.3789 90.4993H100.274C100.341 91.5315 101.249 91.8311 102.185 91.8311C103.066 91.8311 103.988 91.4183 103.988 90.4593C103.988 89.4737 102.899 89.3139 101.797 89.0609C100.715 88.8078 99.6194 88.4882 99.6194 87.2162C99.6194 85.7911 100.935 85.2983 102.145 85.2983Z" fill="#222228"/>
<path fill-rule="evenodd" clip-rule="evenodd" d="M114.122 85.503L111.81 91.2567L109.492 85.503H108.49L111.343 92.3821L110.301 95.0059H111.202L115.017 85.503H114.122Z" fill="#222228"/>
<path fill-rule="evenodd" clip-rule="evenodd" d="M121.134 85.2983C122.436 85.2983 123.539 85.7512 123.646 87.2029H122.757C122.67 86.3372 121.902 86.0508 121.054 86.0508C120.285 86.0508 119.497 86.3505 119.497 87.163C119.497 88.1752 120.833 88.0753 122.697 88.7346C123.412 88.981 123.866 89.6003 123.866 90.3395C123.866 91.8911 122.423 92.5836 120.967 92.5836C119.771 92.5836 118.402 92.0243 118.368 90.4993H119.263C119.33 91.5315 120.239 91.8311 121.174 91.8311C122.056 91.8311 122.978 91.4183 122.978 90.4593C122.978 89.4737 121.889 89.3139 120.793 89.0609C119.704 88.8078 118.609 88.4882 118.609 87.2162C118.609 85.7911 119.925 85.2983 121.134 85.2983Z" fill="#222228"/>
<path fill-rule="evenodd" clip-rule="evenodd" d="M129.06 86.2562H127.684V85.5036H129.06V84.0386L129.881 83.679V85.5036H131.451V86.2562H129.881V90.8578C129.868 91.4904 130.195 91.83 130.83 91.83C131.077 91.83 131.324 91.8167 131.551 91.7501V92.4627C131.284 92.5292 130.984 92.5825 130.71 92.5825C128.96 92.5825 129.06 91.4771 129.06 90.5448V86.2562Z" fill="#222228"/>
<path fill-rule="evenodd" clip-rule="evenodd" d="M136.287 89.1334C136.313 90.5984 136.988 91.8304 138.678 91.8304C139.654 91.8304 140.462 91.1312 140.669 90.1856H141.537C141.11 91.8304 140.081 92.5829 138.411 92.5829C136.354 92.5829 135.392 90.8182 135.392 88.9403C135.392 87.0756 136.427 85.2976 138.471 85.2976C140.776 85.2976 141.618 86.9824 141.618 89.1334H136.287ZM140.722 88.3809C140.629 87.049 139.914 86.0501 138.485 86.0501C137.135 86.0501 136.427 87.1755 136.313 88.3809H140.722Z" fill="#222228"/>
<path fill-rule="evenodd" clip-rule="evenodd" d="M147.016 86.5177L147.043 86.5444C147.524 85.692 148.306 85.2991 149.201 85.2991C150.29 85.2991 151.138 85.8984 151.445 86.8041C151.953 85.9983 152.748 85.2991 153.817 85.2991C156.075 85.2991 156.248 87.2836 156.248 88.076V92.378H155.427V87.9428C155.427 86.7508 154.739 86.0516 153.616 86.0516C152.254 86.0516 151.632 87.1903 151.632 88.4223V92.378H150.811V87.9428C150.811 86.7508 150.123 86.0516 148.994 86.0516C147.638 86.0516 147.016 87.1903 147.016 88.4223V92.378H146.188V87.0505C146.188 86.5177 146.154 85.965 146.121 85.5055H146.976L147.016 86.5177Z" fill="#222228"/>
<path fill-rule="evenodd" clip-rule="evenodd" d="M163.484 85.2983C164.794 85.2983 165.889 85.7512 165.996 87.2029H165.108C165.021 86.3372 164.253 86.0508 163.404 86.0508C162.636 86.0508 161.848 86.3505 161.848 87.163C161.848 88.1752 163.184 88.0753 165.054 88.7346C165.769 88.981 166.223 89.6003 166.223 90.3395C166.223 91.8911 164.774 92.5836 163.324 92.5836C162.122 92.5836 160.752 92.0243 160.719 90.4993H161.614C161.681 91.5315 162.589 91.8311 163.524 91.8311C164.406 91.8311 165.328 91.4183 165.328 90.4593C165.328 89.4737 164.239 89.3139 163.144 89.0609C162.055 88.8078 160.959 88.4882 160.959 87.2162C160.959 85.7911 162.275 85.2983 163.484 85.2983Z" fill="#222228"/>
<path fill-rule="evenodd" clip-rule="evenodd" d="M179.52 86.5435C178.918 85.8443 178.217 85.0652 178.217 84.0796C178.217 82.8609 179.299 82.2816 180.388 82.2816C181.457 82.2816 182.599 82.821 182.599 84.0396C182.599 85.2183 181.651 85.9841 180.782 86.6368L183.681 89.72C184.136 88.6945 184.369 87.1695 184.316 86.0641H185.278C185.138 87.5025 185.044 89.0608 184.289 90.3394L186.173 92.3771H184.897L183.708 91.0652C182.886 92.0375 181.951 92.5836 180.675 92.5836C178.671 92.5836 177.048 91.4781 177.048 89.6668C177.048 88.1618 178.351 87.3426 179.466 86.5968C179.479 86.5702 179.506 86.5569 179.52 86.5435ZM180.081 87.1629C179.419 87.5824 178.01 88.6146 178.01 89.4736C178.01 90.9121 179.259 91.7645 180.595 91.7645C181.704 91.7645 182.446 91.2717 183.187 90.4925L180.081 87.1629ZM181.637 84.0929C181.637 83.4203 181.029 83.1073 180.428 83.1073C179.78 83.1073 179.179 83.3803 179.179 84.0929C179.179 84.8054 179.793 85.5713 180.248 86.0641C180.809 85.518 181.637 84.9519 181.637 84.0929Z" fill="#222228"/>
<path fill-rule="evenodd" clip-rule="evenodd" d="M197.255 86.2562H195.879V85.5036H197.255V84.0386L198.083 83.679V85.5036H199.647V86.2562H198.083V90.8578C198.063 91.4904 198.391 91.83 199.032 91.83C199.272 91.83 199.52 91.8167 199.74 91.7501V92.4627C199.48 92.5292 199.179 92.5825 198.905 92.5825C197.155 92.5825 197.255 91.4771 197.255 90.5448V86.2562Z" fill="#222228"/>
<path fill-rule="evenodd" clip-rule="evenodd" d="M204.482 89.1334C204.509 90.5984 205.184 91.8304 206.874 91.8304C207.849 91.8304 208.657 91.1312 208.864 90.1856H209.733C209.305 91.8304 208.277 92.5829 206.613 92.5829C204.549 92.5829 203.587 90.8182 203.587 88.9403C203.587 87.0756 204.622 85.2976 206.667 85.2976C208.971 85.2976 209.813 86.9824 209.813 89.1334H204.482ZM208.924 88.3809C208.824 87.049 208.11 86.0501 206.68 86.0501C205.33 86.0501 204.622 87.1755 204.509 88.3809H208.924Z" fill="#222228"/>
<path fill-rule="evenodd" clip-rule="evenodd" d="M218.759 87.6116C218.692 86.5595 218.017 86.0534 216.875 86.0534C215.612 86.0534 214.831 87.3652 214.831 88.9302C214.831 90.5018 215.612 91.8337 216.875 91.8337C217.95 91.8337 218.692 91.1744 218.759 90.2287H219.654C219.433 91.807 218.525 92.5861 216.962 92.5861C214.898 92.5861 213.936 90.8148 213.936 88.9368C213.936 87.0789 214.964 85.3008 217.015 85.3008C218.431 85.3008 219.587 86.1466 219.654 87.6116H218.759Z" fill="#222228"/>
<path fill-rule="evenodd" clip-rule="evenodd" d="M224.173 86.5436H224.2C224.681 85.6912 225.462 85.2983 226.358 85.2983C228.615 85.2983 228.789 87.2828 228.789 88.0753V92.3772H227.968V87.9421C227.968 86.7501 227.279 86.0508 226.15 86.0508C224.788 86.0508 224.173 87.1896 224.173 88.4216V92.3772H223.345V82.4881H224.173V86.5436Z" fill="#222228"/>
<path fill-rule="evenodd" clip-rule="evenodd" d="M234.574 92.3805H233.746V87.053C233.746 86.5202 233.705 85.9675 233.679 85.5014H234.534L234.574 86.5202L234.601 86.5469C235.082 85.6945 235.863 85.3016 236.758 85.3016C239.01 85.3016 239.19 87.2861 239.19 88.0785V92.3805H238.368V87.9387C238.368 86.7467 237.68 86.0541 236.551 86.0541C235.188 86.0541 234.574 87.1862 234.574 88.4248V92.3805Z" fill="#222228"/>
<path fill-rule="evenodd" clip-rule="evenodd" d="M250.09 88.9403C250.09 90.7516 249.075 92.5829 246.877 92.5829C244.673 92.5829 243.657 90.7516 243.657 88.9403C243.657 87.1356 244.673 85.2976 246.877 85.2976C249.075 85.2976 250.09 87.1356 250.09 88.9403ZM246.877 86.0501C245.214 86.0501 244.552 87.6683 244.552 88.9403C244.552 90.2122 245.214 91.8304 246.877 91.8304C248.534 91.8304 249.195 90.2122 249.195 88.9403C249.195 87.6683 248.534 86.0501 246.877 86.0501Z" fill="#222228"/>
<path fill-rule="evenodd" clip-rule="evenodd" d="M254.568 92.3806H255.397V82.4849H254.568V92.3806Z" fill="#222228"/>
<path fill-rule="evenodd" clip-rule="evenodd" d="M266.3 88.9403C266.3 90.7516 265.285 92.5829 263.087 92.5829C260.883 92.5829 259.867 90.7516 259.867 88.9403C259.867 87.1356 260.883 85.2976 263.087 85.2976C265.285 85.2976 266.3 87.1356 266.3 88.9403ZM263.087 86.0501C261.424 86.0501 260.762 87.6683 260.762 88.9403C260.762 90.2122 261.424 91.8304 263.087 91.8304C264.75 91.8304 265.405 90.2122 265.405 88.9403C265.405 87.6683 264.75 86.0501 263.087 86.0501Z" fill="#222228"/>
<path fill-rule="evenodd" clip-rule="evenodd" d="M275.56 85.503H276.415C276.388 85.9692 276.348 86.5152 276.348 87.048V91.1768C276.348 92.5419 276.415 93.9803 274.885 94.6929C274.337 94.9593 273.963 95.0125 273.322 95.0125C272.073 95.0125 270.583 94.5863 270.583 93.1612H271.478C271.572 93.9803 272.554 94.26 273.429 94.26C274.504 94.26 275.493 93.5009 275.52 92.3555V91.0635H275.493C275.092 91.876 274.15 92.3555 273.248 92.3555C271.177 92.3555 270.282 90.7772 270.282 88.8859C270.282 87.0213 271.117 85.2966 273.222 85.2966C274.23 85.2966 274.945 85.776 275.493 86.5685L275.52 86.5152L275.56 85.503ZM273.308 86.0491C271.805 86.0491 271.177 87.5607 271.177 88.8194C271.177 90.078 271.825 91.603 273.335 91.603C274.912 91.603 275.52 90.1312 275.52 88.7927C275.52 87.4742 274.791 86.0491 273.308 86.0491Z" fill="#222228"/>
<path fill-rule="evenodd" clip-rule="evenodd" d="M281.109 83.5171H282.078V82.4849H281.109V83.5171ZM281.183 92.3806H282.005V85.5015H281.183V92.3806Z" fill="#222228"/>
<path fill-rule="evenodd" clip-rule="evenodd" d="M287.456 89.1334C287.482 90.5984 288.157 91.8304 289.847 91.8304C290.823 91.8304 291.631 91.1312 291.838 90.1856H292.706C292.279 91.8304 291.25 92.5829 289.587 92.5829C287.523 92.5829 286.561 90.8182 286.561 88.9403C286.561 87.0756 287.596 85.2976 289.64 85.2976C291.945 85.2976 292.787 86.9824 292.787 89.1334H287.456ZM291.898 88.3809C291.798 87.049 291.083 86.0501 289.654 86.0501C288.304 86.0501 287.596 87.1755 287.482 88.3809H291.898Z" fill="#222228"/>
<path fill-rule="evenodd" clip-rule="evenodd" d="M299.67 85.2983C300.979 85.2983 302.075 85.7512 302.182 87.2029H301.293C301.213 86.3372 300.438 86.0508 299.59 86.0508C298.822 86.0508 298.033 86.3505 298.033 87.163C298.033 88.1752 299.369 88.0753 301.24 88.7346C301.955 88.981 302.409 89.6003 302.409 90.3395C302.409 91.8911 300.966 92.5836 299.51 92.5836C298.307 92.5836 296.938 92.0243 296.904 90.4993H297.799C297.873 91.5315 298.781 91.8311 299.71 91.8311C300.592 91.8311 301.514 91.4183 301.514 90.4593C301.514 89.4737 300.425 89.3139 299.329 89.0609C298.24 88.8078 297.145 88.4882 297.145 87.2162C297.145 85.7911 298.461 85.2983 299.67 85.2983Z" fill="#222228"/>
<path fill-rule="evenodd" clip-rule="evenodd" d="M28.5612 69.3246H20.792L14.5927 22.0632L8.40004 69.3246H0.630859L11.0521 0.69342H14.8933C17.8393 0.69342 18.3336 2.55138 18.6276 4.41599L28.5612 69.3246Z" fill="#222228"/>
<path fill-rule="evenodd" clip-rule="evenodd" d="M75.3776 17.9469V10.0023C75.3776 7.8447 73.7076 6.17987 71.6433 6.17987C69.5725 6.17987 67.9024 7.8447 67.9024 10.0023V16.5751C67.9024 20.5907 70.9486 25.7916 70.9486 25.7916L79.4125 41.6741C82.8529 47.9472 82.5589 52.5555 82.5589 52.5555V61.2859C82.5589 66.0873 78.6242 70.0096 73.7076 70.0096H69.2785C64.5556 69.8165 60.8213 65.994 60.7211 61.2859V54.227C60.7211 51.9695 61.8033 50.8907 62.6918 50.4045C63.2796 50.2048 66.1321 48.9328 67.9024 48.147V60.1072C67.9024 62.1649 69.5725 63.8364 71.6433 63.8364C73.7076 63.8364 75.3776 62.1649 75.3776 60.0073V52.1626C75.3776 48.147 72.3314 42.8529 72.3314 42.8529L63.8675 27.0636C60.4272 20.7905 60.7211 16.1822 60.7211 16.1822V9.12329C60.7211 4.31525 64.6558 0 69.5725 0H74.0015C78.7244 0.0998901 82.5589 4.41514 82.5589 9.12329V11.7671C82.5589 14.0246 81.4767 15.1034 80.5949 15.5895C80.0004 15.8892 77.2481 17.1611 75.3776 17.9469Z" fill="#222228"/>
<path fill-rule="evenodd" clip-rule="evenodd" d="M142.164 5.78781C141.769 6.67351 140.687 7.65243 138.423 7.65243H132.918C131.929 7.65243 131.241 8.43823 131.148 9.31727V69.3246H126.131C124.461 69.3246 124.16 68.3456 124.16 67.8529V7.65243H114.227V2.84439C114.227 1.67234 115.209 0.69342 116.391 0.69342H144.522L142.164 5.78781Z" fill="#222228"/>
<path fill-rule="evenodd" clip-rule="evenodd" d="M198.615 62.363C197.827 64.1277 196.651 66.8713 196.357 67.464C195.863 68.343 194.781 69.322 192.516 69.322H176.777V2.64867C176.878 1.56986 177.766 0.690826 178.948 0.690826H197.339L194.981 5.78522C194.58 6.67091 193.498 7.74972 191.24 7.74972H185.535C184.553 7.74972 183.865 8.43564 183.865 9.41456V29.8121H194.487C193.699 31.5768 192.516 34.4204 192.222 35.0064C191.734 35.8921 190.746 36.871 188.488 36.871H185.535C184.653 36.871 183.865 37.6568 183.865 38.5358V62.363H198.615Z" fill="#222228"/>
<path fill-rule="evenodd" clip-rule="evenodd" d="M254.779 61.2848C254.779 65.9929 251.038 69.8154 246.322 70.0085H241.993C237.076 70.0085 233.142 66.0862 233.142 61.2848V8.72929C233.142 3.92125 237.076 0.0055542 241.993 0.0055542H246.322C251.038 0.098785 254.779 4.02114 254.779 8.72929V19.2244C254.779 21.4753 253.797 22.5541 252.909 22.947L247.798 25.2977V9.90799C247.798 7.85026 246.121 6.17876 243.957 6.17876C241.893 6.17876 240.223 7.85026 240.223 9.90799V60.0129C240.223 62.1705 241.893 63.8353 243.957 63.8353C246.121 63.8353 247.798 62.1705 247.798 60.0129V50.7963C247.798 48.5388 248.78 47.46 249.662 46.9672C250.256 46.6742 253.009 45.4955 254.779 44.7164V61.2848Z" fill="#222228"/>
<path fill-rule="evenodd" clip-rule="evenodd" d="M311.729 0.690826C313.893 0.690826 314.581 2.25577 314.581 3.43447V69.322H307.5V39.4215C307.4 38.5359 306.712 37.8499 305.823 37.8499H298.154V69.322H291.073V3.43447C291.073 2.25577 291.761 0.690826 293.926 0.690826H298.154V28.4403C298.154 30.3981 298.943 30.8909 300.613 30.8909H307.5V0.690826H311.729Z" fill="#222228"/>
</svg>
