<svg width="20" height="20" viewBox="0 0 20 20" fill="none" xmlns="http://www.w3.org/2000/svg">
<path d="M10.0021 4.2993C7.95472 4.2993 6.28906 5.96496 6.28906 8.01231C6.28906 10.0596 7.95472 11.7253 10.0021 11.7253C12.0494 11.7253 13.7151 10.0596 13.7151 8.01231C13.7151 5.96496 12.0494 4.2993 10.0021 4.2993ZM10.0021 10.162C8.81675 10.162 7.85242 9.19762 7.85242 8.01231C7.85242 6.82699 8.81675 5.86266 10.0021 5.86266C11.1874 5.86266 12.1517 6.82699 12.1517 8.01231C12.1517 9.19762 11.1874 10.162 10.0021 10.162Z" fill="#B7B3B2"/>
<path d="M10.0006 0C5.58258 0 1.98828 3.59434 1.98828 8.01231V8.23379C1.98828 10.4682 3.2693 13.0719 5.79586 15.9726C7.62742 18.0754 9.4334 19.5416 9.50934 19.603L10.0006 20L10.4918 19.6031C10.5678 19.5417 12.3738 18.0754 14.2053 15.9726C16.7318 13.0719 18.0129 10.4682 18.0129 8.23383V8.01234C18.0129 3.59434 14.4186 0 10.0006 0ZM16.4495 8.23383C16.4495 12.0098 11.5843 16.5807 10.0006 17.9683C8.41648 16.5803 3.55164 12.0095 3.55164 8.23383V8.01234C3.55164 4.45641 6.44465 1.5634 10.0006 1.5634C13.5565 1.5634 16.4495 4.45641 16.4495 8.01234V8.23383Z" fill="#B7B3B2"/>
</svg>
