<svg id="efb4d4f4-d003-44e0-bee9-cbb3ebd6eaa8" fill="#fff" data-name="Layer 1" xmlns="http://www.w3.org/2000/svg" viewBox="0 0 832.44 178.08"><defs><style>.b38b1971-d632-4d80-8170-5dbfca0ab09d{isolation:isolate;}.be90e8b2-cb0a-4d14-8bf2-83860b756f7d{fill-rule:evenodd;}</style></defs><title>Makerspace Logo vector1</title><g id="ba13a390-dea3-4d95-aef9-49bdd37392e6" data-name="Layer 1-2"><g class="b38b1971-d632-4d80-8170-5dbfca0ab09d"><path d="M285.88,46.75h6.95v67.56h-8.11V62.1L260.5,98.39h-5L231.26,62.1v52.21h-8.11V46.75h6.95L258,88.45Z" transform="translate(-32 -9.14)"/><path d="M311.17,114.31h-8.79l29.44-67.56h9l29.34,67.56h-8.68L354.5,98H318.11Zm24-56.65L321.3,90.47h30l-14-32.81-1.06-2.61C335.68,56.54,335.32,57.4,335.2,57.66Z" transform="translate(-32 -9.14)"/><path d="M387.89,114.31h-8.11V46.75h8.11V76h15.35L423.6,46.75h9.26l-23,32.91,25,34.65h-9.26L403.52,83.72H387.89Z" transform="translate(-32 -9.14)"/><path d="M444,46.75h45.55v7.73H452.07v21.9h34.55V84.1H452.07v22.49h38v7.72H444Z" transform="translate(-32 -9.14)"/><path d="M511.9,114.31h-8.1V46.75h26.44a38.28,38.28,0,0,1,12.06,1.79,20.06,20.06,0,0,1,9.32,6.56,18.56,18.56,0,0,1,3.91,12.11q0,8.69-5,13.52a24.69,24.69,0,0,1-13,6.27l22.87,27.31H550.22l-22.1-26.64H511.9Zm0-59.83V80h18.73A22.39,22.39,0,0,0,542.55,77q4.77-2.94,4.77-9.8t-4.77-9.84a22.66,22.66,0,0,0-11.92-2.89Z" transform="translate(-32 -9.14)"/></g><g class="b38b1971-d632-4d80-8170-5dbfca0ab09d"><g class="b38b1971-d632-4d80-8170-5dbfca0ab09d"><path d="M566.81,63.45q0-8.6,6.65-13.22T590,45.6q11.87,0,20.46,4.92v8.11a34.6,34.6,0,0,0-19.88-5.31Q575,53.32,575,63.16a8.94,8.94,0,0,0,3,6.76,19.54,19.54,0,0,0,7.43,4.24q4.44,1.45,9.7,3.33t9.7,3.86a18.45,18.45,0,0,1,7.43,6,16,16,0,0,1,3,9.75,17,17,0,0,1-2.07,8.5,15.62,15.62,0,0,1-5.65,5.79,26.77,26.77,0,0,1-7.91,3.08,42.75,42.75,0,0,1-9.36,1,46.57,46.57,0,0,1-23.17-5.79v-8.11a42.55,42.55,0,0,0,22.59,6.18q17.37,0,17.37-10a9.54,9.54,0,0,0-2.22-6.32A16.18,16.18,0,0,0,599,87.1a67.15,67.15,0,0,0-7.87-3q-4.29-1.35-8.54-2.94a50.72,50.72,0,0,1-7.81-3.67A16.29,16.29,0,0,1,569,71.85,15.49,15.49,0,0,1,566.81,63.45Z" transform="translate(-32 -9.14)"/></g><g class="b38b1971-d632-4d80-8170-5dbfca0ab09d"><path d="M627.32,46.75h23.06q28.67,0,28.67,21.82T650.38,90.38h-15v23.93h-8.11Zm43.52,21.82a14.52,14.52,0,0,0-1.54-7,10.33,10.33,0,0,0-4.39-4.34,21.84,21.84,0,0,0-6.23-2.13,43.7,43.7,0,0,0-7.91-.62H635.43V82.66h15.34q9.36,0,14.72-3.09T670.84,68.57Z" transform="translate(-32 -9.14)"/></g><g class="b38b1971-d632-4d80-8170-5dbfca0ab09d"><path d="M686.68,114.31H677.9l29.43-67.56h9l29.34,67.56H737L730,98H693.63Zm24-56.65-13.9,32.81h30l-14-32.81-1.06-2.61C711.19,56.54,710.84,57.4,710.71,57.66Z" transform="translate(-32 -9.14)"/></g><g class="b38b1971-d632-4d80-8170-5dbfca0ab09d"><path d="M748.15,81a35.14,35.14,0,0,1,5.31-19.45,32.78,32.78,0,0,1,13.22-12.11,38.17,38.17,0,0,1,17-3.86,40.12,40.12,0,0,1,19,4.53v8.11q-7.33-4.92-17.66-4.92A30.31,30.31,0,0,0,765,60.41q-8.51,7.09-8.59,20.61a25.24,25.24,0,0,0,4.39,14.86A25.59,25.59,0,0,0,771.56,105a33.92,33.92,0,0,0,13.75,2.8q10.91,0,17.85-4.92v8.1a42,42,0,0,1-19.59,4.54,37.26,37.26,0,0,1-12.74-2.27,38.55,38.55,0,0,1-11.39-6.46,30.18,30.18,0,0,1-8.2-10.91A35,35,0,0,1,748.15,81Z" transform="translate(-32 -9.14)"/><path d="M815.71,46.75h45.55v7.73H823.82v21.9h34.55V84.1H823.82v22.49h38v7.72H815.71Z" transform="translate(-32 -9.14)"/></g></g><g id="e0f2b28e-bb86-46a3-ba51-24d6fc29908a" data-name=" 2165538887504"><path class="be90e8b2-cb0a-4d14-8bf2-83860b756f7d" d="M32,53,109,9.14,187.83,53v90.07l-78.07,44.16L32,143.06Zm3.67,2.16,73.39-41.76,75,41.76V140.9l-74.3,42-74.09-42Z" transform="translate(-32 -9.14)"/><path class="be90e8b2-cb0a-4d14-8bf2-83860b756f7d" d="M67.71,54l42.77,42,41.69-40.82V138.4H149v-76L112.64,98.11l11.16,10.94-2.16,2.17-11.16-10.94L67.71,142.22ZM73.9,64.51,70.74,67.6V61.41ZM70.74,72l5.32-5.32,1.66,1.55-7,6.77Zm0,7.42,9.07-9.07,1.65,1.58c-5.47,5.4-8.92,8.71-10.72,10.51Zm0,7.34L83.62,74l1.66,1.66C78.8,82,73.28,87.33,70.74,89.92Zm0,7.42,16.7-16.42,1.62,1.66c-6.77,6.62-14.4,14-18.36,18Zm0,7.49L91.26,81.5l1.58,1.58C85,90.79,74.7,100.86,70.74,104.82Zm0,7.41L95,85.22l1.65,1.58c-8.27,8.14-21,20.67-25.91,25.42Zm0,7.42L98.81,88.84l1.66,1.66-29.73,29Zm0,7.27,31.82-31.18,1.73,1.66L70.74,127Zm0,7.49,35.63-34.92,1.88,1.8L70.74,134.85Z" transform="translate(-32 -9.14)"/></g><g class="b38b1971-d632-4d80-8170-5dbfca0ab09d"><g class="b38b1971-d632-4d80-8170-5dbfca0ab09d"><path d="M221.77,137.13h3.62v30.19h-3.62Z" transform="translate(-32 -9.14)"/><path d="M237,167.32h-3.62V137.13h3.36l18.16,24.11V137.13h3.62v30.19h-3.36L237,143.17v24.15Z" transform="translate(-32 -9.14)"/><path d="M270,167.32h-3.62V137.13h3.36l18.16,24.11V137.13h3.62v30.19h-3.36L270,143.17v24.15Z" transform="translate(-32 -9.14)"/></g><g class="b38b1971-d632-4d80-8170-5dbfca0ab09d"><path d="M298.47,158a16.79,16.79,0,0,1,0-11.47,16.2,16.2,0,0,1,2.92-5,13.38,13.38,0,0,1,5-3.56,18.43,18.43,0,0,1,13.8,0,13.54,13.54,0,0,1,5,3.56,16.38,16.38,0,0,1,2.91,5A16.79,16.79,0,0,1,328,158a16.38,16.38,0,0,1-2.91,5,13.54,13.54,0,0,1-5,3.56,18.43,18.43,0,0,1-13.8,0,13.38,13.38,0,0,1-5-3.56A16.2,16.2,0,0,1,298.47,158Zm26.14-1.21a13.85,13.85,0,0,0,0-9.05,12.31,12.31,0,0,0-2.2-3.88,9.86,9.86,0,0,0-3.82-2.74,14.51,14.51,0,0,0-10.69,0,9.93,9.93,0,0,0-3.82,2.74,12.31,12.31,0,0,0-2.2,3.88,14,14,0,0,0,0,9.05,12.36,12.36,0,0,0,2.2,3.89,10,10,0,0,0,3.82,2.74,14.65,14.65,0,0,0,10.69,0,10,10,0,0,0,3.82-2.74A12.36,12.36,0,0,0,324.61,156.75Z" transform="translate(-32 -9.14)"/></g><g class="b38b1971-d632-4d80-8170-5dbfca0ab09d"><path d="M346.54,167.32h-3.75l-12.51-30.19h3.89l10.48,26.14,10.52-26.14h3.88Z" transform="translate(-32 -9.14)"/></g><g class="b38b1971-d632-4d80-8170-5dbfca0ab09d"><path d="M361.68,167.32h-3.93l13.16-30.19h4L388,167.32h-3.88L381,160H364.78ZM372.42,142l-6.21,14.67h13.41L373.37,142l-.48-1.16C372.63,141.5,372.47,141.89,372.42,142Z" transform="translate(-32 -9.14)"/></g><g class="b38b1971-d632-4d80-8170-5dbfca0ab09d"><path d="M385.53,137.13h24.85v3.45H399.77v26.74h-3.63V140.58H385.53Z" transform="translate(-32 -9.14)"/><path d="M415,137.13h3.62v30.19H415Z" transform="translate(-32 -9.14)"/><path d="M425.49,158a16.79,16.79,0,0,1,0-11.47,16.38,16.38,0,0,1,2.91-5,13.54,13.54,0,0,1,5-3.56,18.46,18.46,0,0,1,13.81,0,13.54,13.54,0,0,1,5,3.56,16.38,16.38,0,0,1,2.91,5A16.79,16.79,0,0,1,455,158a16.38,16.38,0,0,1-2.91,5,13.54,13.54,0,0,1-5,3.56,18.46,18.46,0,0,1-13.81,0,13.54,13.54,0,0,1-5-3.56A16.38,16.38,0,0,1,425.49,158Zm26.14-1.21a14,14,0,0,0,0-9.05,12.31,12.31,0,0,0-2.2-3.88,9.93,9.93,0,0,0-3.82-2.74,14.51,14.51,0,0,0-10.69,0,9.86,9.86,0,0,0-3.82,2.74,12.31,12.31,0,0,0-2.2,3.88,14,14,0,0,0,0,9.05,12.36,12.36,0,0,0,2.2,3.89,10,10,0,0,0,3.82,2.74,14.65,14.65,0,0,0,10.69,0,10,10,0,0,0,3.82-2.74A12.36,12.36,0,0,0,451.63,156.75Z" transform="translate(-32 -9.14)"/><path d="M465.58,167.32H462V137.13h3.36l18.16,24.11V137.13h3.62v30.19h-3.36l-18.16-24.15v24.15Z" transform="translate(-32 -9.14)"/><path d="M503.75,152.44a15.74,15.74,0,0,1,2.37-8.69,14.66,14.66,0,0,1,5.91-5.41,17.1,17.1,0,0,1,7.59-1.73,17.93,17.93,0,0,1,8.5,2v3.62a13.9,13.9,0,0,0-7.89-2.2,13.57,13.57,0,0,0-9,3.17q-3.79,3.18-3.84,9.21a11.27,11.27,0,0,0,2,6.64,11.51,11.51,0,0,0,4.83,4.06,15.27,15.27,0,0,0,6.15,1.25,13.46,13.46,0,0,0,8-2.2v3.62a18.84,18.84,0,0,1-8.76,2,16.74,16.74,0,0,1-5.69-1,17.21,17.21,0,0,1-5.09-2.89,13.5,13.5,0,0,1-3.67-4.88A15.63,15.63,0,0,1,503.75,152.44Z" transform="translate(-32 -9.14)"/><path d="M533.94,137.13H554.3v3.45H537.57v9.79H553v3.45H537.57v10.05h17v3.45H533.94Z" transform="translate(-32 -9.14)"/><path d="M564.31,167.32h-3.63V137.13h3.37l18.16,24.11V137.13h3.62v30.19h-3.37l-18.15-24.15v24.15Z" transform="translate(-32 -9.14)"/><path d="M590.4,137.13h24.84v3.45H604.63v26.74H601V140.58H590.4Z" transform="translate(-32 -9.14)"/><path d="M619.81,137.13h20.36v3.45H623.44v9.79h15.44v3.45H623.44v10.05h17v3.45H619.81Z" transform="translate(-32 -9.14)"/><path d="M650.18,167.32h-3.63V137.13h11.82a17.14,17.14,0,0,1,5.39.8,8.93,8.93,0,0,1,4.16,2.93,8.24,8.24,0,0,1,1.75,5.41,8,8,0,0,1-2.24,6,11.07,11.07,0,0,1-5.82,2.81l10.22,12.2H667.3l-9.88-11.9h-7.24Zm0-26.74V152h8.36a10,10,0,0,0,5.33-1.32,5.56,5.56,0,0,0,0-8.77,10,10,0,0,0-5.33-1.3Z" transform="translate(-32 -9.14)"/><path d="M687.27,137.13h10.31q12.81,0,12.81,9.75t-12.81,9.75h-6.69v10.69h-3.62Zm19.45,9.75a6.5,6.5,0,0,0-.69-3.13,4.64,4.64,0,0,0-2-1.94,9.82,9.82,0,0,0-2.78-.95,19.39,19.39,0,0,0-3.54-.28h-6.86v12.59h6.86a13.23,13.23,0,0,0,6.58-1.38Q706.71,150.43,706.72,146.88Z" transform="translate(-32 -9.14)"/><path d="M719.4,167.32h-3.62V137.13h11.81a17.21,17.21,0,0,1,5.4.8,9,9,0,0,1,4.16,2.93,8.28,8.28,0,0,1,1.74,5.41,8,8,0,0,1-2.24,6,11,11,0,0,1-5.82,2.81l10.22,12.2h-4.53l-9.87-11.9H719.4Zm0-26.74V152h8.37a10,10,0,0,0,5.32-1.32,5.56,5.56,0,0,0,0-8.77,10,10,0,0,0-5.32-1.3Z" transform="translate(-32 -9.14)"/><path d="M745.75,137.13h3.63v30.19h-3.63Z" transform="translate(-32 -9.14)"/><path d="M777.24,167.32H754.85V164l17.34-23.46H755.28v-3.45h21.27v3.28l-17.38,23.46h18.07Z" transform="translate(-32 -9.14)"/><path d="M786.21,167.32h-3.63V137.13H794.4a17.14,17.14,0,0,1,5.39.8,9,9,0,0,1,4.17,2.93,8.28,8.28,0,0,1,1.74,5.41,8,8,0,0,1-2.24,6,11.07,11.07,0,0,1-5.82,2.81l10.22,12.2h-4.53l-9.88-11.9h-7.24Zm0-26.74V152h8.36a10,10,0,0,0,5.33-1.32,5.56,5.56,0,0,0,0-8.77,10,10,0,0,0-5.33-1.3Z" transform="translate(-32 -9.14)"/><path d="M812.56,137.13h20.36v3.45H816.18v9.79h15.44v3.45H816.18v10.05h17v3.45H812.56Z" transform="translate(-32 -9.14)"/><path d="M842.92,167.32H839.3V137.13h3.36l18.16,24.11V137.13h3.62v30.19h-3.36l-18.16-24.15v24.15Z" transform="translate(-32 -9.14)"/></g></g></g></svg>