<svg width="218" height="46" viewBox="0 0 218 46" fill="none" xmlns="http://www.w3.org/2000/svg">
<path d="M66.4857 9.71375H68.3094V27.1697H66.1866V13.6712L59.8182 23.0252H58.5343L52.1804 13.6712V27.1697H50.0576V9.71375H51.8813L59.1762 20.5068L66.4857 9.71375Z" fill="white"/>
<path d="M73.1094 27.1697H70.8115L78.5149 9.71375H80.8712L88.5599 27.1697H86.2839L84.4602 22.9532H74.9258L73.1094 27.1697ZM79.3976 12.5343L75.7501 21.0105H83.6067L79.9593 12.5343L79.6821 11.858C79.5362 12.2465 79.4414 12.4696 79.4122 12.5343H79.3976Z" fill="white"/>
<path d="M93.199 27.1697H91.0762V9.71375H93.199V17.2689H97.2185L102.551 9.71375H104.98L98.9546 18.2187L105.52 27.1697H103.076L97.2914 19.2548H93.199V27.1697Z" fill="white"/>
<path d="M107.898 9.71375H119.826V11.7141H110.007V17.3696H119.06V19.3627H110.007V25.1838H119.957V27.1841H107.898V9.71375Z" fill="white"/>
<path d="M125.677 27.1697H123.554V9.71371H130.484C131.555 9.70122 132.621 9.85666 133.643 10.1742C134.603 10.4986 135.448 11.088 136.079 11.8723C136.784 12.7636 137.146 13.8727 137.1 15.0023C137.14 15.6415 137.044 16.2818 136.819 16.8826C136.594 17.4833 136.245 18.0314 135.794 18.4921C134.853 19.3677 133.666 19.9443 132.388 20.147L138.377 27.2057H135.685L129.893 20.3197H125.647L125.677 27.1697ZM125.677 11.714V18.305H130.579C131.67 18.3385 132.749 18.0693 133.694 17.5279C134.118 17.2594 134.46 16.8815 134.683 16.435C134.905 15.9886 134.999 15.4907 134.956 14.9951C134.999 14.4994 134.905 14.0013 134.684 13.5539C134.463 13.1066 134.124 12.7268 133.701 12.4551C132.748 11.9398 131.671 11.691 130.586 11.7356L125.677 11.714Z" fill="white"/>
<path d="M140.061 14.0309C140.032 13.3618 140.177 12.6964 140.482 12.0981C140.787 11.4998 141.243 10.9886 141.805 10.6131C143.09 9.78349 144.603 9.36626 146.138 9.41871C148.006 9.3687 149.853 9.80817 151.492 10.6923V12.7861C149.94 11.8179 148.126 11.3385 146.291 11.4118C143.573 11.4118 142.211 12.2585 142.206 13.9518C142.204 14.2804 142.271 14.6059 142.404 14.9071C142.538 15.2083 142.733 15.4785 142.979 15.7003C143.538 16.2026 144.204 16.5762 144.927 16.794C145.7 17.0482 146.547 17.336 147.466 17.6574C148.385 17.9788 149.231 18.3098 150.004 18.6504C150.782 18.9883 151.454 19.5248 151.952 20.2046C152.486 20.9366 152.763 21.8211 152.74 22.7229C152.753 23.4889 152.565 24.245 152.193 24.9175C151.845 25.532 151.343 26.0475 150.734 26.4142C150.09 26.7835 149.39 27.0506 148.662 27.2057C147.858 27.385 147.035 27.4719 146.211 27.4647C144.09 27.4968 141.998 26.9808 140.142 25.9681V23.8742C141.923 24.9433 143.973 25.4969 146.058 25.4716C149.092 25.4716 150.602 24.6081 150.602 22.8884C150.617 22.2931 150.412 21.7128 150.026 21.2551C149.607 20.7741 149.084 20.3928 148.494 20.1398C147.824 19.8374 147.134 19.5778 146.43 19.3627C145.7 19.1325 144.971 18.8806 144.198 18.6C143.489 18.3476 142.805 18.0321 142.155 17.6574C141.534 17.312 141.012 16.8168 140.638 16.2183C140.238 15.5585 140.038 14.7994 140.061 14.0309Z" fill="white"/>
<path d="M155.906 9.71375H161.946C166.951 9.71375 169.453 11.5941 169.453 15.3549C169.453 19.1157 166.951 20.9913 161.946 20.9817H158.014V27.1697H155.892L155.906 9.71375ZM167.301 15.3549C167.323 14.7269 167.185 14.1035 166.9 13.5417C166.638 13.0619 166.237 12.6708 165.747 12.4192C165.239 12.1606 164.696 11.9764 164.135 11.8724C163.451 11.7549 162.757 11.7019 162.063 11.7141H158.044V18.9886H162.063C163.395 19.0552 164.722 18.78 165.915 18.1899C166.39 17.8909 166.771 17.4673 167.016 16.9666C167.261 16.4659 167.359 15.9078 167.301 15.3549Z" fill="white"/>
<path d="M171.429 27.1697H169.124L176.857 9.71375H179.213L186.894 27.1697H184.626L182.795 22.9532H173.268L171.429 27.1697ZM177.71 12.5343L174.063 21.0105H181.919L178.272 12.5343L177.995 11.858C177.918 12.0884 177.828 12.3142 177.725 12.5343H177.71Z" fill="white"/>
<path d="M187.544 18.5641C187.501 16.7872 187.985 15.0366 188.937 13.5273C189.775 12.1889 190.975 11.1075 192.402 10.4046C193.788 9.73784 195.31 9.39557 196.852 9.4044C198.583 9.38263 200.293 9.78566 201.827 10.5772V12.6711C200.452 11.7947 198.839 11.3506 197.202 11.3975C195.286 11.3699 193.424 12.0238 191.957 13.2395C190.498 14.4556 189.725 16.2328 189.71 18.5569C189.688 19.8585 190.052 21.1382 190.757 22.2387C191.462 23.3393 192.477 24.2128 193.679 24.7521C194.813 25.2366 196.038 25.4817 197.275 25.4717C198.931 25.5428 200.567 25.0971 201.951 24.1981V26.2919C200.368 27.0802 198.617 27.4824 196.845 27.4648C195.707 27.4641 194.578 27.2643 193.511 26.8748C192.427 26.4947 191.417 25.9323 190.527 25.2126C189.602 24.4456 188.866 23.4811 188.375 22.392C187.822 21.1899 187.539 19.8842 187.544 18.5641Z" fill="white"/>
<path d="M205.241 9.71375H217.168V11.7141H207.364V17.3696H216.41V19.3627H207.364V25.1838H217.314V27.1841H205.241V9.71375Z" fill="white"/>
<path fill-rule="evenodd" clip-rule="evenodd" d="M0 11.3327L20.163 0L40.8075 11.3327V34.5953L20.3819 46L0 34.5953V11.3327ZM0.962923 11.8868L20.1776 1.0937L39.8227 11.8868V34.0341L20.3673 44.8847L0.962923 34.0341V11.8868Z" fill="white"/>
<path fill-rule="evenodd" clip-rule="evenodd" d="M9.35156 11.5846L20.5492 22.4352L31.4915 11.894V33.3866H30.638V13.7576L21.1547 22.9821L24.0726 25.8098L23.5036 26.3711L20.5857 23.5433L9.35156 34.3795V11.5846ZM10.9418 14.3044L10.1467 15.1103V13.4986L10.9418 14.3044ZM10.1175 16.24L11.5108 14.8657L11.9412 15.2614L10.1394 17.0099L10.1175 16.24ZM10.1175 18.154L12.5175 15.8299L12.9552 16.24C11.4963 17.6359 10.6136 18.4921 10.1467 18.9527L10.1175 18.154ZM10.1175 20.0535L13.4878 16.7509L13.9254 17.1826C12.2257 18.8231 10.7814 20.1975 10.1175 20.8666V20.0535ZM10.1175 21.9675L14.4944 17.7222L14.9176 18.154C13.1449 19.8665 11.1461 21.7517 10.1102 22.8022L10.1175 21.9675ZM10.1175 23.9031L15.5157 18.708L15.9315 19.111C13.8817 21.1041 11.1826 23.7088 10.1467 24.7305L10.1175 23.9031ZM10.1175 25.817L16.4714 19.6506L16.9018 20.0607C14.7133 22.1618 11.4014 25.3997 10.1175 26.6301V25.817ZM10.1175 27.731L17.5072 20.586L17.9449 21.0177L10.1467 28.5081L10.1175 27.731ZM10.1175 29.609L18.4775 21.5862L18.9297 22.0107L10.1759 30.4724L10.1175 29.609ZM10.1175 31.5446L19.4768 22.5216L19.9656 22.9893L10.1467 32.4728L10.1175 31.5446Z" fill="white"/>
<path d="M49.7002 33.0988H50.6485V40.8626H49.7002V33.0988Z" fill="white"/>
<path d="M53.6827 40.8626H52.7344V33.0988H53.6171L58.3587 39.2868V33.0988H59.3071V40.8626H58.439L53.6827 34.6242V40.8626Z" fill="white"/>
<path d="M62.3272 40.8626H61.3789V33.0988H62.2616L67.0179 39.3227V33.0988H67.9662V40.8626H67.1127L62.3564 34.6242V40.8626H62.3272Z" fill="white"/>
<path d="M69.7823 38.4521C69.4319 37.4941 69.4319 36.4455 69.7823 35.4876C69.9488 35.0202 70.1955 34.5845 70.5118 34.1996C70.8696 33.7978 71.3164 33.4827 71.8176 33.2786C72.9871 32.8106 74.2955 32.8106 75.465 33.2786C75.9672 33.4808 76.4144 33.7962 76.7708 34.1996C77.0898 34.5826 77.3369 35.0188 77.5003 35.4876C77.855 36.4448 77.855 37.4949 77.5003 38.4521C77.3362 38.9205 77.0892 39.3566 76.7708 39.7401C76.4118 40.1438 75.9622 40.4591 75.4577 40.6611C74.2887 41.1314 72.9794 41.1314 71.8103 40.6611C71.3069 40.4573 70.8576 40.1422 70.4972 39.7401C70.1845 39.3552 69.9426 38.9193 69.7823 38.4521ZM76.6322 38.1427C76.8962 37.3849 76.8962 36.5619 76.6322 35.8042C76.4998 35.4384 76.3049 35.0977 76.0559 34.7968C75.7828 34.4818 75.4378 34.2352 75.0492 34.0773C74.1522 33.7245 73.1523 33.7245 72.2553 34.0773C71.8678 34.2335 71.5248 34.4804 71.2559 34.7968C71.0016 35.0941 70.8061 35.4358 70.6796 35.8042C70.4156 36.5619 70.4156 37.3849 70.6796 38.1427C70.8047 38.5095 71.0003 38.8491 71.2559 39.1428C71.5273 39.4566 71.8696 39.703 72.2553 39.8624C73.1536 40.208 74.1509 40.208 75.0492 39.8624C75.4361 39.7015 75.7804 39.4553 76.0559 39.1428C76.3064 38.8403 76.5015 38.497 76.6322 38.1283V38.1427Z" fill="white"/>
<path d="M82.3735 40.8626H81.3887L78.1133 33.0988H79.1346L81.8774 39.848L84.6203 33.0988H85.6343L82.3735 40.8626Z" fill="white"/>
<path d="M86.3352 40.8626H85.3066L88.7571 33.0988H89.8003L93.2289 40.8985H92.2149L91.3979 39.0062H87.1522L86.3352 40.8626ZM89.151 34.322L87.5389 38.1355H91.0477L89.4136 34.3507L89.2896 34.0485L89.151 34.322Z" fill="white"/>
<path d="M92.5863 33.0988H99.0934V33.991H96.2921V40.8985H95.3365V33.991H92.5645L92.5863 33.0988Z" fill="white"/>
<path d="M100.305 33.0988H101.246V40.8626H100.305V33.0988Z" fill="white"/>
<path d="M103.048 38.4521C102.698 37.4941 102.698 36.4455 103.048 35.4876C103.222 35.0162 103.482 34.5798 103.814 34.1996C104.17 33.7962 104.617 33.4808 105.12 33.2786C106.289 32.8106 107.598 32.8106 108.767 33.2786C109.269 33.4808 109.717 33.7962 110.073 34.1996C110.405 34.5798 110.664 35.0162 110.839 35.4876C111.182 36.449 111.169 37.4991 110.802 38.4521C110.641 38.9218 110.394 39.3583 110.073 39.7401C109.694 40.1511 109.222 40.4669 108.694 40.6611C107.525 41.1291 106.216 41.1291 105.047 40.6611C104.543 40.4573 104.094 40.1422 103.734 39.7401C103.433 39.3517 103.202 38.9163 103.048 38.4521ZM109.898 38.1427C110.153 37.3835 110.153 36.5633 109.898 35.8042C109.765 35.4384 109.571 35.0977 109.322 34.7968C109.048 34.4818 108.703 34.2352 108.315 34.0773C107.418 33.7245 106.418 33.7245 105.521 34.0773C105.132 34.2352 104.787 34.4818 104.514 34.7968C104.265 35.0962 104.072 35.4375 103.945 35.8042C103.681 36.5619 103.681 37.3849 103.945 38.1427C104.071 38.5079 104.263 38.8471 104.514 39.1428C104.79 39.4553 105.134 39.7015 105.521 39.8624C106.419 40.208 107.416 40.208 108.315 39.8624C108.702 39.7015 109.046 39.4553 109.322 39.1428C109.572 38.8404 109.767 38.497 109.898 38.1283V38.1427Z" fill="white"/>
<path d="M113.545 40.8626H112.611V33.0988H113.487L118.243 39.3227V33.0988H119.191V40.8626H118.316L113.56 34.6242V40.8626H113.545Z" fill="white"/>
<path d="M123.546 37.0129C123.527 36.221 123.742 35.4407 124.166 34.768C124.539 34.1691 125.075 33.6855 125.713 33.3721C126.332 33.0781 127.01 32.9256 127.697 32.926C128.458 32.9218 129.209 33.0995 129.885 33.444V34.3794C129.27 33.9903 128.551 33.7923 127.821 33.811C126.963 33.7924 126.127 34.0842 125.472 34.6313C125.133 34.9263 124.867 35.2933 124.692 35.7045C124.518 36.1158 124.44 36.5607 124.465 37.0058C124.458 37.588 124.623 38.1598 124.94 38.6507C125.258 39.1417 125.714 39.5303 126.253 39.7688C126.76 39.9902 127.31 40.1007 127.865 40.0926C128.606 40.1277 129.34 39.9286 129.958 39.5241V40.4595C129.249 40.8134 128.463 40.9912 127.668 40.9776C127.17 40.9754 126.676 40.8878 126.209 40.7186C125.725 40.5554 125.274 40.3121 124.874 39.999C124.458 39.6591 124.128 39.2279 123.911 38.7398C123.658 38.1988 123.534 37.6084 123.546 37.0129Z" fill="white"/>
<path d="M131.446 33.0988H136.779V33.991H132.402V36.4806H136.414V37.3728H132.402V39.9703H136.852V40.8626H131.446V33.0988Z" fill="white"/>
<path d="M139.405 40.8626H138.449V33.0988H139.332L144.088 39.3227V33.0988H145.036V40.8626H144.154L139.405 34.6242V40.8626Z" fill="white"/>
<path d="M146.233 33.0988H152.74V33.991H149.961V40.8985H149.013V33.991H146.233V33.0988Z" fill="white"/>
<path d="M153.922 33.0988H159.254V33.991H154.878V36.4806H158.926V37.3728H154.878V39.9703H159.335V40.8626H153.922V33.0988Z" fill="white"/>
<path d="M161.888 40.8625H160.939V33.0987H164.032C164.512 33.0934 164.989 33.1614 165.448 33.3001C165.878 33.4439 166.256 33.7091 166.535 34.0629C166.853 34.4956 167.014 35.0215 166.991 35.5556C166.969 36.0896 166.764 36.6006 166.411 37.0058C165.985 37.3887 165.455 37.6391 164.886 37.7253L167.563 40.8769H166.374L163.784 37.8044H161.888V40.8625ZM161.888 33.9549V36.905H164.076C164.567 36.9216 165.052 36.8019 165.477 36.5596C165.781 36.3253 165.978 35.9818 166.026 35.6043C166.074 35.2267 165.968 34.8458 165.732 34.5449C165.656 34.4523 165.571 34.3678 165.477 34.2931C165.051 34.0551 164.565 33.9404 164.076 33.9621L161.888 33.9549Z" fill="white"/>
<path d="M171.604 33.0988H174.304C176.543 33.0988 177.659 33.9334 177.659 35.6171C177.659 37.3008 176.536 38.1355 174.304 38.1355H172.553V40.8985H171.604V33.0988ZM176.711 35.6171C176.72 35.3353 176.657 35.0557 176.529 34.8041C176.412 34.5896 176.231 34.4161 176.011 34.3076C175.782 34.1878 175.536 34.1052 175.281 34.0629C174.976 34.0066 174.665 33.9825 174.355 33.991H172.553V37.2433H174.347C174.943 37.2725 175.536 37.1485 176.069 36.8835C176.286 36.7537 176.461 36.5657 176.573 36.3414C176.685 36.1171 176.731 35.8659 176.704 35.6171H176.711Z" fill="white"/>
<path d="M180.016 40.8625H179.067V33.0987H182.16C182.64 33.093 183.117 33.161 183.576 33.3002C184.007 33.4457 184.387 33.7105 184.67 34.0629C184.981 34.4619 185.141 34.9557 185.122 35.4588C185.137 35.7423 185.093 36.0258 184.993 36.2919C184.892 36.5579 184.738 36.8009 184.539 37.0058C184.113 37.3888 183.583 37.6391 183.014 37.7253L185.691 40.8769H184.502L181.92 37.8045H180.016V40.8625ZM180.016 33.955V36.9051H182.204C182.692 36.918 183.174 36.7986 183.597 36.5597C183.9 36.3221 184.095 35.9756 184.139 35.5964C184.182 35.2173 184.072 34.8365 183.831 34.5378C183.76 34.4436 183.676 34.3589 183.583 34.286C183.159 34.0482 182.676 33.9334 182.19 33.955H180.016Z" fill="white"/>
<path d="M186.917 33.0988H187.873V40.8626H186.917V33.0988Z" fill="white"/>
<path d="M195.167 40.8625H189.331V39.9991L193.868 33.9406H189.44V33.0483H195.014V33.8974L190.462 39.9559H195.196L195.167 40.8625Z" fill="white"/>
<path d="M197.516 40.8625H196.561V33.0987H199.661C200.138 33.0935 200.613 33.1614 201.069 33.3001C201.5 33.4457 201.88 33.7104 202.163 34.0628C202.474 34.4619 202.634 34.9557 202.615 35.4587C202.634 35.7426 202.591 36.0271 202.491 36.2937C202.39 36.5602 202.234 36.8029 202.032 37.0058C201.607 37.3887 201.076 37.6391 200.507 37.7253L203.184 40.8769H201.995L199.413 37.8044H197.516V40.8625ZM197.516 33.9549V36.905H199.705C200.193 36.9218 200.676 36.8021 201.098 36.5596C201.248 36.4425 201.374 36.2973 201.468 36.1323C201.561 35.9672 201.621 35.7857 201.643 35.5979C201.665 35.4101 201.65 35.2199 201.598 35.0379C201.546 34.856 201.458 34.6861 201.339 34.5377C201.265 34.4433 201.179 34.3587 201.083 34.2859C200.66 34.0481 200.177 33.9334 199.69 33.9549H197.516Z" fill="white"/>
<path d="M204.417 33.0988H209.75V33.991H205.373V36.4806H209.414V37.3728H205.373V39.9703H209.823V40.8626H204.424L204.417 33.0988Z" fill="white"/>
<path d="M212.368 40.8626H211.42V33.0988H212.281L217.037 39.3227V33.0988H217.985V40.8626H217.11L212.354 34.6242L212.368 40.8626Z" fill="white"/>
</svg>
