<svg width="161" height="19" viewBox="0 0 161 19" fill="none" xmlns="http://www.w3.org/2000/svg">
<g clip-path="url(#clip0)">
<path d="M2.98972 11.0565L10.1302 13.7889V16.7165L0 12.1983V9.84643L10.1302 5.29892V8.2265L2.98972 11.0565ZM16.129 5.54289L16.2161 6.92861C16.6825 6.38748 17.2641 5.95978 17.9176 5.67755C18.5711 5.39533 19.2794 5.26588 19.9895 5.29892C20.723 5.22737 21.4607 5.38339 22.1039 5.74612C22.7471 6.10885 23.2652 6.66099 23.5888 7.32871C24.0327 6.67484 24.634 6.14551 25.3364 5.79045C26.0388 5.43538 26.8191 5.26624 27.6041 5.29892C28.1963 5.25018 28.7918 5.33331 29.3486 5.54241C29.9054 5.75152 30.4098 6.0815 30.8261 6.50899C31.6066 7.52378 31.9983 8.78841 31.9291 10.0709V18.756H29.0264V10.1587C29.083 9.49543 28.8856 8.83549 28.4749 8.31433C28.2312 8.09691 27.9455 7.93266 27.6358 7.8319C27.3261 7.73114 26.9991 7.69605 26.6753 7.72881C26.0797 7.70543 25.4957 7.89946 25.0305 8.2753C24.6018 8.65203 24.2923 9.14745 24.1403 9.70005V18.756H21.1603V10.0611C21.1953 9.74197 21.1579 9.41896 21.0508 9.11655C20.9438 8.81413 20.77 8.54021 20.5426 8.31553C20.3152 8.09084 20.04 7.92125 19.7381 7.81961C19.4361 7.71796 19.1151 7.68692 18.7995 7.72881C18.286 7.69418 17.7739 7.81382 17.3279 8.07263C16.8819 8.33143 16.5219 8.71778 16.2935 9.18285V18.756H13.3909V5.54289H16.129ZM40.7048 19C39.8688 19.0343 39.0348 18.8953 38.2542 18.5915C37.4737 18.2877 36.7633 17.8255 36.167 17.2337C35.5789 16.5999 35.1226 15.8537 34.8252 15.0391C34.5277 14.2245 34.3951 13.3581 34.435 12.491V12.1299C34.4124 10.9094 34.6707 9.70018 35.1897 8.59733C35.6552 7.59933 36.3937 6.75627 37.3183 6.16744C38.2307 5.58931 39.2887 5.28784 40.3661 5.29892C41.1411 5.25047 41.9169 5.38085 42.6345 5.68015C43.352 5.97945 43.9925 6.4398 44.5072 7.02619C45.5644 8.42029 46.0836 10.1542 45.9682 11.9055V13.1058H37.4054C37.4407 14.0706 37.8224 14.9897 38.4794 15.6918C38.7925 16.0105 39.1668 16.2615 39.5794 16.4293C39.992 16.5971 40.4342 16.6782 40.8789 16.6677C41.5184 16.6807 42.1516 16.5375 42.7244 16.2503C43.2972 15.9631 43.7927 15.5405 44.1686 15.0185L45.7554 16.5506C45.2279 17.3441 44.4996 17.9808 43.6461 18.395C42.7248 18.8219 41.7183 19.0289 40.7048 19ZM40.3564 7.68002C39.9912 7.67164 39.6287 7.7442 39.2943 7.89258C38.9599 8.04096 38.6619 8.26155 38.4213 8.53878C37.8708 9.21753 37.5339 10.0467 37.4538 10.9199H43.0559V10.7345C43.0529 9.91861 42.7767 9.12771 42.2722 8.48998C42.0313 8.22156 41.7348 8.00986 41.4037 7.86989C41.0726 7.72991 40.7151 7.66509 40.3564 7.68002ZM50.9995 5.54289L51.0769 7.07499C51.5354 6.50221 52.1188 6.04393 52.7817 5.73587C53.4446 5.4278 54.1691 5.27827 54.8987 5.29892C57.6272 5.29892 59.0108 6.87982 59.0591 10.0221V18.8048H56.1178V10.1977C56.1709 9.53337 55.9778 8.87274 55.576 8.34361C55.3436 8.11939 55.066 7.94839 54.7621 7.84228C54.4581 7.73618 54.1351 7.69748 53.815 7.72881C53.2641 7.71221 52.7203 7.85739 52.2496 8.14671C51.779 8.43602 51.4018 8.85702 51.1639 9.3585V18.756H48.2613V5.54289H50.9995ZM76.059 18.756C75.8949 18.3759 75.781 17.9756 75.7203 17.5655C75.2834 18.0417 74.7514 18.4192 74.1594 18.6732C73.5674 18.9272 72.9287 19.0519 72.2855 19.039C71.1082 19.0867 69.9568 18.6821 69.0636 17.907C68.665 17.5586 68.3468 17.1265 68.1312 16.6411C67.9156 16.1556 67.8078 15.6285 67.8154 15.0966C67.7861 14.4693 67.9123 13.8445 68.1826 13.2788C68.4529 12.7131 68.8588 12.2243 69.3635 11.8567C70.6997 11.0269 72.2579 10.6349 73.8239 10.7345H75.6236V9.86595C75.656 9.26479 75.4507 8.67521 75.0527 8.2265C74.8248 8.00747 74.5535 7.83947 74.2567 7.73352C73.9599 7.62757 73.6443 7.58606 73.3305 7.61171C72.7376 7.58493 72.1536 7.76405 71.676 8.11916C71.4742 8.26582 71.3107 8.45963 71.1995 8.68397C71.0883 8.90832 71.0327 9.15651 71.0374 9.40729H68.1347C68.1391 8.66854 68.3915 7.95307 68.8507 7.3775C69.3571 6.71958 70.0237 6.20518 70.7858 5.88444C71.6516 5.49914 72.5874 5.29974 73.5337 5.29892C74.8563 5.22833 76.1593 5.64445 77.2007 6.46995C77.6562 6.88134 78.015 7.39 78.251 7.9589C78.487 8.5278 78.5942 9.14262 78.5649 9.7586V15.7114C78.5262 16.6804 78.6979 17.6463 79.068 18.5413V18.7463L76.059 18.756ZM72.8273 16.5896C73.4109 16.6117 73.9895 16.4734 74.5012 16.1895C74.9936 15.9359 75.3984 15.5379 75.6623 15.0478V12.5496H74.0368C73.1793 12.4938 72.3245 12.6941 71.5792 13.1253C71.3162 13.3041 71.1026 13.5476 70.9587 13.8327C70.8148 14.1179 70.7453 14.4353 70.7568 14.755C70.7456 15.0103 70.79 15.2649 70.887 15.501C70.9839 15.737 71.1311 15.9487 71.318 16.1212C71.747 16.459 72.2843 16.6258 72.8273 16.5896ZM85.3377 2.33231V5.54289H87.6502V7.73857H85.3377V15.1161C85.3039 15.5066 85.4066 15.8967 85.628 16.2188C85.7747 16.3425 85.9444 16.4356 86.1271 16.4926C86.3098 16.5495 86.502 16.5693 86.6923 16.5506C87.0378 16.5469 87.3818 16.5044 87.7179 16.4237V18.717C87.0894 18.903 86.4379 18.9983 85.7828 19C83.5252 19 82.3964 17.7411 82.3964 15.2234V7.73857H80.2388V5.54289H82.3964V2.33231H85.3377ZM101.467 16.5896C102.135 16.6133 102.787 16.3835 103.295 15.9456C103.526 15.7465 103.714 15.5018 103.847 15.2265C103.98 14.9512 104.056 14.6512 104.069 14.3451H106.837C106.805 15.1722 106.544 15.9737 106.082 16.6579C105.591 17.3759 104.924 17.954 104.147 18.3364C103.332 18.7545 102.429 18.9687 101.515 18.961C100.702 19.0013 99.8898 18.8615 99.1359 18.5513C98.382 18.2411 97.7047 17.768 97.1515 17.1654C96.0124 15.7781 95.4383 14.0061 95.5454 12.208V11.9055C95.4567 10.1532 96.0268 8.4316 97.1418 7.08475C97.6879 6.47381 98.3618 5.99309 99.1149 5.67746C99.868 5.36182 100.681 5.21918 101.496 5.25989C102.895 5.19927 104.261 5.69715 105.298 6.64561C105.789 7.10502 106.181 7.6623 106.447 8.28216C106.714 8.90201 106.85 9.57093 106.846 10.2465H104.079C104.068 9.54512 103.791 8.87458 103.305 8.37288C103.067 8.12995 102.782 7.93947 102.467 7.81349C102.152 7.68751 101.815 7.62877 101.476 7.64099C101.042 7.62687 100.61 7.7242 100.223 7.92387C99.8352 8.12354 99.5043 8.41904 99.2608 8.78274C98.6791 9.7285 98.4051 10.834 98.4771 11.9445V12.4227C98.3962 13.5469 98.6633 14.6687 99.2414 15.6333C99.5073 15.9631 99.849 16.2226 100.237 16.3892C100.625 16.5559 101.047 16.6246 101.467 16.5896ZM108.511 11.9933C108.489 10.7844 108.751 9.58747 109.275 8.49974C109.736 7.50368 110.48 6.66818 111.413 6.09913C112.375 5.53211 113.473 5.24185 114.587 5.25989C115.384 5.22822 116.179 5.36558 116.921 5.6631C117.663 5.96061 118.334 6.41167 118.892 6.98716C120.038 8.22794 120.677 9.85886 120.682 11.5542V12.247C120.702 13.4548 120.444 14.6507 119.928 15.7406C119.47 16.7311 118.729 17.5605 117.799 18.1217C116.832 18.6927 115.727 18.9831 114.606 18.961C113.777 18.9968 112.949 18.8495 112.182 18.5292C111.415 18.209 110.727 17.7235 110.165 17.1068C109.005 15.7242 108.41 13.9484 108.501 12.1397L108.511 11.9933ZM111.413 12.247C111.35 13.3771 111.644 14.4982 112.255 15.4479C112.517 15.8181 112.867 16.1165 113.272 16.3159C113.678 16.5153 114.126 16.6094 114.577 16.5896C115.029 16.6072 115.478 16.509 115.883 16.3042C116.287 16.0995 116.633 15.7948 116.889 15.4186C117.509 14.3902 117.8 13.1942 117.722 11.9933C117.785 10.8667 117.483 9.74988 116.86 8.81202C116.589 8.4576 116.241 8.17063 115.843 7.97318C115.444 7.77573 115.006 7.67305 114.563 7.67305C114.119 7.67305 113.681 7.77573 113.282 7.97318C112.884 8.17063 112.536 8.4576 112.265 8.81202C111.631 9.85212 111.346 11.0701 111.452 12.2861L111.413 12.247ZM122.588 12.0128C122.51 10.2749 123.003 8.55964 123.991 7.13354C124.425 6.54026 124.995 6.06174 125.652 5.73886C126.309 5.41598 127.034 5.25834 127.765 5.2794C128.397 5.25643 129.026 5.37589 129.607 5.6291C130.188 5.88231 130.706 6.26291 131.122 6.7432V0H134.073V18.756H131.403L131.258 17.3898C130.834 17.9148 130.296 18.3335 129.685 18.613C129.073 18.8924 128.406 19.0249 127.736 19C127.012 19.0145 126.295 18.8526 125.647 18.5281C124.998 18.2037 124.437 17.7261 124.011 17.1361C123.004 15.6428 122.517 13.8544 122.627 12.0519L122.588 12.0128ZM125.491 12.2666C125.431 13.3703 125.697 14.4672 126.255 15.4186C126.496 15.8007 126.834 16.1107 127.234 16.3166C127.634 16.5226 128.081 16.6168 128.529 16.5896C129.078 16.6147 129.622 16.4739 130.09 16.1853C130.559 15.8967 130.932 15.4734 131.161 14.9697V9.31947C130.933 8.82116 130.562 8.4032 130.097 8.11963C129.631 7.83606 129.092 7.69992 128.548 7.72881C128.113 7.7118 127.681 7.80896 127.295 8.01081C126.908 8.21265 126.58 8.51226 126.342 8.88033C125.757 9.92102 125.488 11.112 125.568 12.3056L125.491 12.2666ZM142.907 18.961C142.071 18.9959 141.237 18.8571 140.456 18.5533C139.675 18.2494 138.965 17.787 138.369 17.1947C137.781 16.5608 137.325 15.8146 137.027 15.0001C136.73 14.1855 136.597 13.3191 136.637 12.452V12.0909C136.625 10.884 136.883 9.68987 137.392 8.59733C137.863 7.60014 138.604 6.75774 139.53 6.16744C140.443 5.58931 141.5 5.28784 142.578 5.29892C143.351 5.25343 144.125 5.38521 144.84 5.68436C145.556 5.98352 146.195 6.44228 146.709 7.02619C147.767 8.42029 148.286 10.1542 148.17 11.9055V13.1058H139.608C139.651 14.0708 140.035 14.9882 140.691 15.6918C141.004 16.0105 141.379 16.2615 141.791 16.4293C142.204 16.5971 142.646 16.6782 143.091 16.6677C143.73 16.6799 144.363 16.5363 144.936 16.2492C145.508 15.9621 146.004 15.5399 146.38 15.0185L148.035 16.5116C147.507 17.305 146.779 17.9418 145.926 18.3559C144.996 18.8022 143.975 19.0228 142.946 19L142.907 18.961ZM142.559 7.64099C142.193 7.63193 141.83 7.70419 141.496 7.85262C141.162 8.00104 140.864 8.22199 140.623 8.49974C140.077 9.18091 139.741 10.0088 139.656 10.8808H145.268V10.7345C145.265 9.91861 144.988 9.12771 144.484 8.48998C144.246 8.22541 143.954 8.01598 143.629 7.87615C143.303 7.73632 142.951 7.6694 142.597 7.68002L142.559 7.64099ZM157.981 10.9492L150.502 8.17771V5.25013L160.961 9.79764V12.1983L150.502 16.7458V13.8182L157.981 10.9492Z" fill="white"/>
</g>
<defs>
<clipPath id="clip0">
<rect width="161" height="19" fill="white"/>
</clipPath>
</defs>
</svg>
