<svg width="131" height="16" viewBox="0 0 131 16" fill="none" xmlns="http://www.w3.org/2000/svg">
<path d="M3.02734 8.83789L8.78906 11.0254V13.3984L0.615234 9.75586V7.87109L8.78906 4.23828V6.61133L3.02734 8.83789ZM13.623 4.43359L13.6914 5.53711C14.4336 4.67122 15.4492 4.23828 16.7383 4.23828C18.151 4.23828 19.1178 4.77865 19.6387 5.85938C20.4069 4.77865 21.4876 4.23828 22.8809 4.23828C24.0462 4.23828 24.9121 4.56055 25.4785 5.20508C26.0514 5.84961 26.3444 6.80013 26.3574 8.05664V15H23.9844V8.125C23.9844 7.45443 23.8379 6.96289 23.5449 6.65039C23.252 6.33789 22.7669 6.18164 22.0898 6.18164C21.5495 6.18164 21.1068 6.32812 20.7617 6.62109C20.4232 6.90755 20.1855 7.28516 20.0488 7.75391L20.0586 15H17.6855V8.04688C17.653 6.80339 17.0182 6.18164 15.7812 6.18164C14.8307 6.18164 14.1569 6.56901 13.7598 7.34375V15H11.3867V4.43359H13.623ZM33.4473 15.1953C31.9434 15.1953 30.7227 14.7233 29.7852 13.7793C28.8542 12.8288 28.3887 11.5658 28.3887 9.99023V9.69727C28.3887 8.64258 28.5905 7.70182 28.9941 6.875C29.4043 6.04167 29.9772 5.39388 30.7129 4.93164C31.4486 4.4694 32.2689 4.23828 33.1738 4.23828C34.6126 4.23828 35.7227 4.69727 36.5039 5.61523C37.2917 6.5332 37.6855 7.83203 37.6855 9.51172V10.4688H30.7812C30.8529 11.3411 31.1426 12.0312 31.6504 12.5391C32.1647 13.0469 32.8092 13.3008 33.584 13.3008C34.6712 13.3008 35.5566 12.8613 36.2402 11.9824L37.5195 13.2031C37.0964 13.8346 36.5299 14.3262 35.8203 14.6777C35.1172 15.0228 34.3262 15.1953 33.4473 15.1953ZM33.1641 6.14258C32.513 6.14258 31.9857 6.37044 31.582 6.82617C31.1849 7.2819 30.931 7.91667 30.8203 8.73047H35.3418V8.55469C35.2897 7.76042 35.0781 7.16146 34.707 6.75781C34.3359 6.34766 33.8216 6.14258 33.1641 6.14258ZM41.7383 4.43359L41.8066 5.6543C42.5879 4.71029 43.6133 4.23828 44.8828 4.23828C47.0833 4.23828 48.2031 5.49805 48.2422 8.01758V15H45.8691V8.1543C45.8691 7.48372 45.7227 6.98893 45.4297 6.66992C45.1432 6.3444 44.6712 6.18164 44.0137 6.18164C43.0566 6.18164 42.3438 6.61458 41.875 7.48047V15H39.502V4.43359H41.7383ZM61.9629 15C61.8587 14.7982 61.7676 14.4694 61.6895 14.0137C60.9342 14.8014 60.0098 15.1953 58.916 15.1953C57.8548 15.1953 56.9889 14.8926 56.3184 14.2871C55.6478 13.6816 55.3125 12.9329 55.3125 12.041C55.3125 10.9147 55.7292 10.0521 56.5625 9.45312C57.4023 8.84766 58.6003 8.54492 60.1562 8.54492H61.6113V7.85156C61.6113 7.30469 61.4583 6.86849 61.1523 6.54297C60.8464 6.21094 60.3809 6.04492 59.7559 6.04492C59.2155 6.04492 58.7728 6.18164 58.4277 6.45508C58.0827 6.72201 57.9102 7.0638 57.9102 7.48047H55.5371C55.5371 6.90104 55.7292 6.36068 56.1133 5.85938C56.4974 5.35156 57.0182 4.95443 57.6758 4.66797C58.3398 4.38151 59.0788 4.23828 59.8926 4.23828C61.1296 4.23828 62.1159 4.55078 62.8516 5.17578C63.5872 5.79427 63.9648 6.66667 63.9844 7.79297V12.5586C63.9844 13.5091 64.1178 14.2676 64.3848 14.834V15H61.9629ZM59.3555 13.291C59.8242 13.291 60.2637 13.1771 60.6738 12.9492C61.0905 12.7214 61.403 12.4154 61.6113 12.0312V10.0391H60.332C59.4531 10.0391 58.7923 10.1921 58.3496 10.498C57.9069 10.804 57.6855 11.237 57.6855 11.7969C57.6855 12.2526 57.8353 12.6172 58.1348 12.8906C58.4408 13.1576 58.8477 13.291 59.3555 13.291ZM69.4434 1.86523V4.43359H71.3086V6.19141H69.4434V12.0898C69.4434 12.4935 69.5215 12.7865 69.6777 12.9688C69.8405 13.1445 70.127 13.2324 70.5371 13.2324C70.8105 13.2324 71.0872 13.1999 71.3672 13.1348V14.9707C70.8268 15.1204 70.306 15.1953 69.8047 15.1953C67.9818 15.1953 67.0703 14.1895 67.0703 12.1777V6.19141H65.332V4.43359H67.0703V1.86523H69.4434ZM82.4512 13.3008C83.0436 13.3008 83.5352 13.1283 83.9258 12.7832C84.3164 12.4382 84.5247 12.0117 84.5508 11.5039H86.7871C86.7611 12.1615 86.556 12.7767 86.1719 13.3496C85.7878 13.916 85.2669 14.3652 84.6094 14.6973C83.9518 15.0293 83.2422 15.1953 82.4805 15.1953C81.0026 15.1953 79.8307 14.7168 78.9648 13.7598C78.099 12.8027 77.666 11.4811 77.666 9.79492V9.55078C77.666 7.94271 78.0957 6.6569 78.9551 5.69336C79.8145 4.72331 80.9863 4.23828 82.4707 4.23828C83.7272 4.23828 84.7493 4.60612 85.5371 5.3418C86.3314 6.07096 86.748 7.03125 86.7871 8.22266H84.5508C84.5247 7.61719 84.3164 7.11914 83.9258 6.72852C83.5417 6.33789 83.0501 6.14258 82.4512 6.14258C81.6829 6.14258 81.0905 6.42253 80.6738 6.98242C80.2572 7.53581 80.0456 8.37891 80.0391 9.51172V9.89258C80.0391 11.0384 80.2441 11.8945 80.6543 12.4609C81.071 13.0208 81.6699 13.3008 82.4512 13.3008ZM88.1348 9.61914C88.1348 8.58398 88.3398 7.65299 88.75 6.82617C89.1602 5.99284 89.7363 5.35482 90.4785 4.91211C91.2207 4.46289 92.0736 4.23828 93.0371 4.23828C94.4629 4.23828 95.6185 4.69727 96.5039 5.61523C97.3958 6.5332 97.8776 7.75065 97.9492 9.26758L97.959 9.82422C97.959 10.8659 97.7572 11.7969 97.3535 12.6172C96.9564 13.4375 96.3835 14.0723 95.6348 14.5215C94.8926 14.9707 94.0332 15.1953 93.0566 15.1953C91.5658 15.1953 90.3711 14.7005 89.4727 13.7109C88.5807 12.7148 88.1348 11.39 88.1348 9.73633V9.61914ZM90.5078 9.82422C90.5078 10.9115 90.7324 11.7643 91.1816 12.3828C91.6309 12.9948 92.2559 13.3008 93.0566 13.3008C93.8574 13.3008 94.4792 12.9883 94.9219 12.3633C95.3711 11.7383 95.5957 10.8236 95.5957 9.61914C95.5957 8.55143 95.3646 7.70508 94.9023 7.08008C94.4466 6.45508 93.8249 6.14258 93.0371 6.14258C92.2624 6.14258 91.6471 6.45182 91.1914 7.07031C90.7357 7.68229 90.5078 8.60026 90.5078 9.82422ZM99.5215 9.63867C99.5215 8.01107 99.8991 6.70573 100.654 5.72266C101.41 4.73307 102.422 4.23828 103.691 4.23828C104.811 4.23828 105.716 4.62891 106.406 5.41016V0H108.779V15H106.631L106.514 13.9062C105.804 14.7656 104.857 15.1953 103.672 15.1953C102.435 15.1953 101.432 14.6973 100.664 13.7012C99.9023 12.7051 99.5215 11.3509 99.5215 9.63867ZM101.895 9.84375C101.895 10.918 102.1 11.7578 102.51 12.3633C102.926 12.9622 103.516 13.2617 104.277 13.2617C105.247 13.2617 105.957 12.8288 106.406 11.9629V7.45117C105.97 6.60482 105.267 6.18164 104.297 6.18164C103.529 6.18164 102.936 6.48763 102.52 7.09961C102.103 7.70508 101.895 8.61979 101.895 9.84375ZM115.908 15.1953C114.404 15.1953 113.184 14.7233 112.246 13.7793C111.315 12.8288 110.85 11.5658 110.85 9.99023V9.69727C110.85 8.64258 111.051 7.70182 111.455 6.875C111.865 6.04167 112.438 5.39388 113.174 4.93164C113.91 4.4694 114.73 4.23828 115.635 4.23828C117.074 4.23828 118.184 4.69727 118.965 5.61523C119.753 6.5332 120.146 7.83203 120.146 9.51172V10.4688H113.242C113.314 11.3411 113.604 12.0312 114.111 12.5391C114.626 13.0469 115.27 13.3008 116.045 13.3008C117.132 13.3008 118.018 12.8613 118.701 11.9824L119.98 13.2031C119.557 13.8346 118.991 14.3262 118.281 14.6777C117.578 15.0228 116.787 15.1953 115.908 15.1953ZM115.625 6.14258C114.974 6.14258 114.447 6.37044 114.043 6.82617C113.646 7.2819 113.392 7.91667 113.281 8.73047H117.803V8.55469C117.751 7.76042 117.539 7.16146 117.168 6.75781C116.797 6.34766 116.283 6.14258 115.625 6.14258ZM128.066 8.78906L122.031 6.57227V4.23828L130.469 7.87109V9.75586L122.031 13.3887V11.0547L128.066 8.78906Z" fill="white"/>
</svg>
