<svg width="197" height="47" viewBox="0 0 197 47" fill="none" xmlns="http://www.w3.org/2000/svg">
<g clip-path="url(#clip0)">
<path d="M36.5645 17.6233H49.8099C51.0675 17.6233 52.079 18.6196 52.079 19.8582V31.7462C52.079 36.2833 48.3473 39.9453 43.7545 39.9453H43.7135C39.1069 39.9453 35.3889 36.2698 35.3889 31.7462V18.7946C35.3753 18.1484 35.9084 17.6233 36.5645 17.6233Z" fill="#5059C9"/>
<path d="M45.5185 15.2808C48.4853 15.2808 50.8904 12.9119 50.8904 9.98976C50.8904 7.06761 48.4853 4.69873 45.5185 4.69873C42.5516 4.69873 40.1465 7.06761 40.1465 9.98976C40.1465 12.9119 42.5516 15.2808 45.5185 15.2808Z" fill="#5059C9"/>
<path d="M28.8149 15.2673C33.0953 15.2673 36.5653 11.8496 36.5653 7.63363C36.5653 3.41769 33.0953 0 28.8149 0C24.5344 0 21.0645 3.41769 21.0645 7.63363C21.0645 11.8496 24.5344 15.2673 28.8149 15.2673Z" fill="#7B83EB"/>
<path d="M39.1632 17.6233H17.2926C16.0623 17.6502 15.0781 18.66 15.1055 19.8851V33.4425C14.9278 40.7531 20.8055 46.825 28.2279 47C35.6502 46.825 41.528 40.7531 41.3503 33.4425V19.8851C41.3776 18.66 40.3934 17.6502 39.1632 17.6233Z" fill="#7B83EB"/>
<path opacity="0.1" d="M29.4157 17.6233V36.6199C29.4157 37.495 28.8689 38.2758 28.0625 38.5989C27.8027 38.7066 27.5157 38.7605 27.2423 38.7605H16.1566C16.0062 38.3701 15.8559 37.9796 15.7329 37.5892C15.3091 36.2429 15.1041 34.8427 15.1041 33.4291V19.8851C15.0767 18.6734 16.0473 17.6637 17.2911 17.6233H29.4157Z" fill="black"/>
<path opacity="0.2" d="M28.2265 17.6233V37.7912C28.2265 38.0739 28.1718 38.3431 28.0624 38.5989C27.7207 39.4067 26.9279 39.9318 26.0531 39.9318H16.7307C16.5257 39.5414 16.3343 39.1509 16.1703 38.7605C16.0062 38.3701 15.8696 37.9796 15.7465 37.5892C15.3228 36.2429 15.1178 34.8427 15.1178 33.4291V19.8851C15.0904 18.6734 16.0609 17.6637 17.3048 17.6233H28.2265Z" fill="black"/>
<path opacity="0.2" d="M28.2265 17.6233V35.4486C28.2128 36.6333 27.2423 37.5892 26.0394 37.6027H15.7329C15.3091 36.2563 15.1041 34.8562 15.1041 33.4425V19.8851C15.0767 18.6734 16.0473 17.6637 17.2911 17.6233H28.2265Z" fill="black"/>
<path opacity="0.2" d="M27.0236 17.6233V35.4486C27.0099 36.6333 26.0394 37.5892 24.8365 37.6027H15.7192C15.2954 36.2563 15.0904 34.8562 15.0904 33.4425V19.8851C15.0631 18.6734 16.0336 17.6637 17.2775 17.6233H27.0236Z" fill="black"/>
<path opacity="0.1" d="M29.4164 11.5514V15.2538C29.2113 15.2673 29.0199 15.2807 28.8149 15.2807C28.6099 15.2807 28.4185 15.2673 28.2135 15.2538C27.8171 15.2269 27.407 15.1596 27.0242 15.0653C24.6048 14.4999 22.6091 12.8304 21.6523 10.5821C21.4882 10.2051 21.3652 9.81468 21.2695 9.41078H27.2156C28.4322 9.39732 29.4164 10.3667 29.4164 11.5514Z" fill="black"/>
<path opacity="0.2" d="M28.2272 12.7227V15.2538C27.8308 15.2268 27.4207 15.1595 27.038 15.0653C24.6186 14.4998 22.6229 12.8304 21.666 10.582H26.0401C27.243 10.582 28.2135 11.5379 28.2272 12.7227Z" fill="black"/>
<path opacity="0.2" d="M28.2272 12.7227V15.2538C27.8308 15.2268 27.4207 15.1595 27.038 15.0653C24.6186 14.4998 22.6229 12.8304 21.666 10.582H26.0401C27.243 10.582 28.2135 11.5379 28.2272 12.7227Z" fill="black"/>
<path opacity="0.2" d="M27.0243 12.7227V15.0653C24.6049 14.4998 22.6092 12.8304 21.6523 10.582H24.8373C26.0538 10.582 27.0243 11.5379 27.0243 12.7227Z" fill="black"/>
<path d="M2.98004 10.5686H24.8507C26.0536 10.5686 27.0378 11.538 27.0378 12.7227V34.2638C27.0378 35.4486 26.0536 36.4179 24.8507 36.4179H2.98004C1.77715 36.4179 0.792969 35.4486 0.792969 34.2638V12.7227C0.792969 11.538 1.76348 10.5686 2.98004 10.5686Z" fill="url(#paint0_linear)"/>
<path d="M19.6579 18.7677H15.2837V30.4941H12.5089V18.7677H8.16211V16.4924H19.6715V18.7677H19.6579Z" fill="white"/>
<path d="M74.1827 30.2517H71.9546V21.6083C71.9546 20.8947 71.9956 20.0331 72.0913 19.0099H72.0503C71.9136 19.5888 71.7906 20.0062 71.6812 20.262L67.6351 30.2382H66.0905L62.0308 20.3293C61.9214 20.0331 61.7984 19.5888 61.6754 18.9964H61.6344C61.689 19.535 61.7164 20.3966 61.7164 21.6083V30.2247H59.6387V16.8693H62.8099L66.3776 25.7684C66.651 26.455 66.8287 26.9666 66.9107 27.2898H66.9517C67.184 26.5897 67.3754 26.0646 67.5121 25.728L71.1481 16.8693H74.1963V30.2517H74.1827ZM77.9827 18.7137C77.6273 18.7137 77.3129 18.5925 77.0669 18.3637C76.8071 18.1348 76.6841 17.8386 76.6841 17.4886C76.6841 17.1385 76.8071 16.8423 77.0669 16.6C77.3266 16.3577 77.6273 16.2499 77.9827 16.2499C78.3518 16.2499 78.6661 16.3711 78.9259 16.6C79.1856 16.8423 79.3086 17.1251 79.3086 17.4886C79.3086 17.8251 79.1856 18.1079 78.9259 18.3502C78.6661 18.5925 78.3518 18.7137 77.9827 18.7137ZM79.0626 30.2517H76.8755V20.7197H79.0626V30.2517ZM88.4533 29.8208C87.6741 30.2651 86.7583 30.4805 85.7058 30.4805C84.2705 30.4805 83.1086 30.0363 82.2201 29.1477C81.3316 28.2591 80.8942 27.1147 80.8942 25.7011C80.8942 24.1259 81.3726 22.8738 82.3158 21.9179C83.259 20.9621 84.5302 20.4909 86.1158 20.4909C87.0043 20.4909 87.7698 20.6389 88.4533 20.9486V22.9546C87.7835 22.4565 87.059 22.2141 86.2935 22.2141C85.364 22.2141 84.6122 22.5238 84.0108 23.1431C83.423 23.7624 83.1223 24.5702 83.1223 25.5665C83.1223 26.5493 83.3957 27.3302 83.9561 27.9091C84.5165 28.4745 85.2683 28.7707 86.1978 28.7707C86.9907 28.7707 87.7288 28.488 88.4259 27.936V29.8208H88.4533ZM95.8346 22.7796C95.5749 22.5776 95.1922 22.4699 94.6864 22.4699C94.0439 22.4699 93.4972 22.7527 93.0598 23.3316C92.6224 23.9105 92.4036 24.6914 92.4036 25.6876V30.2517H90.2166V20.7197H92.4036V22.6854H92.4447C92.6634 22.0122 92.9914 21.4871 93.4288 21.1102C93.8799 20.7332 94.372 20.5447 94.9188 20.5447C95.3152 20.5447 95.6159 20.5986 95.8209 20.7197V22.7796H95.8346ZM101.097 30.4805C99.6073 30.4805 98.4044 30.0363 97.5159 29.1477C96.6274 28.2591 96.1763 27.0744 96.1763 25.6069C96.1763 24.0047 96.6411 22.7527 97.5706 21.8506C98.5001 20.9486 99.7577 20.5043 101.33 20.5043C102.847 20.5043 104.022 20.9486 104.87 21.8237C105.717 22.6988 106.141 23.9105 106.141 25.4588C106.141 26.9801 105.69 28.1918 104.774 29.1073C103.872 30.0228 102.642 30.4805 101.097 30.4805ZM101.207 22.2141C100.345 22.2141 99.6756 22.5103 99.1699 23.1027C98.6778 23.6951 98.4181 24.5029 98.4181 25.5395C98.4181 26.5358 98.6641 27.3302 99.1699 27.8956C99.6756 28.4745 100.345 28.7573 101.193 28.7573C102.054 28.7573 102.724 28.4745 103.189 27.9091C103.653 27.3436 103.886 26.5358 103.886 25.4992C103.886 24.449 103.653 23.6412 103.189 23.0623C102.738 22.4969 102.068 22.2141 101.207 22.2141ZM107.358 29.9555V27.9495C108.178 28.5688 109.08 28.865 110.064 28.865C111.39 28.865 112.046 28.4745 112.046 27.7071C112.046 27.4917 111.992 27.3032 111.882 27.1551C111.773 27.007 111.622 26.8724 111.417 26.7512C111.226 26.6301 110.994 26.5224 110.734 26.4281C110.474 26.3339 110.187 26.2262 109.859 26.105C109.463 25.9434 109.107 25.7819 108.793 25.6069C108.479 25.4318 108.205 25.2299 108 25.0145C107.795 24.7991 107.631 24.5433 107.522 24.2605C107.412 23.9778 107.358 23.6547 107.358 23.2777C107.358 22.82 107.467 22.4161 107.686 22.066C107.904 21.716 108.205 21.4198 108.574 21.1775C108.943 20.9351 109.367 20.7601 109.845 20.6389C110.324 20.5178 110.802 20.4639 111.308 20.4639C112.197 20.4639 113.003 20.5986 113.714 20.8678V22.7527C113.03 22.2949 112.251 22.066 111.363 22.066C111.089 22.066 110.83 22.093 110.611 22.1468C110.392 22.2007 110.201 22.2815 110.037 22.3757C109.873 22.4699 109.75 22.5911 109.668 22.7392C109.586 22.8738 109.531 23.0354 109.531 23.197C109.531 23.3989 109.572 23.5739 109.668 23.722C109.75 23.8701 109.887 23.9913 110.064 24.099C110.242 24.2067 110.447 24.3009 110.693 24.3952C110.939 24.4894 111.212 24.5837 111.527 24.6914C111.937 24.8529 112.32 25.0279 112.648 25.203C112.976 25.378 113.263 25.5799 113.495 25.7953C113.728 26.0108 113.905 26.2666 114.028 26.5628C114.151 26.8455 114.22 27.1955 114.22 27.586C114.22 28.0706 114.11 28.488 113.878 28.8515C113.649 29.2112 113.341 29.515 112.976 29.7401C112.593 29.9824 112.156 30.1574 111.664 30.2651C111.171 30.3863 110.652 30.4402 110.105 30.4402C109.053 30.4805 108.137 30.3055 107.358 29.9555ZM120.207 30.4805C118.717 30.4805 117.514 30.0363 116.625 29.1477C115.737 28.2591 115.286 27.0744 115.286 25.6069C115.286 24.0047 115.751 22.7527 116.68 21.8506C117.61 20.9486 118.867 20.5043 120.439 20.5043C121.956 20.5043 123.132 20.9486 123.979 21.8237C124.827 22.6988 125.251 23.9105 125.251 25.4588C125.251 26.9801 124.8 28.1918 123.884 29.1073C122.968 30.0228 121.738 30.4805 120.207 30.4805ZM120.302 22.2141C119.441 22.2141 118.771 22.5103 118.266 23.1027C117.774 23.6951 117.514 24.5029 117.514 25.5395C117.514 26.5358 117.76 27.3302 118.266 27.8956C118.771 28.4745 119.441 28.7573 120.289 28.7573C121.15 28.7573 121.82 28.4745 122.284 27.9091C122.749 27.3436 122.982 26.5358 122.982 25.4992C122.982 24.449 122.749 23.6412 122.284 23.0623C121.833 22.4969 121.164 22.2141 120.302 22.2141ZM132.222 17.8925C131.921 17.7309 131.593 17.6367 131.21 17.6367C130.144 17.6367 129.611 18.229 129.611 19.4138V20.7063H131.867V22.4026H129.625V30.2382H127.438V22.4026H125.784V20.7063H127.438V19.158C127.438 18.1483 127.766 17.3539 128.436 16.775C129.105 16.1961 129.939 15.8999 130.937 15.8999C131.484 15.8999 131.908 15.9538 132.222 16.0749V17.8925ZM138.469 30.144C138.045 30.3594 137.471 30.4671 136.774 30.4671C134.901 30.4671 133.958 29.5785 133.958 27.8014V22.4161H132.345V20.7197H133.958V18.5118L136.145 17.8925V20.7197H138.455V22.4161H136.145V27.1821C136.145 27.7475 136.254 28.1514 136.459 28.3937C136.664 28.6361 137.02 28.7573 137.498 28.7573C137.867 28.7573 138.195 28.6495 138.469 28.4341V30.144ZM153.819 18.781H149.923V30.2517H147.668V18.781H143.786V16.8962H153.819V18.781ZM161.46 26.0646H154.872C154.899 26.9397 155.172 27.6263 155.706 28.0976C156.225 28.5822 156.949 28.8111 157.879 28.8111C158.918 28.8111 159.861 28.5014 160.722 27.8956V29.6324C159.834 30.1844 158.672 30.4536 157.223 30.4536C155.801 30.4536 154.68 30.0228 153.874 29.1611C153.067 28.2995 152.657 27.0744 152.657 25.5126C152.657 24.0317 153.108 22.82 153.997 21.891C154.885 20.9621 155.993 20.4909 157.318 20.4909C158.644 20.4909 159.67 20.9082 160.394 21.7429C161.119 22.5776 161.488 23.7489 161.488 25.2299V26.0646H161.46ZM159.355 24.5433C159.355 23.7624 159.164 23.17 158.795 22.7257C158.426 22.2949 157.92 22.0795 157.277 22.0795C156.649 22.0795 156.116 22.3084 155.678 22.7527C155.241 23.2104 154.967 23.8028 154.872 24.5298H159.355V24.5433ZM170.578 30.2517H168.445V28.7573H168.404C167.734 29.9016 166.75 30.4671 165.465 30.4671C164.508 30.4671 163.77 30.2113 163.224 29.6997C162.69 29.1881 162.417 28.5149 162.417 27.6802C162.417 25.8761 163.47 24.826 165.575 24.5298L168.445 24.1259C168.445 22.7661 167.789 22.093 166.477 22.093C165.329 22.093 164.29 22.4834 163.36 23.2643V21.3794C164.385 20.787 165.561 20.4909 166.901 20.4909C169.347 20.4909 170.564 21.6756 170.564 24.0451V30.2517H170.578ZM168.459 25.5665L166.422 25.8492C165.793 25.93 165.315 26.0781 165.001 26.3069C164.686 26.5224 164.522 26.9128 164.522 27.4648C164.522 27.8687 164.673 28.2053 164.96 28.4611C165.247 28.7169 165.643 28.8515 166.135 28.8515C166.805 28.8515 167.352 28.6226 167.789 28.1514C168.226 27.6937 168.445 27.1013 168.445 26.4012V25.5665H168.459ZM187.322 30.2517H185.135V25.0549C185.135 24.0586 184.999 23.3316 184.711 22.8873C184.424 22.443 183.946 22.2141 183.263 22.2141C182.688 22.2141 182.196 22.4969 181.8 23.0623C181.404 23.6278 181.199 24.3009 181.199 25.0953V30.2517H178.998V24.8799C178.998 23.1027 178.355 22.2141 177.084 22.2141C176.496 22.2141 176.004 22.4834 175.622 23.0085C175.239 23.547 175.047 24.2336 175.047 25.0818V30.2382H172.86V20.7063H175.047V22.2141H175.088C175.786 21.0563 176.811 20.4774 178.137 20.4774C178.806 20.4774 179.394 20.6524 179.886 21.0159C180.392 21.3794 180.734 21.8506 180.911 22.443C181.636 21.1236 182.702 20.4639 184.124 20.4639C186.256 20.4639 187.322 21.7564 187.322 24.3413V30.2517ZM188.99 29.9555V27.9495C189.81 28.5688 190.712 28.865 191.696 28.865C193.022 28.865 193.678 28.4745 193.678 27.7071C193.678 27.4917 193.624 27.3032 193.514 27.1551C193.405 27.007 193.255 26.8724 193.05 26.7512C192.858 26.6301 192.626 26.5224 192.366 26.4281C192.107 26.3339 191.819 26.2262 191.491 26.105C191.095 25.9434 190.74 25.7819 190.425 25.6069C190.111 25.4318 189.837 25.2299 189.632 25.0145C189.427 24.7991 189.263 24.5433 189.154 24.2605C189.045 23.9778 188.99 23.6547 188.99 23.2777C188.99 22.82 189.099 22.4161 189.318 22.066C189.537 21.716 189.837 21.4198 190.206 21.1775C190.576 20.9351 190.999 20.7601 191.478 20.6389C191.956 20.5178 192.435 20.4639 192.94 20.4639C193.829 20.4639 194.635 20.5986 195.346 20.8678V22.7527C194.663 22.2949 193.883 22.066 192.995 22.066C192.722 22.066 192.462 22.093 192.243 22.1468C192.024 22.2007 191.833 22.2815 191.669 22.3757C191.505 22.4699 191.382 22.5911 191.3 22.7392C191.218 22.8738 191.163 23.0354 191.163 23.197C191.163 23.3989 191.204 23.5739 191.3 23.722C191.382 23.8701 191.519 23.9913 191.696 24.099C191.874 24.2067 192.079 24.3009 192.325 24.3952C192.571 24.4894 192.845 24.5837 193.159 24.6914C193.569 24.8529 193.952 25.0279 194.28 25.203C194.608 25.378 194.895 25.5799 195.127 25.7953C195.36 26.0108 195.537 26.2666 195.66 26.5628C195.784 26.8455 195.852 27.1955 195.852 27.586C195.852 28.0706 195.743 28.488 195.51 28.8515C195.282 29.2112 194.973 29.515 194.608 29.7401C194.225 29.9824 193.788 30.1574 193.296 30.2651C192.804 30.3863 192.284 30.4402 191.737 30.4402C190.685 30.4805 189.755 30.3055 188.99 29.9555Z" fill="#5059C9"/>
</g>
<defs>
<linearGradient id="paint0_linear" x1="5.3459" y1="8.89136" x2="22.0843" y2="38.3251" gradientUnits="userSpaceOnUse">
<stop stop-color="#5A62C3"/>
<stop offset="0.5" stop-color="#4D55BD"/>
<stop offset="1" stop-color="#3940AB"/>
</linearGradient>
<clipPath id="clip0">
<rect width="197" height="47" fill="white"/>
</clipPath>
</defs>
</svg>
