<svg width="98" height="38" viewBox="0 0 98 38" fill="none" xmlns="http://www.w3.org/2000/svg">
<path d="M8.45739 0.142822L9.46513 2.04282C9.68452 2.38555 9.93992 2.70373 10.2269 2.9919C11.071 3.83809 11.8745 4.72507 12.5937 5.67507C14.3023 7.92448 15.4551 10.4223 16.2789 13.1268C16.7726 14.7784 17.0407 16.4708 17.0611 18.1836C17.1443 23.3024 15.3932 27.6984 11.8523 31.3519C11.2785 31.9311 10.6589 32.4627 9.99951 32.9415C9.64819 32.9415 9.48454 32.6634 9.34032 32.4252C9.06296 31.9618 8.90764 31.4548 8.82536 30.9395C8.70147 30.3204 8.61919 29.7013 8.66079 29.0608V28.7717C8.64045 28.7096 8.33166 0.288335 8.45462 0.143749L8.45739 0.142822Z" fill="#599636"/>
<path d="M8.45761 0.0815499C8.41601 -0.00186477 8.37441 0.0611599 8.33373 0.10194C8.35407 0.514379 8.20984 0.886038 7.98241 1.23731C7.73556 1.5895 7.4055 1.85643 7.07637 2.1456C5.24395 3.73511 3.80354 5.65457 2.64973 7.80111C1.1261 10.691 0.323613 13.7866 0.0980277 17.0481C-0.00367041 18.2252 0.467839 22.3736 0.839499 23.5702C1.84724 26.7492 3.65931 29.4111 6.01686 31.7226C6.59376 32.2787 7.21135 32.7958 7.84927 33.2908C8.03418 33.2908 8.05544 33.1258 8.09612 33.0016C8.17724 32.738 8.23904 32.4688 8.28103 32.1962C8.46593 31.1646 8.56948 30.1321 8.69244 29.1006L8.46593 0.0815499H8.45761Z" fill="#6CAC48"/>
<path d="M9.46609 34.2C9.50769 33.7254 9.74345 33.3334 9.98105 32.9413C9.7342 32.8394 9.54837 32.6318 9.40415 32.4038C9.28026 32.1971 9.17764 31.9404 9.09535 31.7226C8.8069 30.856 8.74403 29.9477 8.66267 29.0598V28.5222C8.56098 28.6056 8.53879 29.3063 8.53879 29.4101C8.47684 30.3592 8.35388 31.2888 8.16898 32.1962C8.10703 32.5669 8.06728 32.9395 7.83984 33.2694C7.83984 33.3111 7.83984 33.3528 7.86018 33.414C8.22999 34.5077 8.33354 35.6227 8.39641 36.758V37.1705C8.39641 37.6654 8.37607 37.5625 8.78749 37.7266C8.95205 37.7887 9.13881 37.81 9.30245 37.9332C9.42633 37.9332 9.44667 37.8313 9.44667 37.7479L9.38473 37.0667V35.1667C9.36439 34.8367 9.42633 34.5058 9.46794 34.1963L9.46609 34.2Z" fill="#C2BFBF"/>
<path d="M25.1016 25.568V27.5337C25.0994 27.6116 25.1039 27.6895 25.1148 27.7665C25.1403 27.9994 25.2829 28.1413 25.4925 28.2066C25.688 28.2582 25.8867 28.2971 26.0872 28.323C26.2033 28.3363 26.2421 28.3874 26.2553 28.5123C26.2685 28.9524 26.2298 29.0044 25.804 28.9779C24.8109 28.9259 23.8168 28.9136 22.8236 28.9779H22.7292C22.4196 28.9912 22.3941 28.9647 22.3941 28.6543C22.3941 28.6022 22.4073 28.5379 22.4073 28.4858C22.4073 28.3912 22.4715 28.3438 22.5621 28.3438C22.7698 28.3183 22.9624 28.2662 23.1569 28.2274C23.4278 28.1631 23.5817 27.9946 23.6081 27.723C23.6459 27.4258 23.6459 27.1154 23.6459 26.8173L23.6591 23.3515C23.6634 23.251 23.639 23.1514 23.5888 23.0642C23.5387 22.9771 23.4648 22.906 23.3759 22.8594C23.1424 22.7294 22.8955 22.6253 22.6395 22.549C22.5621 22.5234 22.4847 22.5111 22.4205 22.4714C22.2317 22.3805 22.227 22.213 22.4073 22.1089C22.4715 22.0711 22.5489 22.0446 22.6263 22.0313C23.4093 21.9155 24.1785 21.7205 24.9223 21.4493C25.0771 21.3972 25.1158 21.4114 25.1299 21.5657C25.1432 21.6603 25.1299 21.7739 25.1167 21.8629C25.0912 22.0313 25.0912 22.1988 25.0912 22.355C25.0912 22.4193 25.1045 22.4846 25.1687 22.5234C25.2329 22.5622 25.298 22.5234 25.3575 22.4856C25.6284 22.2774 25.8994 22.0843 26.1958 21.9177C26.6206 21.6849 27.0738 21.4777 27.5647 21.4133C28.1594 21.3357 28.6739 21.4909 29.1261 21.8789C29.3131 22.0467 29.4778 22.2379 29.6161 22.4477C29.7455 22.637 29.7577 22.6417 29.9258 22.5121C30.4167 22.1496 30.9321 21.8269 31.4872 21.5941C32.0678 21.348 32.6616 21.3101 33.2545 21.5165C33.8606 21.736 34.2741 22.1629 34.5196 22.7449C34.7272 23.2105 34.816 23.6913 34.816 24.1929V27.6587C34.816 27.8915 34.9104 28.0372 35.1389 28.1508C35.3843 28.2454 35.6553 28.2927 35.913 28.3448C36.081 28.3827 36.081 28.3827 36.081 28.553C36.0555 28.9789 36.0168 29.0054 35.6033 28.9789C34.5679 28.9207 33.53 28.9207 32.4945 28.9789C32.2869 28.9921 32.2869 28.9921 32.2755 28.7849V28.7205C32.2623 28.3703 32.2623 28.3704 32.5984 28.2946L32.9335 28.2038C33.0471 28.177 33.1483 28.1127 33.2209 28.0212C33.2935 27.9296 33.3333 27.8163 33.3338 27.6993L33.3716 26.7293L33.3461 24.1948C33.3362 23.9685 33.2883 23.7455 33.2045 23.5352C32.8816 22.7458 32.1726 22.4619 31.4882 22.5395C30.9718 22.5916 30.5205 22.7979 30.0948 23.096C30.0041 23.1604 29.9399 23.238 29.9531 23.3676C30.0693 24.1957 29.9909 25.0239 30.0051 25.851V27.6492C30.0051 27.9729 30.1344 28.1281 30.4441 28.2057L31.0388 28.3353C31.1294 28.3486 31.1804 28.3874 31.1804 28.4905V28.5852C31.1672 28.9477 31.1427 28.9637 30.7801 28.96C29.7483 28.9079 28.7155 28.9221 27.6968 28.96C27.3475 28.9732 27.3192 28.9344 27.3353 28.5814C27.3485 28.3732 27.373 28.3618 27.5675 28.323L27.9923 28.2454C28.37 28.1678 28.5087 28.0259 28.5342 27.6246L28.572 26.7577L28.5465 24.1579C28.521 23.8342 28.4521 23.5238 28.2756 23.2266C28.0178 22.7477 27.6147 22.5026 27.0624 22.4761C26.5073 22.4383 26.0174 22.6446 25.5519 22.902C25.2291 23.0913 25.0875 23.3156 25.113 23.6913V25.5794L25.1016 25.568ZM49.4083 25.6466V27.4703C49.4104 27.6 49.4189 27.7295 49.4338 27.8583C49.4393 27.9442 49.4725 28.026 49.5283 28.0913C49.5841 28.1567 49.6596 28.2021 49.7434 28.2208C49.966 28.2859 50.1954 28.3249 50.4269 28.3372C50.5563 28.3505 50.5818 28.4016 50.595 28.5057V28.5965C50.5818 29.0489 50.5308 29.101 50.0918 29.0754C49.11 29.0111 48.131 29.0234 47.1501 29.0754L46.7725 29.0887C46.6951 29.0887 46.6781 29.0508 46.6564 28.9978C46.6187 28.8187 46.6187 28.6337 46.6564 28.4546C46.6696 28.377 46.7206 28.3599 46.798 28.3382C46.9868 28.3126 47.1473 28.2738 47.3266 28.2435C47.6495 28.1659 47.7656 28.0353 47.7779 27.7003L47.8157 26.6138V23.432C47.8157 23.1992 47.725 23.0572 47.5192 22.9531C47.287 22.8235 47.0415 22.7335 46.7829 22.6427C46.7055 22.6171 46.628 22.5906 46.5638 22.5518C46.3958 22.4354 46.375 22.2679 46.5384 22.1383C46.6116 22.0779 46.7016 22.0416 46.7961 22.0341C47.6221 21.9045 48.4217 21.7237 49.1959 21.4133C49.2865 21.3754 49.3252 21.4001 49.3639 21.4777C49.4026 21.5553 49.4158 21.6461 49.4017 21.736L49.3639 22.3436C49.3639 22.4212 49.3262 22.5329 49.3894 22.5632C49.4668 22.6152 49.5187 22.4988 49.5829 22.4686C49.9639 22.1482 50.3847 21.8788 50.8348 21.6669C51.235 21.4777 51.6467 21.3565 52.1121 21.383C52.9768 21.4351 53.5961 21.8752 53.9955 22.638C54.2032 23.0392 54.2919 23.4784 54.3306 23.9317L54.3684 24.8781L54.3816 27.7363C54.3948 27.9558 54.4722 28.0987 54.6912 28.1763C54.9183 28.2522 55.1514 28.3085 55.388 28.3448C55.5956 28.3703 55.607 28.4092 55.6202 28.6032V28.6675C55.5947 29.1076 55.5683 29.1199 55.1293 29.0934C54.1667 29.0417 53.2021 29.0417 52.2395 29.0934C52.1102 29.1067 51.9818 29.0934 51.8619 29.1067C51.7845 29.1067 51.7326 29.0934 51.7203 29.0158C51.6948 28.8473 51.6684 28.6798 51.7071 28.4981C51.7203 28.4205 51.759 28.3817 51.8487 28.3685L52.4434 28.2738C52.6511 28.2218 52.7663 28.0845 52.7927 27.8953L52.8182 27.5328L52.805 24.8298C52.805 24.5194 52.7918 24.209 52.7276 23.8986C52.5728 23.2361 52.0696 22.7629 51.387 22.6966C50.7923 22.6323 50.2542 22.7875 49.7614 23.1102C49.5159 23.2654 49.4121 23.485 49.4121 23.7566V25.71C49.4121 25.6721 49.4121 25.6721 49.4253 25.6721L49.4083 25.6466Z" fill="#47474A"/>
<path d="M87.1949 21.9858C87.0533 21.0413 86.704 20.2009 86.0979 19.4637C85.5698 18.8124 84.8863 18.3052 84.1106 17.9892C83.2987 17.6532 82.433 17.5491 81.556 17.5235C81.1944 17.5103 76.2665 17.5879 75.9049 17.5235C75.8143 17.5103 75.7501 17.5368 75.6972 17.6144C75.633 17.709 75.5679 17.8084 75.5292 17.9116C75.3743 18.2617 75.3743 18.2352 75.7482 18.2863C76.0578 18.3384 76.3543 18.3639 76.6516 18.4548C76.9226 18.5456 77.1161 18.7009 77.1803 18.998C77.2058 19.14 77.2322 23.6922 77.2322 25.8141L77.1803 27.3283C77.1671 27.4447 77.1548 27.5611 77.1161 27.6643C77.0642 27.8195 76.9745 27.9482 76.8197 28.0145C76.6493 28.0948 76.4656 28.1429 76.2778 28.1564C75.9285 28.1943 75.8775 28.2085 75.7614 28.5965L75.7236 28.7385C75.6981 28.9069 75.7104 28.9325 75.8784 28.9325L79.7359 28.9703L81.2464 28.9448L82.2914 28.8151C83.4781 28.5956 84.5364 28.1034 85.4389 27.3151C85.9545 26.8586 86.3754 26.3048 86.6775 25.6853C87.0391 24.9613 87.1939 24.1711 87.2326 23.3704C87.2968 22.9181 87.2704 22.4524 87.1949 21.9868V21.9858ZM85.3238 23.8219C85.2718 24.65 85.1047 25.4516 84.679 26.1756C84.1371 27.1201 83.3629 27.7797 82.2924 28.0116C81.8279 28.1063 81.3634 28.1536 80.8763 28.0892C80.527 28.0514 80.1928 28.0116 79.8699 27.8952C79.2893 27.687 79.0826 27.3274 79.0703 26.7595L79.0571 18.9611C79.0571 18.4955 79.2648 18.3933 79.599 18.3791C80.1022 18.3412 80.6186 18.3535 81.1217 18.4046C81.6574 18.4566 82.1831 18.584 82.6832 18.7832C83.0548 18.9384 83.399 19.1525 83.7028 19.4173C84.3995 20.0135 84.864 20.7612 85.1189 21.6413C85.3266 22.353 85.3643 23.077 85.3266 23.801L85.3238 23.8219ZM97.9175 25.0901C97.9175 25.0124 97.9175 24.9481 97.9043 24.8705C97.7882 24.1588 97.4134 23.6156 96.8337 23.202C96.4599 22.9304 96.0341 22.7496 95.5951 22.6199C95.5177 22.5944 95.4535 22.5679 95.3761 22.5556C95.3893 22.4912 95.428 22.478 95.4667 22.4647C95.7244 22.3351 95.9699 22.1931 96.1889 21.9991C96.5892 21.6631 96.8498 21.2486 96.9885 20.7442C97.0659 20.4725 97.0659 20.2009 97.0405 19.916C97.0194 19.5828 96.9238 19.2586 96.7607 18.9674C96.5976 18.6763 96.3712 18.4257 96.0983 18.2343C95.5035 17.7942 94.8078 17.6134 94.0856 17.6002C92.6921 17.5746 91.2864 17.6002 89.8939 17.6002C89.4937 17.6002 89.0943 17.6257 88.6808 17.5623C88.6034 17.5491 88.492 17.5245 88.4354 17.6144C88.341 17.7828 88.2277 17.9504 88.1899 18.1444C88.1767 18.2352 88.2031 18.2863 88.306 18.2996L89.1963 18.4292C89.5456 18.4813 89.791 18.6753 89.8156 18.9857C89.8409 19.2003 89.8535 19.4161 89.8533 19.6321L89.8279 22.0502L89.8146 26.8352C89.8146 27.1192 89.7769 27.3917 89.724 27.6756C89.7113 27.7658 89.6729 27.8503 89.6135 27.9192C89.554 27.988 89.476 28.0382 89.3889 28.0637C89.1311 28.1413 88.8857 28.2189 88.6147 28.2189C88.5423 28.212 88.4697 28.23 88.4088 28.2699C88.3479 28.3098 88.3024 28.3692 88.2796 28.4384C88.2277 28.5549 88.1852 28.6845 88.1635 28.8009C88.138 28.9561 88.1767 29.0091 88.3315 28.9902C88.4476 28.977 92.7053 29.0811 93.505 29.0034C93.9826 28.9514 94.449 28.887 94.9239 28.7451C95.7358 28.4867 96.4854 28.111 97.0782 27.4769C97.5691 26.9592 97.8523 26.3384 97.8778 25.6144C97.9156 25.4459 97.9156 25.2784 97.9156 25.0967L97.9175 25.0901ZM91.6603 19.7902L91.698 18.7557C91.698 18.5617 91.7754 18.4718 91.969 18.4321C92.2786 18.3677 92.5883 18.3942 92.8979 18.4065C93.2076 18.4321 93.504 18.4709 93.8137 18.5617C94.3801 18.7302 94.82 19.0539 95.0787 19.5962C95.1961 19.8427 95.2576 20.1123 95.259 20.3855C95.2722 20.7479 95.2458 21.0972 95.1042 21.4454C94.8852 21.9243 94.5378 22.2347 94.0336 22.3256C93.5295 22.4165 92.0983 22.3777 91.8793 22.3777C91.6858 22.3777 91.6716 22.3521 91.6716 22.1581V20.9401C91.6413 20.5613 91.6368 20.1809 91.6584 19.8015L91.6603 19.7902ZM95.8519 26.7482C95.6329 27.3302 95.2326 27.7324 94.6652 27.9501C94.3556 28.0665 94.0459 28.1394 93.7211 28.1186C93.3209 28.1053 92.9215 28.1186 92.5222 28.041C91.9803 27.9245 91.7349 27.4069 91.6961 27.0321C91.632 26.3724 91.6707 25.6995 91.6584 25.2084V23.501C91.6584 23.2928 91.6839 23.2294 91.9038 23.2294L93.117 23.2427L93.943 23.3373C94.5236 23.467 95.0523 23.6875 95.4658 24.1389C95.8009 24.5014 95.9822 24.9405 96.0209 25.4194C96.0586 25.8718 96.0341 26.3119 95.8661 26.7387L95.8519 26.7482Z" fill="#C2BFBF"/>
<path d="M63.072 22.8518L63.4072 22.9039C63.7687 22.9171 64.1945 22.7874 64.3229 22.283C64.3937 22.0421 64.3937 21.7858 64.3229 21.5448C64.2455 21.5448 64.2068 21.6092 64.1681 21.6357C63.9745 21.7909 63.7555 21.8817 63.5233 21.9073C63.0588 21.9593 62.5943 21.9328 62.1431 21.7653L61.5105 21.5458C61.0694 21.4009 60.6051 21.3399 60.1417 21.3659C59.4837 21.418 58.8643 21.6376 58.2838 21.948C57.6644 22.284 57.2264 22.7884 57.0187 23.4745C56.9026 23.8758 56.8894 24.2885 56.9413 24.703C57.0706 25.6475 57.5606 26.3071 58.4376 26.6564C58.4896 26.6696 58.5283 26.6942 58.5792 26.7084C58.6954 26.7728 58.7086 26.8381 58.6047 26.928L58.2819 27.1475L57.5077 27.6264C57.3142 27.7428 57.2887 27.8346 57.3529 28.04C57.4297 28.2816 57.5726 28.4967 57.7655 28.6609C57.9425 28.8131 58.1431 28.9356 58.3593 29.0233C58.5009 29.0877 58.5009 29.118 58.3725 29.2315L57.6361 29.7615C57.3907 29.9508 57.1452 30.1401 56.9394 30.3824C56.7963 30.5359 56.6931 30.7225 56.6391 30.9255C56.5851 31.1286 56.5819 31.3419 56.6298 31.5464C56.7257 31.9954 56.9602 32.4027 57.3 32.7105C57.6356 33.022 58.0435 33.2442 58.4867 33.3569C59.2089 33.5651 59.9576 33.5765 60.693 33.4345C61.7503 33.2405 62.6755 32.772 63.4024 31.9733C63.9056 31.4433 64.2021 30.8224 64.2285 30.0805C64.2567 29.6513 64.1321 29.2261 63.8769 28.8804C63.6218 28.5347 63.2526 28.2909 62.8351 28.1924L62.1383 28.0627L60.0095 27.8734C59.7773 27.8602 59.545 27.8214 59.3515 27.705C59.106 27.5498 59.0418 27.2526 59.1967 27.0586C59.3128 26.9166 59.4544 26.8258 59.6356 26.8125L60.0482 26.7747C60.8641 26.6915 61.63 26.3416 62.228 25.779C62.5473 25.4828 62.7756 25.1012 62.886 24.6793C63.0409 24.1228 63.0409 23.5436 62.9115 22.9758C62.8738 22.8338 62.886 22.8206 63.0664 22.8461L63.072 22.8518ZM59.9094 29.294C59.9868 29.3073 60.0642 29.294 60.1417 29.294C60.6835 29.3196 61.2387 29.3584 61.7673 29.5022C61.9399 29.5533 62.1082 29.6182 62.2705 29.6962C62.7869 29.9801 62.9804 30.4723 62.9153 31.0023C62.8379 31.5843 62.515 31.9979 62.0118 32.2704C61.6767 32.4597 61.3019 32.5421 60.9148 32.5809C60.7732 32.5941 60.6439 32.5809 60.5023 32.5809C60.051 32.5941 59.612 32.543 59.1863 32.3613C58.8898 32.2449 58.6444 32.0774 58.4254 31.8436C57.9741 31.3912 57.7645 30.5631 58.4386 29.8902C58.8511 29.5117 59.3166 29.2438 59.9094 29.294ZM61.3803 25.2585C61.1093 25.9437 60.5155 26.151 59.9226 26.0601C59.3807 25.9825 58.9805 25.6853 58.7237 25.1932C58.3885 24.5336 58.2989 23.8493 58.4914 23.1367C58.6331 22.6067 58.9559 22.2054 59.5233 22.1146C60.2455 21.9849 60.9394 22.2442 61.3038 22.9682C61.4926 23.3184 61.5747 23.7443 61.5747 24.3519C61.5615 24.5979 61.5105 24.9339 61.3812 25.2576L61.3803 25.2585ZM45.1255 24.3784C45.0094 23.6799 44.7516 23.0458 44.2739 22.5158C43.564 21.7265 42.6615 21.3801 41.6419 21.3773C40.7517 21.3641 39.9143 21.6234 39.1647 22.089C38.4278 22.5311 37.8876 23.2392 37.6551 24.0679C37.4361 24.8184 37.4474 25.5822 37.6174 26.344C38.0686 28.3883 39.6433 29.2666 41.5258 29.1378C42.0809 29.1 42.6096 28.9183 43.1118 28.6722C43.8604 28.322 44.4023 27.7665 44.7762 27.0292C45.0726 26.4217 45.201 25.7743 45.1887 25.0371L45.1245 24.3774L45.1255 24.3784ZM43.294 27.2498C43.2017 27.5408 43.0269 27.7985 42.7908 27.9915C42.5547 28.1844 42.2677 28.3042 41.9648 28.3362C41.3983 28.4138 40.8678 28.2719 40.391 27.935C40.0468 27.6812 39.7682 27.3486 39.5782 26.9649C39.0495 25.8784 38.9589 24.7408 39.2289 23.5768C39.3158 23.2165 39.5039 22.8887 39.7708 22.6322C40.2485 22.1922 40.8026 22.089 41.4229 22.2187C42.0176 22.3483 42.468 22.671 42.839 23.1632C43.21 23.6553 43.3809 24.2232 43.4838 24.8194C43.5357 25.1166 43.5357 25.427 43.548 25.621C43.548 26.2418 43.496 26.7567 43.3025 27.2507L43.294 27.2498ZM73.315 24.4825C73.2206 23.732 72.9412 23.0468 72.4116 22.478C71.7149 21.7152 70.8114 21.3915 69.806 21.3782C68.9412 21.365 68.1416 21.6111 67.4062 22.0379C66.5801 22.53 66.0128 23.2275 65.7937 24.172C65.5322 25.2025 65.6418 26.2924 66.1034 27.2498C66.5282 28.1555 67.2514 28.7375 68.2067 28.9959C69.2641 29.2798 70.2714 29.1511 71.2513 28.6722C72.1029 28.2586 72.709 27.6122 73.0573 26.7321C73.265 26.2144 73.3405 25.6588 73.3538 25.0115C73.367 24.8951 73.3405 24.6878 73.316 24.4815L73.315 24.4825ZM71.5346 27.0822C71.3269 27.7807 70.8898 28.2331 70.1543 28.3372C69.6125 28.4148 69.097 28.2851 68.6316 27.9747C68.2313 27.7031 67.9481 27.3406 67.7413 26.9147C67.5091 26.4624 67.3798 25.9835 67.3288 25.4923C67.2514 24.8847 67.2514 24.2903 67.393 23.6818C67.42 23.5618 67.4589 23.4448 67.5091 23.3326C67.8707 22.4269 68.6703 22.0133 69.6124 22.2206C70.245 22.3625 70.7217 22.7127 71.0833 23.2427C71.4326 23.7604 71.5997 24.3291 71.6781 24.9462C71.7158 25.1923 71.73 25.4506 71.7158 25.6702C71.7158 26.1746 71.678 26.6403 71.527 27.0927L71.5346 27.0822Z" fill="#47474A"/>
</svg>
