<svg width="79" height="40" viewBox="0 0 79 40" fill="none" xmlns="http://www.w3.org/2000/svg">
<path d="M0.669922 36.1439H3.21046V26.2448L7.14333 34.8745C7.60744 35.9189 8.24267 36.2886 9.48841 36.2886C10.7343 36.2886 11.345 35.9191 11.8094 34.8745L15.7422 26.2448V36.1437H18.2828V26.261C18.2828 25.2967 17.8918 24.8307 17.0859 24.5898C15.156 23.9952 13.8612 24.5094 13.2749 25.795L9.41521 34.3119L5.6778 25.795C5.11596 24.5094 3.79683 23.9952 1.86699 24.5898C1.06083 24.8307 0.669922 25.2969 0.669922 26.2608V36.1439ZM20.3952 28.0866H22.9349V33.5403C22.9112 33.8366 23.0313 34.5319 24.423 34.5534C25.133 34.5645 29.9029 34.5534 29.9474 34.5534V28.06H32.4931C32.5048 28.06 32.4905 36.9154 32.4907 36.9531C32.5046 39.1371 29.7445 39.6114 28.4722 39.6481H20.4502V37.9615C20.4644 37.9615 28.4663 37.9633 28.4865 37.9613C30.1215 37.7909 29.9284 36.989 29.9282 36.719V36.0616H24.5283C22.0158 36.0387 20.4162 34.9567 20.3964 33.7122C20.3944 33.5969 20.4506 28.141 20.395 28.0864L20.3952 28.0866Z" fill="#00618A"/>
<path d="M34.4514 36.144H41.7553C42.6103 36.144 43.4408 35.9674 44.1005 35.6619C45.1997 35.1639 45.7372 34.4891 45.7372 33.605V31.7732C45.7372 31.0499 45.1265 30.3749 43.9294 29.9251C43.2942 29.6839 42.5126 29.5554 41.7553 29.5554H38.677C37.6515 29.5554 37.1628 29.2501 37.0408 28.5753C37.0162 28.4949 37.0162 28.4304 37.0162 28.3502V27.2094C37.0162 27.145 37.0162 27.0806 37.0408 27.0003C37.1628 26.4862 37.4317 26.3413 38.3354 26.2611C38.4086 26.2611 38.5063 26.2449 38.5797 26.2449H45.8349V24.5739H38.7018C37.6758 24.5739 37.1383 24.6381 36.6499 24.7826C35.1353 25.2488 34.4757 25.988 34.4757 27.2734V28.7359C34.4757 29.8609 35.7705 30.825 37.9445 31.0499C38.189 31.0659 38.4331 31.0819 38.6772 31.0819H41.3155C41.4134 31.0819 41.5111 31.0819 41.5843 31.0981C42.3905 31.1626 42.7323 31.307 42.9769 31.5963C43.1233 31.7408 43.1721 31.8856 43.1721 32.0463V33.5084C43.1721 33.6854 43.0501 33.9105 42.8059 34.1031C42.586 34.296 42.2196 34.4247 41.7309 34.4569C41.6332 34.4569 41.56 34.4729 41.4623 34.4729H34.4512V36.1438L34.4514 36.144ZM61.5858 33.2355C61.5858 34.9548 62.8804 35.9192 65.4943 36.112C65.7384 36.128 65.9829 36.144 66.2271 36.144H72.8473V34.4729H66.1782C64.6881 34.4729 64.1263 34.1031 64.1263 33.2194V24.5737H61.5858V33.2355ZM47.3586 33.3231V27.3648C47.3586 25.8512 48.4358 24.9331 50.5652 24.6432C50.7923 24.6113 51.0214 24.5951 51.2507 24.595H56.073C56.3177 24.595 56.5383 24.6112 56.783 24.6432C58.9127 24.9331 59.9897 25.8512 59.9897 27.3648V33.3229C59.9897 34.5508 59.5323 35.2082 58.4781 35.6365L60.9806 37.8654H58.0308L56.0062 36.0621L53.9679 36.1895H51.2507C50.7856 36.1895 50.2962 36.1249 49.7575 35.9801C48.142 35.5453 47.3586 34.7079 47.3586 33.3229V33.3231ZM50.1005 33.1783C50.1005 33.2589 50.1251 33.3393 50.1496 33.4359C50.2964 34.1283 50.9573 34.5148 51.9609 34.5148H54.269L52.1489 32.6262H55.0985L56.9478 34.2734C57.2885 34.0942 57.5128 33.8201 57.5912 33.4681C57.6155 33.3877 57.6155 33.3071 57.6155 33.2267V27.51C57.6155 27.4456 57.6155 27.365 57.5912 27.2844C57.4442 26.6402 56.7832 26.2701 55.8042 26.2701H51.9609C50.8351 26.2701 50.1007 26.7532 50.1007 27.51V33.1783H50.1005Z" fill="#E48E00"/>
<path d="M75.0811 21.8014C73.5196 21.7596 72.3267 21.9029 71.3069 22.3273C71.0171 22.4479 70.5549 22.4511 70.5076 22.8095C70.6669 22.9742 70.6916 23.2202 70.8182 23.4228C71.0616 23.8117 71.4729 24.3327 71.8396 24.6059C72.2404 24.9046 72.6535 25.2238 73.0832 25.4824C73.8474 25.9421 74.7007 26.2047 75.4366 26.6654C75.8702 26.9369 76.3011 27.2789 76.7243 27.5854C76.9334 27.7369 77.074 27.9725 77.3458 28.0676V28.0236C77.203 27.8442 77.1662 27.5975 77.035 27.4101L76.4578 26.8405C75.8934 26.1012 75.1768 25.452 74.4152 24.9126C73.8078 24.4824 72.4484 23.9014 72.1949 23.2038L72.1504 23.1599C72.5811 23.112 73.0854 22.9582 73.4828 22.8534C74.1505 22.6765 74.7469 22.7222 75.4366 22.5465C75.7472 22.4589 76.0582 22.371 76.3692 22.2836V22.1083C76.0206 21.7553 75.7721 21.2884 75.3919 20.969C74.3978 20.1336 73.3125 19.2989 72.1949 18.6029C71.5751 18.2168 70.8091 17.966 70.1523 17.6388C69.9314 17.5289 69.543 17.4717 69.3972 17.2882C69.0522 16.8543 68.8643 16.304 68.598 15.7984C68.0407 14.7394 67.4933 13.5826 66.9995 12.4682C66.6626 11.7084 66.4426 10.9592 66.0226 10.2774C64.0064 7.00629 61.836 5.03216 58.4738 3.09141C57.7585 2.67875 56.8971 2.51555 55.9869 2.30278L54.5216 2.21493C54.2235 2.09195 53.9133 1.73219 53.6333 1.55767C52.5195 0.863516 49.6629 -0.6468 48.8379 1.33865C48.317 2.59188 49.6164 3.81485 50.0811 4.44986C50.4073 4.89532 50.8249 5.39466 51.058 5.89576C51.2113 6.22507 51.2378 6.55516 51.369 6.90361C51.6918 7.76193 51.9723 8.69561 52.3902 9.48874C52.6012 9.89008 52.8339 10.3129 53.1008 10.6717C53.2644 10.8921 53.5447 10.9891 53.589 11.3291C53.3148 11.7078 53.2992 12.2954 53.1451 12.775C52.4511 14.9344 52.7128 17.6181 53.7223 19.2163C54.0321 19.7068 54.7617 20.759 55.7649 20.3555C56.6425 20.0028 56.4465 18.9098 56.6975 17.9457C56.7543 17.7271 56.7193 17.5662 56.8307 17.4198V17.4637L57.6299 19.041C58.2214 19.9809 59.2715 20.9634 60.1611 21.6263C60.6225 21.9701 60.9857 22.5645 61.5821 22.7655V22.7216H61.5376C61.4221 22.544 61.2413 22.4702 61.0937 22.3273C60.7461 21.9912 60.3597 21.5732 60.0723 21.1881C59.2632 20.1041 58.548 18.9178 57.8966 17.6827C57.5854 17.0932 57.3149 16.4424 57.0526 15.8423C56.9515 15.611 56.9527 15.2612 56.742 15.1411C56.4548 15.5809 56.0316 15.9366 55.8095 16.4559C55.4542 17.2859 55.4083 18.298 55.2767 19.3477C55.1988 19.3752 55.2332 19.3562 55.1877 19.3914C54.5693 19.2442 54.3518 18.616 54.1222 18.0771C53.5405 16.7141 53.4327 14.5194 53.9441 12.9505C54.0767 12.5445 54.6749 11.2659 54.4328 10.8911C54.3172 10.5169 53.9358 10.3004 53.7223 10.0146C53.4582 9.6611 53.1945 9.19573 53.0117 8.78755C52.536 7.72484 52.3138 6.53194 51.8129 5.45771C51.5735 4.94412 51.1686 4.42448 50.836 3.96789C50.4678 3.46231 50.0556 3.08946 49.7703 2.47788C49.6688 2.26061 49.5309 1.91275 49.6813 1.68924C49.7293 1.53854 49.7968 1.47549 49.9479 1.4263C50.2055 1.2305 50.9229 1.4915 51.1911 1.60159C51.9033 1.89343 52.4976 2.1714 53.1008 2.56553C53.3904 2.75507 53.6832 3.12147 54.0331 3.22298H54.4328C55.0579 3.3647 55.7582 3.2669 56.3422 3.442C57.3745 3.7516 58.2995 4.23298 59.1395 4.75653C61.6993 6.35117 63.7919 8.62124 65.2234 11.3291C65.4537 11.765 65.5534 12.1812 65.7562 12.6437C66.1655 13.5764 66.681 14.536 67.0881 15.448C67.4945 16.3577 67.8906 17.2761 68.4649 18.0333C68.7669 18.4314 69.9331 18.6449 70.4629 18.8657C70.8347 19.0207 71.4434 19.1821 71.7953 19.3914C72.4675 19.7916 73.1188 20.2679 73.7493 20.7061C74.0644 20.9251 75.033 21.4055 75.0813 21.8014H75.0811Z" fill="#00618A"/>
<path fill-rule="evenodd" clip-rule="evenodd" d="M55.233 5.107C54.9074 5.10115 54.6771 5.14214 54.4336 5.19446V5.23838H54.4781C54.6334 5.55325 54.9074 5.75587 55.0997 6.02702C55.2476 6.33381 55.3957 6.64054 55.5438 6.94722L55.5881 6.9035C55.8631 6.71219 55.9891 6.4063 55.9878 5.93956C55.8776 5.82517 55.8611 5.6815 55.7658 5.54505C55.6388 5.36312 55.3931 5.26005 55.233 5.107Z" fill="#00618A"/>
<path fill-rule="evenodd" clip-rule="evenodd" d="M74.041 34.4251C74.041 35.5288 74.9249 36.2726 75.9134 36.2726C76.902 36.2726 77.7857 35.5288 77.7857 34.4251C77.7857 33.3216 76.902 32.5779 75.9134 32.5779C74.9249 32.5779 74.0412 33.3216 74.0412 34.4251H74.041ZM77.3663 34.4251C77.3663 35.2626 76.7174 35.8884 75.9134 35.8884C75.0998 35.8884 74.4606 35.2626 74.4606 34.4251C74.4606 33.5877 75.0996 32.9619 75.9134 32.9619C76.7174 32.9619 77.3663 33.5877 77.3663 34.4251ZM76.4179 35.4792H76.8371L76.2232 34.5534C76.5526 34.5188 76.8021 34.3611 76.8021 33.9769C76.8021 33.5483 76.5277 33.371 75.9985 33.371H75.1647V35.4792H75.5241V34.568H75.8585L76.4179 35.4794V35.4792ZM75.5241 34.2725V33.6665H75.9384C76.1532 33.6665 76.4128 33.706 76.4128 33.9523C76.4128 34.2477 76.1781 34.2725 75.9083 34.2725H75.5241Z" fill="#E48E00"/>
</svg>
