<svg width="60" height="60" viewBox="0 0 60 60" fill="none" xmlns="http://www.w3.org/2000/svg">
<rect width="60" height="60" fill="#239EBE"/>
<path d="M40.8172 23.826C40.4817 23.8293 40.1493 23.8905 39.8346 24.0069V23.826C39.8347 21.8005 39.2048 19.8252 38.0323 18.1736L40.5293 15.6766L39.1398 14.2871L36.7401 16.6868C32.9674 13.1044 27.0499 13.1044 23.2772 16.6868L20.8755 14.2871L19.486 15.6766L21.983 18.1736C20.8105 19.8252 20.1806 21.8005 20.1808 23.826V24.0069C19.8661 23.8905 19.5336 23.8293 19.1981 23.826C17.5699 23.826 16.25 25.1459 16.25 26.7741V34.6356C16.25 36.2638 17.5699 37.5837 19.1981 37.5837C19.5336 37.5804 19.8661 37.5193 20.1808 37.4029V39.5491H23.1288V45.4452H29.025V39.5491H30.9903V45.4452H36.8865V39.5491H39.8346V37.4029C40.1493 37.5193 40.4817 37.5804 40.8172 37.5837C42.4454 37.5837 43.7653 36.2638 43.7653 34.6356V26.7741C43.7653 25.1459 42.4454 23.826 40.8172 23.826ZM20.1808 34.6356C20.1808 35.1784 19.7408 35.6183 19.1981 35.6183C18.6553 35.6183 18.2154 35.1784 18.2154 34.6356V26.7741C18.2154 26.2314 18.6553 25.7914 19.1981 25.7914C19.7408 25.7914 20.1808 26.2314 20.1808 26.7741V34.6356ZM27.0596 43.4798H25.0942V39.5491H27.0596V43.4798ZM34.9211 43.4798H32.9557V39.5491H34.9211V43.4798ZM37.8692 37.5837H22.1461V25.7914H37.8692V37.5837ZM22.1461 23.826C22.1461 19.4843 25.6659 15.9645 30.0077 15.9645C34.3494 15.9645 37.8692 19.4843 37.8692 23.826H22.1461ZM41.7999 34.6356C41.7999 35.1784 41.36 35.6183 40.8172 35.6183C40.2745 35.6183 39.8346 35.1784 39.8346 34.6356V26.7741C39.8346 26.2314 40.2745 25.7914 40.8172 25.7914C41.36 25.7914 41.7999 26.2314 41.7999 26.7741V34.6356Z" fill="white"/>
<path d="M28.0435 19.8953H26.0781V21.8606H28.0435V19.8953Z" fill="white"/>
<path d="M33.938 19.8953H31.9727V21.8606H33.938V19.8953Z" fill="white"/>
</svg>
