<svg width="60" height="60" viewBox="0 0 60 60" fill="none" xmlns="http://www.w3.org/2000/svg">
<rect width="60" height="60" fill="#239EBE"/>
<path d="M43.0426 35.3948C41.9751 34.7569 39.7549 33.4287 39.7549 29.9738C39.7549 27.0578 41.7151 25.5862 42.7679 24.7956L42.7899 24.779C43.2126 24.4618 43.3133 23.871 43.0199 23.4322C40.6677 19.9162 36.628 19.8146 35.8426 19.8293H35.8379C35.2992 19.8299 34.7851 19.8916 34.2977 19.9892C34.4778 19.8458 34.6524 19.6932 34.8205 19.5312C36.5033 17.9103 37.428 15.5187 37.3567 12.9678C37.3414 12.4295 36.8987 12 36.3573 12C34.5371 12 32.4676 13.0826 30.9561 14.8257C29.4333 16.5821 28.7219 18.6862 29.0052 20.5979C29.0286 20.7565 29.0899 20.9013 29.1779 21.0254C28.9112 20.9364 28.6292 20.8329 28.3505 20.7307C27.2917 20.3424 26.091 19.9023 24.9669 19.9023C24.9442 19.9023 22.6586 19.9189 20.3764 21.3301C18.3802 22.5653 16 25.1362 16 30.3727C16 33.0962 17.0688 36.9089 18.7229 40.0871C19.8657 42.2828 22.2373 45.9681 25.2829 45.9854H25.3156C27.5364 45.9854 29.3766 44.6797 30.6281 44.6797C32.7656 44.6797 33.5263 46 35.8379 46C37.9101 46 39.9183 44.4328 41.8071 41.3429C42.5005 40.2079 43.0399 39.0854 43.3699 38.3433C44 36.9295 44 36.741 44 36.6029C44 35.9677 43.5133 35.6763 43.0426 35.3948ZM32.4702 16.1267C33.291 15.1802 34.3251 14.4779 35.3045 14.1679C35.1172 15.7138 34.4611 17.1071 33.4297 18.1001C32.7069 18.7964 31.8395 19.2491 30.9588 19.4051C31.0521 18.3112 31.5775 17.1562 32.4702 16.1267ZM40.0016 40.4641C38.5741 42.7501 37.0953 44.0087 35.8379 44.0087C34.1077 44.0087 33.299 42.6884 30.6281 42.6884C28.8259 42.6884 27.1064 44.0034 25.2942 43.9941C23.8808 43.9861 22.0432 42.1381 20.4991 39.1711C18.981 36.2551 18.0002 32.8015 18.0002 30.3727C18.0002 26.9343 19.1356 24.4737 21.3732 23.0585C23.1153 21.9573 24.8975 21.8956 24.9729 21.8936C26.5343 21.8976 28.7019 23.2736 30.2814 23.2736C31.7035 23.2736 33.6077 21.8206 35.8452 21.8206H35.8819C36.4246 21.81 38.9869 21.8704 40.787 23.8152C39.5149 24.8819 37.7547 26.8002 37.7547 29.9738C37.7547 34.2843 40.493 36.1768 41.7865 36.966C41.4644 37.7426 40.8504 39.1053 40.0016 40.4641Z" fill="white"/>
</svg>
