<svg width="96" height="28" viewBox="0 0 96 28" fill="none" xmlns="http://www.w3.org/2000/svg">
<path d="M88.3205 9.96606C88.0872 9.96606 87.8604 10.0157 87.6596 10.1327L81.3056 13.9118C80.8945 14.1558 80.6445 14.6166 80.6445 15.1069V22.6512C80.6445 23.1411 80.8945 23.6013 81.3056 23.846L82.965 24.8325C83.7712 25.2417 84.0684 25.2353 84.4354 25.2353C85.629 25.2353 86.3105 24.4894 86.3105 23.1931V15.7458C86.3105 15.6406 86.222 15.5653 86.1217 15.5653H85.3258C85.2238 15.5653 85.137 15.6406 85.137 15.7458V23.1931C85.137 23.7676 84.5557 24.3455 83.6126 23.8599L81.8858 22.8179C81.8246 22.7837 81.7778 22.7233 81.7778 22.6512V15.1067C81.7778 15.0352 81.8241 14.9624 81.8858 14.9261L88.2262 11.1612C88.2548 11.1439 88.2874 11.1349 88.3206 11.1349C88.3538 11.1349 88.3863 11.1439 88.415 11.1612L94.7556 14.9263C94.816 14.9638 94.8636 15.0331 94.8636 15.1071V22.6514C94.8636 22.7235 94.8283 22.7972 94.7691 22.832L88.415 26.5971C88.3606 26.6305 88.2856 26.6305 88.2262 26.5971L86.5938 25.5968C86.569 25.583 86.5412 25.5757 86.5129 25.5757C86.4847 25.5757 86.4569 25.583 86.432 25.5968C85.9815 25.8598 85.8967 25.8904 85.4741 26.0414C85.37 26.0788 85.212 26.1369 85.5281 26.3194L87.6596 27.6113C87.8605 27.7307 88.0887 27.7931 88.3207 27.792C88.5527 27.7935 88.7808 27.7312 88.9816 27.6115L95.3357 23.8462C95.7469 23.6 95.9966 23.1413 95.9966 22.6514V15.1069C95.9966 14.6168 95.7469 14.1568 95.3357 13.9121L88.9816 10.1331C88.7825 10.0159 88.5541 9.96626 88.3207 9.96626L88.3205 9.96606Z" fill="#83CD29"/>
<path d="M90.0188 15.3569C88.2094 15.3569 87.1318 16.15 87.1318 17.4689C87.1318 18.8994 88.2013 19.2926 89.938 19.4694C92.0155 19.679 92.1773 19.9931 92.1773 20.4143C92.1773 21.1448 91.6118 21.4563 90.2753 21.4563C88.5958 21.4563 88.2268 21.0245 88.1033 20.1642C88.0886 20.0719 88.0195 19.9974 87.9278 19.9974H87.1048C87.0036 19.9974 86.916 20.0874 86.916 20.192C86.916 21.2933 87.4976 22.5956 90.2753 22.5956C92.2859 22.5956 93.4455 21.7828 93.4455 20.3587C93.4455 18.9471 92.5088 18.568 90.5584 18.3025C88.5878 18.0339 88.3999 17.9024 88.3999 17.4272C88.3999 17.0348 88.5593 16.51 90.0188 16.51C91.3227 16.51 91.8045 16.7996 92.002 17.7051C92.0192 17.79 92.092 17.8578 92.1773 17.8578H93.0004C93.051 17.8578 93.1002 17.8258 93.1352 17.7883C93.1697 17.7483 93.1941 17.7033 93.1892 17.6494C93.0617 16.0903 92.0522 15.3569 90.0188 15.3569Z" fill="#83CD29"/>
<path d="M50.9673 0.0738202C50.8963 0.0738687 50.8265 0.0929692 50.7648 0.129241C50.7035 0.166176 50.6526 0.218918 50.6171 0.282272C50.5817 0.345626 50.5628 0.417405 50.5625 0.490537V11.1193C50.5625 11.2236 50.5154 11.3171 50.4277 11.3694C50.3847 11.3952 50.3358 11.4088 50.286 11.4088C50.2362 11.4088 50.1874 11.3952 50.1444 11.3694L48.458 10.3691C48.335 10.2958 48.1954 10.2572 48.0533 10.2572C47.9112 10.2572 47.7716 10.2958 47.6486 10.3691L40.9168 14.3704C40.6652 14.5201 40.5122 14.8076 40.5122 15.1069V23.1097C40.5122 23.4086 40.6654 23.6825 40.9168 23.8321L47.6486 27.8336C47.7715 27.9071 47.9111 27.9458 48.0533 27.9458C48.1954 27.9458 48.3351 27.9071 48.458 27.8336L55.1897 23.8321C55.313 23.7591 55.4153 23.6538 55.4864 23.5269C55.5575 23.4001 55.5948 23.2562 55.5946 23.1097V3.15826C55.5944 3.00838 55.5556 2.86123 55.4821 2.73183C55.4086 2.60244 55.3032 2.49544 55.1764 2.42177L51.1696 0.115337C51.1068 0.0792271 51.037 0.0728547 50.9673 0.0738202ZM7.66278 10.0635C7.53453 10.0687 7.41378 10.0918 7.29866 10.1606L0.566733 14.1621C0.443418 14.235 0.341036 14.3403 0.269974 14.4672C0.198913 14.594 0.1617 14.738 0.162113 14.8845L0.175613 25.6247C0.175613 25.774 0.250424 25.9128 0.377923 25.9858C0.439049 26.0236 0.509016 26.0436 0.580327 26.0436C0.651638 26.0436 0.721605 26.0236 0.782731 25.9858L4.77587 23.6239C5.02881 23.4691 5.19399 23.1999 5.19399 22.9014V17.8857C5.19399 17.5864 5.34681 17.3118 5.5988 17.1631L7.29847 16.1489C7.42136 16.0753 7.56113 16.0369 7.70328 16.0377C7.84203 16.0377 7.98453 16.0734 8.1079 16.1489L9.80775 17.1631C9.93118 17.236 10.0337 17.3412 10.1048 17.4682C10.1759 17.5951 10.2131 17.7392 10.2126 17.8857V22.9012C10.2126 23.1997 10.3794 23.4708 10.6307 23.6238L14.6238 25.9858C14.685 26.0236 14.7549 26.0436 14.8262 26.0436C14.8975 26.0436 14.9675 26.0236 15.0286 25.9858C15.0902 25.9491 15.1413 25.8964 15.1768 25.833C15.2123 25.7696 15.2311 25.6977 15.2311 25.6245L15.2443 14.8845C15.2451 14.7379 15.208 14.5938 15.1369 14.4669C15.0658 14.3399 14.9632 14.2347 14.8396 14.1621L8.1079 10.1606C7.99409 10.0918 7.87296 10.0689 7.74378 10.0635H7.66278ZM68.1541 10.1606C68.0135 10.1606 67.8757 10.1973 67.7495 10.2718L61.0177 14.2733C60.8945 14.3463 60.7921 14.4516 60.721 14.5784C60.6499 14.7053 60.6127 14.8492 60.6129 14.9957V22.9985C60.6129 23.2995 60.7776 23.5722 61.0311 23.7211L67.709 27.6392C67.9555 27.784 68.2567 27.795 68.5049 27.6527L72.552 25.3325C72.6805 25.2591 72.7673 25.122 72.7679 24.9714C72.7686 24.8981 72.7502 24.8259 72.7146 24.7623C72.679 24.6988 72.6275 24.6462 72.5656 24.6101L65.7933 20.6086C65.6666 20.5341 65.5775 20.3833 65.5775 20.2334V17.7327C65.5775 17.5831 65.6675 17.446 65.7933 17.3715L67.8978 16.1209C67.9593 16.0842 68.0291 16.0649 68.1002 16.0649C68.1713 16.0649 68.2411 16.0842 68.3026 16.1209L70.4069 17.3715C70.4685 17.4079 70.5197 17.4605 70.5553 17.524C70.5909 17.5874 70.6095 17.6593 70.6094 17.7326V19.7055C70.6092 19.7787 70.6278 19.8507 70.6633 19.9141C70.6989 19.9775 70.75 20.0301 70.8117 20.0666C70.9379 20.1417 71.0905 20.1419 71.2163 20.0666L75.2501 17.6495C75.3732 17.5762 75.4754 17.4708 75.5464 17.344C75.6175 17.2172 75.6549 17.0733 75.655 16.9269V14.9959C75.655 14.6975 75.5012 14.4231 75.2501 14.2733L68.5589 10.2718C68.4359 10.1985 68.2962 10.1602 68.1541 10.1608V10.1606ZM48.0262 16.135C48.0615 16.135 48.1027 16.1439 48.1342 16.1626L50.4412 17.5381C50.5038 17.5754 50.5492 17.6443 50.5492 17.7187V20.4696C50.5492 20.5443 50.5042 20.6131 50.4412 20.6503L48.1342 22.0258C48.1034 22.0439 48.0685 22.0535 48.033 22.0535C47.9976 22.0535 47.9627 22.0439 47.9319 22.0258L45.6251 20.6503C45.5623 20.6129 45.5171 20.5443 45.5171 20.4696V17.7187C45.5171 17.6441 45.5625 17.5758 45.6251 17.5381L47.9319 16.1628C47.9602 16.1447 47.993 16.1351 48.0264 16.1352V16.135H48.0262Z" fill="#404137"/>
<path d="M27.883 10.1191C27.7427 10.1191 27.604 10.1558 27.4783 10.2304L20.7466 14.218C20.4948 14.3672 20.3418 14.6553 20.3418 14.9543V22.957C20.3418 23.2564 20.495 23.5298 20.7466 23.6796L27.4783 27.6809C27.6013 27.7545 27.7409 27.7932 27.8831 27.7932C28.0252 27.7932 28.1648 27.7545 28.2878 27.6809L35.0195 23.6796C35.1427 23.6065 35.2451 23.5012 35.3161 23.3743C35.3872 23.2475 35.4244 23.1035 35.4241 22.957V14.9543C35.4241 14.6549 35.2711 14.3672 35.0195 14.218L28.2878 10.2304C28.1647 10.1572 28.0251 10.1188 27.883 10.1191ZM68.1386 17.2607C68.1118 17.2607 68.0819 17.2607 68.0578 17.2746L66.7627 18.0526C66.7386 18.0664 66.7184 18.0865 66.7041 18.1109C66.6899 18.1354 66.6822 18.1632 66.6817 18.1916V19.7199C66.6817 19.7774 66.714 19.8301 66.7627 19.8589L68.0578 20.623C68.1063 20.652 68.1581 20.652 68.2061 20.623L69.5011 19.8587C69.5252 19.8448 69.5453 19.8247 69.5595 19.8003C69.5737 19.776 69.5815 19.7483 69.5821 19.7199V18.1914C69.5815 18.163 69.5737 18.1353 69.5595 18.111C69.5453 18.0866 69.5252 18.0665 69.5011 18.0526L68.2061 17.2744C68.1821 17.2599 68.1656 17.2609 68.1386 17.2609V17.2607Z" fill="#83CD29"/>
</svg>
