<svg width="29" height="29" viewBox="0 0 29 29" fill="none" xmlns="http://www.w3.org/2000/svg">
<path d="M14.4603 29C6.66938 29 0.0615338 22.4203 0.00036076 14.5747C-0.0267631 10.7549 1.47659 7.08282 4.17513 4.37894C5.51998 3.00175 7.1251 1.90546 8.89727 1.15373C10.6694 0.402011 12.5733 0.009842 14.4984 5.89728e-06C18.3159 -0.00345617 21.9776 1.51754 24.6693 4.22373C26.0245 5.54448 27.1049 7.12037 27.8482 8.86056C28.5914 10.6007 28.9828 12.4708 28.9999 14.363C29.0356 22.3759 22.5923 28.9135 14.5722 28.9948L14.4603 29ZM14.5007 0.769738C12.6765 0.780367 10.8727 1.15314 9.19374 1.86641C7.51484 2.57968 5.99434 3.61926 4.7205 4.92479C3.45347 6.19144 2.45051 7.69693 1.76974 9.35401C1.08897 11.0111 0.743933 12.7868 0.754636 14.5782C0.812346 22.0078 7.07393 28.2389 14.4516 28.2389H14.5497C22.1548 28.1645 28.2704 21.9691 28.2358 14.3716C28.2187 12.579 27.8471 10.8075 27.1423 9.15916C26.4375 7.51081 25.4134 6.01818 24.1291 4.76727C22.8696 3.49704 21.3705 2.48921 19.7188 1.80214C18.0671 1.11507 16.2954 0.762399 14.5065 0.764545L14.5007 0.769738ZM3.24715 18.7436V10.2731H5.30741V11.0319H4.21438V17.9993H5.30741V18.7581L3.24715 18.7436ZM10.2474 14.4247C10.2474 15.9694 9.31021 16.8493 8.03885 16.8493C6.76749 16.8493 5.92087 15.8592 5.92087 14.5043C5.92087 13.0889 6.80962 12.0907 8.10695 12.0907C9.40428 12.0907 10.2422 13.1305 10.2422 14.4241L10.2474 14.4247ZM6.80904 14.4928C6.80904 15.4299 7.27938 16.1736 8.0879 16.1736C8.89642 16.1736 9.35926 15.4149 9.35926 14.4587C9.35926 13.5898 8.93047 12.7704 8.0879 12.7704C7.24533 12.7704 6.80096 13.5632 6.80096 14.513L6.80904 14.4928ZM10.9619 12.2505C11.3655 12.1807 11.7745 12.1464 12.1842 12.1478C12.6443 12.1027 13.1069 12.205 13.5052 12.4398C13.8093 12.6129 13.9923 12.9487 13.9842 13.3013C13.9726 13.7629 13.6668 14.165 13.2253 14.2995C13.4878 14.3528 13.7238 14.4953 13.8932 14.7028C14.0625 14.9104 14.1548 15.1701 14.1544 15.4379C14.1574 15.6194 14.1189 15.7991 14.0421 15.9635C13.9652 16.1278 13.8518 16.2725 13.7106 16.3865C13.384 16.675 12.8415 16.8153 12.0024 16.8153C11.6573 16.817 11.3125 16.7968 10.97 16.7547L10.9619 12.2505ZM11.7969 14.0681H12.2257C12.8063 14.0681 13.1329 13.7952 13.1329 13.4045C13.1329 13.0139 12.8063 12.7745 12.2713 12.7745C12.1109 12.7687 11.951 12.7802 11.7923 12.8091L11.7969 14.0681ZM11.7969 16.1857C11.9444 16.201 12.0926 16.2073 12.2407 16.2048C12.7798 16.2048 13.2576 15.9999 13.2576 15.446C13.2576 14.8921 12.7948 14.6872 12.2142 14.6872H11.7969V16.1857ZM15.8119 12.1899H16.6504V15.1904C16.6504 16.4616 16.0358 16.8868 15.1326 16.8868C14.8916 16.8839 14.6523 16.845 14.4228 16.7714L14.5255 16.0963C14.6939 16.149 14.869 16.1771 15.0455 16.18C15.5245 16.18 15.8044 15.9607 15.8044 15.1633L15.8119 12.1899ZM19.0436 14.6826V15.2631H17.2979V14.6826H19.0436ZM23.114 16.656C22.7367 16.8063 22.3321 16.8761 21.9263 16.8608C20.4651 16.8608 19.5775 15.9463 19.5775 14.5459C19.5601 14.2196 19.612 13.8934 19.7298 13.5887C19.8476 13.284 20.0286 13.0076 20.2609 12.7779C20.4932 12.5481 20.7715 12.3702 21.0776 12.2557C21.3836 12.1412 21.7104 12.0929 22.0365 12.1138C22.4265 12.0975 22.8153 12.1675 23.1751 12.3186L22.9893 12.9862C22.7036 12.8708 22.396 12.8039 22.0861 12.8131C21.1489 12.8131 20.4731 13.4017 20.4731 14.5095C20.4731 15.5193 21.0687 16.1713 22.0786 16.1713C22.392 16.1759 22.7031 16.1177 22.9934 16.0005L23.114 16.656ZM25.7542 10.25V18.7436H23.694V17.9849H24.787V11.01H23.6882V10.25H25.7542Z" fill="#F1592A"/>
</svg>
