<svg width="381" height="259" viewBox="0 0 381 259" fill="none" xmlns="http://www.w3.org/2000/svg">
<path d="M337.187 121.63H49.2578V258.182H337.187V121.63Z" fill="#E6E6E6"/>
<path d="M328.953 133.339H57.4902V247.269H328.953V133.339Z" fill="white"/>
<path d="M283.555 154.545H276.525V161.571H283.555V154.545Z" fill="#E6E6E6"/>
<path d="M96.0568 154.545H89.0273V161.571H96.0568V154.545Z" fill="#6C63FF"/>
<path d="M112.254 174.669H88.8223V198.088H112.254V174.669Z" fill="#E6E6E6"/>
<path d="M337.064 113.74H49.1348V125.966H337.064V113.74Z" fill="#239EBE"/>
<path d="M58.2242 124.831C59.4763 124.831 60.4914 123.816 60.4914 122.565C60.4914 121.314 59.4763 120.299 58.2242 120.299C56.9721 120.299 55.957 121.314 55.957 122.565C55.957 123.816 56.9721 124.831 58.2242 124.831Z" fill="white"/>
<path d="M66.8297 124.831C68.0818 124.831 69.0968 123.816 69.0968 122.565C69.0968 121.314 68.0818 120.299 66.8297 120.299C65.5775 120.299 64.5625 121.314 64.5625 122.565C64.5625 123.816 65.5775 124.831 66.8297 124.831Z" fill="white"/>
<path d="M75.4351 124.831C76.6873 124.831 77.7023 123.816 77.7023 122.565C77.7023 121.314 76.6873 120.299 75.4351 120.299C74.183 120.299 73.168 121.314 73.168 122.565C73.168 123.816 74.183 124.831 75.4351 124.831Z" fill="white"/>
<path d="M381 258.182H0V259H381V258.182Z" fill="#E6E6E6"/>
<path d="M193.967 177.012H136.559V180.305H193.967V177.012Z" fill="#E6E6E6"/>
<path d="M225.21 189.026H136.559V192.32H225.21V189.026Z" fill="#6C63FF"/>
<path d="M208.807 200.345H136.559V203.638H208.807V200.345Z" fill="#E6E6E6"/>
<path d="M178.736 211.621H136.559V214.915H178.736V211.621Z" fill="#E6E6E6"/>
<path d="M200.215 222.897H136.559V226.191H200.215V222.897Z" fill="#E6E6E6"/>
<path d="M295.662 154.545H288.633V161.571H295.662V154.545Z" fill="#E6E6E6"/>
<path d="M307.77 154.545H300.74V161.571H307.77V154.545Z" fill="#E6E6E6"/>
<path opacity="0.997" d="M293.493 214.915C301.377 214.915 307.768 208.527 307.768 200.647C307.768 192.767 301.377 186.379 293.493 186.379C285.608 186.379 279.217 192.767 279.217 200.647C279.217 208.527 285.608 214.915 293.493 214.915Z" fill="#239EBE"/>
<path d="M77.1364 38.634C86.0127 38.634 93.2084 31.4423 93.2084 22.5709C93.2084 13.6995 86.0127 6.50781 77.1364 6.50781C68.2601 6.50781 61.0645 13.6995 61.0645 22.5709C61.0645 31.4423 68.2601 38.634 77.1364 38.634Z" fill="#2F2E41"/>
<path d="M37.1408 160.009H30.1019L26.7539 132.881H37.1399L37.1408 160.009Z" fill="#FEB8B8"/>
<path d="M25.0765 157.999H38.6481V166.539H16.5312C16.5312 164.274 17.4316 162.102 19.0341 160.5C20.6367 158.899 22.8102 157.999 25.0765 157.999Z" fill="#2F2E41"/>
<path d="M26.1554 156.084L19.4414 153.978L24.3735 127.091L34.2828 130.2L26.1554 156.084Z" fill="#FEB8B8"/>
<path d="M15.2427 150.557L28.192 154.618L25.6334 162.767L4.53125 156.148C4.86726 155.078 5.41086 154.085 6.13103 153.225C6.8512 152.365 7.73383 151.655 8.72852 151.135C9.72322 150.616 10.8105 150.298 11.9283 150.199C13.0461 150.099 14.1725 150.221 15.2432 150.557L15.2427 150.557Z" fill="#2F2E41"/>
<path d="M28.4432 145.258C28.1357 145.258 27.8308 145.203 27.5429 145.095L22.364 143.155C21.7828 142.935 21.3 142.514 21.0035 141.968C20.707 141.422 20.6166 140.788 20.7488 140.181C22.0522 134.323 26.4945 114.382 28.927 103.686C31.8117 90.9984 73.896 88.6409 75.686 88.5468L75.8333 88.5391L80.5674 94.4824C82.2781 99.9779 81.7358 104.264 78.9559 107.223C70.8435 115.855 46.6237 110.499 43.7357 109.821L30.8631 143.596C30.6755 144.085 30.3439 144.506 29.9121 144.803C29.4803 145.099 28.9685 145.258 28.4445 145.258H28.4432Z" fill="#2F2E41"/>
<path d="M35.9065 149.274C35.599 149.274 35.294 149.219 35.0062 149.111L29.8289 147.17C29.2477 146.951 28.7648 146.529 28.4683 145.983C28.1718 145.438 28.0814 144.803 28.2137 144.196C29.5171 138.339 33.9594 118.397 36.3919 107.701C39.2766 95.0141 81.3609 92.6565 83.1509 92.5625L83.2982 92.5547L88.0307 98.4997C89.7413 103.995 89.199 108.282 86.4191 111.24C78.3072 119.871 54.0869 114.516 51.1989 113.838L38.3247 147.612C38.1371 148.101 37.8055 148.521 37.3737 148.818C36.9419 149.115 36.4302 149.274 35.9061 149.274L35.9065 149.274Z" fill="#2F2E41"/>
<path d="M20.9264 66.6504C21.1165 66.9047 21.2863 67.1736 21.4342 67.4545L49.7445 70.4354L53.8205 64.8507L63.0565 69.8958L55.0523 83.4472L20.3322 74.5995C19.4562 75.453 18.3409 76.0198 17.1348 76.2245C15.9286 76.4292 14.6887 76.262 13.5799 75.7452C12.4712 75.2284 11.5461 74.3865 10.9277 73.3314C10.3094 72.2763 10.0271 71.0581 10.1184 69.8388C10.2096 68.6195 10.6701 67.4568 11.4387 66.5054C12.2072 65.554 13.2473 64.8591 14.4207 64.5129C15.594 64.1667 16.845 64.1858 18.0073 64.5675C19.1696 64.9493 20.188 65.6756 20.9272 66.6499L20.9264 66.6504Z" fill="#FEB8B8"/>
<path d="M86.7167 100.775C86.3073 100.774 85.9041 100.676 85.5401 100.489C79.8791 97.6121 68.8559 92.6299 58.634 91.5874C58.2842 91.5531 57.9454 91.4461 57.6394 91.2733C57.3334 91.1004 57.0669 90.8655 56.8571 90.5837C56.6432 90.2988 56.4903 89.973 56.408 89.6265C56.3257 89.28 56.3157 88.9202 56.3787 88.5697C57.3011 83.4665 59.4169 70.4714 59.1443 60.0567C59.0641 56.8545 60.0764 53.7202 62.0148 51.1692C63.9531 48.6182 66.7023 46.8023 69.8103 46.0199C71.6808 45.5266 73.5808 45.1522 75.4987 44.8988C77.7037 44.6197 79.9435 44.8606 82.0386 45.6022C84.1337 46.3439 86.0259 47.5656 87.5636 49.1695C89.1013 50.7735 90.2418 52.715 90.8938 54.8387C91.5457 56.9624 91.6909 59.2092 91.3177 61.3991C89.495 72.1921 87.6571 87.2666 89.2544 97.7896C89.3277 98.2613 89.269 98.744 89.0848 99.1844C88.9005 99.6247 88.5979 100.006 88.2104 100.285C87.7769 100.602 87.254 100.774 86.7167 100.775Z" fill="#CCCCCC"/>
<path d="M59.6674 73.3234C59.3145 73.3228 58.9655 73.25 58.6418 73.1094L51.2669 69.9192C50.6388 69.6466 50.1444 69.136 49.8924 68.4996C49.6404 67.8632 49.6512 67.1528 49.9226 66.5244L55.6233 53.3628C55.9619 52.5653 56.4544 51.8422 57.0726 51.2349C57.6908 50.6276 58.4227 50.1479 59.2264 49.8233C60.0301 49.4987 60.8899 49.3354 61.7567 49.3429C62.6235 49.3504 63.4804 49.5284 64.2784 49.8668C65.0764 50.2053 65.7998 50.6975 66.4075 51.3154C67.0151 51.9333 67.4951 52.6647 67.8199 53.468C68.1447 54.2712 68.308 55.1306 68.3005 55.9969C68.2931 56.8632 68.1149 57.7196 67.7763 58.5172C67.764 58.5462 67.7515 58.5751 67.7387 58.6039L62.0381 71.7659C61.8374 72.2278 61.5062 72.6213 61.0851 72.8979C60.664 73.1746 60.1713 73.3224 59.6674 73.3234Z" fill="#CCCCCC"/>
<path d="M76.5494 40.4213C84.3356 40.4213 90.6476 34.1128 90.6476 26.3309C90.6476 18.549 84.3356 12.2405 76.5494 12.2405C68.7632 12.2405 62.4512 18.549 62.4512 26.3309C62.4512 34.1128 68.7632 40.4213 76.5494 40.4213Z" fill="#FEB8B8"/>
<path d="M62.1973 19.4068C68.8751 23.481 76.4035 25.9603 84.1966 26.6516L81.8775 23.8748C83.566 24.4987 85.3427 24.8513 87.1415 24.9194C88.0422 24.9455 88.9365 24.7602 89.7526 24.3785C90.5687 23.9967 91.2839 23.429 91.8408 22.721C92.2954 21.9861 92.5655 21.1523 92.628 20.2905C92.6905 19.4288 92.5436 18.5647 92.1997 17.772C91.4931 16.1902 90.3932 14.8156 89.0048 13.7788C86.5436 11.833 83.6391 10.5259 80.55 9.97416C77.4608 9.42237 74.2831 9.64298 71.2999 10.6163C69.2536 11.2275 67.4208 12.4025 66.0118 14.0066C64.6752 15.6545 62.1023 17.1229 62.7866 19.1307L62.1973 19.4068Z" fill="#2F2E41"/>
<path d="M77.8086 7.53686C80.6187 4.68808 84.0195 2.48958 87.7715 1.09617C90.1529 0.0948867 92.7649 -0.229116 95.319 0.159941C97.8371 0.666296 100.218 2.40705 100.921 4.87625C101.494 6.89512 100.902 9.06902 100.011 10.9705C99.1192 12.872 97.9291 14.6336 97.2081 16.605C96.4725 18.6167 96.2512 20.78 96.5644 22.8988C96.8776 25.0175 97.7153 27.0246 99.0015 28.7377C100.288 30.4508 101.982 31.8157 103.929 32.7085C105.877 33.6013 108.017 33.9937 110.156 33.8502C107.682 34.1819 105.401 35.3439 102.983 35.9619C100.565 36.5799 97.711 36.5386 95.9141 34.8068C94.0128 32.9749 93.9747 29.9965 94.0668 27.3588L94.476 15.5948C94.5456 13.5951 94.6053 11.5313 93.8834 9.66413C93.1615 7.79699 91.4468 6.163 89.4448 6.18018C87.9274 6.19285 86.5847 7.1119 85.3676 8.01786C84.1505 8.92382 82.8627 9.89031 81.3514 10.0253C79.84 10.1603 78.1143 9.04366 78.2272 7.53032" fill="#2F2E41"/>
<path d="M52.8479 97.1556C51.9137 97.1545 50.9915 96.9463 50.1476 96.546C49.3037 96.1458 48.5591 95.5634 47.9675 94.8409C47.3758 94.1184 46.9519 93.2738 46.7262 92.3679C46.5005 91.4619 46.4787 90.5172 46.6622 89.6018C46.8458 88.6864 47.2303 87.8231 47.7879 87.0741C48.3455 86.3251 49.0623 85.709 49.8869 85.2702C50.7114 84.8314 51.623 84.5808 52.5561 84.5366C53.4891 84.4923 54.4204 84.6554 55.2828 85.0141C55.5422 85.1236 55.7937 85.251 56.0354 85.3953L81.7171 73.8731L82.4386 66.9117L93.5089 66.6156L93.4356 78.2049C93.4222 79.5476 92.9759 80.8502 92.1629 81.9193C91.35 82.9883 90.2138 83.7668 88.923 84.1393L58.8911 92.6814C58.8331 92.8797 58.7648 93.0748 58.6864 93.2659C58.2046 94.4162 57.3938 95.3988 56.3558 96.0906C55.3177 96.7825 54.0984 97.1528 52.8507 97.1552L52.8479 97.1556Z" fill="#FEB8B8"/>
<path d="M92.5713 72.2943C92.2564 72.4535 91.9123 72.5465 91.5601 72.5675L83.539 73.0604C82.8555 73.1016 82.1835 72.8702 81.6705 72.4168C81.1575 71.9635 80.8453 71.3254 80.8024 70.6423L79.9222 56.3269C79.8167 54.5816 80.4087 52.8659 81.5682 51.5566C82.7277 50.2472 84.3598 49.4515 86.106 49.3441C87.8521 49.2368 89.5695 49.8265 90.8809 50.9839C92.1922 52.1413 92.9902 53.7716 93.0996 55.5167L93.9803 69.8321C94.0108 70.3349 93.8939 70.8358 93.6437 71.2732C93.3936 71.7105 93.0212 72.0654 92.5721 72.2943H92.5713Z" fill="#CCCCCC"/>
<path d="M76.4179 94.587H28.5089C28.107 94.587 27.7812 94.9126 27.7812 95.3143V97.8755C27.7812 98.2771 28.107 98.6027 28.5089 98.6027H76.4179C76.8197 98.6027 77.1455 98.2771 77.1455 97.8755V95.3143C77.1455 94.9126 76.8197 94.587 76.4179 94.587Z" fill="#3F3D56"/>
<path d="M9.37305 94.8741V66.7632C9.37424 65.7746 9.76771 64.8269 10.4672 64.1278C11.1666 63.4287 12.1149 63.0355 13.1041 63.0343H64.1904C65.1796 63.0354 66.128 63.4286 66.8274 64.1277C67.5269 64.8268 67.9203 65.7746 67.9214 66.7632V94.8741C67.9203 95.8628 67.5269 96.8106 66.8274 97.5097C66.128 98.2088 65.1796 98.602 64.1904 98.6031H13.1041C12.1149 98.6019 11.1666 98.2087 10.4672 97.5096C9.76771 96.8105 9.37424 95.8628 9.37305 94.8741Z" fill="#3F3D56"/>
<path d="M39.2625 84.2624C41.1647 84.2624 42.7066 82.7213 42.7066 80.8202C42.7066 78.9191 41.1647 77.3779 39.2625 77.3779C37.3604 77.3779 35.8184 78.9191 35.8184 80.8202C35.8184 82.7213 37.3604 84.2624 39.2625 84.2624Z" fill="white"/>
</svg>
