<svg width="51" height="28" viewBox="0 0 51 28" fill="none" xmlns="http://www.w3.org/2000/svg">
<path d="M0.716797 14C0.716797 21.3287 11.8127 27.27 25.4997 27.27C39.1866 27.27 50.2826 21.3287 50.2826 14C50.2826 6.67126 39.1866 0.729885 25.4997 0.729885C11.8127 0.729885 0.716797 6.67126 0.716797 14Z" fill="url(#paint0_radial)"/>
<path d="M25.5003 26.2847C38.6527 26.2847 49.3151 20.7845 49.3151 13.9998C49.3151 7.2152 38.6527 1.71498 25.5003 1.71498C12.348 1.71498 1.68555 7.2152 1.68555 13.9998C1.68555 20.7845 12.348 26.2847 25.5003 26.2847Z" fill="#777BB3"/>
<path d="M14.1833 15.5232C15.2648 15.5232 16.0722 15.3202 16.583 14.92C17.0884 14.5239 17.4374 13.8377 17.6204 12.8805C17.791 11.9858 17.726 11.3611 17.4273 11.0239C17.1219 10.6796 16.4616 10.5049 15.4649 10.5049H13.7366L12.7785 15.5232H14.1833ZM8.53056 21.7048C8.45033 21.7048 8.37414 21.6683 8.32314 21.6052C8.27204 21.5422 8.25134 21.4591 8.26666 21.3789L10.8059 8.08039C10.8305 7.95183 10.9412 7.85894 11.0699 7.85894H16.5426C18.2625 7.85894 19.5427 8.33431 20.3474 9.272C21.1564 10.2146 21.4062 11.5322 21.0899 13.1882C20.9612 13.8628 20.7398 14.4894 20.4318 15.0503C20.1236 15.6119 19.7162 16.1315 19.2208 16.595C18.6277 17.16 17.9565 17.5697 17.2276 17.8107C16.5102 18.0486 15.5889 18.1692 14.4894 18.1692H12.2734L11.6405 21.4833C11.616 21.612 11.5053 21.7048 11.3766 21.7048H8.53056Z" fill="black"/>
<path d="M13.9577 10.7786H15.4643C16.6673 10.7786 17.0852 11.0473 17.2272 11.2075C17.4627 11.4733 17.5072 12.0339 17.3558 12.8285C17.1857 13.7182 16.8703 14.3489 16.4184 14.7031C15.9557 15.0657 15.2034 15.2495 14.1827 15.2495H13.104L13.9577 10.7786ZM16.542 7.58518H11.0692C10.8118 7.58518 10.5904 7.77094 10.5413 8.02815L8.00208 21.3267C7.97142 21.4872 8.01284 21.6531 8.11493 21.7793C8.21712 21.9055 8.36932 21.9785 8.52995 21.9785H11.3759C11.6335 21.9785 11.8548 21.7927 11.9039 21.5355L12.4944 18.4429H14.4888C15.6166 18.4429 16.566 18.3177 17.3104 18.0709C18.076 17.8177 18.7804 17.3884 19.4038 16.795C19.9194 16.3121 20.3441 15.7702 20.6659 15.1839C20.9878 14.5975 21.2191 13.9436 21.3533 13.2403C21.6863 11.4972 21.4157 10.1014 20.5493 9.09194C19.6913 8.09211 18.343 7.58518 16.542 7.58518ZM12.4516 15.7969H14.1827C15.3302 15.7969 16.1849 15.5769 16.7465 15.1369C17.3081 14.6967 17.6869 13.9621 17.8838 12.9327C18.0721 11.9444 17.9863 11.247 17.6264 10.8407C17.2661 10.4344 16.5455 10.2312 15.4643 10.2312H13.5143L12.4516 15.7969ZM16.542 8.13262C18.1884 8.13262 19.3894 8.57241 20.1443 9.45207C20.8992 10.3317 21.1265 11.5596 20.8253 13.1359C20.7013 13.7853 20.4917 14.379 20.1965 14.9169C19.901 15.4551 19.5151 15.9473 19.0382 16.3935C18.4699 16.9349 17.8386 17.3206 17.1439 17.5504C16.4492 17.7808 15.5644 17.8955 14.4888 17.8955H12.051L11.3759 21.4311H8.52995L11.0692 8.13262H16.542Z" fill="white"/>
<path d="M27.6152 18.1692C27.5348 18.1692 27.4587 18.1327 27.4077 18.0696C27.3566 18.0065 27.3359 17.9236 27.3512 17.8433L28.4744 11.9592C28.5813 11.3996 28.5549 10.998 28.4003 10.8283C28.3056 10.7245 28.0213 10.5505 27.1806 10.5505H25.1457L23.7334 17.9477C23.7089 18.0763 23.5982 18.1692 23.4694 18.1692H20.6459C20.5656 18.1692 20.4895 18.1327 20.4384 18.0696C20.3873 18.0065 20.3666 17.9235 20.3819 17.8433L22.9211 4.54473C22.9457 4.41617 23.0564 4.32329 23.1851 4.32329H26.0087C26.089 4.32329 26.1651 4.35979 26.2162 4.42283C26.2673 4.48597 26.288 4.56891 26.2727 4.6492L25.6599 7.8589H27.849C29.5167 7.8589 30.6476 8.15817 31.3062 8.77387C31.9776 9.40197 32.1871 10.4063 31.9289 11.7592L30.7475 17.9477C30.723 18.0763 30.6124 18.1692 30.4835 18.1692H27.6152Z" fill="black"/>
<path d="M26.0081 4.04953H23.1845C22.927 4.04953 22.7057 4.2353 22.6566 4.49251L20.1173 17.791C20.0867 17.9515 20.1281 18.1175 20.2303 18.2437C20.3324 18.3699 20.4846 18.4429 20.6453 18.4429H23.4688C23.7263 18.4429 23.9477 18.2571 23.9968 17.9999L25.3667 10.8242H27.18C28.0193 10.8242 28.1954 11.0067 28.2025 11.0145C28.2534 11.0703 28.3204 11.3285 28.2098 11.907L27.0866 17.791C27.0559 17.9515 27.0974 18.1175 27.1995 18.2437C27.3017 18.3699 27.4539 18.4429 27.6146 18.4429H30.4829C30.7404 18.4429 30.9618 18.2571 31.0109 17.9999L32.1922 11.8114C32.4695 10.3588 32.2323 9.26909 31.4876 8.57237C30.777 7.90804 29.5866 7.58514 27.8484 7.58514H25.9854L26.536 4.70145C26.5666 4.54095 26.5253 4.3749 26.4231 4.2488C26.3209 4.12261 26.1687 4.04953 26.0081 4.04953ZM26.0081 4.59698L25.333 8.13258H27.8484C29.4311 8.13258 30.5228 8.41379 31.1237 8.97547C31.7245 9.53752 31.9045 10.4482 31.6644 11.7071L30.4829 17.8954H27.6146L28.7378 12.0114C28.8656 11.3421 28.8187 10.8855 28.5967 10.6421C28.3747 10.3987 27.9024 10.2768 27.18 10.2768H24.9233L23.4688 17.8954H20.6453L23.1845 4.59698H26.0081Z" fill="white"/>
<path d="M36.3962 15.5232C37.4777 15.5232 38.285 15.3202 38.7959 14.92C39.3013 14.524 39.6503 13.8378 39.8334 12.8805C40.0039 11.9858 39.9389 11.3611 39.6402 11.0239C39.3348 10.6796 38.6745 10.5049 37.6778 10.5049H35.9495L34.9913 15.5232H36.3962ZM30.7435 21.7048C30.6633 21.7048 30.5871 21.6683 30.5361 21.6052C30.485 21.5422 30.4642 21.4591 30.4795 21.3789L33.0188 8.08039C33.0434 7.95183 33.154 7.85894 33.2829 7.85894H38.7555C40.4755 7.85894 41.7556 8.33431 42.5604 9.272C43.3694 10.2145 43.6191 11.5321 43.3028 13.1882C43.1739 13.8628 42.9526 14.4894 42.6447 15.0503C42.3365 15.6119 41.9291 16.1315 41.4336 16.595C40.8406 17.16 40.1694 17.5697 39.4405 17.8107C38.7231 18.0486 37.8018 18.1692 36.7022 18.1692H34.4861L33.8536 21.4833C33.8289 21.612 33.7183 21.7048 33.5895 21.7048H30.7435Z" fill="black"/>
<path d="M36.1705 10.7786H37.6771C38.8801 10.7786 39.298 11.0473 39.44 11.2075C39.6756 11.4733 39.7201 12.0339 39.5686 12.8285C39.3985 13.7182 39.0831 14.3489 38.6312 14.7031C38.1685 15.0657 37.4163 15.2495 36.3956 15.2495H35.3169L36.1705 10.7786ZM38.7548 7.58518H33.2821C33.0247 7.58518 32.8033 7.77094 32.7542 8.02815L30.215 21.3267C30.1843 21.4872 30.2257 21.6531 30.3278 21.7793C30.43 21.9055 30.5822 21.9785 30.7428 21.9785H33.5888C33.8463 21.9785 34.0677 21.7927 34.1168 21.5355L34.7072 18.4429H36.7016C37.8294 18.4429 38.7788 18.3177 39.5233 18.0709C40.2889 17.8177 40.9934 17.3883 41.6168 16.7948C42.1324 16.3121 42.5569 15.7702 42.8787 15.1839C43.2006 14.5975 43.4319 13.9436 43.5661 13.2403C43.8991 11.4972 43.6286 10.1013 42.7621 9.09185C41.9041 8.09211 40.5559 7.58518 38.7548 7.58518ZM34.6645 15.7969H36.3956C37.543 15.7969 38.3977 15.5769 38.9593 15.1369C39.521 14.6967 39.8997 13.9621 40.0966 12.9327C40.285 11.9444 40.1992 11.247 39.8392 10.8407C39.4789 10.4344 38.7583 10.2312 37.6771 10.2312H35.7271L34.6645 15.7969ZM38.7548 8.13262C40.4012 8.13262 41.6022 8.57241 42.3571 9.45207C43.1121 10.3317 43.3393 11.5596 43.0381 13.1359C42.9142 13.7853 42.7045 14.379 42.4093 14.9169C42.1138 15.4551 41.7279 15.9473 41.251 16.3935C40.6827 16.9349 40.0514 17.3206 39.3567 17.5504C38.662 17.7808 37.7772 17.8955 36.7016 17.8955H34.2638L33.5888 21.4311H30.7428L33.2821 8.13262H38.7548Z" fill="white"/>
<defs>
<radialGradient id="paint0_radial" cx="0" cy="0" r="1" gradientUnits="userSpaceOnUse" gradientTransform="translate(15.5966 5.39523) scale(32.5434 33.1259)">
<stop stop-color="#AEB2D5"/>
<stop offset="0.3" stop-color="#AEB2D5"/>
<stop offset="0.75" stop-color="#484C89"/>
<stop offset="1" stop-color="#484C89"/>
</radialGradient>
</defs>
</svg>
