<svg width="38" height="54" viewBox="0 0 38 54" fill="none" xmlns="http://www.w3.org/2000/svg">
<path d="M36.2327 44.4749L33.7764 43.1586V36.7502C33.7843 35.8831 32.9659 35.0886 32.0211 35.1679C30.8191 35.1679 29.3678 34.2804 28.1364 32.7922C26.4065 30.7013 24.8416 27.0786 25.2627 22.8592H26.9479C27.8216 22.8592 28.5299 22.1509 28.5299 21.2772V14.4593C28.5299 13.5856 27.8216 12.8773 26.9479 12.8773H24.9111C25.941 11.5283 26.5544 9.84509 26.5544 8.02058C26.5545 3.59807 22.9564 0 18.5338 0C14.1111 0 10.513 3.59807 10.513 8.02069C10.513 9.84509 11.1264 11.5283 12.1563 12.8774H10.1196C9.24592 12.8774 8.53759 13.5857 8.53759 14.4594V21.2773C8.53759 22.151 9.24592 22.8593 10.1196 22.8593H11.3979C11.8417 26.8816 10.1984 30.5871 8.52156 32.6664C7.25773 34.2335 5.79762 35.1681 4.61384 35.168C3.83178 35.1779 3.00491 35.8079 3.01915 36.7503V43.1976L0.784055 44.5033C0.298476 44.7869 0 45.3071 0 45.8693V52.418C0 53.2917 0.708328 54 1.58203 54H35.4853C36.359 54 37.0673 53.2917 37.0673 52.418V45.8694C37.0675 45.2863 36.7467 44.7504 36.2327 44.4749ZM18.5338 3.16406C21.2118 3.16406 23.3904 5.34273 23.3904 8.02069C23.3904 10.6987 21.2118 12.8774 18.5338 12.8774C15.8558 12.8774 13.6771 10.6987 13.6771 8.02069C13.6771 5.34273 15.8558 3.16406 18.5338 3.16406ZM11.7018 16.0415H25.366V19.6952H11.7018V16.0415ZM10.9846 34.6527C13.1043 32.0242 15.0089 27.6844 14.5781 22.8594H22.0883C21.6816 27.9114 23.5929 32.2643 25.6985 34.8093C25.8002 34.9322 25.9031 35.0515 26.0068 35.1683H10.5476C10.6951 35.0022 10.8409 34.8308 10.9846 34.6527ZM6.18332 38.3323H30.6122V42.5236H6.18332V38.3323ZM33.9035 50.8359H3.16417V46.7774L5.02959 45.6877H31.7971L33.9035 46.8164V50.8359Z" fill="white"/>
</svg>
