<svg width="158" height="30" viewBox="0 0 158 30" fill="none" xmlns="http://www.w3.org/2000/svg">
<path d="M42.5056 15.0965H36.7761V9.26149H42.8167C45.0277 9.26149 46.1332 10.249 46.1332 12.2245C46.1332 14.1395 44.9235 15.0975 42.5056 15.0975V15.0965ZM46.6235 9.19349C45.8335 8.48149 44.7398 8.12549 43.3282 8.12549L35.123 8.17149V22.1315H36.7761L36.7613 16.1885H42.867C44.3976 16.1885 45.6034 15.8325 46.4828 15.1205C47.3621 14.4085 47.8021 13.4205 47.8021 12.157C47.8021 10.8935 47.4095 9.90599 46.6245 9.19349H46.6235ZM57.324 19.2C57.1659 19.6567 56.896 20.0652 56.5395 20.3875C55.7988 21.1195 54.6691 21.485 53.1494 21.485C51.7767 21.485 50.7241 21.135 49.9894 20.418C49.2547 19.701 48.8868 18.7545 48.8868 17.5615C48.8868 16.9405 48.9831 16.389 49.1752 15.908C49.3672 15.427 49.6462 15.021 50.0116 14.69C50.772 13.9885 51.8177 13.6375 53.1499 13.6375C56.1005 13.6375 57.5763 14.9455 57.5763 17.5615C57.5763 18.183 57.4924 18.729 57.3295 19.2H57.324ZM57.6292 14.05C56.6219 13.12 55.1308 12.65 53.1548 12.65C51.2884 12.65 49.8457 13.125 48.8286 14.075C47.9102 14.935 47.4461 16.095 47.4461 17.556C47.4461 19.006 47.9201 20.176 48.8681 21.066C49.3914 21.546 50.0012 21.894 50.6979 22.109C51.3946 22.324 52.2117 22.4315 53.1499 22.4315C55.115 22.4315 56.6061 21.9715 57.639 21.0515C58.5574 20.2115 59.0215 19.0515 59.0215 17.5555C59.0215 16.0555 58.5574 14.8855 57.6292 14.0445V14.05ZM70.1299 19.6035C70.1299 21.4825 68.4675 22.422 65.143 22.422C64.1269 22.422 63.2707 22.357 62.5755 22.226C61.8803 22.095 61.315 21.8785 60.881 21.577C60.546 21.3475 60.2716 21.0385 60.0816 20.677C59.8841 20.307 59.7557 19.842 59.6965 19.277L61.2434 19.262C61.2434 20.002 61.514 20.546 62.0556 20.896C62.6368 21.316 63.6653 21.526 65.143 21.526C67.4666 21.526 68.6289 20.936 68.6289 19.757C68.6289 19.067 68.2339 18.593 67.4597 18.332C67.3017 18.282 66.3621 18.1495 64.6453 17.935C62.9286 17.7205 61.8507 17.5275 61.4271 17.3575C60.5097 16.9875 60.051 16.3225 60.051 15.3635C60.051 14.4235 60.4608 13.7235 61.2854 13.2645C61.6903 13.0745 62.1963 12.9275 62.8042 12.822C63.412 12.7165 64.1156 12.6645 64.9154 12.6645C68.1159 12.6645 69.7162 13.6815 69.7162 15.7145H68.2448C68.2448 14.2845 67.119 13.5645 64.87 13.5645C63.7255 13.5645 62.8718 13.7145 62.3094 13.9995C61.747 14.2845 61.4661 14.7345 61.4661 15.3345C61.4661 15.8945 61.8463 16.2995 62.6057 16.5495C63.05 16.6795 64.0711 16.8295 65.6699 16.9995C67.1008 17.1295 68.0828 17.3145 68.6156 17.5495C69.6327 17.9495 70.1403 18.6295 70.1403 19.588L70.1299 19.6035ZM76.206 22.15L75.5765 22.24L75.1839 22.27C74.1767 22.27 73.4558 22.1225 73.005 21.8265C72.5542 21.5305 72.337 21.013 72.337 20.2765V13.899H70.5071V12.962H72.3276L72.3424 9.95199H73.7526V12.962H76.2085V13.914L73.7526 13.899V20.0975C73.7526 20.559 73.8735 20.8775 74.1155 21.0475C74.3574 21.2175 74.7889 21.3105 75.4111 21.3105C75.4999 21.3205 75.5987 21.3175 75.7073 21.3005C75.872 21.2708 76.0351 21.2331 76.1961 21.1875L76.2109 22.1375L76.206 22.15ZM85.96 20.035C85.5749 20.355 85.1365 20.599 84.6432 20.77C84.1499 20.941 83.5826 21.02 82.9417 21.02C79.9921 21.02 78.5177 19.7865 78.5177 17.32C78.5177 16.1715 78.895 15.2725 79.6499 14.623C80.4049 13.9735 81.4669 13.649 82.8386 13.649C84.2196 13.649 85.2678 13.9765 85.9828 14.6305C86.6977 15.2845 87.0557 16.1615 87.0557 17.2605C87.0557 18.459 86.6903 19.383 85.9605 20.032L85.96 20.035ZM88.4663 12.9645H87.0562L87.0414 14.5395C86.4192 13.8995 85.9749 13.496 85.7082 13.326C84.9182 12.886 83.8972 12.667 82.6435 12.667C80.8078 12.667 79.4055 13.092 78.4387 13.941C77.5204 14.721 77.0622 15.8495 77.0622 17.328C77.0622 18.058 77.1782 18.709 77.4103 19.278C77.6423 19.847 77.981 20.3395 78.4259 20.739C79.3946 21.558 80.7638 21.968 82.5339 21.968C84.659 21.968 86.1664 21.3795 87.0567 20.202V21.832C87.0567 22.872 86.7333 23.676 86.0869 24.246C85.4406 24.816 84.3771 25.096 82.8963 25.096C81.5039 25.096 80.5125 24.896 79.9205 24.514C79.4761 24.2155 79.17 23.698 79.0021 22.9615H77.5505C77.7085 23.99 78.143 24.734 78.8342 25.193C79.644 25.722 81.0067 25.9865 82.9324 25.9865C86.6157 25.9865 88.4624 24.6 88.4624 21.8265V12.9685L88.4663 12.9645ZM96.0948 13.891C95.6701 13.821 95.2761 13.791 94.9117 13.791C92.5936 13.791 91.4347 15.0785 91.4347 17.6525V22.1295H90.0394L90.0246 12.9685L91.4352 12.9825V14.6175H91.5093C91.7463 13.9735 92.1215 13.485 92.6341 13.1525C93.1959 12.8305 94.0343 12.6695 95.1492 12.6695H96.0957V13.8995L96.0948 13.891ZM97.4066 16.97C97.5844 15.929 97.9843 15.123 98.605 14.552C99.0099 14.222 99.469 13.9735 99.9816 13.8085C100.494 13.6435 101.068 13.5605 101.714 13.5605C102.967 13.5605 103.985 13.9085 104.785 14.6045C105.585 15.3005 105.976 16.0895 105.976 16.9695H97.4066V16.97ZM106.113 14.1435C105.619 13.642 105.007 13.2715 104.276 13.0305C103.545 12.7895 102.696 12.6695 101.709 12.6695C99.8818 12.6695 98.4648 13.0995 97.4565 13.9595C96.4483 14.8195 95.9456 15.9895 95.9456 17.4705C95.9456 18.9515 96.4295 20.1205 97.3973 20.9955C98.444 21.9555 99.9154 22.4355 101.825 22.4355C102.586 22.4355 103.288 22.348 103.935 22.174C104.582 22 105.147 21.753 105.631 21.434C106.48 20.8165 107.017 20.054 107.245 19.149H105.72C105.197 20.7155 103.895 21.499 101.813 21.499C100.342 21.499 99.2123 21.116 98.4233 20.35C97.7419 19.6935 97.4022 18.843 97.4022 17.798H107.456C107.456 16.244 107.012 15.0255 106.108 14.148L106.113 14.1435Z" fill="#231F20"/>
<path d="M122.362 18.388C122.362 21.108 120.196 22.468 115.863 22.468C113.267 22.468 111.372 21.9995 110.178 21.068C109.201 20.298 108.713 19.124 108.713 17.544H110.457C110.457 20.083 112.259 21.3525 115.862 21.3525C117.591 21.3525 118.84 21.0925 119.615 20.5735C120.267 20.1145 120.593 19.395 120.593 18.4165C120.593 17.4475 120.148 16.7685 119.259 16.3785C118.756 16.1685 117.531 15.9035 115.571 15.5845C113.112 15.2045 111.518 14.8255 110.788 14.446C109.731 13.886 109.208 12.9375 109.208 11.599C109.208 10.3505 109.652 9.42151 110.556 8.81201C111.523 8.14301 113.182 7.80801 115.532 7.80801C119.778 7.80801 121.901 9.23601 121.901 12.092H120.142C120.142 9.95201 118.565 8.88301 115.413 8.88301C113.831 8.88301 112.675 9.09801 111.943 9.53301C111.251 9.99301 110.907 10.668 110.907 11.558C110.907 12.488 111.351 13.143 112.24 13.523C112.714 13.743 114.106 14.048 116.417 14.438C118.589 14.768 120.056 15.153 120.811 15.588C121.848 16.128 122.367 17.063 122.367 18.388H122.362ZM136.532 19.776C135.88 20.3045 135.144 20.701 134.324 20.966C133.504 21.231 132.584 21.3625 131.567 21.3625C129.491 21.3625 127.814 20.796 126.533 19.6635C125.253 18.531 124.614 17.0215 124.614 15.135C124.614 13.169 125.249 11.637 126.519 10.539C127.788 9.44101 129.471 8.89251 131.566 8.89251C133.691 8.89251 135.361 9.46651 136.577 10.614C137.219 11.174 137.693 11.827 138 12.5755C138.307 13.324 138.459 14.1775 138.459 15.1355C138.459 17.0915 137.816 18.6385 136.531 19.7755L136.532 19.776ZM137.459 20.7015C138.367 20.0525 139.04 19.2665 139.475 18.3425C139.91 17.4185 140.127 16.3525 140.127 15.1435C140.127 12.976 139.416 11.2435 137.994 9.92951C137.234 9.21051 136.315 8.67601 135.239 8.32651C134.163 7.97701 132.933 7.80151 131.551 7.80151C128.865 7.80151 126.761 8.46151 125.231 9.77901C123.7 11.0965 122.935 12.885 122.935 15.1425C122.935 17.3395 123.707 19.1125 125.252 20.4605C126.797 21.8085 128.907 22.483 131.582 22.483C132.629 22.483 133.541 22.4115 134.321 22.268C135.1 22.1245 135.762 21.9045 136.306 21.608L138.882 23.4165L139.958 22.4155L137.463 20.702L137.459 20.7015ZM153.184 22.13H141.262V8.15001L142.901 8.12001V20.9585H153.194L153.18 22.1255L153.184 22.13Z" fill="#367FAF"/>
<path d="M23.8162 19.7834C23.9822 18.5984 23.9323 18.4244 24.9608 18.6164L25.2225 18.6364C26.0134 18.6674 27.0478 18.5274 27.6557 18.2849C28.9641 17.7639 29.7393 16.8939 28.4496 17.1224C25.5068 17.6434 25.3044 16.7874 25.3044 16.7874C28.4116 12.8299 29.7106 7.80588 28.5898 6.57588C25.5261 3.22238 20.238 4.80838 20.1442 4.84988L20.1161 4.85488C19.5345 4.75138 18.8837 4.68988 18.1529 4.67988C16.8213 4.66088 15.8111 4.97988 15.0443 5.47838C15.0443 5.47838 5.60083 2.13838 6.04026 9.67838C6.13408 11.2824 8.71886 21.8149 11.8013 18.6334C12.9281 17.4699 14.0173 16.4864 14.0173 16.4864C14.5853 16.8085 15.2355 16.9509 15.8842 16.8954L15.9365 16.8569C15.9202 17.0019 15.9266 17.1419 15.9577 17.3099C15.1638 18.0714 15.3968 18.2049 13.8089 18.4859C12.2028 18.7699 13.1463 19.2759 13.7625 19.4084C14.5096 19.5684 16.2377 19.7959 17.4054 18.3934L17.359 18.5534C17.6701 18.7674 17.6493 20.0909 17.6938 21.0369C17.7382 21.9829 17.8123 22.8654 18.0364 23.3859C18.2606 23.9064 18.5262 25.2459 20.6128 24.8629C22.3567 24.5419 23.6903 24.0804 23.8123 19.7854" fill="#231F20"/>
<path d="M23.8163 19.7834C23.9822 18.5984 23.9323 18.4244 24.9608 18.6164L25.2225 18.6364C26.0134 18.6674 27.0478 18.5274 27.6557 18.2849C28.9641 17.7639 29.7393 16.8939 28.4496 17.1224C25.5069 17.6434 25.3044 16.7874 25.3044 16.7874C28.4116 12.8299 29.7106 7.80588 28.5898 6.57588C25.5261 3.22238 20.238 4.80838 20.1442 4.84988L20.1161 4.85488C19.5345 4.75138 18.8837 4.68988 18.1529 4.67988C16.8213 4.66088 15.8111 4.97988 15.0443 5.47838C15.0443 5.47838 5.60083 2.13838 6.04026 9.67838C6.13408 11.2824 8.71886 21.8149 11.8013 18.6334C12.9281 17.4699 14.0173 16.4864 14.0173 16.4864C14.5853 16.8085 15.2355 16.9509 15.8842 16.8954L15.9365 16.8569C15.9202 17.0019 15.9266 17.1419 15.9577 17.3099C15.1638 18.0714 15.3968 18.2049 13.8089 18.4859C12.2028 18.7699 13.1463 19.2759 13.7625 19.4084C14.5096 19.5684 16.2377 19.7959 17.4054 18.3934L17.359 18.5534C17.6701 18.7674 17.6493 20.0909 17.6938 21.0369C17.7382 21.9829 17.8123 22.8654 18.0364 23.3859C18.2606 23.9064 18.5262 25.2459 20.6128 24.8629C22.3567 24.5419 23.6903 24.0804 23.8123 19.7854" stroke="#231F20" stroke-width="4.108"/>
<path d="M28.4501 17.1219C25.5073 17.6429 25.3049 16.7869 25.3049 16.7869C28.4121 12.8289 29.7111 7.80488 28.5903 6.57538C25.532 3.22188 20.239 4.80838 20.1452 4.84988L20.1166 4.85488C19.5349 4.75138 18.8842 4.68988 18.1529 4.67988C16.8213 4.66138 15.8111 4.97988 15.0448 5.47838C15.0448 5.47838 5.60083 2.13838 6.04026 9.67838C6.13408 11.2824 8.71836 21.8154 11.8013 18.6334C12.9281 17.4699 14.0168 16.4864 14.0168 16.4864C14.5848 16.8085 15.235 16.9509 15.8837 16.8954L15.9365 16.8569C15.9202 17.0019 15.9276 17.1419 15.9577 17.3099C15.1638 18.0714 15.3968 18.2049 13.8099 18.4859C12.2033 18.7699 13.1473 19.2759 13.7635 19.4084C14.5105 19.5684 16.2387 19.7959 17.4064 18.3934L17.36 18.5534C17.671 18.7674 17.8898 19.9449 17.8537 21.0134C17.8177 22.0819 17.7925 22.8134 18.0379 23.3864C18.2833 23.9594 18.5277 25.2464 20.6153 24.8634C22.3592 24.5424 23.2633 23.7114 23.3887 22.3244C23.4775 21.3384 23.68 21.4844 23.6923 20.6029L23.8543 20.1859C24.0409 18.8494 23.8839 18.4184 24.9583 18.6189L25.22 18.6389C26.011 18.6699 27.0459 18.5299 27.6532 18.2874C28.9616 17.7664 29.7368 16.8964 28.4471 17.1249L28.4501 17.1219Z" fill="#417BA2"/>
<path d="M20.1442 4.81648C19.8169 4.90448 25.4012 3.06448 28.5745 6.54498C29.6953 7.77498 28.3968 12.799 25.2891 16.757M17.5363 17.8885C17.4553 20.375 17.556 22.8795 17.8399 23.4885C18.1238 24.0975 18.7306 25.281 20.8182 24.897C22.5621 24.576 23.1966 23.955 23.4716 22.584C23.6691 21.5755 24.0656 18.774 24.1155 18.2005L17.5363 17.8885ZM15.0339 5.42148C15.0339 5.42148 5.57862 2.10648 6.023 9.64998C6.12175 11.254 8.7011 21.787 11.7851 18.6C12.9118 17.4365 13.9304 16.524 13.9304 16.524L15.0339 5.42148Z" stroke="white" stroke-width="1.369" stroke-linecap="round" stroke-linejoin="round"/>
<path d="M25.2855 16.7565C25.2855 16.7565 25.483 17.6115 28.4307 17.0905C29.7203 16.862 28.9442 17.732 27.6357 18.2535C26.5623 18.681 24.1558 18.7905 24.1168 18.2C24.0156 16.675 25.3832 17.1385 25.2845 16.7565C25.1956 16.4125 24.5834 16.075 24.1785 15.233C23.8255 14.498 19.3348 8.86202 25.4237 9.69902C25.6469 9.65902 23.8353 4.72702 18.136 4.64702C12.4366 4.56702 12.6257 10.662 12.6257 10.662" stroke="white" stroke-width="1.369" stroke-linecap="round" stroke-linejoin="bevel"/>
<path d="M15.9414 17.278C15.1464 18.0395 15.3805 18.173 13.7926 18.454C12.1859 18.739 13.1299 19.244 13.7461 19.3765C14.4932 19.5365 16.2213 19.764 17.389 18.3605C17.7445 17.933 17.3871 17.2505 16.8987 17.0775C16.6627 16.9935 16.3472 16.8885 15.9409 17.2775L15.9414 17.278Z" stroke="white" stroke-width="1.369" stroke-linejoin="round"/>
<path d="M15.8896 17.265C15.8096 16.817 16.061 16.285 16.3306 15.661C16.7354 14.726 17.6696 13.79 16.9231 10.8225C16.3661 8.61102 12.6289 10.3625 12.6274 10.6625C12.6259 10.9625 12.7963 12.1825 12.5647 13.6025C12.2625 15.4565 13.9388 17.024 15.8689 16.864" stroke="white" stroke-width="1.369" stroke-linecap="round" stroke-linejoin="round"/>
<path d="M15.0008 10.6165C14.9841 10.719 15.2196 10.9915 15.5262 11.0285C15.8328 11.0655 16.094 10.8515 16.1113 10.7495C16.1286 10.6475 15.893 10.5345 15.5859 10.4975C15.2788 10.4605 15.0171 10.5145 15.0008 10.6165Z" fill="white" stroke="white" stroke-width="0.456"/>
<path d="M24.3286 10.4081C24.3454 10.5106 24.1103 10.7831 23.8032 10.8201C23.4961 10.8571 23.2344 10.6431 23.2176 10.5401C23.2009 10.4371 23.4364 10.3251 23.743 10.2881C24.0496 10.2511 24.3108 10.3046 24.3281 10.4071L24.3286 10.4081Z" fill="white" stroke="white" stroke-width="0.228"/>
<path d="M25.4237 9.69897C25.4741 10.5025 25.2223 11.049 25.1902 11.905C25.1433 13.148 25.8805 14.57 24.7695 15.995" stroke="white" stroke-width="1.369" stroke-linecap="round" stroke-linejoin="round"/>
</svg>
