<svg width="60" height="60" viewBox="0 0 60 60" fill="none" xmlns="http://www.w3.org/2000/svg">
<rect width="60" height="60" fill="#239EBE"/>
<path d="M16.9668 16.9844H18.959V18.9766H16.9668V16.9844Z" fill="white"/>
<path d="M20.9512 16.9844H22.9434V18.9766H20.9512V16.9844Z" fill="white"/>
<path d="M24.9355 16.9844H26.9277V18.9766H24.9355V16.9844Z" fill="white"/>
<path d="M37.7031 16.9844H43.0156V18.9766H37.7031V16.9844Z" fill="white"/>
<path d="M13 13V47H47V13H13ZM14.9922 14.9922H34.2608L29.5188 20.9688H14.9922V14.9922ZM45.0078 45.0078H14.9922V22.9609H30.4812L36.8039 14.9922H45.0078V45.0078Z" fill="white"/>
<path d="M24.9531 43.0156H43.0156V37.0391H24.9531V43.0156ZM26.9453 39.0312H41.0234V41.0234H26.9453V39.0312Z" fill="white"/>
<path d="M16.9844 43.0156H22.9609V24.9531H16.9844V43.0156ZM18.9766 26.9453H20.9688V41.0234H18.9766V26.9453Z" fill="white"/>
<path d="M32.9219 24.9531H24.9531V35.0469H32.9219V24.9531ZM30.9297 33.0547H26.9453V26.9453H30.9297V33.0547Z" fill="white"/>
<path d="M42.8828 24.9531H34.9141V35.0469H42.8828V24.9531ZM40.8906 33.0547H36.9062V26.9453H40.8906V33.0547Z" fill="white"/>
</svg>
