<svg width="105" height="26" viewBox="0 0 105 26" fill="none" xmlns="http://www.w3.org/2000/svg">
<g clip-path="url(#clip0)">
<path d="M43.4067 13.9991C43.4067 10.7073 42.4305 9.01738 40.478 8.92484C39.7011 8.88959 38.9425 9.00857 38.2046 9.28399C37.6156 9.48669 37.2192 9.68719 37.0106 9.88989V17.7469C38.2596 18.5004 39.3688 18.8507 40.3359 18.7957C42.3824 18.6657 43.4067 17.0683 43.4067 13.9991ZM45.8153 14.1357C45.8153 15.808 45.4074 17.1961 44.587 18.2999C43.6726 19.5492 42.4053 20.1926 40.785 20.2278C39.5636 20.2653 38.3054 19.8973 37.0106 19.1262V26.2671L34.916 25.5488V9.69821C35.2598 9.2928 35.7021 8.94468 36.2383 8.64943C37.485 7.95098 38.9998 7.59184 40.7828 7.57422L40.8125 7.60286C42.4419 7.58303 43.6978 8.2264 44.5801 9.53075C45.4028 10.7271 45.8153 12.2607 45.8153 14.1357Z" fill="#646464"/>
<path d="M58.6159 18.8221C58.6159 21.0651 58.3822 22.6184 57.9147 23.4821C57.4449 24.3458 56.5511 25.0354 55.2311 25.5488C54.1609 25.9542 53.0036 26.1745 51.7615 26.212L51.4154 24.9429C52.6782 24.7776 53.5673 24.6124 54.083 24.4471C55.0982 24.1166 55.7949 23.6099 56.1776 22.9313C56.4847 22.3782 56.6359 21.3229 56.6359 19.7607V19.2363C55.2036 19.8621 53.7025 20.1727 52.1327 20.1727C51.1015 20.1727 50.1917 19.8621 49.4079 19.2363C48.5279 18.5555 48.0879 17.6918 48.0879 16.6452V8.26385L50.1825 7.57422V16.0107C50.1825 16.9118 50.485 17.6059 51.09 18.0928C51.695 18.5797 52.4788 18.8133 53.439 18.7957C54.3992 18.7758 55.4282 18.4189 56.5213 17.7204V7.87828H58.6159V18.8221Z" fill="#646464"/>
<path d="M66.7926 20.1175C66.5428 20.1373 66.3136 20.1461 66.1028 20.1461C64.918 20.1461 63.9944 19.8751 63.3344 19.3309C62.6767 18.7867 62.3467 18.0354 62.3467 17.0769V9.14503H60.9121V7.87813H62.3467V4.51368L64.439 3.79761V7.87813H66.7926V9.14503H64.439V17.0219C64.439 17.7776 64.6499 18.313 65.0715 18.6259C65.4336 18.8836 66.0088 19.0313 66.7926 19.0687V20.1175Z" fill="#646464"/>
<path d="M79.4755 19.9523H77.3809V12.1791C77.3809 11.3881 77.1884 10.7073 76.8056 10.1388C76.3633 9.49545 75.7492 9.17377 74.9608 9.17377C74.0006 9.17377 72.7998 9.6607 71.3583 10.6346V19.9523H69.2637V1.37186L71.3583 0.737305V9.2002C72.6966 8.2638 74.1587 7.7945 75.7469 7.7945C76.8561 7.7945 77.7544 8.15363 78.4419 8.86971C79.1317 9.58578 79.4755 10.4781 79.4755 11.5445V19.9523Z" fill="#646464"/>
<path d="M90.6065 13.6818C90.6065 12.4171 90.3567 11.3727 89.8594 10.5465C89.2681 9.53957 88.3491 9.00857 87.107 8.95349C84.8108 9.08128 83.6649 10.6633 83.6649 13.695C83.6649 15.0853 83.9033 16.2464 84.3845 17.1784C84.9987 18.366 85.9199 18.9521 87.1483 18.9323C89.4537 18.9146 90.6065 17.1652 90.6065 13.6818ZM92.9004 13.695C92.9004 15.4951 92.4215 16.9934 91.4658 18.1898C90.414 19.5294 88.961 20.2014 87.107 20.2014C85.2691 20.2014 83.8368 19.5294 82.8032 18.1898C81.8659 16.9934 81.3984 15.4951 81.3984 13.695C81.3984 12.0029 81.9049 10.5795 82.9178 9.42059C83.988 8.19114 85.3951 7.57422 87.1345 7.57422C88.8739 7.57422 90.2902 8.19114 91.381 9.42059C92.394 10.5795 92.9004 12.0029 92.9004 13.695Z" fill="#646464"/>
<path d="M104.91 19.9524H102.816V11.7385C102.816 10.8373 102.534 10.1345 101.97 9.6277C101.406 9.12314 100.655 8.87857 99.7172 8.89841C98.7226 8.91603 97.7762 9.2289 96.8778 9.83481V19.9524H94.7832V9.58584C95.9886 8.74197 97.0978 8.19114 98.1107 7.93336C99.0664 7.6932 99.9097 7.57422 100.636 7.57422C101.133 7.57422 101.601 7.62049 102.041 7.71303C102.864 7.8959 103.533 8.23521 104.049 8.73316C104.624 9.28398 104.91 9.94498 104.91 10.7183V19.9524Z" fill="#646464"/>
<path d="M14.2267 1.44625C13.149 1.45107 12.1199 1.53943 11.2143 1.69349C8.54663 2.14661 8.06228 3.09501 8.06228 4.84403V7.15396H14.3663V7.92393H8.06228H5.69643C3.8643 7.92393 2.26004 8.98267 1.75824 10.9968C1.17943 13.3054 1.15376 14.746 1.75824 17.1566C2.20636 18.9509 3.27651 20.2294 5.10864 20.2294H7.27612V17.4603C7.27612 15.4598 9.07643 13.6952 11.2143 13.6952H17.511C19.2638 13.6952 20.663 12.3077 20.663 10.6153V4.84403C20.663 3.20149 19.2218 1.96763 17.511 1.69349C16.4281 1.52018 15.3044 1.44144 14.2267 1.44625ZM10.8175 3.30408C11.4687 3.30408 12.0005 3.82369 12.0005 4.46258C12.0005 5.0992 11.4687 5.61401 10.8175 5.61401C10.164 5.61401 9.63462 5.0992 9.63462 4.46258C9.63462 3.82369 10.164 3.30408 10.8175 3.30408Z" fill="url(#paint0_linear)"/>
<path d="M21.4494 7.92407V10.6155C21.4494 12.702 19.6094 14.4583 17.5112 14.4583H11.2145C9.48975 14.4583 8.0625 15.8775 8.0625 17.5382V23.3094C8.0625 24.952 9.5481 25.9181 11.2145 26.3893C13.21 26.9535 15.1236 27.0554 17.5112 26.3893C19.0983 25.9475 20.6632 25.0585 20.6632 23.3094V20.9995H14.3665V20.2295H20.6632H23.8153C25.6474 20.2295 26.3301 19.0009 26.9673 17.1567C27.6254 15.2582 27.5974 13.4324 26.9673 10.9969C26.5145 9.24336 25.6497 7.92407 23.8153 7.92407H21.4494ZM17.908 22.5395C18.5615 22.5395 19.0909 23.0543 19.0909 23.6909C19.0909 24.3298 18.5615 24.8494 17.908 24.8494C17.2568 24.8494 16.725 24.3298 16.725 23.6909C16.725 23.0543 17.2568 22.5395 17.908 22.5395Z" fill="url(#paint1_linear)"/>
</g>
<defs>
<linearGradient id="paint0_linear" x1="1.31445" y1="1.44604" x2="15.3671" y2="13.9012" gradientUnits="userSpaceOnUse">
<stop stop-color="#5A9FD4"/>
<stop offset="1" stop-color="#306998"/>
</linearGradient>
<linearGradient id="paint1_linear" x1="17.7565" y1="23.4967" x2="12.8096" y2="16.2866" gradientUnits="userSpaceOnUse">
<stop stop-color="#FFD43B"/>
<stop offset="1" stop-color="#FFE873"/>
</linearGradient>
<clipPath id="clip0">
<rect width="105" height="26" fill="white"/>
</clipPath>
</defs>
</svg>
