<svg width="135" height="28" viewBox="0 0 135 28" fill="none" xmlns="http://www.w3.org/2000/svg">
<path d="M15.5936 16.6077C17.0972 16.6077 18.3162 15.3887 18.3162 13.8851C18.3162 12.3815 17.0972 11.1626 15.5936 11.1626C14.09 11.1626 12.8711 12.3815 12.8711 13.8851C12.8711 15.3887 14.09 16.6077 15.5936 16.6077Z" fill="#00D8FF"/>
<path fill-rule="evenodd" clip-rule="evenodd" d="M15.5936 8.34961C19.2489 8.34961 22.6447 8.87412 25.205 9.75557C28.2899 10.8176 30.1866 12.4274 30.1866 13.8851C30.1866 15.4041 28.1765 17.1143 24.8637 18.2119C22.3592 19.0416 19.0634 19.4748 15.5936 19.4748C12.036 19.4748 8.66717 19.0682 6.13442 18.2027C2.93003 17.1075 1 15.3752 1 13.8851C1 12.4392 2.81097 10.8419 5.85249 9.78145C8.42242 8.88546 11.902 8.34961 15.5931 8.34961H15.5936Z" stroke="#00D8FF" stroke-width="1.66272"/>
<path fill-rule="evenodd" clip-rule="evenodd" d="M10.7742 11.1334C12.6004 7.96688 14.7511 5.28727 16.7938 3.50963C19.2549 1.36783 21.597 0.529046 22.8596 1.25718C24.1756 2.01603 24.6528 4.61178 23.9487 8.02977C23.4168 10.614 22.1451 13.6853 20.4116 16.6912C18.6343 19.773 16.5992 22.4882 14.5843 24.2494C12.0348 26.4781 9.56985 27.2846 8.27905 26.5402C7.02652 25.8184 6.54754 23.4512 7.14841 20.2866C7.6561 17.6128 8.93018 14.3308 10.7736 11.1333L10.7742 11.1334Z" stroke="#00D8FF" stroke-width="1.66272"/>
<path fill-rule="evenodd" clip-rule="evenodd" d="M10.7789 16.6992C8.94762 13.5363 7.70078 10.3342 7.18034 7.67669C6.55386 4.4748 6.9968 2.02671 8.25835 1.29646C9.57297 0.535388 12.0602 1.41824 14.6697 3.73533C16.6427 5.48714 18.6687 8.1223 20.4072 11.1253C22.1897 14.2042 23.5256 17.3234 24.0452 19.9486C24.7028 23.2706 24.1706 25.8088 22.881 26.5553C21.6297 27.2797 19.3399 26.5128 16.8984 24.4117C14.8354 22.6365 12.6283 19.8936 10.7789 16.6992V16.6992Z" stroke="#00D8FF" stroke-width="1.66272"/>
<path fill-rule="evenodd" clip-rule="evenodd" d="M47.9707 20.8411L44.6337 15.7996C46.3203 15.6507 47.8399 14.4287 47.8399 12.1962C47.8399 9.92457 46.2278 8.4707 43.9663 8.4707H39V20.8317H40.5385V15.9202H43.0036L46.1542 20.8317L47.9707 20.8411ZM43.7822 14.5768H40.5393V9.85094H43.7822C45.2471 9.85094 46.2474 10.8144 46.2474 12.2049C46.2474 13.5953 45.2463 14.5784 43.7822 14.5784V14.5768ZM53.6977 21.0628C55.1625 21.0628 56.3665 20.581 57.2564 19.692L56.589 18.7833C55.884 19.5063 54.8468 19.9136 53.8277 19.9136C51.9007 19.9136 50.714 18.5052 50.6027 16.8195H57.8486V16.467C57.8486 13.7801 56.2545 11.6667 53.5481 11.6667C50.9905 11.6667 49.1379 13.7613 49.1379 16.3557C49.1379 19.1546 51.0469 21.0557 53.6969 21.0557L53.6977 21.0628ZM56.4785 15.7988H50.6035C50.6779 14.428 51.6219 12.8143 53.5316 12.8143C55.5706 12.8143 56.4597 14.464 56.4785 15.7988ZM67.0801 20.8403V14.6872C67.0801 12.519 65.5057 11.6659 63.6147 11.6659C62.1499 11.6659 61.0015 12.1477 60.038 13.1488L60.6866 14.1123C61.4832 13.26 62.3551 12.8707 63.4298 12.8707C64.727 12.8707 65.6913 13.5561 65.6913 14.7609V16.373C64.9683 15.5387 63.9492 15.1494 62.7256 15.1494C61.2059 15.1494 59.5923 16.0949 59.5923 18.0963C59.5923 20.0421 61.2044 21.062 62.7256 21.062C63.9304 21.062 64.9503 20.6359 65.6913 19.8204V20.8388L67.0801 20.8403ZM63.2262 20.0617C61.929 20.0617 61.0203 19.247 61.0203 18.1159C61.0203 16.9667 61.929 16.1513 63.2262 16.1513C64.2085 16.1513 65.1531 16.5218 65.6913 17.2636V18.9501C65.1539 19.6912 64.2085 20.0625 63.2262 20.0625V20.0617ZM73.8012 21.0628C75.432 21.0628 76.3955 20.3954 77.0817 19.5063L76.1551 18.654C75.5621 19.4507 74.8022 19.8212 73.8834 19.8212C71.9744 19.8212 70.7892 18.3384 70.7892 16.3557C70.7892 14.3731 71.9752 12.9091 73.8834 12.9091C74.8101 12.9091 75.5699 13.2616 76.1551 14.0762L77.0817 13.224C76.3963 12.3341 75.432 11.6675 73.8012 11.6675C71.1323 11.6675 69.3346 13.7065 69.3346 16.3565C69.3346 19.0253 71.1323 21.0565 73.8012 21.0565V21.0628ZM81.2898 21.0628C82.1045 21.0628 82.6058 20.8215 82.9583 20.4886L82.551 19.4507C82.3653 19.6544 82.0026 19.8212 81.6055 19.8212C80.9945 19.8212 80.6968 19.3395 80.6968 18.6721V13.112H82.5142V11.8892H80.6968V9.44282H79.3064V11.8892H77.8236V13.1127H79.3064V18.9697C79.3064 20.3045 79.9738 21.0644 81.2898 21.0644V21.0628Z" fill="#00D8FF"/>
<path d="M96.375 21H95.01L89.52 12.675V21H88.155V10.53H89.52L95.01 18.84V10.53H96.375V21ZM98.1919 16.86C98.1919 16.02 98.3619 15.285 98.7019 14.655C99.0419 14.015 99.5069 13.52 100.097 13.17C100.697 12.82 101.362 12.645 102.092 12.645C102.812 12.645 103.437 12.8 103.967 13.11C104.497 13.42 104.892 13.81 105.152 14.28V12.78H106.532V21H105.152V19.47C104.882 19.95 104.477 20.35 103.937 20.67C103.407 20.98 102.787 21.135 102.077 21.135C101.347 21.135 100.687 20.955 100.097 20.595C99.5069 20.235 99.0419 19.73 98.7019 19.08C98.3619 18.43 98.1919 17.69 98.1919 16.86ZM105.152 16.875C105.152 16.255 105.027 15.715 104.777 15.255C104.527 14.795 104.187 14.445 103.757 14.205C103.337 13.955 102.872 13.83 102.362 13.83C101.852 13.83 101.387 13.95 100.967 14.19C100.547 14.43 100.212 14.78 99.9619 15.24C99.7119 15.7 99.5869 16.24 99.5869 16.86C99.5869 17.49 99.7119 18.04 99.9619 18.51C100.212 18.97 100.547 19.325 100.967 19.575C101.387 19.815 101.852 19.935 102.362 19.935C102.872 19.935 103.337 19.815 103.757 19.575C104.187 19.325 104.527 18.97 104.777 18.51C105.027 18.04 105.152 17.495 105.152 16.875ZM110.504 13.905V18.75C110.504 19.15 110.589 19.435 110.759 19.605C110.929 19.765 111.224 19.845 111.644 19.845H112.649V21H111.419C110.659 21 110.089 20.825 109.709 20.475C109.329 20.125 109.139 19.55 109.139 18.75V13.905H108.074V12.78H109.139V10.71H110.504V12.78H112.649V13.905H110.504ZM115.007 11.445C114.747 11.445 114.527 11.355 114.347 11.175C114.167 10.995 114.077 10.775 114.077 10.515C114.077 10.255 114.167 10.035 114.347 9.855C114.527 9.675 114.747 9.585 115.007 9.585C115.257 9.585 115.467 9.675 115.637 9.855C115.817 10.035 115.907 10.255 115.907 10.515C115.907 10.775 115.817 10.995 115.637 11.175C115.467 11.355 115.257 11.445 115.007 11.445ZM115.667 12.78V21H114.302V12.78H115.667ZM121.054 19.74L123.604 12.78H125.059L121.834 21H120.244L117.019 12.78H118.489L121.054 19.74ZM133.902 16.575C133.902 16.835 133.887 17.11 133.857 17.4H127.287C127.337 18.21 127.612 18.845 128.112 19.305C128.622 19.755 129.237 19.98 129.957 19.98C130.547 19.98 131.037 19.845 131.427 19.575C131.827 19.295 132.107 18.925 132.267 18.465H133.737C133.517 19.255 133.077 19.9 132.417 20.4C131.757 20.89 130.937 21.135 129.957 21.135C129.177 21.135 128.477 20.96 127.857 20.61C127.247 20.26 126.767 19.765 126.417 19.125C126.067 18.475 125.892 17.725 125.892 16.875C125.892 16.025 126.062 15.28 126.402 14.64C126.742 14 127.217 13.51 127.827 13.17C128.447 12.82 129.157 12.645 129.957 12.645C130.737 12.645 131.427 12.815 132.027 13.155C132.627 13.495 133.087 13.965 133.407 14.565C133.737 15.155 133.902 15.825 133.902 16.575ZM132.492 16.29C132.492 15.77 132.377 15.325 132.147 14.955C131.917 14.575 131.602 14.29 131.202 14.1C130.812 13.9 130.377 13.8 129.897 13.8C129.207 13.8 128.617 14.02 128.127 14.46C127.647 14.9 127.372 15.51 127.302 16.29H132.492Z" fill="#00D8FF"/>
</svg>
