<svg width="83" height="29" viewBox="0 0 83 29" fill="none" xmlns="http://www.w3.org/2000/svg">
<path d="M15.5936 17.1975C17.0972 17.1975 18.3162 15.9786 18.3162 14.475C18.3162 12.9714 17.0972 11.7524 15.5936 11.7524C14.09 11.7524 12.8711 12.9714 12.8711 14.475C12.8711 15.9786 14.09 17.1975 15.5936 17.1975Z" fill="#00D8FF"/>
<path fill-rule="evenodd" clip-rule="evenodd" d="M15.5936 8.93945C19.2489 8.93945 22.6447 9.46397 25.205 10.3454C28.2899 11.4075 30.1866 13.0173 30.1866 14.4749C30.1866 15.9939 28.1765 17.7041 24.8637 18.8017C22.3592 19.6315 19.0634 20.0647 15.5936 20.0647C12.036 20.0647 8.66717 19.6581 6.13442 18.7926C2.93003 17.6973 1 15.965 1 14.4749C1 13.0291 2.81097 11.4317 5.85249 10.3713C8.42242 9.47531 11.902 8.93945 15.5931 8.93945H15.5936Z" stroke="#00D8FF" stroke-width="1.66272"/>
<path fill-rule="evenodd" clip-rule="evenodd" d="M10.7742 11.7232C12.6004 8.55672 14.7511 5.87712 16.7938 4.09947C19.2549 1.95768 21.597 1.11889 22.8596 1.84702C24.1756 2.60587 24.6528 5.20163 23.9487 8.61962C23.4168 11.2038 22.1451 14.2751 20.4116 17.281C18.6343 20.3628 16.5992 23.0781 14.5843 24.8392C12.0348 27.0679 9.56985 27.8745 8.27905 27.1301C7.02652 26.4083 6.54754 24.0411 7.14841 20.8765C7.6561 18.2026 8.93018 14.9207 10.7736 11.7232L10.7742 11.7232Z" stroke="#00D8FF" stroke-width="1.66272"/>
<path fill-rule="evenodd" clip-rule="evenodd" d="M10.7789 17.2891C8.94762 14.1262 7.70078 10.924 7.18034 8.26653C6.55386 5.06464 6.9968 2.61655 8.25835 1.88631C9.57297 1.12523 12.0602 2.00809 14.6697 4.32517C16.6427 6.07698 18.6687 8.71214 20.4072 11.7152C22.1897 14.7941 23.5256 17.9133 24.0452 20.5384C24.7028 23.8604 24.1706 26.3986 22.881 27.1452C21.6297 27.8695 19.3399 27.1026 16.8984 25.0015C14.8354 23.2264 12.6283 20.4834 10.7789 17.289V17.2891Z" stroke="#00D8FF" stroke-width="1.66272"/>
<path fill-rule="evenodd" clip-rule="evenodd" d="M47.9707 21.4309L44.6337 16.3894C46.3203 16.2406 47.8399 15.0186 47.8399 12.7861C47.8399 10.5144 46.2278 9.06055 43.9663 9.06055H39V21.4215H40.5385V16.51H43.0036L46.1542 21.4215L47.9707 21.4309ZM43.7822 15.1666H40.5393V10.4408H43.7822C45.2471 10.4408 46.2474 11.4043 46.2474 12.7947C46.2474 14.1851 45.2463 15.1682 43.7822 15.1682V15.1666ZM53.6977 21.6526C55.1625 21.6526 56.3665 21.1709 57.2564 20.2818L56.589 19.3731C55.884 20.0961 54.8468 20.5035 53.8277 20.5035C51.9007 20.5035 50.714 19.095 50.6027 17.4093H57.8486V17.0568C57.8486 14.37 56.2545 12.2565 53.5481 12.2565C50.9905 12.2565 49.1379 14.3512 49.1379 16.9456C49.1379 19.7444 51.0469 21.6456 53.6969 21.6456L53.6977 21.6526ZM56.4785 16.3886H50.6035C50.6779 15.0178 51.6219 13.4041 53.5316 13.4041C55.5706 13.4041 56.4597 15.0538 56.4785 16.3886ZM67.0801 21.4302V15.2771C67.0801 13.1088 65.5057 12.2558 63.6147 12.2558C62.1499 12.2558 61.0015 12.7375 60.038 13.7386L60.6866 14.7021C61.4832 13.8498 62.3551 13.4605 63.4298 13.4605C64.727 13.4605 65.6913 14.1459 65.6913 15.3507V16.9628C64.9683 16.1286 63.9492 15.7392 62.7256 15.7392C61.2059 15.7392 59.5923 16.6847 59.5923 18.6861C59.5923 20.6319 61.2044 21.6518 62.7256 21.6518C63.9304 21.6518 64.9503 21.2257 65.6913 20.4103V21.4286L67.0801 21.4302ZM63.2262 20.6515C61.929 20.6515 61.0203 19.8369 61.0203 18.7057C61.0203 17.5566 61.929 16.7411 63.2262 16.7411C64.2085 16.7411 65.1531 17.1116 65.6913 17.8535V19.54C65.1539 20.281 64.2085 20.6523 63.2262 20.6523V20.6515ZM73.8012 21.6526C75.432 21.6526 76.3955 20.9852 77.0817 20.0961L76.1551 19.2439C75.5621 20.0405 74.8022 20.411 73.8834 20.411C71.9744 20.411 70.7892 18.9282 70.7892 16.9456C70.7892 14.963 71.9752 13.4989 73.8834 13.4989C74.8101 13.4989 75.5699 13.8514 76.1551 14.6661L77.0817 13.8138C76.3963 12.9239 75.432 12.2573 73.8012 12.2573C71.1323 12.2573 69.3346 14.2963 69.3346 16.9464C69.3346 19.6152 71.1323 21.6464 73.8012 21.6464V21.6526ZM81.2898 21.6526C82.1045 21.6526 82.6058 21.4114 82.9583 21.0784L82.551 20.0405C82.3653 20.2442 82.0026 20.411 81.6055 20.411C80.9945 20.411 80.6968 19.9293 80.6968 19.2619V13.7018H82.5142V12.479H80.6968V10.0327H79.3064V12.479H77.8236V13.7026H79.3064V19.5596C79.3064 20.8944 79.9738 21.6542 81.2898 21.6542V21.6526Z" fill="#00D8FF"/>
</svg>
