<svg width="48" height="45" viewBox="0 0 48 45" fill="none" xmlns="http://www.w3.org/2000/svg">
<path fill-rule="evenodd" clip-rule="evenodd" d="M17.8128 35.8182L10.4297 40.0678L17.8128 44.3173V35.8182Z" fill="#213D7A"/>
<path fill-rule="evenodd" clip-rule="evenodd" d="M17.8128 18.8196L10.4297 23.0691L17.8128 27.3186V18.8196Z" fill="#6BC2D1"/>
<path fill-rule="evenodd" clip-rule="evenodd" d="M12.9398 4.24939L5.55664 8.49891L12.9398 12.7484V4.24939Z" fill="#0AA1C7"/>
<path fill-rule="evenodd" clip-rule="evenodd" d="M10.4277 23.0695L17.8109 27.319L10.4277 31.5685V23.0695Z" fill="#0AA1C7"/>
<path fill-rule="evenodd" clip-rule="evenodd" d="M10.4277 31.5688L17.8109 35.8184L10.4277 40.0679V31.5688Z" fill="#0AA1C7"/>
<path fill-rule="evenodd" clip-rule="evenodd" d="M9.21094 13.3557L16.5941 17.6052L9.21094 21.8548V13.3557Z" fill="#213D7A"/>
<path fill-rule="evenodd" clip-rule="evenodd" d="M17.8125 27.319L25.1957 31.5685L17.8125 35.818V27.319Z" fill="#213D7A"/>
<path fill-rule="evenodd" clip-rule="evenodd" d="M17.8125 35.8182L25.1957 40.0678L17.8125 44.3173V35.8182Z" fill="#1775AB"/>
<path fill-rule="evenodd" clip-rule="evenodd" d="M17.8125 18.8196L25.1957 23.0691L17.8125 27.3186V18.8196Z" fill="#0AA1C7"/>
<path fill-rule="evenodd" clip-rule="evenodd" d="M17.8125 10.3202L25.1957 14.5697L17.8125 18.8192V10.3202Z" fill="#1775AB"/>
<path fill-rule="evenodd" clip-rule="evenodd" d="M25.1957 31.5688L17.8125 35.8184L25.1957 40.0679V31.5688Z" fill="#6BC2D1"/>
<path fill-rule="evenodd" clip-rule="evenodd" d="M25.1957 23.0695L17.8125 27.319L25.1957 31.5685V23.0695Z" fill="#6BC2D1"/>
<path fill-rule="evenodd" clip-rule="evenodd" d="M22.7601 0L15.377 4.24952L22.7601 8.49905V0Z" fill="#6BC2D1"/>
<path fill-rule="evenodd" clip-rule="evenodd" d="M3.04395 27.319L10.4271 31.5685L3.04395 35.818V27.319Z" fill="#213D7A"/>
<path fill-rule="evenodd" clip-rule="evenodd" d="M10.4281 31.5688L3.04492 35.8184L10.4281 40.0679V31.5688Z" fill="#6BC2D1"/>
<path fill-rule="evenodd" clip-rule="evenodd" d="M32.5801 35.8182L39.9632 40.0678L32.5801 44.3173V35.8182Z" fill="#213D7A"/>
<path fill-rule="evenodd" clip-rule="evenodd" d="M32.5801 18.8196L39.9632 23.0691L32.5801 27.3186V18.8196Z" fill="#0AA1C7"/>
<path fill-rule="evenodd" clip-rule="evenodd" d="M32.5801 10.3202L39.9632 14.5697L32.5801 18.8192V10.3202Z" fill="#213D7A"/>
<path fill-rule="evenodd" clip-rule="evenodd" d="M39.9652 23.0695L32.582 27.319L39.9652 31.5685V23.0695Z" fill="#6BC2D1"/>
<path fill-rule="evenodd" clip-rule="evenodd" d="M39.9652 14.5702L32.582 18.8197L39.9652 23.0692V14.5702Z" fill="#1775AB"/>
<path fill-rule="evenodd" clip-rule="evenodd" d="M39.9652 31.5688L32.582 35.8184L39.9652 40.0679V31.5688Z" fill="#6BC2D1"/>
<path fill-rule="evenodd" clip-rule="evenodd" d="M32.5804 27.319L25.1973 31.5685L32.5804 35.818V27.319Z" fill="#213D7A"/>
<path fill-rule="evenodd" clip-rule="evenodd" d="M32.5804 35.8182L25.1973 40.0678L32.5804 44.3173V35.8182Z" fill="#1775AB"/>
<path fill-rule="evenodd" clip-rule="evenodd" d="M32.5804 18.8196L25.1973 23.0691L32.5804 27.3186V18.8196Z" fill="#6BC2D1"/>
<path fill-rule="evenodd" clip-rule="evenodd" d="M32.5804 10.3202L25.1973 14.5697L32.5804 18.8192V10.3202Z" fill="#6BC2D1"/>
<path fill-rule="evenodd" clip-rule="evenodd" d="M25.1973 31.5688L32.5804 35.8184L25.1973 40.0679V31.5688Z" fill="#0AA1C7"/>
<path fill-rule="evenodd" clip-rule="evenodd" d="M25.1973 23.0695L32.5804 27.319L25.1973 31.5685V23.0695Z" fill="#0AA1C7"/>
<path fill-rule="evenodd" clip-rule="evenodd" d="M25.1973 4.24939L32.5804 8.49891L25.1973 12.7484V4.24939Z" fill="#0AA1C7"/>
<path fill-rule="evenodd" clip-rule="evenodd" d="M47.349 27.319L39.9658 31.5685L47.349 35.818V27.319Z" fill="#1775AB"/>
<path fill-rule="evenodd" clip-rule="evenodd" d="M39.9648 31.5688L47.348 35.8184L39.9648 40.0679V31.5688Z" fill="#0AA1C7"/>
<path fill-rule="evenodd" clip-rule="evenodd" d="M39.9648 23.0695L47.348 27.319L39.9648 31.5685V23.0695Z" fill="#213D7A"/>
<path fill-rule="evenodd" clip-rule="evenodd" d="M7.38316 18.8196L0 23.0691L7.38316 27.3186V18.8196Z" fill="#1775AB"/>
</svg>
