<svg width="60" height="60" viewBox="0 0 60 60" fill="none" xmlns="http://www.w3.org/2000/svg">
<rect width="60" height="60" fill="#239EBE"/>
<path d="M40.2671 22.5593C39.8267 18.3179 36.231 15 31.875 15C29.0608 15 26.4387 16.4331 24.8787 18.7817C24.7073 18.7603 24.541 18.75 24.375 18.75C22.0315 18.75 20.1201 20.4436 19.7097 22.5552C16.4924 22.9744 14 25.7329 14 29.0625C14 32.6812 16.9438 35.625 20.5625 35.625H22.5V35.48L23.4624 36.0356C23.4458 36.217 23.4375 36.3918 23.4375 36.5625C23.4375 36.7332 23.4458 36.9082 23.4624 37.0894L21.2866 38.3457L24.0991 43.217L26.2961 41.9485C26.5803 42.1448 26.8779 42.3176 27.1875 42.4658V45H32.8125V42.4658C33.1221 42.3176 33.4197 42.1448 33.7036 41.9485L35.9009 43.217L38.7134 38.3455L36.5376 37.0894C36.5542 36.9082 36.5625 36.7332 36.5625 36.5625C36.5625 36.3918 36.5542 36.217 36.5376 36.0356L37.5 35.48V35.625H39.375C43.0281 35.625 46 32.6812 46 29.0625C46 25.7437 43.4998 22.9922 40.2671 22.5593ZM34.6875 36.5625C34.6875 37.1084 34.5647 37.5554 34.4792 38.0662L36.1521 39.032L35.2146 40.6555L33.5254 39.6804C33.1797 39.9431 32.6392 40.5745 31.5603 40.959L30.9375 41.1809V43.125H29.0625V41.1809L28.4397 40.9587C27.3582 40.5732 26.8171 39.9404 26.4746 39.6804L24.7854 40.6555L23.8479 39.032L25.5208 38.0662C25.4355 37.5569 25.3125 37.1089 25.3125 36.5625C25.3125 36.0166 25.4353 35.5696 25.5208 35.0588L23.8479 34.093L24.7854 32.4695L26.4746 33.4446C26.8203 33.1819 27.3608 32.5505 28.4397 32.166L29.0625 31.9441V30H30.9375V31.9441L31.5601 32.166C32.6375 32.55 33.1741 33.1777 33.5254 33.4446L35.2146 32.4695L36.1521 34.093L34.479 35.0588C34.5645 35.5681 34.6875 36.0161 34.6875 36.5625ZM39.375 33.75H38.1189L35.9009 29.908L33.7036 31.1765C33.4197 30.9802 33.1221 30.8074 32.8125 30.6592V28.125H27.1875V30.6592C26.8779 30.8074 26.5803 30.9802 26.2964 31.1765L24.0991 29.908L21.8811 33.75H20.5625C17.9778 33.75 15.875 31.6472 15.875 29.0625C15.875 26.4778 17.9778 24.375 20.5625 24.375H21.5V23.4375C21.5 21.9128 22.8167 20.625 24.375 20.625C24.8376 20.625 25.2305 20.7822 25.8042 20.9229L26.1589 20.2825C27.3228 18.1807 29.5132 16.875 31.875 16.875C35.4937 16.875 38.4375 19.8188 38.4375 23.4375V24.375H39.375C41.9941 24.375 44.125 26.4778 44.125 29.0625C44.125 31.6472 41.9941 33.75 39.375 33.75Z" fill="white"/>
</svg>
