<svg width="210" height="32" viewBox="0 0 210 32" fill="none" xmlns="http://www.w3.org/2000/svg">
<g clip-path="url(#clip0)">
<path d="M41.2852 20.3259L45.5838 19.902C45.7196 21.1234 46.2762 22.258 47.1569 23.1085C48.0645 23.831 49.2029 24.1947 50.3579 24.1312C51.505 24.2133 52.6444 23.8872 53.5773 23.2098C53.9068 22.9618 54.1754 22.641 54.3625 22.272C54.5496 21.903 54.6502 21.4957 54.6565 21.0814C54.6727 20.5973 54.5097 20.1245 54.1992 19.7546C53.7599 19.3146 53.2147 18.9971 52.617 18.8332C52.0957 18.6489 50.9158 18.3357 49.0775 17.9118C47.2666 17.558 45.561 16.7887 44.093 15.6636C43.018 14.754 42.3116 13.4786 42.1076 12.0793C41.9037 10.68 42.2163 9.25394 42.9863 8.07134C43.6569 7.0665 44.6133 6.28927 45.7301 5.84157C47.0977 5.29926 48.5594 5.0392 50.0287 5.07681C52.7847 5.07681 54.8547 5.69107 56.2388 6.9196C56.9268 7.52623 57.4779 8.2743 57.855 9.11346C58.232 9.95263 58.4263 10.8634 58.4247 11.7846L54.0346 11.978C53.9445 11.0375 53.511 10.1641 52.8182 9.52714C51.991 8.97845 51.0075 8.71941 50.0195 8.79003C48.9559 8.72914 47.9002 9.00631 47.0014 9.58242C46.7799 9.73416 46.5995 9.93919 46.4765 10.1789C46.3535 10.4186 46.2919 10.6855 46.2971 10.9553C46.2985 11.2138 46.3586 11.4686 46.4727 11.7002C46.5868 11.9318 46.752 12.134 46.9556 12.2913C48.2073 13.0311 49.5841 13.5309 51.0164 13.7656C52.6634 14.0924 54.266 14.6151 55.7906 15.3227C56.7823 15.8379 57.6191 16.611 58.2143 17.5617C58.8393 18.626 59.1561 19.8452 59.1289 21.0814C59.1295 22.3406 58.7673 23.5729 58.0863 24.6288C57.3767 25.7359 56.3449 26.5951 55.1321 27.0889C53.611 27.6673 51.9922 27.9396 50.3671 27.8905C47.6233 27.8905 45.474 27.2455 43.9649 25.9556C42.3848 24.4971 41.4248 22.4803 41.2852 20.3259Z" fill="white"/>
<path d="M62.8057 27.5035V5.45459H67.2323V14.1249H75.9118V5.45459H80.3019V27.5035H75.9118V17.8565H67.2323V27.5035H62.8057Z" fill="white"/>
<path d="M104.612 27.5035H99.801L97.862 22.4912H89.146L87.3168 27.5035H82.6523L91.1764 5.45459H95.8499L104.612 27.5035ZM96.4719 18.7779L93.4537 10.596L90.5453 18.7779H96.4719Z" fill="white"/>
<path d="M107.008 27.5037V5.4548H116.3C118.022 5.37262 119.745 5.57176 121.404 6.04449C122.462 6.44039 123.358 7.18359 123.946 8.15448C124.593 9.1943 124.927 10.401 124.906 11.6281C124.961 13.1322 124.441 14.6 123.452 15.7283C122.296 16.9038 120.763 17.6257 119.126 17.7646C120 18.2608 120.798 18.8815 121.495 19.6074C122.433 20.7282 123.274 21.9272 124.01 23.1916L126.681 27.4945H121.394L118.202 22.6941C117.495 21.564 116.716 20.4806 115.87 19.4508C115.506 19.0432 115.052 18.7276 114.544 18.5294C113.819 18.3399 113.07 18.2592 112.322 18.2898H111.407V27.5037H107.008ZM111.389 14.7424H114.654C115.983 14.8123 117.316 14.7195 118.623 14.466C119.129 14.3081 119.567 13.9836 119.867 13.5446C120.182 13.0513 120.338 12.4722 120.315 11.8861C120.331 11.2497 120.12 10.6287 119.721 10.1355C119.282 9.66237 118.693 9.35913 118.056 9.27858C117.699 9.2233 116.629 9.19565 114.837 9.19565H111.389V14.7424Z" fill="white"/>
<path d="M129.031 27.5035V5.45459H145.256V9.14016H133.449V14.0328H144.424V17.7183H133.449V23.7166H145.677V27.4022L129.031 27.5035Z" fill="white"/>
<path d="M149.454 27.5035V5.45459H164.453V9.14016H153.872V14.3645H163.018V18.05H153.872V27.5035H149.454Z" fill="white"/>
<path d="M167.206 16.5852C167.146 14.6503 167.486 12.7239 168.203 10.9278C168.699 9.80631 169.39 8.78291 170.242 7.90565C171.04 7.05542 172.002 6.37819 173.068 5.91544C174.568 5.31065 176.173 5.0161 177.788 5.04933C179.215 4.98141 180.641 5.2152 181.974 5.73569C183.306 6.25618 184.516 7.05183 185.525 8.0715C187.446 10.1109 188.406 12.9211 188.406 16.5023C188.406 20.0834 187.455 22.8752 185.553 24.8777C183.436 26.8039 180.686 27.8703 177.833 27.8703C174.981 27.8703 172.231 26.8039 170.114 24.8777C168.175 22.8752 167.206 20.111 167.206 16.5852ZM171.779 16.4285C171.779 18.9286 172.349 20.8236 173.489 22.1135C174.032 22.737 174.704 23.2327 175.458 23.5654C176.212 23.8982 177.029 24.06 177.852 24.0393C178.668 24.0589 179.478 23.8964 180.224 23.5635C180.971 23.2306 181.635 22.7354 182.169 22.1135C183.278 20.885 183.833 18.9808 183.833 16.4009C183.833 13.821 183.284 11.9352 182.187 10.7435C181.616 10.1503 180.933 9.67864 180.179 9.35652C179.424 9.0344 178.612 8.86841 177.792 8.86841C176.972 8.86841 176.161 9.0344 175.406 9.35652C174.651 9.67864 173.968 10.1503 173.398 10.7435C172.309 12.0243 171.761 13.9224 171.761 16.4562L171.779 16.4285Z" fill="white"/>
<path d="M189.659 27.5035L197.131 15.9953L190.354 5.45459H195.522L199.912 12.5309L204.21 5.45459H209.332L202.528 16.1612L210 27.5035H204.677L199.82 19.8744L194.955 27.5035H189.659Z" fill="white"/>
<path d="M31.4438 10.0156C31.3341 9.73302 31.2152 9.4566 31.0871 9.18633L30.9957 9.35217L29.0476 12.7521C29.3205 13.8144 29.4588 14.9073 29.4592 16.0046C29.4609 16.4232 29.4395 16.8416 29.3951 17.2577C29.1636 19.6568 28.2657 21.9415 26.8045 23.8501C25.3432 25.7586 23.3777 27.2137 21.1332 28.0485C18.8887 28.8834 16.4562 29.0641 14.1144 28.5701C11.7726 28.0761 9.61645 26.9273 7.89302 25.2554C8.34359 24.601 8.60713 23.8345 8.65489 23.0395C8.70265 22.2445 8.53279 21.4516 8.16385 20.7472C7.79491 20.0428 7.24105 19.454 6.56269 19.045C5.88432 18.636 5.1075 18.4226 4.31696 18.4279H4.20721C3.60066 15.264 4.19674 11.986 5.87718 9.24423C7.55763 6.50242 10.1997 4.49712 13.2792 3.62613C16.3587 2.75514 19.6507 3.08209 22.5021 4.54213C25.3535 6.00217 27.556 8.48863 28.6726 11.5082L30.5841 8.17279C28.706 4.82206 25.6911 2.26626 22.0931 0.974611C18.495 -0.317042 14.5553 -0.257865 10.997 1.14128C7.43882 2.54042 4.50095 5.18563 2.72279 8.59128C0.944638 11.9969 0.445526 15.9345 1.31709 19.681C0.897724 20.0856 0.564644 20.572 0.3382 21.1107C0.111756 21.6493 -0.00329656 22.2288 7.18808e-05 22.8137C-0.00113081 23.3856 0.109641 23.9521 0.326046 24.4808C0.542452 25.0096 0.86024 25.4901 1.26122 25.8949C1.6622 26.2997 2.1385 26.6209 2.66284 26.84C3.18719 27.0591 3.74928 27.1719 4.31696 27.1719C4.62478 27.1668 4.93125 27.1297 5.23155 27.0614C7.34761 29.2987 10.062 30.8701 13.0462 31.5856C16.0304 32.301 19.1564 32.1297 22.046 31.0924C24.9355 30.0551 27.4647 28.1963 29.3274 25.7409C31.1901 23.2856 32.3065 20.339 32.5413 17.2577C32.5413 16.8431 32.5962 16.4285 32.5962 16.0046C32.5966 13.9523 32.2053 11.9191 31.4438 10.0156Z" fill="white"/>
<path d="M35.6695 17.0918H26.5967L29.1393 12.5862L31.0873 9.18628L31.5355 9.84968L35.6695 17.0918Z" fill="white"/>
</g>
<defs>
<clipPath id="clip0">
<rect width="210" height="32" fill="white"/>
</clipPath>
</defs>
</svg>
