<svg width="208" height="54" viewBox="0 0 208 54" fill="none" xmlns="http://www.w3.org/2000/svg">
<path d="M88.7121 37.1243H0V43.154H88.7121V37.1243Z" fill="white"/>
<path d="M207.607 37.1243H118.895V43.154H207.607V37.1243Z" fill="white"/>
<path d="M90.2959 30.7712V48.172L103.259 53.4801V36.0794" fill="#D7D9D9"/>
<path d="M117.841 30.7712V48.172L104.878 53.4801V36.0794" fill="#9D9EA1"/>
<path d="M31.3183 28.0509C31.4816 28.2071 31.6729 28.3309 31.8823 28.4159C32.2131 28.5402 32.5662 28.5939 32.919 28.5735C33.2871 28.5771 33.6536 28.5239 34.0055 28.4159C34.3255 28.3268 34.6245 28.1745 34.8847 27.968C35.1317 27.7683 35.335 27.5198 35.4818 27.2381C35.6175 26.9333 35.68 26.601 35.6643 26.2677C35.6796 25.8185 35.5189 25.3811 35.2164 25.0485C34.8984 24.7003 34.5259 24.4062 34.1133 24.1777C33.6655 23.9205 33.1844 23.6717 32.6619 23.4312C32.1527 23.2069 31.6689 22.9288 31.2188 22.6018C30.7801 22.2698 30.4038 21.8626 30.1074 21.3992C29.8501 20.9242 29.7018 20.398 29.6731 19.8586C29.6444 19.3192 29.7361 18.7802 29.9415 18.2807C30.1122 17.8855 30.377 17.5381 30.7128 17.2688C31.0692 16.9622 31.4839 16.7308 31.932 16.5887C32.4301 16.4273 32.9512 16.3488 33.4747 16.3565C34.156 16.351 34.8363 16.4093 35.5067 16.5306C36.0048 16.6098 36.4901 16.7548 36.9499 16.9619C36.9499 17.1693 36.9499 17.4015 36.9499 17.6752C36.9499 17.9489 36.8835 18.2309 36.8338 18.5046C36.784 18.7783 36.7508 19.0769 36.7011 19.334C36.6513 19.5911 36.6015 19.8482 36.5518 20.0556H36.0873L35.3574 17.5674C35.0906 17.4627 34.8121 17.3903 34.528 17.3517C34.1737 17.3004 33.8161 17.2754 33.4581 17.2771C32.9066 17.2516 32.3664 17.4386 31.9486 17.7996C31.7563 17.9854 31.6063 18.2105 31.509 18.4596C31.4117 18.7087 31.3692 18.9758 31.3846 19.2428C31.371 19.7017 31.531 20.1489 31.8325 20.4951C32.1553 20.8564 32.5332 21.1643 32.9522 21.4075C33.4084 21.6729 33.8894 21.93 34.4119 22.1788C34.9187 22.413 35.4043 22.6905 35.8634 23.0082C36.3058 23.3246 36.6879 23.7179 36.9913 24.1694C37.3008 24.6661 37.4567 25.2432 37.4392 25.8282C37.4463 26.3413 37.3445 26.8501 37.1406 27.3211C36.9531 27.7598 36.6697 28.1509 36.3112 28.4656C35.9067 28.7981 35.438 29.0437 34.9344 29.1872C34.3321 29.3682 33.7054 29.455 33.0766 29.4443C32.384 29.4537 31.6938 29.3615 31.028 29.1706C30.5654 29.0561 30.1272 28.8594 29.7341 28.59C29.7341 28.3827 29.7341 28.1339 29.8005 27.8436C29.8668 27.5533 29.8668 27.2547 29.9083 26.9478C29.9498 26.641 29.9913 26.3341 30.041 26.0438C30.0908 25.7535 30.1405 25.5047 30.1903 25.2973H30.6631L31.3183 28.0509Z" fill="white"/>
<path d="M48.6933 29.3032H44.7869V28.847C45.1368 28.6655 45.5034 28.5183 45.8817 28.4074V24.1609C45.9166 23.3969 45.7805 22.6347 45.4836 21.9299C45.3533 21.6597 45.1439 21.4356 44.8831 21.2875C44.6223 21.1393 44.3226 21.0741 44.0238 21.1005C43.7388 21.0972 43.4563 21.1537 43.1944 21.2664C42.9448 21.3821 42.713 21.5329 42.506 21.7142C42.2991 21.8949 42.1227 22.1077 41.9835 22.3446C41.8394 22.5712 41.7278 22.8169 41.6518 23.0744V28.3826L42.2075 28.5484C42.3924 28.6116 42.566 28.704 42.7217 28.8221V29.2783H38.7655V28.8221C39.1478 28.6292 39.5514 28.4817 39.9681 28.3826V16.9037L38.583 16.7627V16.29C38.9808 16.1287 39.3914 16.0011 39.8105 15.9085C40.275 15.7924 40.7228 15.7011 41.1458 15.6348H41.602V22.046C41.854 21.4843 42.2314 20.9878 42.7051 20.5945C43.1922 20.1933 43.8077 19.9813 44.4385 19.9974C44.8782 19.9924 45.3164 20.0482 45.7407 20.1633C46.1101 20.274 46.4407 20.4867 46.6945 20.777C46.9753 21.117 47.174 21.5172 47.2751 21.9465C47.4215 22.5573 47.4885 23.1846 47.4741 23.8126V28.4074L48.0962 28.5733C48.3034 28.632 48.4996 28.7245 48.6767 28.847L48.6933 29.3032Z" fill="white"/>
<path d="M57.1125 28.0259C57.0036 28.2498 56.8481 28.4478 56.6563 28.6065C56.4399 28.7942 56.2002 28.9531 55.943 29.0793C55.6794 29.2174 55.4012 29.3259 55.1136 29.4027C54.7986 29.4789 54.4757 29.5179 54.1515 29.5188C53.5056 29.5321 52.8633 29.4194 52.2605 29.1871C51.7197 28.9775 51.2384 28.6387 50.8588 28.2001C50.4833 27.7643 50.2011 27.2562 50.0294 26.7072C49.8398 26.0753 49.7502 25.4177 49.764 24.7581C49.6737 23.4863 50.0545 22.2257 50.8339 21.2166C51.2182 20.8015 51.6898 20.4768 52.2148 20.266C52.7397 20.0551 53.3049 19.9634 53.8695 19.9974C54.2924 19.9984 54.7134 20.0542 55.1219 20.1633C55.5276 20.2739 55.9041 20.4721 56.225 20.7438C56.5653 21.031 56.8325 21.3949 57.0046 21.8055C57.2214 22.3308 57.3232 22.8964 57.3032 23.4643C57.3032 23.6716 57.3032 23.879 57.3032 24.0946C57.284 24.3231 57.2507 24.5502 57.2037 24.7747H51.4892C51.487 25.2567 51.5512 25.7368 51.6799 26.2013C51.7975 26.6228 51.9915 27.0192 52.2522 27.3707C52.5111 27.6999 52.8434 27.9641 53.2226 28.142C53.6479 28.3405 54.1137 28.4371 54.5828 28.424C55.0224 28.4099 55.4579 28.3346 55.8767 28.2001C56.2355 28.1216 56.5708 27.9596 56.8554 27.7273L57.1125 28.0259ZM53.7949 20.7936C53.4957 20.7759 53.1967 20.8299 52.9226 20.9511C52.6485 21.0723 52.4073 21.2571 52.219 21.4903C51.7715 22.2418 51.5444 23.104 51.5638 23.9785H55.5698C55.5698 23.8707 55.5698 23.7711 55.5698 23.6633C55.5698 23.5555 55.5698 23.4643 55.5698 23.3647C55.603 22.7173 55.4536 22.0735 55.1385 21.5069C54.9964 21.2772 54.7952 21.0898 54.5559 20.9643C54.3166 20.8389 54.0481 20.7799 53.7783 20.7936H53.7949Z" fill="white"/>
<path d="M68.5078 29.3032H64.5765V28.847C64.9257 28.6641 65.2925 28.5169 65.6713 28.4074V24.1609C65.7061 23.3969 65.5701 22.6347 65.2731 21.9299C65.142 21.6605 64.9323 21.4371 64.6718 21.289C64.4112 21.141 64.112 21.0753 63.8134 21.1005C63.5284 21.0972 63.2459 21.1537 62.984 21.2664C62.7344 21.3821 62.5026 21.5329 62.2956 21.7142C62.0883 21.8968 61.9094 22.1092 61.7648 22.3446C61.6266 22.5732 61.518 22.8185 61.4413 23.0744V28.3826L61.997 28.5484C62.182 28.6116 62.3556 28.704 62.5113 28.8221V29.2783H58.5799V28.8221C58.9611 28.6266 59.3651 28.4789 59.7825 28.3826V16.9037L58.3975 16.7627V16.29C58.7949 16.1278 59.2056 16.0001 59.625 15.9085C60.0894 15.7924 60.5373 15.7011 60.9603 15.6348H61.4165V22.046C61.6685 21.4843 62.0458 20.9878 62.5195 20.5945C63.0059 20.192 63.6219 19.9797 64.253 19.9974C64.6926 19.993 65.1307 20.0488 65.5551 20.1633C65.9245 20.274 66.2551 20.4867 66.5089 20.777C66.7868 21.1189 66.9852 21.5184 67.0895 21.9465C67.236 22.5573 67.3029 23.1846 67.2886 23.8126V28.4074L67.9023 28.5733C68.1122 28.6319 68.3111 28.7243 68.4912 28.847L68.5078 29.3032Z" fill="white"/>
<path d="M70.2159 25.7121C70.2159 24.949 70.2159 24.2026 70.2657 23.4644C70.3154 22.7263 70.3237 22.0047 70.3237 21.2748L69.1211 21.1338V20.6528C69.5121 20.5045 69.9108 20.3771 70.3154 20.2713C70.7054 20.1583 71.1014 20.0669 71.5015 19.9976H71.9576C71.9576 20.9016 71.9576 21.8056 71.8996 22.7014C71.8415 23.5971 71.8498 24.4929 71.8498 25.372C71.8452 25.7993 71.8729 26.2263 71.9327 26.6493C71.9706 26.9796 72.069 27.3002 72.223 27.5948C72.3578 27.8387 72.5554 28.0421 72.7953 28.1837C73.1698 28.3694 73.5933 28.4325 74.0056 28.364C74.418 28.2955 74.7984 28.0989 75.0927 27.8022C75.4779 27.3574 75.761 26.8336 75.9221 26.2678V21.2914L74.7444 21.1504V20.6528C75.1261 20.5021 75.5167 20.3747 75.9138 20.2713C76.3148 20.1574 76.7219 20.066 77.1331 19.9976H77.5809V28.2915L78.7835 28.4325V28.814C78.4352 28.9716 78.0786 29.1126 77.7219 29.237C77.3559 29.3554 76.9816 29.4469 76.6022 29.5107H76.1461L76.0217 27.346H75.947C75.8817 27.6176 75.7754 27.8777 75.6319 28.1173C75.4734 28.3815 75.2747 28.6194 75.043 28.8223C74.7951 29.0383 74.5154 29.2145 74.2136 29.3448C73.8935 29.48 73.5491 29.5477 73.2017 29.5439C72.7696 29.5512 72.3389 29.4924 71.9245 29.3697C71.5615 29.2597 71.2367 29.0499 70.9872 28.7643C70.7048 28.4222 70.506 28.0189 70.4067 27.5865C70.262 26.9726 70.1979 26.3425 70.2159 25.7121Z" fill="white"/>
<path d="M108.311 28.8223L107.249 28.1339C106.749 27.7976 106.283 27.4143 105.856 26.9893C105.648 27.2602 105.415 27.5102 105.159 27.7358C104.856 27.999 104.521 28.2246 104.164 28.4076C103.761 28.6166 103.335 28.778 102.895 28.8886C102.398 29.0085 101.888 29.067 101.377 29.0628C100.725 29.0744 100.075 28.9676 99.4611 28.7476C98.9263 28.5664 98.4309 28.2849 98.0014 27.9182C97.5977 27.5651 97.2703 27.1333 97.0393 26.6493C96.823 26.1929 96.7097 25.6945 96.7075 25.1895C96.6981 24.581 96.8227 23.9779 97.0725 23.4229C97.2854 22.9286 97.5644 22.4655 97.9019 22.0461C98.212 21.674 98.5625 21.3374 98.9469 21.0425C99.3035 20.7688 99.6021 20.5532 99.8426 20.379C99.4424 19.931 99.1124 19.4248 98.864 18.8778C98.6161 18.3797 98.4802 17.8333 98.4659 17.2771C98.4669 16.9382 98.5346 16.6029 98.6649 16.2901C98.8032 15.9767 99.0035 15.6946 99.2538 15.4607C99.5359 15.2054 99.8618 15.003 100.216 14.8635C100.626 14.705 101.062 14.6262 101.501 14.6313C102.252 14.5954 102.994 14.7955 103.625 15.2036C103.895 15.3844 104.113 15.6324 104.259 15.9232C104.404 16.2141 104.472 16.5377 104.454 16.8624C104.459 17.2829 104.38 17.7002 104.222 18.0899C104.083 18.4415 103.899 18.7733 103.674 19.0769C103.429 19.398 103.151 19.6926 102.845 19.956C102.546 20.2297 102.248 20.4703 101.958 20.7025C102.55 21.4327 103.181 22.1304 103.849 22.7926C104.57 23.5141 105.333 24.2357 106.129 24.9573C106.285 24.7211 106.418 24.4712 106.528 24.2108C106.704 23.8179 106.854 23.4133 106.975 22.9999C107.125 22.4972 107.239 21.9844 107.315 21.4655C107.408 20.9177 107.433 20.3607 107.39 19.8067C106.972 19.7181 106.573 19.5552 106.212 19.3257V18.8032H110.31V19.3257C109.902 19.5639 109.456 19.7268 108.991 19.8067C108.792 21.1174 108.441 22.4005 107.946 23.6303C107.747 24.1113 107.556 24.526 107.382 24.8661C107.208 25.2061 107.058 25.4549 106.951 25.6208C107.456 26.0272 107.954 26.4087 108.435 26.7654C108.967 27.1465 109.521 27.4955 110.094 27.8104L111.189 28.2915V28.7891L108.311 28.8223ZM105.176 26.3341C104.778 25.9774 104.346 25.5544 103.865 25.0651C103.384 24.5758 102.936 24.0864 102.497 23.5805C102.057 23.0746 101.667 22.5852 101.278 22.1208C100.888 21.6563 100.614 21.2914 100.398 20.9596C99.8802 21.4327 99.4504 21.9945 99.1294 22.6184C98.86 23.1942 98.7267 23.8241 98.7396 24.4596C98.7336 24.9418 98.8209 25.4206 98.9967 25.8696C99.153 26.2856 99.3865 26.6684 99.6851 26.9976C99.9853 27.3209 100.35 27.578 100.755 27.7523C101.18 27.9301 101.637 28.0204 102.099 28.0178C102.676 28.0176 103.245 27.8782 103.757 27.6114C104.322 27.3152 104.808 26.8887 105.176 26.3673V26.3341ZM100.017 17.2107C100.022 17.4711 100.069 17.7289 100.158 17.9738C100.255 18.2617 100.38 18.5395 100.531 18.8032C100.681 19.07 100.847 19.3276 101.029 19.5745C101.211 19.8233 101.385 20.0473 101.559 20.2463C102.032 19.8642 102.428 19.3973 102.729 18.8695C103.036 18.3049 103.158 17.6578 103.077 17.02C103.065 16.6295 102.925 16.2537 102.679 15.9501C102.535 15.796 102.358 15.6765 102.161 15.6004C101.965 15.5242 101.753 15.4935 101.543 15.5105C101.291 15.5009 101.041 15.5521 100.813 15.6598C100.624 15.7506 100.462 15.8875 100.34 16.0579C100.223 16.2256 100.138 16.4142 100.091 16.6136C100.045 16.8065 100.02 17.004 100.017 17.2024V17.2107Z" fill="#9D9EA1"/>
<path d="M63.2752 7.79692C63.6273 7.84495 63.9708 7.94269 64.2954 8.08721V8.42726H61.293V8.08721C61.4261 8.01987 61.5648 7.96437 61.7077 7.92133C61.8512 7.87005 61.9981 7.82849 62.1472 7.79692V0.780236C61.9731 0.780236 61.8155 0.697296 61.6662 0.647533C61.5169 0.597769 61.3759 0.539711 61.293 0.489947V0.141602H66.8416C66.8416 0.448478 66.8416 0.763648 66.8416 1.08711C66.8416 1.41058 66.7919 1.73404 66.7504 2.0575H66.4435L65.921 0.755354H63.2752V4.14758H65.3819L65.8132 3.40112H66.0952C66.1368 3.75616 66.1534 4.11368 66.1449 4.47104C66.1449 4.82768 66.1449 5.19262 66.0952 5.54926H65.8132L65.3819 4.71986H63.2752V7.79692Z" fill="white"/>
<path d="M70.9794 8.42726H67.9521V8.08721C68.251 7.94374 68.5698 7.84589 68.8977 7.79692V0.780236C68.7428 0.74706 68.5853 0.70559 68.4249 0.655827L67.9521 0.489947V0.141602H70.9794V0.489947C70.8303 0.552868 70.678 0.608232 70.5233 0.655827L70.0339 0.780236V7.79692C70.1998 7.83009 70.3657 7.87156 70.5316 7.92133C70.6865 7.96006 70.8367 8.01569 70.9794 8.08721V8.42726Z" fill="white"/>
<path d="M73.9983 7.79727L74.5208 7.92168C74.684 7.96823 74.8446 8.02361 75.0018 8.08755V8.42761H71.8916V8.08755C72.0514 8.01124 72.218 7.95015 72.3892 7.90509L72.862 7.79727V0.780584C72.68 0.746105 72.5001 0.701806 72.3229 0.64788L71.8916 0.490295V0.141949H72.9366C73.2518 0.141949 73.6002 0.141949 73.9734 0.0921856C74.3466 0.0424219 74.7115 0.0921856 75.0682 0.0921856C75.4341 0.0892 75.7989 0.13098 76.1547 0.216595C76.4693 0.296699 76.7651 0.437578 77.0256 0.631292C77.2733 0.822599 77.4723 1.06987 77.6061 1.35287C77.7488 1.6854 77.8195 2.04439 77.8135 2.4062C77.8309 2.9227 77.6698 3.42943 77.3573 3.84105C77.0375 4.23853 76.6031 4.52807 76.1132 4.67045C76.4533 5.20955 76.8099 5.74037 77.1749 6.27118C77.5398 6.80199 77.9379 7.32451 78.336 7.84703L78.9829 8.18708V8.48566H77.5398L77.1334 8.09585C76.9094 7.82215 76.7104 7.54845 76.5279 7.26645C76.3455 6.98446 76.1796 6.73564 76.022 6.43706C75.8644 6.13848 75.7151 5.88966 75.5741 5.60766C75.4331 5.32567 75.3004 5.03538 75.1594 4.72021H73.9983V7.79727ZM74.8277 0.664468H74.3632C74.2487 0.671693 74.1349 0.688337 74.0231 0.714232V4.23916H74.8525C75.0932 4.25128 75.3336 4.21081 75.5571 4.12057C75.7805 4.03033 75.9816 3.89249 76.1464 3.71664C76.4802 3.34463 76.6532 2.85559 76.6274 2.35643C76.6482 2.11886 76.6132 1.87973 76.5254 1.65801C76.4376 1.4363 76.2993 1.23811 76.1215 1.07917C75.7456 0.78783 75.2778 0.64072 74.8028 0.664468H74.8277Z" fill="white"/>
<path d="M88.9702 8.42726H86.059V8.08721C86.2166 8.02085 86.3741 7.97109 86.5317 7.92133L87.0211 7.79692V2.48879V1.1037H86.9298L86.54 2.37267L84.1099 8.44385H83.803L81.5388 2.35609L81.1158 0.970997H81.008V7.79692L81.4641 7.92133C81.6173 7.96559 81.767 8.02104 81.912 8.08721V8.42726H79.4238V8.08721C79.5747 8.0192 79.7299 7.96102 79.8883 7.91303C80.049 7.86282 80.2124 7.82129 80.3776 7.78862V0.780236C80.2124 0.747574 80.049 0.706045 79.8883 0.655827L79.4072 0.489947V0.141602H81.8622L83.9191 5.54926L84.3173 6.76847L84.7154 5.52438L86.8635 0.141602H88.9867V0.489947L88.5472 0.655827C88.3948 0.706035 88.2397 0.747572 88.0827 0.780236V7.81351L88.5555 7.92133C88.697 7.96798 88.8355 8.02338 88.9702 8.08721V8.42726Z" fill="white"/>
<path d="M95.3054 0.141602C95.3054 0.456772 95.3054 0.771942 95.3054 1.09541C95.3054 1.41887 95.2557 1.73404 95.2142 2.0575H94.9073L94.3765 0.755354H91.7971V3.89047H93.7213L94.1775 3.0196H94.476C94.5258 3.81504 94.5258 4.61282 94.476 5.40826H94.1775L93.7213 4.51251H91.7888V7.83009H94.5507L95.1313 6.41183H95.3801C95.4361 6.74412 95.4748 7.07909 95.4962 7.4154C95.517 7.7579 95.517 8.10135 95.4962 8.44385H89.6904V8.08721C90 7.94892 90.3262 7.85134 90.6608 7.79692V0.780236L90.1798 0.655827L89.6904 0.489947V0.141602H95.3054Z" fill="white"/>
<path d="M99.4526 0.141602H102.696V0.489947L102.132 0.672414C101.943 0.720333 101.752 0.756345 101.559 0.780236V7.81351H104.288L104.985 5.9059H105.333C105.333 6.07178 105.333 6.26254 105.399 6.47818C105.466 6.69382 105.399 6.91776 105.399 7.15828C105.399 7.39881 105.399 7.61445 105.399 7.83839C105.399 8.06232 105.399 8.25309 105.399 8.42726H99.4443V8.08721C99.6105 8.00349 99.7858 7.93947 99.9669 7.89645L100.415 7.79692V0.780236C100.241 0.748535 100.069 0.706998 99.9005 0.655827C99.7458 0.608232 99.5935 0.552868 99.4443 0.489947L99.4526 0.141602Z" fill="white"/>
<path d="M109.206 8.42726H106.162V8.08721C106.461 7.94374 106.78 7.84589 107.108 7.79692V0.780236C106.953 0.74706 106.795 0.70559 106.635 0.655827L106.162 0.489947V0.141602H109.189V0.489947C109.048 0.548005 108.891 0.606063 108.725 0.655827L108.244 0.780236V7.79692C108.41 7.83009 108.576 7.87156 108.742 7.92133C108.896 7.96006 109.047 8.01569 109.189 8.08721L109.206 8.42726Z" fill="white"/>
<path d="M116.986 7.85504C116.815 7.95217 116.638 8.03805 116.456 8.11215C116.247 8.19802 116.034 8.27277 115.817 8.33609C115.596 8.40303 115.372 8.4584 115.145 8.50197C114.935 8.54329 114.721 8.56549 114.506 8.56832C113.926 8.5733 113.348 8.48078 112.798 8.29462C112.311 8.14137 111.867 7.8741 111.504 7.51499C111.13 7.14164 110.846 6.68773 110.675 6.18796C110.47 5.57035 110.372 4.92251 110.384 4.27205C110.368 3.59548 110.483 2.92218 110.724 2.2898C110.922 1.78699 111.228 1.33389 111.62 0.962766C111.984 0.620981 112.421 0.365819 112.897 0.21631C113.378 0.0651677 113.879 -0.00764611 114.382 0.000667354C114.824 -0.00523882 115.265 0.0280677 115.701 0.100195C116.027 0.155224 116.343 0.258658 116.638 0.407071C116.638 0.523186 116.638 0.664183 116.638 0.838356C116.638 1.01253 116.638 1.195 116.597 1.38576C116.555 1.57652 116.597 1.75899 116.538 1.94975C116.48 2.14051 116.497 2.29809 116.472 2.43909H116.165L115.535 0.730535C115.397 0.675834 115.252 0.64498 115.104 0.639302H114.498C114.116 0.627655 113.735 0.692512 113.378 0.830063C113.018 0.974384 112.699 1.20511 112.45 1.50187C112.171 1.84174 111.958 2.22966 111.819 2.64644C111.65 3.18269 111.572 3.74325 111.587 4.30523C111.58 4.81511 111.658 5.3226 111.819 5.80643C111.955 6.22707 112.169 6.61825 112.45 6.95929C112.711 7.27399 113.04 7.52619 113.412 7.69745C113.782 7.87478 114.187 7.96554 114.598 7.96286C114.751 7.96313 114.904 7.94644 115.054 7.9131C115.194 7.8841 115.332 7.84812 115.469 7.80528C115.577 7.76613 115.682 7.71901 115.784 7.66428C115.845 7.63429 115.901 7.59513 115.95 7.54816V5.15121C115.753 5.13691 115.558 5.10075 115.369 5.04339L114.813 4.86092V4.52087H117.716V4.86092C117.627 4.9218 117.533 4.97454 117.434 5.01851C117.289 5.07562 117.139 5.12002 116.986 5.15121V7.85504Z" fill="white"/>
<path d="M118.381 0.141602H121.383V0.489947L120.952 0.655827C120.794 0.70559 120.645 0.74706 120.488 0.780236V7.4154C120.5 7.87625 120.436 8.33596 120.297 8.7756C120.192 9.07719 120.035 9.35794 119.832 9.605C119.666 9.80269 119.464 9.9661 119.235 10.086C119.052 10.1754 118.86 10.2449 118.663 10.2934L118.53 10.1192C118.651 10.0135 118.762 9.89692 118.862 9.77088C118.969 9.61992 119.055 9.45535 119.119 9.28154C119.203 9.04519 119.261 8.8005 119.293 8.55167C119.333 8.20751 119.352 7.86134 119.351 7.51492V0.780236L118.845 0.647533C118.687 0.606308 118.532 0.553641 118.381 0.489947V0.141602Z" fill="white"/>
<path d="M122.576 4.28885C122.574 3.70679 122.66 3.12777 122.833 2.57201C122.992 2.07479 123.246 1.61294 123.58 1.2118C123.894 0.827823 124.295 0.523713 124.749 0.324345C125.25 0.110808 125.789 0.000732422 126.333 0.000732422C126.878 0.000732422 127.417 0.110808 127.918 0.324345C128.372 0.52806 128.774 0.83137 129.095 1.2118C129.424 1.61406 129.672 2.0759 129.825 2.57201C130.002 3.12684 130.089 3.7065 130.082 4.28885C130.088 4.86845 130.002 5.44528 129.825 5.99741C129.672 6.49352 129.424 6.95535 129.095 7.35762C128.778 7.75407 128.375 8.07432 127.918 8.29483C126.903 8.71416 125.764 8.71416 124.749 8.29483C124.292 8.07776 123.891 7.75683 123.58 7.35762C123.249 6.9558 122.998 6.49399 122.842 5.99741C122.666 5.4448 122.577 4.86859 122.576 4.28885ZM123.845 4.28885C123.845 4.76598 123.898 5.24163 124.003 5.70712C124.095 6.12151 124.258 6.51702 124.484 6.87657C124.688 7.21661 124.973 7.50136 125.313 7.70596C125.664 7.9056 126.063 8.00596 126.466 7.99625C126.838 8.00189 127.203 7.90117 127.519 7.70596C127.829 7.493 128.082 7.20846 128.258 6.87657C128.462 6.51119 128.611 6.1169 128.697 5.70712C128.792 5.24037 128.839 4.76517 128.838 4.28885C128.841 3.80928 128.791 3.33084 128.689 2.86229C128.591 2.43651 128.423 2.03004 128.191 1.65967C127.981 1.33477 127.697 1.06464 127.362 0.871745C127.015 0.68798 126.626 0.599271 126.234 0.614633C125.846 0.604555 125.463 0.705254 125.131 0.904921C124.833 1.09438 124.585 1.35338 124.409 1.65967C124.206 2.02316 124.065 2.41861 123.995 2.82912C123.894 3.3092 123.844 3.79841 123.845 4.28885Z" fill="white"/>
<path d="M133.16 7.79727L133.682 7.92168C133.846 7.96823 134.006 8.02361 134.163 8.08755V8.42761H131.045V8.08755C131.205 8.01124 131.371 7.95015 131.543 7.90509L132.015 7.79727V0.780584C131.831 0.746038 131.648 0.701741 131.468 0.64788C131.31 0.598117 131.169 0.540059 131.045 0.490295V0.141949H132.09C132.405 0.141949 132.745 0.141949 133.127 0.0921856C133.508 0.0424219 133.865 0.0921856 134.222 0.0921856C134.587 0.0896929 134.952 0.131466 135.308 0.216595C135.607 0.303419 135.888 0.443936 136.137 0.631292C136.385 0.820732 136.582 1.06867 136.71 1.35287C136.856 1.68421 136.927 2.04404 136.917 2.4062C136.938 2.92318 136.776 3.43105 136.461 3.84105C136.143 4.23713 135.712 4.52654 135.225 4.67045C135.565 5.20955 135.913 5.74037 136.287 6.27118C136.66 6.80199 137.05 7.32451 137.448 7.84703L138.095 8.18708V8.48566H136.652L136.204 8.15391C135.98 7.88021 135.781 7.60651 135.598 7.32451C135.416 7.04252 135.25 6.7937 135.092 6.49512C134.935 6.19653 134.785 5.94772 134.644 5.66572C134.503 5.38373 134.371 5.09344 134.23 4.77827H133.11L133.16 7.79727ZM133.989 0.664468H133.533C133.419 0.671096 133.305 0.687748 133.193 0.714232V4.23916H134.022C134.263 4.25128 134.504 4.21081 134.727 4.12057C134.95 4.03033 135.152 3.89249 135.316 3.71664C135.65 3.34463 135.823 2.85559 135.797 2.35643C135.816 2.11825 135.78 1.8789 135.691 1.65725C135.601 1.43559 135.462 1.2377 135.283 1.07917C134.909 0.78514 134.44 0.637705 133.964 0.664468H133.989Z" fill="white"/>
<path d="M144.199 0.141602C144.199 0.456772 144.199 0.771942 144.157 1.09541C144.116 1.41887 144.107 1.73404 144.074 2.0575H143.759L143.278 0.755354H140.698V3.89047H142.656L143.112 3.0196H143.411C143.46 3.81504 143.46 4.61282 143.411 5.40826H143.112L142.656 4.51251H140.723V7.83009H143.444L144.024 6.41183H144.315C144.364 6.73529 144.406 7.07534 144.431 7.4154C144.452 7.7579 144.452 8.10135 144.431 8.44385H138.625V8.08721C138.934 7.9466 139.26 7.84893 139.595 7.79692V0.780236L139.106 0.655827L138.625 0.489947V0.141602H144.199Z" fill="white"/>
<path d="M128.772 28.5983C129.085 28.6298 129.396 28.6853 129.701 28.7642C129.991 28.8472 130.265 28.9384 130.53 29.0296V29.5604H125.554V29.0296C125.794 28.9167 126.044 28.8251 126.3 28.7559C126.557 28.6979 126.806 28.6398 127.047 28.5983V17.8162C126.782 17.7732 126.521 17.7094 126.267 17.6254C126.025 17.5493 125.787 17.4607 125.554 17.36V16.8375H127.213C127.694 16.8375 128.224 16.8375 128.788 16.7629C129.352 16.6882 129.908 16.6882 130.447 16.6882C131.036 16.6888 131.622 16.7527 132.197 16.879C132.741 16.9908 133.257 17.2108 133.715 17.5259C134.164 17.837 134.532 18.2525 134.785 18.7368C135.076 19.3203 135.216 19.9678 135.191 20.6196C135.212 21.256 135.07 21.8872 134.777 22.4525C134.507 22.9521 134.123 23.3811 133.657 23.7049C133.177 24.0391 132.64 24.2836 132.073 24.4265C131.471 24.5764 130.852 24.6516 130.231 24.6504H129.543H129.12L128.83 24.609L128.772 28.5983ZM130.008 17.6337H129.303C129.12 17.6337 128.946 17.6337 128.772 17.7084V23.5971C128.857 23.6263 128.947 23.6431 129.037 23.6469H129.402H129.775H130.066C130.473 23.6489 130.878 23.5902 131.268 23.4727C131.634 23.3629 131.971 23.1731 132.255 22.917C132.551 22.6513 132.784 22.3225 132.935 21.9549C133.119 21.5138 133.206 21.0389 133.192 20.5615C133.226 20.1503 133.169 19.7368 133.026 19.35C132.882 18.9632 132.656 18.6123 132.363 18.3221C131.69 17.8089 130.851 17.5636 130.008 17.6337Z" fill="white"/>
<path d="M143.294 27.18C143.294 27.4454 143.294 27.6776 143.294 27.8684C143.294 28.0592 143.294 28.2665 143.294 28.4822L144.546 28.6646V29.0296C144.223 29.1963 143.887 29.3378 143.542 29.4526C143.191 29.5631 142.834 29.6545 142.472 29.7263H142.025C141.898 29.4345 141.822 29.1231 141.801 28.8056C141.801 28.4739 141.801 28.1089 141.751 27.7025H141.66C141.544 28.2477 141.252 28.74 140.83 29.1042C140.586 29.3119 140.304 29.4722 140.001 29.577C139.67 29.7047 139.318 29.7667 138.964 29.7594C138.633 29.7734 138.303 29.7212 137.992 29.6059C137.682 29.4905 137.398 29.3143 137.156 29.0876C136.922 28.8587 136.738 28.5832 136.617 28.2789C136.495 27.9747 136.439 27.6484 136.451 27.321C136.433 26.8419 136.551 26.3674 136.791 25.9525C137.035 25.5881 137.377 25.3005 137.778 25.1231C138.292 24.8947 138.837 24.7438 139.395 24.6752C140.042 24.584 140.789 24.5177 141.635 24.4679C141.684 23.9996 141.698 23.5283 141.676 23.0579C141.669 22.6928 141.602 22.3312 141.477 21.988C141.381 21.7132 141.205 21.4735 140.971 21.2996C140.713 21.1231 140.404 21.0357 140.092 21.0508H139.52C139.304 21.0748 139.092 21.1278 138.889 21.2084L138.06 23.3897H137.679C137.554 23.0247 137.455 22.6515 137.363 22.2617C137.274 21.8856 137.216 21.5028 137.189 21.1171C137.667 20.8277 138.184 20.6071 138.724 20.4619C139.338 20.2995 139.971 20.2214 140.606 20.2297C141.114 20.2084 141.62 20.2961 142.091 20.4868C142.422 20.6411 142.708 20.8782 142.92 21.1752C143.116 21.4488 143.247 21.7638 143.302 22.0958C143.365 22.4321 143.396 22.7738 143.393 23.116C143.393 23.8458 143.393 24.5425 143.393 25.2143C143.393 25.8862 143.294 26.5414 143.294 27.18ZM139.794 28.648C140.081 28.6602 140.367 28.5973 140.623 28.4656C140.84 28.3568 141.037 28.2108 141.203 28.0343C141.349 27.8745 141.477 27.6993 141.585 27.5118C141.668 27.3734 141.735 27.2259 141.784 27.0722V25.1563C141.207 25.1487 140.63 25.1876 140.059 25.2724C139.689 25.3146 139.331 25.4302 139.006 25.6125C138.771 25.7479 138.585 25.954 138.475 26.2013C138.376 26.4665 138.328 26.7479 138.334 27.0307C138.306 27.4705 138.449 27.904 138.732 28.2416C138.872 28.3781 139.038 28.4846 139.221 28.5545C139.403 28.6243 139.598 28.6562 139.794 28.648Z" fill="white"/>
<path d="M149.457 21.8303C149.269 21.9533 149.101 22.1044 148.959 22.2782C148.721 22.5715 148.538 22.906 148.42 23.2652V28.6646C148.667 28.6907 148.911 28.7379 149.15 28.8056C149.404 28.8763 149.649 28.9765 149.88 29.1041V29.5603H145.592V29.1041C145.785 28.9901 145.991 28.8983 146.206 28.8304L146.786 28.6646V21.5649L145.592 21.4239V20.9512C145.978 20.7797 146.377 20.641 146.786 20.5365C147.201 20.437 147.616 20.354 147.972 20.296H148.462V22.2202C148.585 21.9583 148.741 21.7131 148.926 21.4903C149.131 21.2472 149.361 21.0274 149.614 20.8351C149.867 20.6472 150.147 20.499 150.444 20.3955C150.75 20.2885 151.076 20.2545 151.398 20.296C151.49 20.4603 151.568 20.6323 151.63 20.8102C151.696 21.0009 151.763 21.2 151.821 21.3991V21.8718L149.457 21.8303Z" fill="white"/>
<path d="M152.276 20.9261C152.721 20.6342 153.212 20.4183 153.728 20.2875V18.7448C153.904 18.6118 154.089 18.4926 154.284 18.3882C154.488 18.2768 154.698 18.1771 154.914 18.0896H155.37V20.47H158.09V21.4155H155.37V26.6573C155.325 27.194 155.444 27.7318 155.71 28.1999C155.835 28.3516 155.994 28.4713 156.174 28.5492C156.355 28.6271 156.551 28.6609 156.747 28.6478C156.971 28.6478 157.236 28.6478 157.576 28.6478C157.859 28.6224 158.137 28.5639 158.406 28.4736L158.53 28.7473C158.408 28.8764 158.272 28.9905 158.124 29.0874C157.931 29.2185 157.728 29.335 157.518 29.4357C157.283 29.5482 157.039 29.6397 156.788 29.7094C156.518 29.7832 156.239 29.8194 155.959 29.8172C155.655 29.8364 155.35 29.7917 155.064 29.686C154.779 29.5803 154.518 29.416 154.3 29.2035C153.87 28.6336 153.666 27.9244 153.728 27.2129V21.4155H152.276V20.9261Z" fill="white"/>
<path d="M169.238 29.5604H165.332V29.1042C165.676 28.9285 166.034 28.7815 166.402 28.6646V24.3601C166.435 23.6123 166.299 22.8667 166.004 22.1788C165.873 21.9093 165.663 21.6859 165.402 21.5379C165.142 21.3899 164.843 21.3241 164.544 21.3494C163.973 21.3399 163.421 21.5576 163.01 21.9548C162.809 22.1427 162.636 22.3576 162.495 22.5934C162.35 22.8214 162.233 23.0665 162.147 23.3233V28.6314C162.535 28.7132 162.905 28.862 163.242 29.071V29.5272H159.311V29.071C159.695 28.8827 160.098 28.7354 160.513 28.6314V21.565L159.311 21.424V20.9512C159.666 20.8036 160.032 20.6816 160.405 20.5863C160.812 20.4785 161.235 20.379 161.691 20.296H162.147V22.328C162.402 21.7725 162.779 21.2819 163.25 20.8932C163.737 20.4919 164.353 20.2799 164.984 20.296C165.424 20.2895 165.863 20.3482 166.286 20.4702C166.656 20.5743 166.988 20.7849 167.24 21.0757C167.52 21.4157 167.719 21.8159 167.82 22.2451C167.967 22.8364 168.04 23.4438 168.036 24.0532V28.648C168.462 28.7134 168.871 28.8628 169.238 29.0876V29.5604Z" fill="white"/>
<path d="M177.648 28.283C177.544 28.5075 177.391 28.7059 177.2 28.8636C176.983 29.0513 176.744 29.2102 176.486 29.3363C176.223 29.4745 175.945 29.583 175.657 29.6598C175.342 29.736 175.019 29.775 174.695 29.7759C174.049 29.7891 173.407 29.6764 172.804 29.4442C172.278 29.2367 171.811 28.9035 171.444 28.4738C171.068 28.038 170.786 27.5299 170.614 26.9809C170.417 26.3446 170.322 25.6812 170.332 25.0152C170.242 23.7434 170.623 22.4828 171.402 21.4737C171.787 21.0586 172.258 20.7339 172.783 20.523C173.308 20.3122 173.873 20.2205 174.438 20.2545C174.861 20.2541 175.283 20.3127 175.69 20.4286C176.097 20.5329 176.474 20.7286 176.793 21.0009C177.134 21.2881 177.401 21.6519 177.573 22.0625C177.79 22.5878 177.892 23.1534 177.872 23.7213C177.872 23.9287 177.872 24.136 177.872 24.3517C177.852 24.5802 177.819 24.8073 177.772 25.0318H172.099C172.097 25.5138 172.161 25.9938 172.29 26.4583C172.409 26.8741 172.603 27.2647 172.862 27.6112C173.118 27.9405 173.447 28.2048 173.824 28.3825C174.253 28.5802 174.721 28.6767 175.193 28.6645C175.628 28.6644 176.06 28.603 176.478 28.4821C176.839 28.4033 177.177 28.2414 177.465 28.0093L177.648 28.283ZM174.33 21.0507C174.031 21.033 173.732 21.087 173.458 21.2082C173.184 21.3294 172.942 21.5142 172.754 21.7474C172.307 22.4989 172.08 23.3611 172.099 24.2356H176.097C176.097 24.1277 176.097 24.0282 176.097 23.9204C176.097 23.8126 176.097 23.7213 176.097 23.6218C176.13 22.9743 175.98 22.3306 175.665 21.764C175.525 21.5368 175.326 21.351 175.09 21.2257C174.854 21.1004 174.589 21.04 174.322 21.0507H174.33Z" fill="white"/>
<path d="M183.122 21.8302C182.935 21.9532 182.767 22.1043 182.625 22.2781C182.386 22.5714 182.203 22.9059 182.086 23.2651V28.6644C182.332 28.6914 182.576 28.7385 182.815 28.8054C183.069 28.8777 183.314 28.9778 183.545 29.104V29.5602H179.249V29.104C179.445 28.9898 179.654 28.898 179.871 28.8303L180.452 28.6644V21.5648L179.249 21.4238V20.9511C179.638 20.7796 180.04 20.6409 180.452 20.5364C180.866 20.4368 181.281 20.3539 181.629 20.2958H182.086V22.22H182.16C182.284 21.9582 182.44 21.713 182.625 21.4902C182.829 21.2471 183.06 21.0273 183.313 20.8349C183.566 20.6471 183.845 20.4989 184.142 20.3954C184.448 20.2878 184.775 20.2537 185.096 20.2958C185.185 20.4618 185.263 20.6336 185.328 20.8101C185.395 21.0008 185.453 21.1999 185.519 21.3989V21.8717L183.122 21.8302Z" fill="white"/>
<path d="M191.026 27.4869C191.029 27.1806 190.916 26.8845 190.711 26.6575C190.466 26.3991 190.187 26.1758 189.882 25.994C189.55 25.7894 189.201 25.5903 188.836 25.3968C188.466 25.2025 188.116 24.9719 187.791 24.7084C187.464 24.4612 187.183 24.1579 186.962 23.8127C186.739 23.4343 186.629 22.9994 186.647 22.5603C186.644 22.2422 186.721 21.9286 186.871 21.6479C187.023 21.3699 187.229 21.1246 187.476 20.9264C187.745 20.7198 188.048 20.5626 188.372 20.4619C188.722 20.3438 189.089 20.2849 189.459 20.2877C189.997 20.2779 190.535 20.3139 191.068 20.3955C191.478 20.4665 191.883 20.5691 192.278 20.7024C192.229 21.0895 192.171 21.4793 192.104 21.8719C192.037 22.2813 191.943 22.6858 191.822 23.0828H191.366L190.761 21.2001C190.605 21.1339 190.44 21.0919 190.271 21.0756C190.089 21.0756 189.898 21.0756 189.707 21.0756C189.51 21.0732 189.315 21.1128 189.135 21.1918C188.978 21.2658 188.837 21.37 188.72 21.4986C188.603 21.616 188.512 21.7575 188.455 21.9133C188.397 22.0643 188.366 22.2244 188.364 22.3861C188.365 22.6916 188.477 22.9863 188.679 23.2155C188.922 23.4726 189.202 23.6932 189.508 23.8707C189.832 24.0698 190.18 24.2688 190.553 24.4596C190.917 24.6524 191.266 24.8714 191.598 25.1148C191.923 25.3386 192.204 25.6196 192.428 25.9442C192.65 26.2866 192.763 26.6888 192.751 27.0971C192.734 27.4867 192.62 27.8659 192.419 28.2002C192.241 28.5278 191.992 28.8113 191.69 29.0295C191.367 29.2709 191.005 29.4534 190.62 29.5687C190.198 29.697 189.759 29.7613 189.318 29.7594C188.836 29.7644 188.355 29.72 187.883 29.6267C187.421 29.527 186.967 29.3968 186.522 29.2369C186.544 28.8107 186.597 28.3866 186.68 27.9679C186.767 27.5718 186.878 27.1813 187.012 26.7985H187.443L188.272 28.7807C188.415 28.8772 188.582 28.9318 188.754 28.9383H189.276C189.745 28.9594 190.204 28.8023 190.562 28.4987C190.707 28.3734 190.824 28.2182 190.904 28.0435C190.984 27.8689 191.026 27.679 191.026 27.4869Z" fill="white"/>
</svg>
