<svg width="60" height="60" viewBox="0 0 60 60" fill="none" xmlns="http://www.w3.org/2000/svg">
<rect width="60" height="60" fill="#239EBE"/>
<path d="M43.4909 19.5363H15.5091V16.8182C15.5091 16.0966 16.096 15.5091 16.8181 15.5091H42.1818C42.904 15.5091 43.4909 16.0966 43.4909 16.8182V19.5363ZM42.1819 13.9H16.8182C15.2094 13.9 13.9 15.2086 13.9 16.8182V42.1819C13.9 43.7914 15.2094 45.1001 16.8182 45.1001H42.1819C43.7907 45.1001 45.1001 43.7914 45.1001 42.1819V16.8182C45.1 15.2086 43.7907 13.9 42.1819 13.9ZM43.4909 42.1819C43.4909 42.9034 42.904 43.4909 42.1819 43.4909H16.8182C16.096 43.4909 15.5091 42.9034 15.5091 42.1819V21.1455H43.4909V42.1819Z" fill="white" stroke="white" stroke-width="0.2"/>
<path d="M23.4787 34.8125L22.2598 34.5074C21.9016 34.4179 21.6501 34.0966 21.65 33.7274V33.7274V30.9092C21.65 30.5398 21.9015 30.2185 22.2596 30.1289L23.4786 29.8238L22.8312 28.7465L22.8312 28.7465C22.641 28.4298 22.6914 28.0244 22.9522 27.7636L22.9522 27.7635L24.946 25.7711C24.946 25.7711 24.9461 25.771 24.9461 25.771C25.2088 25.5076 25.6142 25.4617 25.9295 25.6499L25.9297 25.65L27.0057 26.2961L27.3101 25.0771L27.3101 25.0771C27.3996 24.7194 27.7218 24.4681 28.091 24.4681H30.9092C31.2784 24.4681 31.6005 24.7194 31.6901 25.0769L31.6901 25.077L31.9945 26.2959L33.0704 25.6499L33.0706 25.6498C33.3859 25.4616 33.7913 25.5074 34.0541 25.7709L23.4787 34.8125ZM23.4787 34.8125L22.8313 35.8898L22.8313 35.8899C22.6411 36.2066 22.6914 36.612 22.9522 36.8728L22.9523 36.8728L24.9462 38.8653L24.9463 38.8654C25.2087 39.1271 25.614 39.1748 25.9296 38.9864L25.9298 38.9863L27.0057 38.3403L27.3101 39.5592L27.3102 39.5593C27.3998 39.9169 27.7218 40.1682 28.091 40.1682H30.9092C31.2784 40.1682 31.6005 39.9169 31.6901 39.5593L31.6901 39.5592L31.9945 38.3403L33.0704 38.9863L33.0706 38.9864C33.3863 39.1748 33.7915 39.1271 34.054 38.8654L34.0541 38.8653L36.0466 36.8728C36.3074 36.612 36.3578 36.2066 36.1676 35.8899L35.5215 34.8125L36.7405 34.5074C37.0987 34.4178 37.3502 34.0965 37.3502 33.7272V30.909C37.3502 30.5397 37.0987 30.2184 36.7405 30.1288L35.5215 29.8237L36.1676 28.7463C36.3578 28.4296 36.3074 28.0242 36.0466 27.7634L34.0542 25.771L23.4787 34.8125ZM27.3604 27.8962C27.1457 28.0001 26.8939 27.9891 26.6888 27.8666L27.3604 27.8962ZM27.3604 27.8962C27.531 27.813 27.7072 27.7442 27.8874 27.6816L27.3604 27.8962ZM24.9587 30.736L24.9586 30.7363C24.8691 30.993 24.657 31.1871 24.3931 31.2531L23.2592 31.5368V33.0994L24.3931 33.3832C24.3931 33.3832 24.3931 33.3832 24.3931 33.3832C24.657 33.4492 24.8691 33.6433 24.9586 33.9L24.9587 33.9003C25.0197 34.0774 25.087 34.2486 25.1685 34.4136L25.169 34.4145C25.2867 34.6594 25.2742 34.9468 25.1344 35.1801L25.1343 35.1802L24.5346 36.179L25.6392 37.2836L26.6373 36.6839C26.8713 36.5434 27.1576 36.53 27.4042 36.6501L27.4042 36.6502C27.5701 36.731 27.7422 36.7984 27.9202 36.8602L27.9204 36.8603C28.1765 36.9498 28.3697 37.162 28.4357 37.4243L28.4358 37.4244L28.7195 38.5589H30.2807L30.5645 37.4244L30.5645 37.4243C30.6305 37.162 30.8237 36.9499 31.0798 36.8603L31.08 36.8602C31.258 36.7984 31.4302 36.731 31.596 36.6502L31.5961 36.6501C31.841 36.5308 32.1301 36.5432 32.363 36.684C32.363 36.684 32.3631 36.684 32.3631 36.6841L33.3609 37.2829L34.4643 36.1789L33.8659 35.1801C33.726 34.9468 33.7135 34.6594 33.8313 34.4146L33.8316 34.4139C33.9131 34.2475 33.9805 34.0748 34.043 33.8958L34.0431 33.8956C34.1327 33.6409 34.3449 33.4484 34.6072 33.3832L24.9587 30.736ZM24.9587 30.736C25.0198 30.5588 25.087 30.3876 25.1685 30.2227L25.1685 30.2227L25.169 30.2217C25.2867 29.9769 25.2742 29.6894 25.1344 29.4561L25.1343 29.4561L24.5346 28.4573L25.6392 27.3527L26.6373 27.9524L26.6376 27.9525C26.8715 28.0922 27.159 28.1048 27.404 27.9862L27.4042 27.9861C27.5701 27.9052 27.7422 27.8379 27.9202 27.776L27.9204 27.776C28.1765 27.6864 28.3697 27.4743 28.4357 27.212L28.4358 27.2118L28.7195 26.0773L24.9587 30.736ZM31.6398 36.74C31.8545 36.6355 32.1078 36.6464 32.3114 36.7696L33.3765 37.4088L34.5902 36.1944L33.9516 35.1287C33.8292 34.9244 33.8181 34.6726 33.9214 34.4579C34.0053 34.2866 34.0742 34.1098 34.1374 33.9288L31.6398 36.74ZM31.6398 36.74C31.4692 36.8233 31.2931 36.8921 31.1128 36.9547L31.6398 36.74ZM35.741 33.0994L34.6073 33.3832L34.6314 31.1561L34.6072 31.2531L34.6073 31.2531L35.741 31.5368V33.0994Z" fill="white" stroke="white" stroke-width="0.2"/>
<path d="M29.4993 35.9409C31.4976 35.9409 33.122 34.3157 33.122 32.3182C33.122 30.3207 31.4975 28.6954 29.4993 28.6954C27.5011 28.6954 25.8766 30.3206 25.8766 32.3181C25.8766 34.3156 27.501 35.9409 29.4993 35.9409ZM29.4993 30.3045C30.6096 30.3045 31.5129 31.2078 31.5129 32.3181C31.5129 33.4284 30.6096 34.3318 29.4993 34.3318C28.389 34.3318 27.4856 33.4284 27.4856 32.3181C27.4856 31.2078 28.389 30.3045 29.4993 30.3045Z" fill="white" stroke="white" stroke-width="0.2"/>
</svg>
