<svg width="68" height="23" viewBox="0 0 68 23" fill="none" xmlns="http://www.w3.org/2000/svg">
<g clip-path="url(#clip0)">
<path d="M25.7977 5.72646C25.7977 5.21727 25.7432 4.70935 25.6348 4.21038C25.434 3.18624 24.8983 2.24771 24.1048 1.52705C23.7006 1.1501 23.2323 0.843436 22.7165 0.621103C22.2135 0.383718 21.6791 0.218726 21.1294 0.131075C20.5842 0.0301306 19.9811 0.0301309 19.4359 -0.0158691H5.96159C5.54182 -0.00860612 5.12293 0.0251094 4.70744 0.0850753C4.29367 0.129798 3.88823 0.230103 3.50333 0.380242L3.12099 0.527186C2.75602 0.709248 2.40765 0.92259 2.07982 1.1648C1.97333 1.26574 1.86042 1.31174 1.75393 1.4063C1.3496 1.74977 1.01118 2.16344 0.755102 2.62721C0.485668 3.08338 0.300913 3.58044 0.209819 4.09666C0.128777 4.59667 0.0743867 5.10061 0.046875 5.60635V17.3012C0.046875 17.8104 0.101403 18.3183 0.209819 18.8173C0.410611 19.8414 0.946271 20.78 1.73982 21.5006C2.13884 21.8648 2.60137 22.1632 3.10623 22.3797C3.60929 22.6171 4.14366 22.7821 4.69333 22.8698C5.23861 22.9707 5.84163 22.9707 6.38691 23.0167H19.4634C20.0312 23.0161 20.5989 22.9669 21.157 22.8698C21.6985 22.7803 22.2239 22.6187 22.7159 22.3868C23.2255 22.1581 23.7021 21.8624 24.133 21.5077C24.5352 21.1595 24.8688 20.7455 25.1177 20.2874C25.3871 19.8312 25.5719 19.3342 25.663 18.8179C25.7443 18.3158 25.7986 17.8097 25.8259 17.3019V5.72646H25.7977Z" fill="#F05138"/>
<path d="M17.2609 17.8041C14.9656 18.9924 11.8132 19.1125 8.64546 17.898C6.17565 16.9569 4.05995 15.3341 2.57422 13.2418C3.26705 13.7318 4.02082 14.1375 4.8195 14.4556C8.09248 15.7973 11.3725 15.7373 13.6749 14.4556C10.6354 12.2655 7.89875 9.72276 5.52773 6.88737C5.11716 6.47592 4.7515 6.02615 4.43716 5.5457C6.92622 7.52626 9.57565 9.32154 12.3572 10.9136C10.3301 8.96695 8.46584 6.87395 6.78252 4.65381C9.59233 7.20617 12.678 9.46848 15.992 11.4037L16.3461 11.5915C16.442 11.3729 16.5249 11.1489 16.5944 10.9207C17.3597 8.42454 16.4879 5.58595 14.5756 3.23804C19.0033 5.63387 21.6245 10.1355 20.5333 13.9062C20.5333 14.0071 20.4768 14.1074 20.4409 14.2084L20.4762 14.2486C22.665 16.6975 22.0633 19.2876 21.7868 18.7975C20.5897 16.7512 18.372 17.3818 17.2597 17.8111L17.2609 17.8041Z" fill="#FEFEFE"/>
<path d="M64.2741 9.07741H59.9747V8.55608C59.9747 8.1408 60.0132 7.72553 60.0465 7.30258C60.0744 6.93701 60.1756 6.58072 60.3442 6.2548C60.4937 5.97369 60.7098 5.73475 60.9729 5.5565C61.311 5.36619 61.6944 5.27039 62.0827 5.27922C62.3199 5.27983 62.5565 5.3038 62.789 5.35077L63.2701 5.52328L63.5678 4.82497C63.3775 4.73744 63.1798 4.6671 62.9769 4.61477C62.7113 4.54066 62.4361 4.50616 62.1603 4.50936C61.6471 4.49339 61.1377 4.60136 60.6758 4.82497C60.2807 5.0358 59.9381 5.33353 59.6764 5.69578C59.4322 6.09453 59.2568 6.53117 59.1574 6.98761C59.0496 7.51469 58.9996 8.052 59.0086 8.59122V9.11255H57.6075V9.81086H59.015V18.2531H59.976V9.77508H64.2753V15.5634C64.2721 15.9506 64.3087 16.3365 64.3857 16.7166C64.4285 17.0401 64.5417 17.3503 64.7174 17.6257C64.8758 17.8851 65.1023 18.0921 65.3845 18.2199C65.7345 18.3702 66.1134 18.442 66.4943 18.4301C66.937 18.4474 67.3777 18.3758 67.7915 18.2193L67.6907 17.5401C67.5432 17.5836 67.3956 17.6187 67.2443 17.6456C67.036 17.6762 66.8253 17.6874 66.6149 17.6788C66.4095 17.6973 66.2027 17.663 66.0144 17.5793C65.826 17.4955 65.6624 17.365 65.5391 17.2002C65.3229 16.7671 65.2209 16.2866 65.2415 15.803V9.8083H67.9602V9.11447H65.2556V7.09175L64.2946 7.36903L64.2741 9.07741ZM30.7231 16.8565C31.1334 17.1245 31.5844 17.3249 32.0587 17.4501C32.5764 17.6047 33.1134 17.6864 33.6535 17.6941C34.508 17.7465 35.3516 17.4858 36.0271 16.9619C36.5788 16.4796 36.89 15.78 36.8771 15.0485C36.9028 14.3955 36.677 13.7579 36.2484 13.2641C35.657 12.7002 34.9486 12.2723 34.1732 12.0106C33.2518 11.7285 32.3961 11.2665 31.6559 10.6516C31.3513 10.3811 31.1104 10.0471 30.9502 9.67329C30.79 9.29951 30.7144 8.89516 30.7289 8.489C30.7311 8.04178 30.8328 7.6006 31.0266 7.19716C31.2252 6.80773 31.5034 6.4639 31.8432 6.18772C32.2004 5.88311 32.6178 5.65653 33.0685 5.52264C33.5689 5.3511 34.0957 5.26849 34.6248 5.27858C35.1726 5.27411 35.7186 5.33225 36.2542 5.45108C36.6009 5.54038 36.9362 5.66878 37.2537 5.83378L36.8835 6.59916C36.6064 6.43114 36.3075 6.30208 35.995 6.21583C35.5294 6.06742 35.0424 5.9964 34.5536 6.00564C34.0882 5.99254 33.6244 6.06376 33.1846 6.21583C32.8422 6.33814 32.5283 6.52855 32.2621 6.7755C32.0555 6.99911 31.8926 7.2585 31.781 7.54089C31.6779 7.79618 31.6273 8.06948 31.6321 8.34461C31.6039 8.98222 31.8464 9.60194 32.2993 10.0524C32.9267 10.5711 33.6426 10.9724 34.4131 11.2388C34.9136 11.428 35.3961 11.6617 35.8546 11.9371C36.2414 12.1709 36.6019 12.445 36.9304 12.7549C37.2039 13.0274 37.4182 13.3532 37.5597 13.7119C37.7102 14.1126 37.785 14.5376 37.7804 14.9654C37.7841 15.4309 37.696 15.8926 37.5212 16.3243C37.3461 16.7543 37.0749 17.1388 36.7283 17.4488C36.3359 17.7861 35.8827 18.0458 35.3927 18.2142C34.7935 18.4058 34.1738 18.4991 33.5387 18.4914C33.241 18.4851 32.9447 18.4608 32.6502 18.4199C32.351 18.3792 32.0544 18.3216 31.7617 18.2474C31.4826 18.1764 31.2096 18.0837 30.9451 17.9701C30.7244 17.8871 30.5133 17.7816 30.3164 17.6545L30.7231 16.8565ZM39.6106 9.11575L41.2054 14.3112L41.6519 15.8126C41.8007 16.2662 41.911 16.7696 42.022 17.1715H42.0939L42.5025 15.8126L43.0221 14.3112L44.8954 9.11575H45.7838L47.5993 14.2396L48.1189 15.8087L48.5276 17.1677H48.5994L48.9696 15.8087L49.4507 14.2729L51.1417 9.11511H52.1027L48.915 18.2531H48.1561L46.3355 13.158C46.1499 12.6043 45.9639 12.0813 45.7774 11.5889L45.3688 10.053H45.3303C45.197 10.5838 45.0366 11.1075 44.8498 11.6221C44.6642 12.1102 44.4782 12.6333 44.2917 13.1912L42.4089 18.2531H41.5954L38.6445 9.11511L39.6106 9.11575ZM54.1709 9.11575H55.1319V18.2531H54.1709V9.11575ZM53.8008 6.32636C53.7982 6.11041 53.8842 5.90341 54.0381 5.75136C54.1921 5.5993 54.4012 5.51689 54.6181 5.52136C54.8336 5.52587 55.0397 5.61029 55.1961 5.75809C55.3524 5.9059 55.4478 6.10648 55.4636 6.32061C55.4645 6.42716 55.4418 6.53261 55.397 6.62937C55.3522 6.72613 55.2864 6.81182 55.2044 6.88027C55.0408 7.02083 54.8298 7.09622 54.6142 7.09111C54.3992 7.08875 54.1912 7.01475 54.0234 6.88091C53.8758 6.73078 53.7924 6.5308 53.788 6.32125L53.8008 6.32636Z" fill="#221F20"/>
</g>
<defs>
<clipPath id="clip0">
<rect width="68" height="23" fill="white"/>
</clipPath>
</defs>
</svg>
