<svg width="32" height="32" viewBox="0 0 32 32" fill="none" xmlns="http://www.w3.org/2000/svg">
<path d="M28.6627 0H3.10202C1.38882 0 0 1.38882 0 3.10202V28.6627C0 30.3759 1.38882 31.7647 3.10202 31.7647H28.6627C30.3759 31.7647 31.7647 30.3759 31.7647 28.6627V3.10202C31.7647 1.38882 30.3759 0 28.6627 0Z" fill="#3178C6"/>
<path fill-rule="evenodd" clip-rule="evenodd" d="M19.6664 25.2505V28.3526C20.1689 28.6131 20.7831 28.8055 21.4655 28.9357C22.148 29.066 22.8925 29.1281 23.6369 29.1281C24.3814 29.1281 25.0639 29.0598 25.7463 28.9171C26.4288 28.7744 26.9871 28.5387 27.4835 28.2347C27.986 27.9059 28.4141 27.4902 28.6622 26.9318C28.9104 26.3735 29.1027 25.7531 29.1027 24.9465C29.1027 24.382 29.0159 23.8918 28.8483 23.4576C28.6808 23.0233 28.4389 22.651 28.1039 22.3408C27.7875 22.012 27.4214 21.7204 26.9871 21.4723C26.5529 21.2241 26.0565 20.9635 25.4982 20.7278C25.0887 20.5603 24.7537 20.399 24.3814 20.2377C24.0588 20.0764 23.7796 19.9151 23.5749 19.7538C23.3454 19.5862 23.1716 19.4125 23.0476 19.2326C22.9235 19.0465 22.8614 18.8418 22.8614 18.6122C22.8614 18.4013 22.9167 18.2089 23.029 18.0352C23.1412 17.8615 23.2957 17.7188 23.4943 17.5947C23.6928 17.4707 23.9409 17.3776 24.2387 17.3094C24.5303 17.2411 24.8529 17.2101 25.2314 17.2101C25.492 17.2101 25.7649 17.2293 26.0379 17.2684C26.3233 17.3075 26.6149 17.3677 26.9065 17.4483C27.1981 17.529 27.4835 17.6282 27.775 17.7523C28.048 17.8764 28.3024 18.0191 28.5195 18.1804V15.2645C28.048 15.0846 27.5269 14.9481 26.9685 14.8612C26.4102 14.7744 25.7898 14.731 25.0453 14.731C24.3008 14.731 23.6183 14.8116 22.9359 14.9667C22.2534 15.1218 21.6951 15.37 21.1988 15.7112C20.6962 16.0462 20.3302 16.4557 20.02 17.014C19.7284 17.5352 19.5857 18.1308 19.5857 18.8753C19.5857 19.8059 19.8525 20.6124 20.3922 21.2328C20.9258 21.9152 21.7571 22.4116 22.8118 22.9079C23.2399 23.0816 23.6183 23.2553 23.9906 23.4228C24.3628 23.5903 24.673 23.764 24.9212 23.944C25.188 24.1239 25.3989 24.3224 25.5416 24.5333C25.6967 24.7443 25.7773 24.9924 25.7773 25.2778C25.7773 25.4764 25.729 25.6625 25.6347 25.8362C25.5404 26.0099 25.3927 26.1588 25.1942 26.2829C24.9956 26.407 24.7537 26.5062 24.4497 26.5807C24.1581 26.6489 23.8293 26.6861 23.395 26.6861C22.7125 26.6861 22.0301 26.5683 21.4097 26.3325C20.7273 26.0968 20.1068 25.7431 19.5485 25.2778L19.6664 25.2505ZM14.455 17.6196H18.4256V15.0759H7.32031V17.6196H11.2909V28.973H14.455V17.6196Z" fill="white"/>
</svg>
