<svg width="23" height="18" viewBox="0 0 23 18" fill="none" xmlns="http://www.w3.org/2000/svg">
<path d="M22.6899 2.10133C21.8775 2.45769 21.0118 2.6939 20.1093 2.8086C21.0378 2.25425 21.7464 1.38313 22.0796 0.333154C21.2139 0.849269 20.2582 1.21383 19.2396 1.41727C18.4176 0.542058 17.2461 0 15.9681 0C13.4886 0 11.4924 2.01258 11.4924 4.47983C11.4924 4.83483 11.5224 5.17617 11.5962 5.50113C7.87275 5.31954 4.57808 3.53498 2.36479 0.8165C1.97838 1.4869 1.75173 2.25425 1.75173 3.08031C1.75173 4.63138 2.55048 6.00633 3.7411 6.80235C3.02154 6.78869 2.31563 6.57979 1.7176 6.25073C1.7176 6.26438 1.7176 6.28213 1.7176 6.29988C1.7176 8.47631 3.27004 10.2841 5.30583 10.7005C4.94127 10.8002 4.54394 10.848 4.1316 10.848C3.84487 10.848 3.5554 10.8316 3.28369 10.7715C3.86398 12.5452 5.51063 13.8491 7.4686 13.8914C5.94483 15.0834 4.01008 15.8016 1.91558 15.8016C1.54829 15.8016 1.19602 15.7852 0.84375 15.7402C2.82765 17.0195 5.17885 17.75 7.71437 17.75C15.9558 17.75 20.4616 10.9231 20.4616 5.0055C20.4616 4.80752 20.4548 4.61637 20.4452 4.42658C21.3341 3.79577 22.0809 3.00794 22.6899 2.10133Z" fill="#1B1C1F"/>
</svg>
