<svg width="30" height="30" viewBox="0 0 30 30" fill="none" xmlns="http://www.w3.org/2000/svg">
<rect x="0.75" y="0.75" width="28.5" height="28.5" stroke="#B7B3B2" stroke-width="1.5"/>
<path d="M15 22C12.7941 22 11 20.0377 11 17.625V11.5C11 11.1774 11.239 10.9167 11.5333 10.9167C11.8277 10.9167 12.0667 11.1774 12.0667 11.5V17.625C12.0667 19.3937 13.3824 20.8333 15 20.8333C16.6176 20.8333 17.9333 19.3937 17.9333 17.625V11.2083C17.9333 10.0825 17.096 9.1667 16.0667 9.1667C15.0373 9.1667 14.2 10.0825 14.2 11.2083V17.0417C14.2 17.5241 14.5589 17.9167 15 17.9167C15.4411 17.9167 15.8 17.5241 15.8 17.0417V11.5C15.8 11.1774 16.039 10.9167 16.3333 10.9167C16.6277 10.9167 16.8667 11.1774 16.8667 11.5V17.0417C16.8667 18.1675 16.0293 19.0833 15 19.0833C13.9707 19.0833 13.1333 18.1675 13.1333 17.0417V11.2083C13.1333 9.43971 14.449 8 16.0667 8C17.6843 8 19 9.43971 19 11.2083V17.625C19 20.0377 17.2059 22 15 22Z" fill="#2DA1C5"/>
</svg>
