<svg width="403" height="352" viewBox="0 0 403 352" fill="none" xmlns="http://www.w3.org/2000/svg">
<g opacity="0.6">
<path d="M65.3418 276.729L129.547 313.864L65.3418 351V276.729Z" stroke="#1C78AB" stroke-width="0.129" stroke-miterlimit="10"/>
<path d="M129.546 91.1867L65.2051 128.322L129.546 165.458V91.1867ZM129.546 165.322L65.2051 202.458L129.546 239.593V165.322ZM65.3411 54.051L129.682 91.1867L65.3411 128.322V54.051ZM65.3411 128.322L129.682 165.458L65.3411 202.594V128.322Z" stroke="#1C78AB" stroke-width="0.129" stroke-miterlimit="10"/>
<path d="M1 1L65.3412 38.1356L1 75.2713V1ZM1 165.322L65.3412 202.457L1 239.593V165.322ZM1 239.593L65.3412 276.729L1 313.864V239.593ZM65.3412 54.0509L1 91.1866L65.3412 128.322V54.0509ZM65.3412 128.322L1 165.458L65.3412 202.593V128.322ZM65.3412 276.729L1 313.864L65.3412 351V276.729ZM65.3412 202.457L1 239.593L65.3412 276.729V202.457ZM129.546 239.593L65.3412 276.729L129.682 313.864V239.593H129.546Z" stroke="#1C78AB" stroke-width="0.129" stroke-miterlimit="10"/>
<path d="M193.888 202.457L129.547 239.593L193.888 276.729V202.457Z" stroke="#1C78AB" stroke-width="0.129" stroke-miterlimit="10"/>
<path d="M129.547 239.593L193.888 276.729L129.547 313.865V239.593Z" stroke="#1C78AB" stroke-width="0.129" stroke-miterlimit="10"/>
<path d="M129.547 165.322L193.888 202.458L129.547 239.593V165.322Z" stroke="#1C78AB" stroke-width="0.129" stroke-miterlimit="10"/>
<path d="M50.1064 305.567H50.6506L98.8045 277.681L50.1064 249.523V305.567Z" fill="#22407B"/>
<path d="M50.1064 136.892L98.8045 165.05L50.1064 193.208V136.892Z" fill="#1B9DBF"/>
<path d="M50.1064 80.5767L98.8045 108.734L50.1064 136.892V80.5767Z" fill="#22407B"/>
<path d="M98.8045 165.05L50.1064 193.208L98.8045 221.365V165.05Z" fill="#6DBECF"/>
<path d="M98.8045 108.734L50.1064 136.892L98.8045 165.05V108.734Z" fill="#1C78AB"/>
<path d="M98.8045 221.366L50.1064 249.524L98.8045 277.681V221.366Z" fill="#6DBECF"/>
<path d="M147.639 193.208L98.8047 221.365L147.639 249.523V193.208Z" fill="#1C78AB"/>
<path d="M98.8047 221.366L147.639 249.524L98.8047 277.681V221.366Z" fill="#1B9DBF"/>
<path d="M98.8047 165.05L147.639 193.208L98.8047 221.365V165.05Z" fill="#22407B"/>
<path d="M269.062 295.464L264.957 240.804L314.304 264.666L269.062 295.464ZM302.426 58.3064L306.531 112.966L257.184 89.1047L302.426 58.3064Z" stroke="#1C78AB" stroke-width="0.129" stroke-miterlimit="10"/>
<path d="M1.54492 221.229V221.501L50.1069 249.523V193.208L1.54492 221.229Z" fill="#22407B"/>
<path d="M1.54492 277.545V277.817L49.5628 305.566H50.1069V249.523L1.54492 277.545Z" fill="#1C78AB"/>
<path d="M1.54492 164.914V165.186L50.1069 193.207V136.892L1.54492 164.914Z" fill="#6DBECF"/>
<path d="M1.54492 108.598V108.87L50.1069 136.892V80.5762L1.54492 108.598Z" fill="#6DBECF"/>
<path d="M1.54492 277.545L50.1069 249.523L1.54492 221.501V277.545Z" fill="#1B9DBF"/>
<path d="M1.54492 221.229L50.1069 193.207L1.54492 165.186V221.229Z" fill="#1B9DBF"/>
<path d="M1.54492 96.4918L50.1069 68.47L1.54492 40.4482V96.4918Z" fill="#1B9DBF"/>
</g>
</svg>
