<svg width="118" height="39" viewBox="0 0 118 39" fill="none" xmlns="http://www.w3.org/2000/svg">
<path fill-rule="evenodd" clip-rule="evenodd" d="M20.3135 7.52808L13.3664 28.4L7.03566 7.61618H0L10.3321 38.6155H15.9163L22.7755 18.0524L29.5027 38.6155H35.0869L45.463 7.61618H38.5604L32.2285 28.4L25.238 7.52808H20.3135Z" fill="#647883"/>
<path fill-rule="evenodd" clip-rule="evenodd" d="M45.8652 38.6155V16.6429H52.0635V21.4878C53.9797 15.8135 60.4181 16.6563 60.4181 16.6563V22.7322C60.4181 22.7322 52.0635 22.1109 52.0635 28.913V38.6155H45.8652Z" fill="#647883"/>
<path fill-rule="evenodd" clip-rule="evenodd" d="M63.3184 38.6157V25.0838L69.5166 19.1626V38.6157H63.3184Z" fill="#647883"/>
<path fill-rule="evenodd" clip-rule="evenodd" d="M74.7188 38.6156V14.3524L80.917 8.15479V24.6571L88.4799 16.643H96.0862L86.5452 26.5507L97.5816 38.6156H89.5789L80.917 29.149V38.6156H74.7188Z" fill="#647883"/>
<mask id="mask0" mask-type="alpha" maskUnits="userSpaceOnUse" x="96" y="16" width="22" height="23">
<path d="M107.075 38.8891H117.881V16.0703H96.2695V38.8891H107.075Z" fill="white"/>
</mask>
<g mask="url(#mask0)">
<path fill-rule="evenodd" clip-rule="evenodd" d="M111.848 25.2413C111.719 22.8505 110.026 20.8949 107.292 20.8949C104.515 20.8949 102.648 22.6772 102.344 25.2413H111.848ZM99.7408 35.7593C97.4403 33.6733 96.2695 30.8918 96.2695 27.4577C96.2695 24.2421 97.3107 21.5469 99.393 19.3734C101.476 17.1571 104.211 16.0703 107.553 16.0703C110.721 16.0703 113.194 17.2005 115.06 19.4175C116.926 21.6339 117.882 24.3284 117.882 27.5452V29.153H102.344C102.995 32.1084 105.773 33.6733 109.592 33.6733C112.023 33.6733 114.323 33.0207 116.536 31.7612V36.6722C114.584 38.1502 111.848 38.8891 108.29 38.8891C104.905 38.8891 102.041 37.8459 99.7408 35.7593Z" fill="#647883"/>
</g>
<path fill-rule="evenodd" clip-rule="evenodd" d="M75.9219 0.25708L62.0566 14.1431L66.1772 18.2699L84.1625 0.25708H75.9219Z" fill="#00A550"/>
<path fill-rule="evenodd" clip-rule="evenodd" d="M63.7009 7.53735H55.4609L66.1768 18.2698L70.2968 14.143L63.7009 7.53735Z" fill="#A5CD38"/>
</svg>
