<svg width="57" height="57" viewBox="0 0 57 57" fill="none" xmlns="http://www.w3.org/2000/svg">
<path d="M57 0H0V57H57V0Z" fill="#3A3A3A"/>
<path d="M7.86426 23.37H13.4396L17.4474 31.9111L21.1969 23.37H26.3358L17.1 43.8544H12.0413L15.0071 37.6645" fill="white"/>
<path d="M25.8193 15.0872H31.1364V37.5754H25.8193" fill="white"/>
<path d="M38.421 21.0454C37.3659 21.0742 36.3269 21.3111 35.3636 21.7425C34.4003 22.1738 33.5317 22.7912 32.8077 23.5591C32.0836 24.3271 31.5183 25.2304 31.1443 26.2174C30.7702 27.2044 30.5948 28.2555 30.628 29.3104C30.5948 30.3653 30.7702 31.4165 31.1443 32.4034C31.5183 33.3904 32.0836 34.2938 32.8077 35.0617C33.5317 35.8296 34.4003 36.447 35.3636 36.8784C36.3269 37.3097 37.3659 37.5466 38.421 37.5754C39.476 37.5466 40.515 37.3097 41.4783 36.8784C42.4416 36.447 43.3102 35.8296 44.0343 35.0617C44.7583 34.2938 45.3236 33.3904 45.6977 32.4034C46.0717 31.4165 46.2472 30.3653 46.2139 29.3104C46.2472 28.2555 46.0717 27.2044 45.6977 26.2174C45.3236 25.2304 44.7583 24.3271 44.0343 23.5591C43.3102 22.7912 42.4416 22.1738 41.4783 21.7425C40.515 21.3111 39.476 21.0742 38.421 21.0454ZM38.421 32.9263C37.6839 32.9281 36.9629 32.711 36.3493 32.3027C35.7358 31.8943 35.2572 31.3129 34.9743 30.6323C34.6915 29.9517 34.617 29.2024 34.7604 28.4794C34.9037 27.7565 35.2585 27.0923 35.7796 26.5711C36.3008 26.0499 36.965 25.6952 37.688 25.5518C38.4109 25.4085 39.1602 25.4829 39.8408 25.7658C40.5215 26.0487 41.1028 26.5272 41.5112 27.1408C41.9196 27.7544 42.1366 28.4754 42.1349 29.2124C42.1372 29.7021 42.0429 30.1874 41.8575 30.6405C41.672 31.0937 41.3989 31.5058 41.0539 31.8532C40.709 32.2007 40.2988 32.4767 39.847 32.6654C39.3952 32.8542 38.9106 32.9519 38.421 32.9531V32.9263Z" fill="white"/>
<path d="M41.9395 15.0872H47.0427V37.5754H42.1354" fill="white"/>
<path d="M17.3316 23.5749C19.4024 23.5749 21.0811 21.8961 21.0811 19.8253C21.0811 17.7545 19.4024 16.0758 17.3316 16.0758C15.2608 16.0758 13.582 17.7545 13.582 19.8253C13.582 21.8961 15.2608 23.5749 17.3316 23.5749Z" fill="white"/>
</svg>
